G04 #@! TF.GenerationSoftware,KiCad,Pcbnew,5.1.7-a382d34a8~87~ubuntu18.04.1*
G04 #@! TF.CreationDate,2021-01-14T14:21:36+00:00*
G04 #@! TF.ProjectId,at2-panel,6174322d-7061-46e6-956c-2e6b69636164,rev?*
G04 #@! TF.SameCoordinates,Original*
G04 #@! TF.FileFunction,Copper,L2,Bot*
G04 #@! TF.FilePolarity,Positive*
%FSLAX46Y46*%
G04 Gerber Fmt 4.6, Leading zero omitted, Abs format (unit mm)*
G04 Created by KiCad (PCBNEW 5.1.7-a382d34a8~87~ubuntu18.04.1) date 2021-01-14 14:21:36*
%MOMM*%
%LPD*%
G01*
G04 APERTURE LIST*
G04 #@! TA.AperFunction,NonConductor*
%ADD10C,0.254000*%
G04 #@! TD*
G04 #@! TA.AperFunction,NonConductor*
%ADD11C,0.100000*%
G04 #@! TD*
G04 APERTURE END LIST*
D10*
X128604748Y-38140200D02*
X128196340Y-38309368D01*
X127828783Y-38554961D01*
X127516201Y-38867543D01*
X127270608Y-39235100D01*
X127101440Y-39643508D01*
X127015198Y-40077071D01*
X127015198Y-40519129D01*
X127101440Y-40952692D01*
X127270608Y-41361100D01*
X127516201Y-41728657D01*
X127828783Y-42041239D01*
X128196340Y-42286832D01*
X128604748Y-42456000D01*
X129038311Y-42542242D01*
X129480369Y-42542242D01*
X129913932Y-42456000D01*
X130322340Y-42286832D01*
X130689897Y-42041239D01*
X130844340Y-41886796D01*
X130844341Y-161209405D01*
X130689897Y-161054961D01*
X130322340Y-160809368D01*
X129913932Y-160640200D01*
X129480369Y-160553958D01*
X129038311Y-160553958D01*
X128604748Y-160640200D01*
X128196340Y-160809368D01*
X127828783Y-161054961D01*
X127516201Y-161367543D01*
X127270608Y-161735100D01*
X127101440Y-162143508D01*
X127015198Y-162577071D01*
X127015198Y-163019129D01*
X127101440Y-163452692D01*
X127270608Y-163861100D01*
X127516201Y-164228657D01*
X127828783Y-164541239D01*
X128196340Y-164786832D01*
X128604748Y-164956000D01*
X129038311Y-165042242D01*
X129480369Y-165042242D01*
X129913932Y-164956000D01*
X130322340Y-164786832D01*
X130689897Y-164541239D01*
X130844341Y-164386795D01*
X130844341Y-165063100D01*
X122494340Y-165063100D01*
X122494340Y-139200046D01*
X122937421Y-139200046D01*
X122937421Y-139936154D01*
X123081029Y-140658119D01*
X123362726Y-141338195D01*
X123771686Y-141950247D01*
X124292193Y-142470754D01*
X124904245Y-142879714D01*
X125584321Y-143161411D01*
X126306286Y-143305019D01*
X127042394Y-143305019D01*
X127764359Y-143161411D01*
X128444435Y-142879714D01*
X129056487Y-142470754D01*
X129576994Y-141950247D01*
X129985954Y-141338195D01*
X130267651Y-140658119D01*
X130411259Y-139936154D01*
X130411259Y-139200046D01*
X130267651Y-138478081D01*
X129985954Y-137798005D01*
X129576994Y-137185953D01*
X129056487Y-136665446D01*
X128444435Y-136256486D01*
X127764359Y-135974789D01*
X127042394Y-135831181D01*
X126306286Y-135831181D01*
X125584321Y-135974789D01*
X124904245Y-136256486D01*
X124292193Y-136665446D01*
X123771686Y-137185953D01*
X123362726Y-137798005D01*
X123081029Y-138478081D01*
X122937421Y-139200046D01*
X122494340Y-139200046D01*
X122494340Y-122665541D01*
X122688626Y-122665541D01*
X122688626Y-123450659D01*
X122841795Y-124220690D01*
X123142246Y-124946043D01*
X123578434Y-125598844D01*
X124133596Y-126154006D01*
X124786397Y-126590194D01*
X125511750Y-126890645D01*
X126281781Y-127043814D01*
X127066899Y-127043814D01*
X127836930Y-126890645D01*
X128562283Y-126590194D01*
X129215084Y-126154006D01*
X129770246Y-125598844D01*
X130206434Y-124946043D01*
X130506885Y-124220690D01*
X130660054Y-123450659D01*
X130660054Y-122665541D01*
X130506885Y-121895510D01*
X130206434Y-121170157D01*
X129770246Y-120517356D01*
X129215084Y-119962194D01*
X128562283Y-119526006D01*
X127836930Y-119225555D01*
X127066899Y-119072386D01*
X126281781Y-119072386D01*
X125511750Y-119225555D01*
X124786397Y-119526006D01*
X124133596Y-119962194D01*
X123578434Y-120517356D01*
X123142246Y-121170157D01*
X122841795Y-121895510D01*
X122688626Y-122665541D01*
X122494340Y-122665541D01*
X122494340Y-109990046D01*
X122937421Y-109990046D01*
X122937421Y-110726154D01*
X123081029Y-111448119D01*
X123362726Y-112128195D01*
X123771686Y-112740247D01*
X124292193Y-113260754D01*
X124904245Y-113669714D01*
X125584321Y-113951411D01*
X126306286Y-114095019D01*
X127042394Y-114095019D01*
X127764359Y-113951411D01*
X128444435Y-113669714D01*
X129056487Y-113260754D01*
X129576994Y-112740247D01*
X129985954Y-112128195D01*
X130267651Y-111448119D01*
X130411259Y-110726154D01*
X130411259Y-109990046D01*
X130267651Y-109268081D01*
X129985954Y-108588005D01*
X129576994Y-107975953D01*
X129056487Y-107455446D01*
X128444435Y-107046486D01*
X127764359Y-106764789D01*
X127042394Y-106621181D01*
X126306286Y-106621181D01*
X125584321Y-106764789D01*
X124904245Y-107046486D01*
X124292193Y-107455446D01*
X123771686Y-107975953D01*
X123362726Y-108588005D01*
X123081029Y-109268081D01*
X122937421Y-109990046D01*
X122494340Y-109990046D01*
X122494340Y-95380046D01*
X122937421Y-95380046D01*
X122937421Y-96116154D01*
X123081029Y-96838119D01*
X123362726Y-97518195D01*
X123771686Y-98130247D01*
X124292193Y-98650754D01*
X124904245Y-99059714D01*
X125584321Y-99341411D01*
X126306286Y-99485019D01*
X127042394Y-99485019D01*
X127764359Y-99341411D01*
X128444435Y-99059714D01*
X129056487Y-98650754D01*
X129576994Y-98130247D01*
X129985954Y-97518195D01*
X130267651Y-96838119D01*
X130411259Y-96116154D01*
X130411259Y-95380046D01*
X130267651Y-94658081D01*
X129985954Y-93978005D01*
X129576994Y-93365953D01*
X129056487Y-92845446D01*
X128444435Y-92436486D01*
X127764359Y-92154789D01*
X127042394Y-92011181D01*
X126306286Y-92011181D01*
X125584321Y-92154789D01*
X124904245Y-92436486D01*
X124292193Y-92845446D01*
X123771686Y-93365953D01*
X123362726Y-93978005D01*
X123081029Y-94658081D01*
X122937421Y-95380046D01*
X122494340Y-95380046D01*
X122494340Y-78205541D01*
X122688626Y-78205541D01*
X122688626Y-78990659D01*
X122841795Y-79760690D01*
X123142246Y-80486043D01*
X123578434Y-81138844D01*
X124133596Y-81694006D01*
X124786397Y-82130194D01*
X125511750Y-82430645D01*
X126281781Y-82583814D01*
X127066899Y-82583814D01*
X127836930Y-82430645D01*
X128562283Y-82130194D01*
X129215084Y-81694006D01*
X129770246Y-81138844D01*
X130206434Y-80486043D01*
X130506885Y-79760690D01*
X130660054Y-78990659D01*
X130660054Y-78205541D01*
X130506885Y-77435510D01*
X130206434Y-76710157D01*
X129770246Y-76057356D01*
X129215084Y-75502194D01*
X128562283Y-75066006D01*
X127836930Y-74765555D01*
X127066899Y-74612386D01*
X126281781Y-74612386D01*
X125511750Y-74765555D01*
X124786397Y-75066006D01*
X124133596Y-75502194D01*
X123578434Y-76057356D01*
X123142246Y-76710157D01*
X122841795Y-77435510D01*
X122688626Y-78205541D01*
X122494340Y-78205541D01*
X122494340Y-64890046D01*
X122937421Y-64890046D01*
X122937421Y-65626154D01*
X123081029Y-66348119D01*
X123362726Y-67028195D01*
X123771686Y-67640247D01*
X124292193Y-68160754D01*
X124904245Y-68569714D01*
X125584321Y-68851411D01*
X126306286Y-68995019D01*
X127042394Y-68995019D01*
X127764359Y-68851411D01*
X128444435Y-68569714D01*
X129056487Y-68160754D01*
X129576994Y-67640247D01*
X129985954Y-67028195D01*
X130267651Y-66348119D01*
X130411259Y-65626154D01*
X130411259Y-64890046D01*
X130267651Y-64168081D01*
X129985954Y-63488005D01*
X129576994Y-62875953D01*
X129056487Y-62355446D01*
X128444435Y-61946486D01*
X127764359Y-61664789D01*
X127042394Y-61521181D01*
X126306286Y-61521181D01*
X125584321Y-61664789D01*
X124904245Y-61946486D01*
X124292193Y-62355446D01*
X123771686Y-62875953D01*
X123362726Y-63488005D01*
X123081029Y-64168081D01*
X122937421Y-64890046D01*
X122494340Y-64890046D01*
X122494340Y-38133100D01*
X128640442Y-38133100D01*
X128604748Y-38140200D01*
G04 #@! TA.AperFunction,NonConductor*
D11*
G36*
X128604748Y-38140200D02*
G01*
X128196340Y-38309368D01*
X127828783Y-38554961D01*
X127516201Y-38867543D01*
X127270608Y-39235100D01*
X127101440Y-39643508D01*
X127015198Y-40077071D01*
X127015198Y-40519129D01*
X127101440Y-40952692D01*
X127270608Y-41361100D01*
X127516201Y-41728657D01*
X127828783Y-42041239D01*
X128196340Y-42286832D01*
X128604748Y-42456000D01*
X129038311Y-42542242D01*
X129480369Y-42542242D01*
X129913932Y-42456000D01*
X130322340Y-42286832D01*
X130689897Y-42041239D01*
X130844340Y-41886796D01*
X130844341Y-161209405D01*
X130689897Y-161054961D01*
X130322340Y-160809368D01*
X129913932Y-160640200D01*
X129480369Y-160553958D01*
X129038311Y-160553958D01*
X128604748Y-160640200D01*
X128196340Y-160809368D01*
X127828783Y-161054961D01*
X127516201Y-161367543D01*
X127270608Y-161735100D01*
X127101440Y-162143508D01*
X127015198Y-162577071D01*
X127015198Y-163019129D01*
X127101440Y-163452692D01*
X127270608Y-163861100D01*
X127516201Y-164228657D01*
X127828783Y-164541239D01*
X128196340Y-164786832D01*
X128604748Y-164956000D01*
X129038311Y-165042242D01*
X129480369Y-165042242D01*
X129913932Y-164956000D01*
X130322340Y-164786832D01*
X130689897Y-164541239D01*
X130844341Y-164386795D01*
X130844341Y-165063100D01*
X122494340Y-165063100D01*
X122494340Y-139200046D01*
X122937421Y-139200046D01*
X122937421Y-139936154D01*
X123081029Y-140658119D01*
X123362726Y-141338195D01*
X123771686Y-141950247D01*
X124292193Y-142470754D01*
X124904245Y-142879714D01*
X125584321Y-143161411D01*
X126306286Y-143305019D01*
X127042394Y-143305019D01*
X127764359Y-143161411D01*
X128444435Y-142879714D01*
X129056487Y-142470754D01*
X129576994Y-141950247D01*
X129985954Y-141338195D01*
X130267651Y-140658119D01*
X130411259Y-139936154D01*
X130411259Y-139200046D01*
X130267651Y-138478081D01*
X129985954Y-137798005D01*
X129576994Y-137185953D01*
X129056487Y-136665446D01*
X128444435Y-136256486D01*
X127764359Y-135974789D01*
X127042394Y-135831181D01*
X126306286Y-135831181D01*
X125584321Y-135974789D01*
X124904245Y-136256486D01*
X124292193Y-136665446D01*
X123771686Y-137185953D01*
X123362726Y-137798005D01*
X123081029Y-138478081D01*
X122937421Y-139200046D01*
X122494340Y-139200046D01*
X122494340Y-122665541D01*
X122688626Y-122665541D01*
X122688626Y-123450659D01*
X122841795Y-124220690D01*
X123142246Y-124946043D01*
X123578434Y-125598844D01*
X124133596Y-126154006D01*
X124786397Y-126590194D01*
X125511750Y-126890645D01*
X126281781Y-127043814D01*
X127066899Y-127043814D01*
X127836930Y-126890645D01*
X128562283Y-126590194D01*
X129215084Y-126154006D01*
X129770246Y-125598844D01*
X130206434Y-124946043D01*
X130506885Y-124220690D01*
X130660054Y-123450659D01*
X130660054Y-122665541D01*
X130506885Y-121895510D01*
X130206434Y-121170157D01*
X129770246Y-120517356D01*
X129215084Y-119962194D01*
X128562283Y-119526006D01*
X127836930Y-119225555D01*
X127066899Y-119072386D01*
X126281781Y-119072386D01*
X125511750Y-119225555D01*
X124786397Y-119526006D01*
X124133596Y-119962194D01*
X123578434Y-120517356D01*
X123142246Y-121170157D01*
X122841795Y-121895510D01*
X122688626Y-122665541D01*
X122494340Y-122665541D01*
X122494340Y-109990046D01*
X122937421Y-109990046D01*
X122937421Y-110726154D01*
X123081029Y-111448119D01*
X123362726Y-112128195D01*
X123771686Y-112740247D01*
X124292193Y-113260754D01*
X124904245Y-113669714D01*
X125584321Y-113951411D01*
X126306286Y-114095019D01*
X127042394Y-114095019D01*
X127764359Y-113951411D01*
X128444435Y-113669714D01*
X129056487Y-113260754D01*
X129576994Y-112740247D01*
X129985954Y-112128195D01*
X130267651Y-111448119D01*
X130411259Y-110726154D01*
X130411259Y-109990046D01*
X130267651Y-109268081D01*
X129985954Y-108588005D01*
X129576994Y-107975953D01*
X129056487Y-107455446D01*
X128444435Y-107046486D01*
X127764359Y-106764789D01*
X127042394Y-106621181D01*
X126306286Y-106621181D01*
X125584321Y-106764789D01*
X124904245Y-107046486D01*
X124292193Y-107455446D01*
X123771686Y-107975953D01*
X123362726Y-108588005D01*
X123081029Y-109268081D01*
X122937421Y-109990046D01*
X122494340Y-109990046D01*
X122494340Y-95380046D01*
X122937421Y-95380046D01*
X122937421Y-96116154D01*
X123081029Y-96838119D01*
X123362726Y-97518195D01*
X123771686Y-98130247D01*
X124292193Y-98650754D01*
X124904245Y-99059714D01*
X125584321Y-99341411D01*
X126306286Y-99485019D01*
X127042394Y-99485019D01*
X127764359Y-99341411D01*
X128444435Y-99059714D01*
X129056487Y-98650754D01*
X129576994Y-98130247D01*
X129985954Y-97518195D01*
X130267651Y-96838119D01*
X130411259Y-96116154D01*
X130411259Y-95380046D01*
X130267651Y-94658081D01*
X129985954Y-93978005D01*
X129576994Y-93365953D01*
X129056487Y-92845446D01*
X128444435Y-92436486D01*
X127764359Y-92154789D01*
X127042394Y-92011181D01*
X126306286Y-92011181D01*
X125584321Y-92154789D01*
X124904245Y-92436486D01*
X124292193Y-92845446D01*
X123771686Y-93365953D01*
X123362726Y-93978005D01*
X123081029Y-94658081D01*
X122937421Y-95380046D01*
X122494340Y-95380046D01*
X122494340Y-78205541D01*
X122688626Y-78205541D01*
X122688626Y-78990659D01*
X122841795Y-79760690D01*
X123142246Y-80486043D01*
X123578434Y-81138844D01*
X124133596Y-81694006D01*
X124786397Y-82130194D01*
X125511750Y-82430645D01*
X126281781Y-82583814D01*
X127066899Y-82583814D01*
X127836930Y-82430645D01*
X128562283Y-82130194D01*
X129215084Y-81694006D01*
X129770246Y-81138844D01*
X130206434Y-80486043D01*
X130506885Y-79760690D01*
X130660054Y-78990659D01*
X130660054Y-78205541D01*
X130506885Y-77435510D01*
X130206434Y-76710157D01*
X129770246Y-76057356D01*
X129215084Y-75502194D01*
X128562283Y-75066006D01*
X127836930Y-74765555D01*
X127066899Y-74612386D01*
X126281781Y-74612386D01*
X125511750Y-74765555D01*
X124786397Y-75066006D01*
X124133596Y-75502194D01*
X123578434Y-76057356D01*
X123142246Y-76710157D01*
X122841795Y-77435510D01*
X122688626Y-78205541D01*
X122494340Y-78205541D01*
X122494340Y-64890046D01*
X122937421Y-64890046D01*
X122937421Y-65626154D01*
X123081029Y-66348119D01*
X123362726Y-67028195D01*
X123771686Y-67640247D01*
X124292193Y-68160754D01*
X124904245Y-68569714D01*
X125584321Y-68851411D01*
X126306286Y-68995019D01*
X127042394Y-68995019D01*
X127764359Y-68851411D01*
X128444435Y-68569714D01*
X129056487Y-68160754D01*
X129576994Y-67640247D01*
X129985954Y-67028195D01*
X130267651Y-66348119D01*
X130411259Y-65626154D01*
X130411259Y-64890046D01*
X130267651Y-64168081D01*
X129985954Y-63488005D01*
X129576994Y-62875953D01*
X129056487Y-62355446D01*
X128444435Y-61946486D01*
X127764359Y-61664789D01*
X127042394Y-61521181D01*
X126306286Y-61521181D01*
X125584321Y-61664789D01*
X124904245Y-61946486D01*
X124292193Y-62355446D01*
X123771686Y-62875953D01*
X123362726Y-63488005D01*
X123081029Y-64168081D01*
X122937421Y-64890046D01*
X122494340Y-64890046D01*
X122494340Y-38133100D01*
X128640442Y-38133100D01*
X128604748Y-38140200D01*
G37*
G04 #@! TD.AperFunction*
D10*
X130844340Y-38709404D02*
X130689897Y-38554961D01*
X130322340Y-38309368D01*
X129913932Y-38140200D01*
X129878238Y-38133100D01*
X130844340Y-38133100D01*
X130844340Y-38709404D01*
G04 #@! TA.AperFunction,NonConductor*
D11*
G36*
X130844340Y-38709404D02*
G01*
X130689897Y-38554961D01*
X130322340Y-38309368D01*
X129913932Y-38140200D01*
X129878238Y-38133100D01*
X130844340Y-38133100D01*
X130844340Y-38709404D01*
G37*
G04 #@! TD.AperFunction*
M02*
