G04 #@! TF.GenerationSoftware,KiCad,Pcbnew,5.1.7-a382d34a8~87~ubuntu18.04.1*
G04 #@! TF.CreationDate,2021-01-14T14:26:26+00:00*
G04 #@! TF.ProjectId,3hp-avr-vco,3368702d-6176-4722-9d76-636f2e6b6963,rev?*
G04 #@! TF.SameCoordinates,Original*
G04 #@! TF.FileFunction,Legend,Bot*
G04 #@! TF.FilePolarity,Positive*
%FSLAX46Y46*%
G04 Gerber Fmt 4.6, Leading zero omitted, Abs format (unit mm)*
G04 Created by KiCad (PCBNEW 5.1.7-a382d34a8~87~ubuntu18.04.1) date 2021-01-14 14:26:26*
%MOMM*%
%LPD*%
G01*
G04 APERTURE LIST*
%ADD10C,0.150000*%
G04 APERTURE END LIST*
D10*
X135239238Y-140081428D02*
X135144000Y-140176666D01*
X135048761Y-140367142D01*
X135048761Y-140843333D01*
X135144000Y-141033809D01*
X135239238Y-141129047D01*
X135429714Y-141224285D01*
X135620190Y-141224285D01*
X135905904Y-141129047D01*
X137048761Y-139986190D01*
X137048761Y-141224285D01*
X135048761Y-142462380D02*
X135048761Y-142652857D01*
X135144000Y-142843333D01*
X135239238Y-142938571D01*
X135429714Y-143033809D01*
X135810666Y-143129047D01*
X136286857Y-143129047D01*
X136667809Y-143033809D01*
X136858285Y-142938571D01*
X136953523Y-142843333D01*
X137048761Y-142652857D01*
X137048761Y-142462380D01*
X136953523Y-142271904D01*
X136858285Y-142176666D01*
X136667809Y-142081428D01*
X136286857Y-141986190D01*
X135810666Y-141986190D01*
X135429714Y-142081428D01*
X135239238Y-142176666D01*
X135144000Y-142271904D01*
X135048761Y-142462380D01*
X135239238Y-143890952D02*
X135144000Y-143986190D01*
X135048761Y-144176666D01*
X135048761Y-144652857D01*
X135144000Y-144843333D01*
X135239238Y-144938571D01*
X135429714Y-145033809D01*
X135620190Y-145033809D01*
X135905904Y-144938571D01*
X137048761Y-143795714D01*
X137048761Y-145033809D01*
X135048761Y-146271904D02*
X135048761Y-146462380D01*
X135144000Y-146652857D01*
X135239238Y-146748095D01*
X135429714Y-146843333D01*
X135810666Y-146938571D01*
X136286857Y-146938571D01*
X136667809Y-146843333D01*
X136858285Y-146748095D01*
X136953523Y-146652857D01*
X137048761Y-146462380D01*
X137048761Y-146271904D01*
X136953523Y-146081428D01*
X136858285Y-145986190D01*
X136667809Y-145890952D01*
X136286857Y-145795714D01*
X135810666Y-145795714D01*
X135429714Y-145890952D01*
X135239238Y-145986190D01*
X135144000Y-146081428D01*
X135048761Y-146271904D01*
X132794380Y-134764000D02*
X133746761Y-134764000D01*
X131746761Y-134097333D02*
X132794380Y-134764000D01*
X131746761Y-135430666D01*
X133746761Y-136383047D02*
X133651523Y-136192571D01*
X133556285Y-136097333D01*
X133365809Y-136002095D01*
X132794380Y-136002095D01*
X132603904Y-136097333D01*
X132508666Y-136192571D01*
X132413428Y-136383047D01*
X132413428Y-136668761D01*
X132508666Y-136859238D01*
X132603904Y-136954476D01*
X132794380Y-137049714D01*
X133365809Y-137049714D01*
X133556285Y-136954476D01*
X133651523Y-136859238D01*
X133746761Y-136668761D01*
X133746761Y-136383047D01*
X133746761Y-137906857D02*
X132413428Y-137906857D01*
X132794380Y-137906857D02*
X132603904Y-138002095D01*
X132508666Y-138097333D01*
X132413428Y-138287809D01*
X132413428Y-138478285D01*
X133746761Y-139144952D02*
X131746761Y-139144952D01*
X132984857Y-139335428D02*
X133746761Y-139906857D01*
X132413428Y-139906857D02*
X133175333Y-139144952D01*
X133746761Y-142287809D02*
X131746761Y-142287809D01*
X133175333Y-142954476D01*
X131746761Y-143621142D01*
X133746761Y-143621142D01*
X133746761Y-144859238D02*
X133651523Y-144668761D01*
X133556285Y-144573523D01*
X133365809Y-144478285D01*
X132794380Y-144478285D01*
X132603904Y-144573523D01*
X132508666Y-144668761D01*
X132413428Y-144859238D01*
X132413428Y-145144952D01*
X132508666Y-145335428D01*
X132603904Y-145430666D01*
X132794380Y-145525904D01*
X133365809Y-145525904D01*
X133556285Y-145430666D01*
X133651523Y-145335428D01*
X133746761Y-145144952D01*
X133746761Y-144859238D01*
X133746761Y-147240190D02*
X131746761Y-147240190D01*
X133651523Y-147240190D02*
X133746761Y-147049714D01*
X133746761Y-146668761D01*
X133651523Y-146478285D01*
X133556285Y-146383047D01*
X133365809Y-146287809D01*
X132794380Y-146287809D01*
X132603904Y-146383047D01*
X132508666Y-146478285D01*
X132413428Y-146668761D01*
X132413428Y-147049714D01*
X132508666Y-147240190D01*
X132413428Y-149049714D02*
X133746761Y-149049714D01*
X132413428Y-148192571D02*
X133461047Y-148192571D01*
X133651523Y-148287809D01*
X133746761Y-148478285D01*
X133746761Y-148764000D01*
X133651523Y-148954476D01*
X133556285Y-149049714D01*
X133746761Y-150287809D02*
X133651523Y-150097333D01*
X133461047Y-150002095D01*
X131746761Y-150002095D01*
X133746761Y-151906857D02*
X132699142Y-151906857D01*
X132508666Y-151811619D01*
X132413428Y-151621142D01*
X132413428Y-151240190D01*
X132508666Y-151049714D01*
X133651523Y-151906857D02*
X133746761Y-151716380D01*
X133746761Y-151240190D01*
X133651523Y-151049714D01*
X133461047Y-150954476D01*
X133270571Y-150954476D01*
X133080095Y-151049714D01*
X132984857Y-151240190D01*
X132984857Y-151716380D01*
X132889619Y-151906857D01*
X133746761Y-152859238D02*
X132413428Y-152859238D01*
X132794380Y-152859238D02*
X132603904Y-152954476D01*
X132508666Y-153049714D01*
X132413428Y-153240190D01*
X132413428Y-153430666D01*
M02*
