G04 #@! TF.GenerationSoftware,KiCad,Pcbnew,5.1.7-a382d34a8~87~ubuntu18.04.1*
G04 #@! TF.CreationDate,2021-01-14T14:26:26+00:00*
G04 #@! TF.ProjectId,3hp-avr-vco,3368702d-6176-4722-9d76-636f2e6b6963,rev?*
G04 #@! TF.SameCoordinates,Original*
G04 #@! TF.FileFunction,Soldermask,Top*
G04 #@! TF.FilePolarity,Negative*
%FSLAX46Y46*%
G04 Gerber Fmt 4.6, Leading zero omitted, Abs format (unit mm)*
G04 Created by KiCad (PCBNEW 5.1.7-a382d34a8~87~ubuntu18.04.1) date 2021-01-14 14:26:26*
%MOMM*%
%LPD*%
G01*
G04 APERTURE LIST*
%ADD10C,0.500000*%
G04 APERTURE END LIST*
D10*
X132366000Y-164766761D02*
X132746952Y-164766761D01*
X132937428Y-164862000D01*
X133127904Y-165052476D01*
X133223142Y-165433428D01*
X133223142Y-166100095D01*
X133127904Y-166481047D01*
X132937428Y-166671523D01*
X132746952Y-166766761D01*
X132366000Y-166766761D01*
X132175523Y-166671523D01*
X131985047Y-166481047D01*
X131889809Y-166100095D01*
X131889809Y-165433428D01*
X131985047Y-165052476D01*
X132175523Y-164862000D01*
X132366000Y-164766761D01*
X134080285Y-164766761D02*
X134080285Y-166385809D01*
X134175523Y-166576285D01*
X134270761Y-166671523D01*
X134461238Y-166766761D01*
X134842190Y-166766761D01*
X135032666Y-166671523D01*
X135127904Y-166576285D01*
X135223142Y-166385809D01*
X135223142Y-164766761D01*
X135889809Y-164766761D02*
X137032666Y-164766761D01*
X136461238Y-166766761D02*
X136461238Y-164766761D01*
X134985047Y-137874285D02*
X134889809Y-137969523D01*
X134604095Y-138064761D01*
X134413619Y-138064761D01*
X134127904Y-137969523D01*
X133937428Y-137779047D01*
X133842190Y-137588571D01*
X133746952Y-137207619D01*
X133746952Y-136921904D01*
X133842190Y-136540952D01*
X133937428Y-136350476D01*
X134127904Y-136160000D01*
X134413619Y-136064761D01*
X134604095Y-136064761D01*
X134889809Y-136160000D01*
X134985047Y-136255238D01*
X134508857Y-121777142D02*
X134794571Y-121872380D01*
X134889809Y-121967619D01*
X134985047Y-122158095D01*
X134985047Y-122443809D01*
X134889809Y-122634285D01*
X134794571Y-122729523D01*
X134604095Y-122824761D01*
X133842190Y-122824761D01*
X133842190Y-120824761D01*
X134508857Y-120824761D01*
X134699333Y-120920000D01*
X134794571Y-121015238D01*
X134889809Y-121205714D01*
X134889809Y-121396190D01*
X134794571Y-121586666D01*
X134699333Y-121681904D01*
X134508857Y-121777142D01*
X133842190Y-121777142D01*
X133889809Y-93805333D02*
X134842190Y-93805333D01*
X133699333Y-94376761D02*
X134366000Y-92376761D01*
X135032666Y-94376761D01*
X128143809Y-62984000D02*
X129096190Y-62984000D01*
X127953333Y-63841142D02*
X128620000Y-60841142D01*
X129286666Y-63841142D01*
X129667619Y-60841142D02*
X130334285Y-63841142D01*
X131000952Y-60841142D01*
X132810476Y-63841142D02*
X132143809Y-62412571D01*
X131667619Y-63841142D02*
X131667619Y-60841142D01*
X132429523Y-60841142D01*
X132620000Y-60984000D01*
X132715238Y-61126857D01*
X132810476Y-61412571D01*
X132810476Y-61841142D01*
X132715238Y-62126857D01*
X132620000Y-62269714D01*
X132429523Y-62412571D01*
X131667619Y-62412571D01*
X133667619Y-62698285D02*
X135191428Y-62698285D01*
X135858095Y-60841142D02*
X136524761Y-63841142D01*
X137191428Y-60841142D01*
X139000952Y-63555428D02*
X138905714Y-63698285D01*
X138620000Y-63841142D01*
X138429523Y-63841142D01*
X138143809Y-63698285D01*
X137953333Y-63412571D01*
X137858095Y-63126857D01*
X137762857Y-62555428D01*
X137762857Y-62126857D01*
X137858095Y-61555428D01*
X137953333Y-61269714D01*
X138143809Y-60984000D01*
X138429523Y-60841142D01*
X138620000Y-60841142D01*
X138905714Y-60984000D01*
X139000952Y-61126857D01*
X140239047Y-60841142D02*
X140620000Y-60841142D01*
X140810476Y-60984000D01*
X141000952Y-61269714D01*
X141096190Y-61841142D01*
X141096190Y-62841142D01*
X141000952Y-63412571D01*
X140810476Y-63698285D01*
X140620000Y-63841142D01*
X140239047Y-63841142D01*
X140048571Y-63698285D01*
X139858095Y-63412571D01*
X139762857Y-62841142D01*
X139762857Y-61841142D01*
X139858095Y-61269714D01*
X140048571Y-60984000D01*
X140239047Y-60841142D01*
X132366000Y-164766761D02*
X132746952Y-164766761D01*
X132937428Y-164862000D01*
X133127904Y-165052476D01*
X133223142Y-165433428D01*
X133223142Y-166100095D01*
X133127904Y-166481047D01*
X132937428Y-166671523D01*
X132746952Y-166766761D01*
X132366000Y-166766761D01*
X132175523Y-166671523D01*
X131985047Y-166481047D01*
X131889809Y-166100095D01*
X131889809Y-165433428D01*
X131985047Y-165052476D01*
X132175523Y-164862000D01*
X132366000Y-164766761D01*
X134080285Y-164766761D02*
X134080285Y-166385809D01*
X134175523Y-166576285D01*
X134270761Y-166671523D01*
X134461238Y-166766761D01*
X134842190Y-166766761D01*
X135032666Y-166671523D01*
X135127904Y-166576285D01*
X135223142Y-166385809D01*
X135223142Y-164766761D01*
X135889809Y-164766761D02*
X137032666Y-164766761D01*
X136461238Y-166766761D02*
X136461238Y-164766761D01*
X134985047Y-137874285D02*
X134889809Y-137969523D01*
X134604095Y-138064761D01*
X134413619Y-138064761D01*
X134127904Y-137969523D01*
X133937428Y-137779047D01*
X133842190Y-137588571D01*
X133746952Y-137207619D01*
X133746952Y-136921904D01*
X133842190Y-136540952D01*
X133937428Y-136350476D01*
X134127904Y-136160000D01*
X134413619Y-136064761D01*
X134604095Y-136064761D01*
X134889809Y-136160000D01*
X134985047Y-136255238D01*
X134508857Y-121777142D02*
X134794571Y-121872380D01*
X134889809Y-121967619D01*
X134985047Y-122158095D01*
X134985047Y-122443809D01*
X134889809Y-122634285D01*
X134794571Y-122729523D01*
X134604095Y-122824761D01*
X133842190Y-122824761D01*
X133842190Y-120824761D01*
X134508857Y-120824761D01*
X134699333Y-120920000D01*
X134794571Y-121015238D01*
X134889809Y-121205714D01*
X134889809Y-121396190D01*
X134794571Y-121586666D01*
X134699333Y-121681904D01*
X134508857Y-121777142D01*
X133842190Y-121777142D01*
X133889809Y-93805333D02*
X134842190Y-93805333D01*
X133699333Y-94376761D02*
X134366000Y-92376761D01*
X135032666Y-94376761D01*
X128143809Y-62984000D02*
X129096190Y-62984000D01*
X127953333Y-63841142D02*
X128620000Y-60841142D01*
X129286666Y-63841142D01*
X129667619Y-60841142D02*
X130334285Y-63841142D01*
X131000952Y-60841142D01*
X132810476Y-63841142D02*
X132143809Y-62412571D01*
X131667619Y-63841142D02*
X131667619Y-60841142D01*
X132429523Y-60841142D01*
X132620000Y-60984000D01*
X132715238Y-61126857D01*
X132810476Y-61412571D01*
X132810476Y-61841142D01*
X132715238Y-62126857D01*
X132620000Y-62269714D01*
X132429523Y-62412571D01*
X131667619Y-62412571D01*
X133667619Y-62698285D02*
X135191428Y-62698285D01*
X135858095Y-60841142D02*
X136524761Y-63841142D01*
X137191428Y-60841142D01*
X139000952Y-63555428D02*
X138905714Y-63698285D01*
X138620000Y-63841142D01*
X138429523Y-63841142D01*
X138143809Y-63698285D01*
X137953333Y-63412571D01*
X137858095Y-63126857D01*
X137762857Y-62555428D01*
X137762857Y-62126857D01*
X137858095Y-61555428D01*
X137953333Y-61269714D01*
X138143809Y-60984000D01*
X138429523Y-60841142D01*
X138620000Y-60841142D01*
X138905714Y-60984000D01*
X139000952Y-61126857D01*
X140239047Y-60841142D02*
X140620000Y-60841142D01*
X140810476Y-60984000D01*
X141000952Y-61269714D01*
X141096190Y-61841142D01*
X141096190Y-62841142D01*
X141000952Y-63412571D01*
X140810476Y-63698285D01*
X140620000Y-63841142D01*
X140239047Y-63841142D01*
X140048571Y-63698285D01*
X139858095Y-63412571D01*
X139762857Y-62841142D01*
X139762857Y-61841142D01*
X139858095Y-61269714D01*
X140048571Y-60984000D01*
X140239047Y-60841142D01*
M02*
