G04 #@! TF.GenerationSoftware,KiCad,Pcbnew,5.1.7-a382d34a8~87~ubuntu18.04.1*
G04 #@! TF.CreationDate,2021-01-14T14:01:56+00:00*
G04 #@! TF.ProjectId,2hp-ar-panel,3268702d-6172-42d7-9061-6e656c2e6b69,rev?*
G04 #@! TF.SameCoordinates,Original*
G04 #@! TF.FileFunction,Copper,L1,Top*
G04 #@! TF.FilePolarity,Positive*
%FSLAX46Y46*%
G04 Gerber Fmt 4.6, Leading zero omitted, Abs format (unit mm)*
G04 Created by KiCad (PCBNEW 5.1.7-a382d34a8~87~ubuntu18.04.1) date 2021-01-14 14:01:56*
%MOMM*%
%LPD*%
G01*
G04 APERTURE LIST*
G04 #@! TA.AperFunction,NonConductor*
%ADD10C,0.500000*%
G04 #@! TD*
G04 APERTURE END LIST*
D10*
X143288000Y-145208761D02*
X143668952Y-145208761D01*
X143859428Y-145304000D01*
X144049904Y-145494476D01*
X144145142Y-145875428D01*
X144145142Y-146542095D01*
X144049904Y-146923047D01*
X143859428Y-147113523D01*
X143668952Y-147208761D01*
X143288000Y-147208761D01*
X143097523Y-147113523D01*
X142907047Y-146923047D01*
X142811809Y-146542095D01*
X142811809Y-145875428D01*
X142907047Y-145494476D01*
X143097523Y-145304000D01*
X143288000Y-145208761D01*
X145002285Y-145208761D02*
X145002285Y-146827809D01*
X145097523Y-147018285D01*
X145192761Y-147113523D01*
X145383238Y-147208761D01*
X145764190Y-147208761D01*
X145954666Y-147113523D01*
X146049904Y-147018285D01*
X146145142Y-146827809D01*
X146145142Y-145208761D01*
X146811809Y-145208761D02*
X147954666Y-145208761D01*
X147383238Y-147208761D02*
X147383238Y-145208761D01*
X145907047Y-107584761D02*
X145240380Y-106632380D01*
X144764190Y-107584761D02*
X144764190Y-105584761D01*
X145526095Y-105584761D01*
X145716571Y-105680000D01*
X145811809Y-105775238D01*
X145907047Y-105965714D01*
X145907047Y-106251428D01*
X145811809Y-106441904D01*
X145716571Y-106537142D01*
X145526095Y-106632380D01*
X144764190Y-106632380D01*
X144811809Y-96091333D02*
X145764190Y-96091333D01*
X144621333Y-96662761D02*
X145288000Y-94662761D01*
X145954666Y-96662761D01*
X144240380Y-78120761D02*
X144240380Y-76120761D01*
X145192761Y-78120761D02*
X145192761Y-76120761D01*
X146335619Y-78120761D01*
X146335619Y-76120761D01*
X142252285Y-38770666D02*
X143442761Y-38770666D01*
X142014190Y-39484952D02*
X142847523Y-36984952D01*
X143680857Y-39484952D01*
X145942761Y-39484952D02*
X145109428Y-38294476D01*
X144514190Y-39484952D02*
X144514190Y-36984952D01*
X145466571Y-36984952D01*
X145704666Y-37104000D01*
X145823714Y-37223047D01*
X145942761Y-37461142D01*
X145942761Y-37818285D01*
X145823714Y-38056380D01*
X145704666Y-38175428D01*
X145466571Y-38294476D01*
X144514190Y-38294476D01*
X146895142Y-37223047D02*
X147014190Y-37104000D01*
X147252285Y-36984952D01*
X147847523Y-36984952D01*
X148085619Y-37104000D01*
X148204666Y-37223047D01*
X148323714Y-37461142D01*
X148323714Y-37699238D01*
X148204666Y-38056380D01*
X146776095Y-39484952D01*
X148323714Y-39484952D01*
M02*
