G04 #@! TF.GenerationSoftware,KiCad,Pcbnew,5.1.7-a382d34a8~87~ubuntu18.04.1*
G04 #@! TF.CreationDate,2021-01-14T14:01:56+00:00*
G04 #@! TF.ProjectId,2hp-ar-panel,3268702d-6172-42d7-9061-6e656c2e6b69,rev?*
G04 #@! TF.SameCoordinates,Original*
G04 #@! TF.FileFunction,Copper,L2,Bot*
G04 #@! TF.FilePolarity,Positive*
%FSLAX46Y46*%
G04 Gerber Fmt 4.6, Leading zero omitted, Abs format (unit mm)*
G04 Created by KiCad (PCBNEW 5.1.7-a382d34a8~87~ubuntu18.04.1) date 2021-01-14 14:01:56*
%MOMM*%
%LPD*%
G01*
G04 APERTURE LIST*
G04 #@! TA.AperFunction,NonConductor*
%ADD10C,0.254000*%
G04 #@! TD*
G04 #@! TA.AperFunction,NonConductor*
%ADD11C,0.100000*%
G04 #@! TD*
G04 APERTURE END LIST*
D10*
X147223408Y-29760100D02*
X146815000Y-29929268D01*
X146447443Y-30174861D01*
X146134861Y-30487443D01*
X145889268Y-30855000D01*
X145720100Y-31263408D01*
X145633858Y-31696971D01*
X145633858Y-32139029D01*
X145720100Y-32572592D01*
X145889268Y-32981000D01*
X146134861Y-33348557D01*
X146447443Y-33661139D01*
X146815000Y-33906732D01*
X147223408Y-34075900D01*
X147656971Y-34162142D01*
X148099029Y-34162142D01*
X148532592Y-34075900D01*
X148941000Y-33906732D01*
X149308557Y-33661139D01*
X149463000Y-33506696D01*
X149463001Y-152829305D01*
X149308557Y-152674861D01*
X148941000Y-152429268D01*
X148532592Y-152260100D01*
X148099029Y-152173858D01*
X147656971Y-152173858D01*
X147223408Y-152260100D01*
X146815000Y-152429268D01*
X146447443Y-152674861D01*
X146134861Y-152987443D01*
X145889268Y-153355000D01*
X145720100Y-153763408D01*
X145633858Y-154196971D01*
X145633858Y-154639029D01*
X145720100Y-155072592D01*
X145889268Y-155481000D01*
X146134861Y-155848557D01*
X146447443Y-156161139D01*
X146815000Y-156406732D01*
X147223408Y-156575900D01*
X147656971Y-156662142D01*
X148099029Y-156662142D01*
X148532592Y-156575900D01*
X148941000Y-156406732D01*
X149308557Y-156161139D01*
X149463001Y-156006695D01*
X149463001Y-156683000D01*
X141113000Y-156683000D01*
X141113000Y-138569946D01*
X141551081Y-138569946D01*
X141551081Y-139306054D01*
X141694689Y-140028019D01*
X141976386Y-140708095D01*
X142385346Y-141320147D01*
X142905853Y-141840654D01*
X143517905Y-142249614D01*
X144197981Y-142531311D01*
X144919946Y-142674919D01*
X145656054Y-142674919D01*
X146378019Y-142531311D01*
X147058095Y-142249614D01*
X147670147Y-141840654D01*
X148190654Y-141320147D01*
X148599614Y-140708095D01*
X148881311Y-140028019D01*
X149024919Y-139306054D01*
X149024919Y-138569946D01*
X148881311Y-137847981D01*
X148599614Y-137167905D01*
X148190654Y-136555853D01*
X147670147Y-136035346D01*
X147058095Y-135626386D01*
X146378019Y-135344689D01*
X145656054Y-135201081D01*
X144919946Y-135201081D01*
X144197981Y-135344689D01*
X143517905Y-135626386D01*
X142905853Y-136035346D01*
X142385346Y-136555853D01*
X141976386Y-137167905D01*
X141694689Y-137847981D01*
X141551081Y-138569946D01*
X141113000Y-138569946D01*
X141113000Y-127262467D01*
X142795062Y-127262467D01*
X142795062Y-127753533D01*
X142890864Y-128235163D01*
X143078787Y-128688849D01*
X143351609Y-129097155D01*
X143698845Y-129444391D01*
X144107151Y-129717213D01*
X144560837Y-129905136D01*
X145042467Y-130000938D01*
X145533533Y-130000938D01*
X146015163Y-129905136D01*
X146468849Y-129717213D01*
X146877155Y-129444391D01*
X147224391Y-129097155D01*
X147497213Y-128688849D01*
X147685136Y-128235163D01*
X147780938Y-127753533D01*
X147780938Y-127262467D01*
X147685136Y-126780837D01*
X147497213Y-126327151D01*
X147224391Y-125918845D01*
X146877155Y-125571609D01*
X146468849Y-125298787D01*
X146015163Y-125110864D01*
X145533533Y-125015062D01*
X145042467Y-125015062D01*
X144560837Y-125110864D01*
X144107151Y-125298787D01*
X143698845Y-125571609D01*
X143351609Y-125918845D01*
X143078787Y-126327151D01*
X142890864Y-126780837D01*
X142795062Y-127262467D01*
X141113000Y-127262467D01*
X141113000Y-114415441D01*
X141302285Y-114415441D01*
X141302285Y-115200559D01*
X141455454Y-115970590D01*
X141755905Y-116695944D01*
X142192093Y-117348745D01*
X142747255Y-117903907D01*
X143400056Y-118340095D01*
X144125410Y-118640546D01*
X144895441Y-118793715D01*
X145680559Y-118793715D01*
X146450590Y-118640546D01*
X147175944Y-118340095D01*
X147828745Y-117903907D01*
X148383907Y-117348745D01*
X148820095Y-116695944D01*
X149120546Y-115970590D01*
X149273715Y-115200559D01*
X149273715Y-114415441D01*
X149120546Y-113645410D01*
X148820095Y-112920056D01*
X148383907Y-112267255D01*
X147828745Y-111712093D01*
X147175944Y-111275905D01*
X146450590Y-110975454D01*
X145680559Y-110822285D01*
X144895441Y-110822285D01*
X144125410Y-110975454D01*
X143400056Y-111275905D01*
X142747255Y-111712093D01*
X142192093Y-112267255D01*
X141755905Y-112920056D01*
X141455454Y-113645410D01*
X141302285Y-114415441D01*
X141113000Y-114415441D01*
X141113000Y-86475441D01*
X141302285Y-86475441D01*
X141302285Y-87260559D01*
X141455454Y-88030590D01*
X141755905Y-88755944D01*
X142192093Y-89408745D01*
X142747255Y-89963907D01*
X143400056Y-90400095D01*
X144125410Y-90700546D01*
X144895441Y-90853715D01*
X145680559Y-90853715D01*
X146450590Y-90700546D01*
X147175944Y-90400095D01*
X147828745Y-89963907D01*
X148383907Y-89408745D01*
X148820095Y-88755944D01*
X149120546Y-88030590D01*
X149273715Y-87260559D01*
X149273715Y-86475441D01*
X149120546Y-85705410D01*
X148820095Y-84980056D01*
X148383907Y-84327255D01*
X147828745Y-83772093D01*
X147175944Y-83335905D01*
X146450590Y-83035454D01*
X145680559Y-82882285D01*
X144895441Y-82882285D01*
X144125410Y-83035454D01*
X143400056Y-83335905D01*
X142747255Y-83772093D01*
X142192093Y-84327255D01*
X141755905Y-84980056D01*
X141455454Y-85705410D01*
X141302285Y-86475441D01*
X141113000Y-86475441D01*
X141113000Y-68719946D01*
X141551081Y-68719946D01*
X141551081Y-69456054D01*
X141694689Y-70178019D01*
X141976386Y-70858095D01*
X142385346Y-71470147D01*
X142905853Y-71990654D01*
X143517905Y-72399614D01*
X144197981Y-72681311D01*
X144919946Y-72824919D01*
X145656054Y-72824919D01*
X146378019Y-72681311D01*
X147058095Y-72399614D01*
X147670147Y-71990654D01*
X148190654Y-71470147D01*
X148599614Y-70858095D01*
X148881311Y-70178019D01*
X149024919Y-69456054D01*
X149024919Y-68719946D01*
X148881311Y-67997981D01*
X148599614Y-67317905D01*
X148190654Y-66705853D01*
X147670147Y-66185346D01*
X147058095Y-65776386D01*
X146378019Y-65494689D01*
X145656054Y-65351081D01*
X144919946Y-65351081D01*
X144197981Y-65494689D01*
X143517905Y-65776386D01*
X142905853Y-66185346D01*
X142385346Y-66705853D01*
X141976386Y-67317905D01*
X141694689Y-67997981D01*
X141551081Y-68719946D01*
X141113000Y-68719946D01*
X141113000Y-29753000D01*
X147259102Y-29753000D01*
X147223408Y-29760100D01*
G04 #@! TA.AperFunction,NonConductor*
D11*
G36*
X147223408Y-29760100D02*
G01*
X146815000Y-29929268D01*
X146447443Y-30174861D01*
X146134861Y-30487443D01*
X145889268Y-30855000D01*
X145720100Y-31263408D01*
X145633858Y-31696971D01*
X145633858Y-32139029D01*
X145720100Y-32572592D01*
X145889268Y-32981000D01*
X146134861Y-33348557D01*
X146447443Y-33661139D01*
X146815000Y-33906732D01*
X147223408Y-34075900D01*
X147656971Y-34162142D01*
X148099029Y-34162142D01*
X148532592Y-34075900D01*
X148941000Y-33906732D01*
X149308557Y-33661139D01*
X149463000Y-33506696D01*
X149463001Y-152829305D01*
X149308557Y-152674861D01*
X148941000Y-152429268D01*
X148532592Y-152260100D01*
X148099029Y-152173858D01*
X147656971Y-152173858D01*
X147223408Y-152260100D01*
X146815000Y-152429268D01*
X146447443Y-152674861D01*
X146134861Y-152987443D01*
X145889268Y-153355000D01*
X145720100Y-153763408D01*
X145633858Y-154196971D01*
X145633858Y-154639029D01*
X145720100Y-155072592D01*
X145889268Y-155481000D01*
X146134861Y-155848557D01*
X146447443Y-156161139D01*
X146815000Y-156406732D01*
X147223408Y-156575900D01*
X147656971Y-156662142D01*
X148099029Y-156662142D01*
X148532592Y-156575900D01*
X148941000Y-156406732D01*
X149308557Y-156161139D01*
X149463001Y-156006695D01*
X149463001Y-156683000D01*
X141113000Y-156683000D01*
X141113000Y-138569946D01*
X141551081Y-138569946D01*
X141551081Y-139306054D01*
X141694689Y-140028019D01*
X141976386Y-140708095D01*
X142385346Y-141320147D01*
X142905853Y-141840654D01*
X143517905Y-142249614D01*
X144197981Y-142531311D01*
X144919946Y-142674919D01*
X145656054Y-142674919D01*
X146378019Y-142531311D01*
X147058095Y-142249614D01*
X147670147Y-141840654D01*
X148190654Y-141320147D01*
X148599614Y-140708095D01*
X148881311Y-140028019D01*
X149024919Y-139306054D01*
X149024919Y-138569946D01*
X148881311Y-137847981D01*
X148599614Y-137167905D01*
X148190654Y-136555853D01*
X147670147Y-136035346D01*
X147058095Y-135626386D01*
X146378019Y-135344689D01*
X145656054Y-135201081D01*
X144919946Y-135201081D01*
X144197981Y-135344689D01*
X143517905Y-135626386D01*
X142905853Y-136035346D01*
X142385346Y-136555853D01*
X141976386Y-137167905D01*
X141694689Y-137847981D01*
X141551081Y-138569946D01*
X141113000Y-138569946D01*
X141113000Y-127262467D01*
X142795062Y-127262467D01*
X142795062Y-127753533D01*
X142890864Y-128235163D01*
X143078787Y-128688849D01*
X143351609Y-129097155D01*
X143698845Y-129444391D01*
X144107151Y-129717213D01*
X144560837Y-129905136D01*
X145042467Y-130000938D01*
X145533533Y-130000938D01*
X146015163Y-129905136D01*
X146468849Y-129717213D01*
X146877155Y-129444391D01*
X147224391Y-129097155D01*
X147497213Y-128688849D01*
X147685136Y-128235163D01*
X147780938Y-127753533D01*
X147780938Y-127262467D01*
X147685136Y-126780837D01*
X147497213Y-126327151D01*
X147224391Y-125918845D01*
X146877155Y-125571609D01*
X146468849Y-125298787D01*
X146015163Y-125110864D01*
X145533533Y-125015062D01*
X145042467Y-125015062D01*
X144560837Y-125110864D01*
X144107151Y-125298787D01*
X143698845Y-125571609D01*
X143351609Y-125918845D01*
X143078787Y-126327151D01*
X142890864Y-126780837D01*
X142795062Y-127262467D01*
X141113000Y-127262467D01*
X141113000Y-114415441D01*
X141302285Y-114415441D01*
X141302285Y-115200559D01*
X141455454Y-115970590D01*
X141755905Y-116695944D01*
X142192093Y-117348745D01*
X142747255Y-117903907D01*
X143400056Y-118340095D01*
X144125410Y-118640546D01*
X144895441Y-118793715D01*
X145680559Y-118793715D01*
X146450590Y-118640546D01*
X147175944Y-118340095D01*
X147828745Y-117903907D01*
X148383907Y-117348745D01*
X148820095Y-116695944D01*
X149120546Y-115970590D01*
X149273715Y-115200559D01*
X149273715Y-114415441D01*
X149120546Y-113645410D01*
X148820095Y-112920056D01*
X148383907Y-112267255D01*
X147828745Y-111712093D01*
X147175944Y-111275905D01*
X146450590Y-110975454D01*
X145680559Y-110822285D01*
X144895441Y-110822285D01*
X144125410Y-110975454D01*
X143400056Y-111275905D01*
X142747255Y-111712093D01*
X142192093Y-112267255D01*
X141755905Y-112920056D01*
X141455454Y-113645410D01*
X141302285Y-114415441D01*
X141113000Y-114415441D01*
X141113000Y-86475441D01*
X141302285Y-86475441D01*
X141302285Y-87260559D01*
X141455454Y-88030590D01*
X141755905Y-88755944D01*
X142192093Y-89408745D01*
X142747255Y-89963907D01*
X143400056Y-90400095D01*
X144125410Y-90700546D01*
X144895441Y-90853715D01*
X145680559Y-90853715D01*
X146450590Y-90700546D01*
X147175944Y-90400095D01*
X147828745Y-89963907D01*
X148383907Y-89408745D01*
X148820095Y-88755944D01*
X149120546Y-88030590D01*
X149273715Y-87260559D01*
X149273715Y-86475441D01*
X149120546Y-85705410D01*
X148820095Y-84980056D01*
X148383907Y-84327255D01*
X147828745Y-83772093D01*
X147175944Y-83335905D01*
X146450590Y-83035454D01*
X145680559Y-82882285D01*
X144895441Y-82882285D01*
X144125410Y-83035454D01*
X143400056Y-83335905D01*
X142747255Y-83772093D01*
X142192093Y-84327255D01*
X141755905Y-84980056D01*
X141455454Y-85705410D01*
X141302285Y-86475441D01*
X141113000Y-86475441D01*
X141113000Y-68719946D01*
X141551081Y-68719946D01*
X141551081Y-69456054D01*
X141694689Y-70178019D01*
X141976386Y-70858095D01*
X142385346Y-71470147D01*
X142905853Y-71990654D01*
X143517905Y-72399614D01*
X144197981Y-72681311D01*
X144919946Y-72824919D01*
X145656054Y-72824919D01*
X146378019Y-72681311D01*
X147058095Y-72399614D01*
X147670147Y-71990654D01*
X148190654Y-71470147D01*
X148599614Y-70858095D01*
X148881311Y-70178019D01*
X149024919Y-69456054D01*
X149024919Y-68719946D01*
X148881311Y-67997981D01*
X148599614Y-67317905D01*
X148190654Y-66705853D01*
X147670147Y-66185346D01*
X147058095Y-65776386D01*
X146378019Y-65494689D01*
X145656054Y-65351081D01*
X144919946Y-65351081D01*
X144197981Y-65494689D01*
X143517905Y-65776386D01*
X142905853Y-66185346D01*
X142385346Y-66705853D01*
X141976386Y-67317905D01*
X141694689Y-67997981D01*
X141551081Y-68719946D01*
X141113000Y-68719946D01*
X141113000Y-29753000D01*
X147259102Y-29753000D01*
X147223408Y-29760100D01*
G37*
G04 #@! TD.AperFunction*
D10*
X149463000Y-30329304D02*
X149308557Y-30174861D01*
X148941000Y-29929268D01*
X148532592Y-29760100D01*
X148496898Y-29753000D01*
X149463000Y-29753000D01*
X149463000Y-30329304D01*
G04 #@! TA.AperFunction,NonConductor*
D11*
G36*
X149463000Y-30329304D02*
G01*
X149308557Y-30174861D01*
X148941000Y-29929268D01*
X148532592Y-29760100D01*
X148496898Y-29753000D01*
X149463000Y-29753000D01*
X149463000Y-30329304D01*
G37*
G04 #@! TD.AperFunction*
M02*
