G04 #@! TF.GenerationSoftware,KiCad,Pcbnew,5.1.7-a382d34a8~87~ubuntu18.04.1*
G04 #@! TF.CreationDate,2021-01-14T14:13:34+00:00*
G04 #@! TF.ProjectId,seq4.2-panel,73657134-2e32-42d7-9061-6e656c2e6b69,rev?*
G04 #@! TF.SameCoordinates,Original*
G04 #@! TF.FileFunction,Copper,L2,Bot*
G04 #@! TF.FilePolarity,Positive*
%FSLAX46Y46*%
G04 Gerber Fmt 4.6, Leading zero omitted, Abs format (unit mm)*
G04 Created by KiCad (PCBNEW 5.1.7-a382d34a8~87~ubuntu18.04.1) date 2021-01-14 14:13:34*
%MOMM*%
%LPD*%
G01*
G04 APERTURE LIST*
G04 #@! TA.AperFunction,NonConductor*
%ADD10C,0.254000*%
G04 #@! TD*
G04 #@! TA.AperFunction,NonConductor*
%ADD11C,0.100000*%
G04 #@! TD*
G04 APERTURE END LIST*
D10*
X108290408Y-40715200D02*
X107882000Y-40884368D01*
X107514443Y-41129961D01*
X107201861Y-41442543D01*
X106956268Y-41810100D01*
X106787100Y-42218508D01*
X106700858Y-42652071D01*
X106700858Y-43094129D01*
X106787100Y-43527692D01*
X106956268Y-43936100D01*
X107201861Y-44303657D01*
X107514443Y-44616239D01*
X107882000Y-44861832D01*
X108290408Y-45031000D01*
X108723971Y-45117242D01*
X109166029Y-45117242D01*
X109599592Y-45031000D01*
X110008000Y-44861832D01*
X110375557Y-44616239D01*
X110688139Y-44303657D01*
X110933732Y-43936100D01*
X111102900Y-43527692D01*
X111189142Y-43094129D01*
X111189142Y-42652071D01*
X111102900Y-42218508D01*
X110933732Y-41810100D01*
X110688139Y-41442543D01*
X110375557Y-41129961D01*
X110008000Y-40884368D01*
X109599592Y-40715200D01*
X109563898Y-40708100D01*
X120690000Y-40708100D01*
X120690000Y-83556830D01*
X120681391Y-83543945D01*
X120334155Y-83196709D01*
X119925849Y-82923887D01*
X119472163Y-82735964D01*
X118990533Y-82640162D01*
X118499467Y-82640162D01*
X118017837Y-82735964D01*
X117564151Y-82923887D01*
X117155845Y-83196709D01*
X116808609Y-83543945D01*
X116535787Y-83952251D01*
X116347864Y-84405937D01*
X116252062Y-84887567D01*
X116252062Y-85378633D01*
X116347864Y-85860263D01*
X116535787Y-86313949D01*
X116808609Y-86722255D01*
X117155845Y-87069491D01*
X117564151Y-87342313D01*
X118017837Y-87530236D01*
X118499467Y-87626038D01*
X118990533Y-87626038D01*
X119472163Y-87530236D01*
X119925849Y-87342313D01*
X120334155Y-87069491D01*
X120681391Y-86722255D01*
X120690000Y-86709370D01*
X120690000Y-96256830D01*
X120681391Y-96243945D01*
X120334155Y-95896709D01*
X119925849Y-95623887D01*
X119472163Y-95435964D01*
X118990533Y-95340162D01*
X118499467Y-95340162D01*
X118017837Y-95435964D01*
X117564151Y-95623887D01*
X117155845Y-95896709D01*
X116808609Y-96243945D01*
X116535787Y-96652251D01*
X116347864Y-97105937D01*
X116252062Y-97587567D01*
X116252062Y-98078633D01*
X116347864Y-98560263D01*
X116535787Y-99013949D01*
X116808609Y-99422255D01*
X117155845Y-99769491D01*
X117564151Y-100042313D01*
X118017837Y-100230236D01*
X118499467Y-100326038D01*
X118990533Y-100326038D01*
X119472163Y-100230236D01*
X119925849Y-100042313D01*
X120334155Y-99769491D01*
X120681391Y-99422255D01*
X120690000Y-99409370D01*
X120690001Y-108956830D01*
X120681391Y-108943945D01*
X120334155Y-108596709D01*
X119925849Y-108323887D01*
X119472163Y-108135964D01*
X118990533Y-108040162D01*
X118499467Y-108040162D01*
X118017837Y-108135964D01*
X117564151Y-108323887D01*
X117155845Y-108596709D01*
X116808609Y-108943945D01*
X116535787Y-109352251D01*
X116347864Y-109805937D01*
X116252062Y-110287567D01*
X116252062Y-110778633D01*
X116347864Y-111260263D01*
X116535787Y-111713949D01*
X116808609Y-112122255D01*
X117155845Y-112469491D01*
X117564151Y-112742313D01*
X118017837Y-112930236D01*
X118499467Y-113026038D01*
X118990533Y-113026038D01*
X119472163Y-112930236D01*
X119925849Y-112742313D01*
X120334155Y-112469491D01*
X120681391Y-112122255D01*
X120690001Y-112109370D01*
X120690001Y-121656830D01*
X120681391Y-121643945D01*
X120334155Y-121296709D01*
X119925849Y-121023887D01*
X119472163Y-120835964D01*
X118990533Y-120740162D01*
X118499467Y-120740162D01*
X118017837Y-120835964D01*
X117564151Y-121023887D01*
X117155845Y-121296709D01*
X116808609Y-121643945D01*
X116535787Y-122052251D01*
X116347864Y-122505937D01*
X116252062Y-122987567D01*
X116252062Y-123478633D01*
X116347864Y-123960263D01*
X116535787Y-124413949D01*
X116808609Y-124822255D01*
X117155845Y-125169491D01*
X117564151Y-125442313D01*
X118017837Y-125630236D01*
X118499467Y-125726038D01*
X118990533Y-125726038D01*
X119472163Y-125630236D01*
X119925849Y-125442313D01*
X120334155Y-125169491D01*
X120681391Y-124822255D01*
X120690001Y-124809370D01*
X120690001Y-167638100D01*
X102180000Y-167638100D01*
X102180000Y-165152071D01*
X106700858Y-165152071D01*
X106700858Y-165594129D01*
X106787100Y-166027692D01*
X106956268Y-166436100D01*
X107201861Y-166803657D01*
X107514443Y-167116239D01*
X107882000Y-167361832D01*
X108290408Y-167531000D01*
X108723971Y-167617242D01*
X109166029Y-167617242D01*
X109599592Y-167531000D01*
X110008000Y-167361832D01*
X110375557Y-167116239D01*
X110688139Y-166803657D01*
X110933732Y-166436100D01*
X111102900Y-166027692D01*
X111189142Y-165594129D01*
X111189142Y-165152071D01*
X111102900Y-164718508D01*
X110933732Y-164310100D01*
X110688139Y-163942543D01*
X110375557Y-163629961D01*
X110008000Y-163384368D01*
X109599592Y-163215200D01*
X109166029Y-163128958D01*
X108723971Y-163128958D01*
X108290408Y-163215200D01*
X107882000Y-163384368D01*
X107514443Y-163629961D01*
X107201861Y-163942543D01*
X106956268Y-164310100D01*
X106787100Y-164718508D01*
X106700858Y-165152071D01*
X102180000Y-165152071D01*
X102180000Y-148905046D01*
X108658081Y-148905046D01*
X108658081Y-149641154D01*
X108801689Y-150363119D01*
X109083386Y-151043195D01*
X109492346Y-151655247D01*
X110012853Y-152175754D01*
X110624905Y-152584714D01*
X111304981Y-152866411D01*
X112026946Y-153010019D01*
X112763054Y-153010019D01*
X113485019Y-152866411D01*
X114165095Y-152584714D01*
X114777147Y-152175754D01*
X115297654Y-151655247D01*
X115706614Y-151043195D01*
X115988311Y-150363119D01*
X116131919Y-149641154D01*
X116131919Y-148905046D01*
X115988311Y-148183081D01*
X115706614Y-147503005D01*
X115297654Y-146890953D01*
X114777147Y-146370446D01*
X114165095Y-145961486D01*
X113485019Y-145679789D01*
X112763054Y-145536181D01*
X112026946Y-145536181D01*
X111304981Y-145679789D01*
X110624905Y-145961486D01*
X110012853Y-146370446D01*
X109492346Y-146890953D01*
X109083386Y-147503005D01*
X108801689Y-148183081D01*
X108658081Y-148905046D01*
X102180000Y-148905046D01*
X102180000Y-134945046D01*
X108658081Y-134945046D01*
X108658081Y-135681154D01*
X108801689Y-136403119D01*
X109083386Y-137083195D01*
X109492346Y-137695247D01*
X110012853Y-138215754D01*
X110624905Y-138624714D01*
X111304981Y-138906411D01*
X112026946Y-139050019D01*
X112763054Y-139050019D01*
X113485019Y-138906411D01*
X114165095Y-138624714D01*
X114777147Y-138215754D01*
X115297654Y-137695247D01*
X115706614Y-137083195D01*
X115988311Y-136403119D01*
X116131919Y-135681154D01*
X116131919Y-134945046D01*
X115988311Y-134223081D01*
X115706614Y-133543005D01*
X115297654Y-132930953D01*
X114777147Y-132410446D01*
X114165095Y-132001486D01*
X113485019Y-131719789D01*
X112763054Y-131576181D01*
X112026946Y-131576181D01*
X111304981Y-131719789D01*
X110624905Y-132001486D01*
X110012853Y-132410446D01*
X109492346Y-132930953D01*
X109083386Y-133543005D01*
X108801689Y-134223081D01*
X108658081Y-134945046D01*
X102180000Y-134945046D01*
X102180000Y-122791533D01*
X106641693Y-122791533D01*
X106641693Y-123674667D01*
X106813984Y-124540832D01*
X107151945Y-125356742D01*
X107642588Y-126091042D01*
X108267058Y-126715512D01*
X109001358Y-127206155D01*
X109817268Y-127544116D01*
X110683433Y-127716407D01*
X111566567Y-127716407D01*
X112432732Y-127544116D01*
X113248642Y-127206155D01*
X113982942Y-126715512D01*
X114607412Y-126091042D01*
X115098055Y-125356742D01*
X115436016Y-124540832D01*
X115608307Y-123674667D01*
X115608307Y-122791533D01*
X115436016Y-121925368D01*
X115098055Y-121109458D01*
X114607412Y-120375158D01*
X113982942Y-119750688D01*
X113248642Y-119260045D01*
X112432732Y-118922084D01*
X111566567Y-118749793D01*
X110683433Y-118749793D01*
X109817268Y-118922084D01*
X109001358Y-119260045D01*
X108267058Y-119750688D01*
X107642588Y-120375158D01*
X107151945Y-121109458D01*
X106813984Y-121925368D01*
X106641693Y-122791533D01*
X102180000Y-122791533D01*
X102180000Y-110091533D01*
X106641693Y-110091533D01*
X106641693Y-110974667D01*
X106813984Y-111840832D01*
X107151945Y-112656742D01*
X107642588Y-113391042D01*
X108267058Y-114015512D01*
X109001358Y-114506155D01*
X109817268Y-114844116D01*
X110683433Y-115016407D01*
X111566567Y-115016407D01*
X112432732Y-114844116D01*
X113248642Y-114506155D01*
X113982942Y-114015512D01*
X114607412Y-113391042D01*
X115098055Y-112656742D01*
X115436016Y-111840832D01*
X115608307Y-110974667D01*
X115608307Y-110091533D01*
X115436016Y-109225368D01*
X115098055Y-108409458D01*
X114607412Y-107675158D01*
X113982942Y-107050688D01*
X113248642Y-106560045D01*
X112432732Y-106222084D01*
X111566567Y-106049793D01*
X110683433Y-106049793D01*
X109817268Y-106222084D01*
X109001358Y-106560045D01*
X108267058Y-107050688D01*
X107642588Y-107675158D01*
X107151945Y-108409458D01*
X106813984Y-109225368D01*
X106641693Y-110091533D01*
X102180000Y-110091533D01*
X102180000Y-97391533D01*
X106641693Y-97391533D01*
X106641693Y-98274667D01*
X106813984Y-99140832D01*
X107151945Y-99956742D01*
X107642588Y-100691042D01*
X108267058Y-101315512D01*
X109001358Y-101806155D01*
X109817268Y-102144116D01*
X110683433Y-102316407D01*
X111566567Y-102316407D01*
X112432732Y-102144116D01*
X113248642Y-101806155D01*
X113982942Y-101315512D01*
X114607412Y-100691042D01*
X115098055Y-99956742D01*
X115436016Y-99140832D01*
X115608307Y-98274667D01*
X115608307Y-97391533D01*
X115436016Y-96525368D01*
X115098055Y-95709458D01*
X114607412Y-94975158D01*
X113982942Y-94350688D01*
X113248642Y-93860045D01*
X112432732Y-93522084D01*
X111566567Y-93349793D01*
X110683433Y-93349793D01*
X109817268Y-93522084D01*
X109001358Y-93860045D01*
X108267058Y-94350688D01*
X107642588Y-94975158D01*
X107151945Y-95709458D01*
X106813984Y-96525368D01*
X106641693Y-97391533D01*
X102180000Y-97391533D01*
X102180000Y-84691533D01*
X106641693Y-84691533D01*
X106641693Y-85574667D01*
X106813984Y-86440832D01*
X107151945Y-87256742D01*
X107642588Y-87991042D01*
X108267058Y-88615512D01*
X109001358Y-89106155D01*
X109817268Y-89444116D01*
X110683433Y-89616407D01*
X111566567Y-89616407D01*
X112432732Y-89444116D01*
X113248642Y-89106155D01*
X113982942Y-88615512D01*
X114607412Y-87991042D01*
X115098055Y-87256742D01*
X115436016Y-86440832D01*
X115608307Y-85574667D01*
X115608307Y-84691533D01*
X115436016Y-83825368D01*
X115098055Y-83009458D01*
X114607412Y-82275158D01*
X113982942Y-81650688D01*
X113248642Y-81160045D01*
X112432732Y-80822084D01*
X111566567Y-80649793D01*
X110683433Y-80649793D01*
X109817268Y-80822084D01*
X109001358Y-81160045D01*
X108267058Y-81650688D01*
X107642588Y-82275158D01*
X107151945Y-83009458D01*
X106813984Y-83825368D01*
X106641693Y-84691533D01*
X102180000Y-84691533D01*
X102180000Y-72695046D01*
X108658081Y-72695046D01*
X108658081Y-73431154D01*
X108801689Y-74153119D01*
X109083386Y-74833195D01*
X109492346Y-75445247D01*
X110012853Y-75965754D01*
X110624905Y-76374714D01*
X111304981Y-76656411D01*
X112026946Y-76800019D01*
X112763054Y-76800019D01*
X113485019Y-76656411D01*
X114165095Y-76374714D01*
X114777147Y-75965754D01*
X115297654Y-75445247D01*
X115706614Y-74833195D01*
X115988311Y-74153119D01*
X116131919Y-73431154D01*
X116131919Y-72695046D01*
X115988311Y-71973081D01*
X115706614Y-71293005D01*
X115297654Y-70680953D01*
X114777147Y-70160446D01*
X114165095Y-69751486D01*
X113485019Y-69469789D01*
X112763054Y-69326181D01*
X112026946Y-69326181D01*
X111304981Y-69469789D01*
X110624905Y-69751486D01*
X110012853Y-70160446D01*
X109492346Y-70680953D01*
X109083386Y-71293005D01*
X108801689Y-71973081D01*
X108658081Y-72695046D01*
X102180000Y-72695046D01*
X102180000Y-40708100D01*
X108326102Y-40708100D01*
X108290408Y-40715200D01*
G04 #@! TA.AperFunction,NonConductor*
D11*
G36*
X108290408Y-40715200D02*
G01*
X107882000Y-40884368D01*
X107514443Y-41129961D01*
X107201861Y-41442543D01*
X106956268Y-41810100D01*
X106787100Y-42218508D01*
X106700858Y-42652071D01*
X106700858Y-43094129D01*
X106787100Y-43527692D01*
X106956268Y-43936100D01*
X107201861Y-44303657D01*
X107514443Y-44616239D01*
X107882000Y-44861832D01*
X108290408Y-45031000D01*
X108723971Y-45117242D01*
X109166029Y-45117242D01*
X109599592Y-45031000D01*
X110008000Y-44861832D01*
X110375557Y-44616239D01*
X110688139Y-44303657D01*
X110933732Y-43936100D01*
X111102900Y-43527692D01*
X111189142Y-43094129D01*
X111189142Y-42652071D01*
X111102900Y-42218508D01*
X110933732Y-41810100D01*
X110688139Y-41442543D01*
X110375557Y-41129961D01*
X110008000Y-40884368D01*
X109599592Y-40715200D01*
X109563898Y-40708100D01*
X120690000Y-40708100D01*
X120690000Y-83556830D01*
X120681391Y-83543945D01*
X120334155Y-83196709D01*
X119925849Y-82923887D01*
X119472163Y-82735964D01*
X118990533Y-82640162D01*
X118499467Y-82640162D01*
X118017837Y-82735964D01*
X117564151Y-82923887D01*
X117155845Y-83196709D01*
X116808609Y-83543945D01*
X116535787Y-83952251D01*
X116347864Y-84405937D01*
X116252062Y-84887567D01*
X116252062Y-85378633D01*
X116347864Y-85860263D01*
X116535787Y-86313949D01*
X116808609Y-86722255D01*
X117155845Y-87069491D01*
X117564151Y-87342313D01*
X118017837Y-87530236D01*
X118499467Y-87626038D01*
X118990533Y-87626038D01*
X119472163Y-87530236D01*
X119925849Y-87342313D01*
X120334155Y-87069491D01*
X120681391Y-86722255D01*
X120690000Y-86709370D01*
X120690000Y-96256830D01*
X120681391Y-96243945D01*
X120334155Y-95896709D01*
X119925849Y-95623887D01*
X119472163Y-95435964D01*
X118990533Y-95340162D01*
X118499467Y-95340162D01*
X118017837Y-95435964D01*
X117564151Y-95623887D01*
X117155845Y-95896709D01*
X116808609Y-96243945D01*
X116535787Y-96652251D01*
X116347864Y-97105937D01*
X116252062Y-97587567D01*
X116252062Y-98078633D01*
X116347864Y-98560263D01*
X116535787Y-99013949D01*
X116808609Y-99422255D01*
X117155845Y-99769491D01*
X117564151Y-100042313D01*
X118017837Y-100230236D01*
X118499467Y-100326038D01*
X118990533Y-100326038D01*
X119472163Y-100230236D01*
X119925849Y-100042313D01*
X120334155Y-99769491D01*
X120681391Y-99422255D01*
X120690000Y-99409370D01*
X120690001Y-108956830D01*
X120681391Y-108943945D01*
X120334155Y-108596709D01*
X119925849Y-108323887D01*
X119472163Y-108135964D01*
X118990533Y-108040162D01*
X118499467Y-108040162D01*
X118017837Y-108135964D01*
X117564151Y-108323887D01*
X117155845Y-108596709D01*
X116808609Y-108943945D01*
X116535787Y-109352251D01*
X116347864Y-109805937D01*
X116252062Y-110287567D01*
X116252062Y-110778633D01*
X116347864Y-111260263D01*
X116535787Y-111713949D01*
X116808609Y-112122255D01*
X117155845Y-112469491D01*
X117564151Y-112742313D01*
X118017837Y-112930236D01*
X118499467Y-113026038D01*
X118990533Y-113026038D01*
X119472163Y-112930236D01*
X119925849Y-112742313D01*
X120334155Y-112469491D01*
X120681391Y-112122255D01*
X120690001Y-112109370D01*
X120690001Y-121656830D01*
X120681391Y-121643945D01*
X120334155Y-121296709D01*
X119925849Y-121023887D01*
X119472163Y-120835964D01*
X118990533Y-120740162D01*
X118499467Y-120740162D01*
X118017837Y-120835964D01*
X117564151Y-121023887D01*
X117155845Y-121296709D01*
X116808609Y-121643945D01*
X116535787Y-122052251D01*
X116347864Y-122505937D01*
X116252062Y-122987567D01*
X116252062Y-123478633D01*
X116347864Y-123960263D01*
X116535787Y-124413949D01*
X116808609Y-124822255D01*
X117155845Y-125169491D01*
X117564151Y-125442313D01*
X118017837Y-125630236D01*
X118499467Y-125726038D01*
X118990533Y-125726038D01*
X119472163Y-125630236D01*
X119925849Y-125442313D01*
X120334155Y-125169491D01*
X120681391Y-124822255D01*
X120690001Y-124809370D01*
X120690001Y-167638100D01*
X102180000Y-167638100D01*
X102180000Y-165152071D01*
X106700858Y-165152071D01*
X106700858Y-165594129D01*
X106787100Y-166027692D01*
X106956268Y-166436100D01*
X107201861Y-166803657D01*
X107514443Y-167116239D01*
X107882000Y-167361832D01*
X108290408Y-167531000D01*
X108723971Y-167617242D01*
X109166029Y-167617242D01*
X109599592Y-167531000D01*
X110008000Y-167361832D01*
X110375557Y-167116239D01*
X110688139Y-166803657D01*
X110933732Y-166436100D01*
X111102900Y-166027692D01*
X111189142Y-165594129D01*
X111189142Y-165152071D01*
X111102900Y-164718508D01*
X110933732Y-164310100D01*
X110688139Y-163942543D01*
X110375557Y-163629961D01*
X110008000Y-163384368D01*
X109599592Y-163215200D01*
X109166029Y-163128958D01*
X108723971Y-163128958D01*
X108290408Y-163215200D01*
X107882000Y-163384368D01*
X107514443Y-163629961D01*
X107201861Y-163942543D01*
X106956268Y-164310100D01*
X106787100Y-164718508D01*
X106700858Y-165152071D01*
X102180000Y-165152071D01*
X102180000Y-148905046D01*
X108658081Y-148905046D01*
X108658081Y-149641154D01*
X108801689Y-150363119D01*
X109083386Y-151043195D01*
X109492346Y-151655247D01*
X110012853Y-152175754D01*
X110624905Y-152584714D01*
X111304981Y-152866411D01*
X112026946Y-153010019D01*
X112763054Y-153010019D01*
X113485019Y-152866411D01*
X114165095Y-152584714D01*
X114777147Y-152175754D01*
X115297654Y-151655247D01*
X115706614Y-151043195D01*
X115988311Y-150363119D01*
X116131919Y-149641154D01*
X116131919Y-148905046D01*
X115988311Y-148183081D01*
X115706614Y-147503005D01*
X115297654Y-146890953D01*
X114777147Y-146370446D01*
X114165095Y-145961486D01*
X113485019Y-145679789D01*
X112763054Y-145536181D01*
X112026946Y-145536181D01*
X111304981Y-145679789D01*
X110624905Y-145961486D01*
X110012853Y-146370446D01*
X109492346Y-146890953D01*
X109083386Y-147503005D01*
X108801689Y-148183081D01*
X108658081Y-148905046D01*
X102180000Y-148905046D01*
X102180000Y-134945046D01*
X108658081Y-134945046D01*
X108658081Y-135681154D01*
X108801689Y-136403119D01*
X109083386Y-137083195D01*
X109492346Y-137695247D01*
X110012853Y-138215754D01*
X110624905Y-138624714D01*
X111304981Y-138906411D01*
X112026946Y-139050019D01*
X112763054Y-139050019D01*
X113485019Y-138906411D01*
X114165095Y-138624714D01*
X114777147Y-138215754D01*
X115297654Y-137695247D01*
X115706614Y-137083195D01*
X115988311Y-136403119D01*
X116131919Y-135681154D01*
X116131919Y-134945046D01*
X115988311Y-134223081D01*
X115706614Y-133543005D01*
X115297654Y-132930953D01*
X114777147Y-132410446D01*
X114165095Y-132001486D01*
X113485019Y-131719789D01*
X112763054Y-131576181D01*
X112026946Y-131576181D01*
X111304981Y-131719789D01*
X110624905Y-132001486D01*
X110012853Y-132410446D01*
X109492346Y-132930953D01*
X109083386Y-133543005D01*
X108801689Y-134223081D01*
X108658081Y-134945046D01*
X102180000Y-134945046D01*
X102180000Y-122791533D01*
X106641693Y-122791533D01*
X106641693Y-123674667D01*
X106813984Y-124540832D01*
X107151945Y-125356742D01*
X107642588Y-126091042D01*
X108267058Y-126715512D01*
X109001358Y-127206155D01*
X109817268Y-127544116D01*
X110683433Y-127716407D01*
X111566567Y-127716407D01*
X112432732Y-127544116D01*
X113248642Y-127206155D01*
X113982942Y-126715512D01*
X114607412Y-126091042D01*
X115098055Y-125356742D01*
X115436016Y-124540832D01*
X115608307Y-123674667D01*
X115608307Y-122791533D01*
X115436016Y-121925368D01*
X115098055Y-121109458D01*
X114607412Y-120375158D01*
X113982942Y-119750688D01*
X113248642Y-119260045D01*
X112432732Y-118922084D01*
X111566567Y-118749793D01*
X110683433Y-118749793D01*
X109817268Y-118922084D01*
X109001358Y-119260045D01*
X108267058Y-119750688D01*
X107642588Y-120375158D01*
X107151945Y-121109458D01*
X106813984Y-121925368D01*
X106641693Y-122791533D01*
X102180000Y-122791533D01*
X102180000Y-110091533D01*
X106641693Y-110091533D01*
X106641693Y-110974667D01*
X106813984Y-111840832D01*
X107151945Y-112656742D01*
X107642588Y-113391042D01*
X108267058Y-114015512D01*
X109001358Y-114506155D01*
X109817268Y-114844116D01*
X110683433Y-115016407D01*
X111566567Y-115016407D01*
X112432732Y-114844116D01*
X113248642Y-114506155D01*
X113982942Y-114015512D01*
X114607412Y-113391042D01*
X115098055Y-112656742D01*
X115436016Y-111840832D01*
X115608307Y-110974667D01*
X115608307Y-110091533D01*
X115436016Y-109225368D01*
X115098055Y-108409458D01*
X114607412Y-107675158D01*
X113982942Y-107050688D01*
X113248642Y-106560045D01*
X112432732Y-106222084D01*
X111566567Y-106049793D01*
X110683433Y-106049793D01*
X109817268Y-106222084D01*
X109001358Y-106560045D01*
X108267058Y-107050688D01*
X107642588Y-107675158D01*
X107151945Y-108409458D01*
X106813984Y-109225368D01*
X106641693Y-110091533D01*
X102180000Y-110091533D01*
X102180000Y-97391533D01*
X106641693Y-97391533D01*
X106641693Y-98274667D01*
X106813984Y-99140832D01*
X107151945Y-99956742D01*
X107642588Y-100691042D01*
X108267058Y-101315512D01*
X109001358Y-101806155D01*
X109817268Y-102144116D01*
X110683433Y-102316407D01*
X111566567Y-102316407D01*
X112432732Y-102144116D01*
X113248642Y-101806155D01*
X113982942Y-101315512D01*
X114607412Y-100691042D01*
X115098055Y-99956742D01*
X115436016Y-99140832D01*
X115608307Y-98274667D01*
X115608307Y-97391533D01*
X115436016Y-96525368D01*
X115098055Y-95709458D01*
X114607412Y-94975158D01*
X113982942Y-94350688D01*
X113248642Y-93860045D01*
X112432732Y-93522084D01*
X111566567Y-93349793D01*
X110683433Y-93349793D01*
X109817268Y-93522084D01*
X109001358Y-93860045D01*
X108267058Y-94350688D01*
X107642588Y-94975158D01*
X107151945Y-95709458D01*
X106813984Y-96525368D01*
X106641693Y-97391533D01*
X102180000Y-97391533D01*
X102180000Y-84691533D01*
X106641693Y-84691533D01*
X106641693Y-85574667D01*
X106813984Y-86440832D01*
X107151945Y-87256742D01*
X107642588Y-87991042D01*
X108267058Y-88615512D01*
X109001358Y-89106155D01*
X109817268Y-89444116D01*
X110683433Y-89616407D01*
X111566567Y-89616407D01*
X112432732Y-89444116D01*
X113248642Y-89106155D01*
X113982942Y-88615512D01*
X114607412Y-87991042D01*
X115098055Y-87256742D01*
X115436016Y-86440832D01*
X115608307Y-85574667D01*
X115608307Y-84691533D01*
X115436016Y-83825368D01*
X115098055Y-83009458D01*
X114607412Y-82275158D01*
X113982942Y-81650688D01*
X113248642Y-81160045D01*
X112432732Y-80822084D01*
X111566567Y-80649793D01*
X110683433Y-80649793D01*
X109817268Y-80822084D01*
X109001358Y-81160045D01*
X108267058Y-81650688D01*
X107642588Y-82275158D01*
X107151945Y-83009458D01*
X106813984Y-83825368D01*
X106641693Y-84691533D01*
X102180000Y-84691533D01*
X102180000Y-72695046D01*
X108658081Y-72695046D01*
X108658081Y-73431154D01*
X108801689Y-74153119D01*
X109083386Y-74833195D01*
X109492346Y-75445247D01*
X110012853Y-75965754D01*
X110624905Y-76374714D01*
X111304981Y-76656411D01*
X112026946Y-76800019D01*
X112763054Y-76800019D01*
X113485019Y-76656411D01*
X114165095Y-76374714D01*
X114777147Y-75965754D01*
X115297654Y-75445247D01*
X115706614Y-74833195D01*
X115988311Y-74153119D01*
X116131919Y-73431154D01*
X116131919Y-72695046D01*
X115988311Y-71973081D01*
X115706614Y-71293005D01*
X115297654Y-70680953D01*
X114777147Y-70160446D01*
X114165095Y-69751486D01*
X113485019Y-69469789D01*
X112763054Y-69326181D01*
X112026946Y-69326181D01*
X111304981Y-69469789D01*
X110624905Y-69751486D01*
X110012853Y-70160446D01*
X109492346Y-70680953D01*
X109083386Y-71293005D01*
X108801689Y-71973081D01*
X108658081Y-72695046D01*
X102180000Y-72695046D01*
X102180000Y-40708100D01*
X108326102Y-40708100D01*
X108290408Y-40715200D01*
G37*
G04 #@! TD.AperFunction*
M02*
