  0
SECTION
  2
HEADER
  9
$ACADVER
  1
AC1014
  9
$HANDSEED
  5
FFFF
  9
$MEASUREMENT
 70
     1
  0
ENDSEC
  0
SECTION
  2
TABLES
  0
TABLE
  2
VPORT
  5
8
330
0
100
AcDbSymbolTable
 70
     4
  0
VPORT
  5
2E
330
8
100
AcDbSymbolTableRecord
100
AcDbViewportTableRecord
  2
*ACTIVE
 70
     0
 10
0.0
 20
0.0
 11
1.0
 21
1.0
 12
210.0
 22
148.5
 13
0.0
 23
0.0
 14
10.0
 24
10.0
 15
10.0
 25
10.0
 16
0.0
 26
0.0
 36
1.0
 17
0.0
 27
0.0
 37
0.0
 40
341.0
 41
1.24
 42
50.0
 43
0.0
 44
0.0
 50
0.0
 51
0.0
 71
     0
 72
   100
 73
     1
 74
     3
 75
     0
 76
     0
 77
     0
 78
     0
  0
ENDTAB
  0
TABLE
  2
LTYPE
  5
5
330
0
100
AcDbSymbolTable
 70
     1
  0
LTYPE
  5
14
330
5
100
AcDbSymbolTableRecord
100
AcDbLinetypeTableRecord
  2
BYBLOCK
 70
     0
  3

 72
    65
 73
     0
 40
0.0
  0
LTYPE
  5
15
330
5
100
AcDbSymbolTableRecord
100
AcDbLinetypeTableRecord
  2
BYLAYER
 70
     0
  3

 72
    65
 73
     0
 40
0.0
  0
LTYPE
  5
16
330
5
100
AcDbSymbolTableRecord
100
AcDbLinetypeTableRecord
  2
CONTINUOUS
 70
     0
  3
Solid line
 72
    65
 73
     0
 40
0.0
  0
ENDTAB
  0
TABLE
  2
LAYER
  5
2
100
AcDbSymbolTable
 70
2
  0
LAYER
  5
50
100
AcDbSymbolTableRecord
100
AcDbLayerTableRecord
  2
0
 70
0
  6
CONTINUOUS
  0
LAYER
  5
51
100
AcDbSymbolTableRecord
100
AcDbLayerTableRecord
  2
Layer_1
 70
0
  6
CONTINUOUS
  0
ENDTAB
  0
TABLE
  2
STYLE
  5
3
330
0
100
AcDbSymbolTable
 70
     1
  0
STYLE
  5
11
330
3
100
AcDbSymbolTableRecord
100
AcDbTextStyleTableRecord
  2
STANDARD
 70
     0
 40
0.0
 41
1.0
 50
0.0
 71
     0
 42
2.5
  3
txt
  4

  0
ENDTAB
  0
TABLE
  2
VIEW
  5
6
330
0
100
AcDbSymbolTable
 70
     0
  0
ENDTAB
  0
TABLE
  2
UCS
  5
7
330
0
100
AcDbSymbolTable
 70
     0
  0
ENDTAB
  0
TABLE
  2
APPID
  5
9
330
0
100
AcDbSymbolTable
 70
     2
  0
APPID
  5
12
330
9
100
AcDbSymbolTableRecord
100
AcDbRegAppTableRecord
  2
ACAD
 70
     0
  0
ENDTAB
  0
TABLE
  2
DIMSTYLE
  5
A
330
0
100
AcDbSymbolTable
 70
     1
  0
DIMSTYLE
105
27
330
A
100
AcDbSymbolTableRecord
100
AcDbDimStyleTableRecord
  2
ISO-25
 70
     0
  3

  4

  5

  6

  7

 40
1.0
 41
2.5
 42
0.625
 43
3.75
 44
1.25
 45
0.0
 46
0.0
 47
0.0
 48
0.0
140
2.5
141
2.5
142
0.0
143
0.03937007874016
144
1.0
145
0.0
146
1.0
147
0.625
 71
     0
 72
     0
 73
     0
 74
     0
 75
     0
 76
     0
 77
     1
 78
     8
170
     0
171
     3
172
     1
173
     0
174
     0
175
     0
176
     0
177
     0
178
     0
270
     2
271
     2
272
     2
273
     2
274
     3
340
11
275
     0
280
     0
281
     0
282
     0
283
     0
284
     8
285
     0
286
     0
287
     3
288
     0
  0
ENDTAB
  0
TABLE
  2
BLOCK_RECORD
  5
1
330
0
100
AcDbSymbolTable
 70
     1
  0
BLOCK_RECORD
  5
1F
330
1
100
AcDbSymbolTableRecord
100
AcDbBlockTableRecord
  2
*MODEL_SPACE
  0
BLOCK_RECORD
  5
1B
330
1
100
AcDbSymbolTableRecord
100
AcDbBlockTableRecord
  2
*PAPER_SPACE
  0
ENDTAB
  0
ENDSEC
  0
SECTION
  2
BLOCKS
  0
BLOCK
  5
20
330
1F
100
AcDbEntity
  8
0
100
AcDbBlockBegin
  2
*MODEL_SPACE
 70
     0
 10
0.0
 20
0.0
 30
0.0
  3
*MODEL_SPACE
  1

  0
ENDBLK
  5
21
330
1F
100
AcDbEntity
  8
0
100
AcDbBlockEnd
  0
BLOCK
  5
1C
330
1B
100
AcDbEntity
 67
     1
  8
0
100
AcDbBlockBegin
  2
*PAPER_SPACE
  1

  0
ENDBLK
  5
1D
330
1B
100
AcDbEntity
 67
     1
  8
0
100
AcDbBlockEnd
  0
ENDSEC
  0
SECTION
  2
ENTITIES
  0
SPLINE
  5
100
100
AcDbEntity
  8
Layer_1
 62
7
100
AcDbSpline
 70
8
 71
3
 72
8
 73
4
 74
0
 40
0
 40
0
 40
0
 40
0
 40
1
 40
1
 40
1
 40
1
 10
47.310318
 20
277.443121
 30
0.0
 10
47.310550
 20
277.979174
 30
0.0
 10
47.024703
 20
278.474607
 30
0.0
 10
46.560506
 20
278.742701
 30
0.0
  0
SPLINE
  5
101
100
AcDbEntity
  8
Layer_1
 62
7
100
AcDbSpline
 70
8
 71
3
 72
8
 73
4
 74
0
 40
0
 40
0
 40
0
 40
0
 40
1
 40
1
 40
1
 40
1
 10
46.560506
 20
278.742701
 30
0.0
 10
46.096309
 20
279.010795
 30
0.0
 10
45.524327
 20
279.010795
 30
0.0
 10
45.060130
 20
278.742701
 30
0.0
  0
SPLINE
  5
102
100
AcDbEntity
  8
Layer_1
 62
7
100
AcDbSpline
 70
8
 71
3
 72
8
 73
4
 74
0
 40
0
 40
0
 40
0
 40
0
 40
1
 40
1
 40
1
 40
1
 10
45.060130
 20
278.742701
 30
0.0
 10
44.595933
 20
278.474607
 30
0.0
 10
44.310085
 20
277.979174
 30
0.0
 10
44.310318
 20
277.443121
 30
0.0
  0
SPLINE
  5
103
100
AcDbEntity
  8
Layer_1
 62
7
100
AcDbSpline
 70
8
 71
3
 72
8
 73
4
 74
0
 40
0
 40
0
 40
0
 40
0
 40
1
 40
1
 40
1
 40
1
 10
44.310318
 20
277.443121
 30
0.0
 10
44.310085
 20
276.907067
 30
0.0
 10
44.595933
 20
276.411634
 30
0.0
 10
45.060130
 20
276.143540
 30
0.0
  0
SPLINE
  5
104
100
AcDbEntity
  8
Layer_1
 62
7
100
AcDbSpline
 70
8
 71
3
 72
8
 73
4
 74
0
 40
0
 40
0
 40
0
 40
0
 40
1
 40
1
 40
1
 40
1
 10
45.060130
 20
276.143540
 30
0.0
 10
45.524327
 20
275.875446
 30
0.0
 10
46.096309
 20
275.875446
 30
0.0
 10
46.560506
 20
276.143540
 30
0.0
  0
SPLINE
  5
105
100
AcDbEntity
  8
Layer_1
 62
7
100
AcDbSpline
 70
8
 71
3
 72
8
 73
4
 74
0
 40
0
 40
0
 40
0
 40
0
 40
1
 40
1
 40
1
 40
1
 10
46.560506
 20
276.143540
 30
0.0
 10
47.024703
 20
276.411634
 30
0.0
 10
47.310550
 20
276.907067
 30
0.0
 10
47.310318
 20
277.443121
 30
0.0
  0
LWPOLYLINE
  5
106
100
AcDbEntity
  8
Layer_1
 62
7
100
AcDbPolyline
 90
4
 70
1
 10
48.130318
 20
280.343120
 30
0.0
 10
48.130318
 20
151.943120
 30
0.0
 10
38.310318
 20
151.943120
 30
0.0
 10
38.310318
 20
280.343120
 30
0.0
  0
SPLINE
  5
107
100
AcDbEntity
  8
Layer_1
 62
7
100
AcDbSpline
 70
8
 71
3
 72
8
 73
4
 74
0
 40
0
 40
0
 40
0
 40
0
 40
1
 40
1
 40
1
 40
1
 10
47.310318
 20
154.943114
 30
0.0
 10
47.310550
 20
155.479168
 30
0.0
 10
47.024703
 20
155.974601
 30
0.0
 10
46.560506
 20
156.242695
 30
0.0
  0
SPLINE
  5
108
100
AcDbEntity
  8
Layer_1
 62
7
100
AcDbSpline
 70
8
 71
3
 72
8
 73
4
 74
0
 40
0
 40
0
 40
0
 40
0
 40
1
 40
1
 40
1
 40
1
 10
46.560506
 20
156.242695
 30
0.0
 10
46.096309
 20
156.510789
 30
0.0
 10
45.524327
 20
156.510789
 30
0.0
 10
45.060130
 20
156.242695
 30
0.0
  0
SPLINE
  5
109
100
AcDbEntity
  8
Layer_1
 62
7
100
AcDbSpline
 70
8
 71
3
 72
8
 73
4
 74
0
 40
0
 40
0
 40
0
 40
0
 40
1
 40
1
 40
1
 40
1
 10
45.060130
 20
156.242695
 30
0.0
 10
44.595933
 20
155.974601
 30
0.0
 10
44.310085
 20
155.479168
 30
0.0
 10
44.310318
 20
154.943114
 30
0.0
  0
SPLINE
  5
10a
100
AcDbEntity
  8
Layer_1
 62
7
100
AcDbSpline
 70
8
 71
3
 72
8
 73
4
 74
0
 40
0
 40
0
 40
0
 40
0
 40
1
 40
1
 40
1
 40
1
 10
44.310318
 20
154.943114
 30
0.0
 10
44.310085
 20
154.407061
 30
0.0
 10
44.595933
 20
153.911628
 30
0.0
 10
45.060130
 20
153.643534
 30
0.0
  0
SPLINE
  5
10b
100
AcDbEntity
  8
Layer_1
 62
7
100
AcDbSpline
 70
8
 71
3
 72
8
 73
4
 74
0
 40
0
 40
0
 40
0
 40
0
 40
1
 40
1
 40
1
 40
1
 10
45.060130
 20
153.643534
 30
0.0
 10
45.524327
 20
153.375440
 30
0.0
 10
46.096309
 20
153.375440
 30
0.0
 10
46.560506
 20
153.643534
 30
0.0
  0
SPLINE
  5
10c
100
AcDbEntity
  8
Layer_1
 62
7
100
AcDbSpline
 70
8
 71
3
 72
8
 73
4
 74
0
 40
0
 40
0
 40
0
 40
0
 40
1
 40
1
 40
1
 40
1
 10
46.560506
 20
153.643534
 30
0.0
 10
47.024703
 20
153.911628
 30
0.0
 10
47.310550
 20
154.407061
 30
0.0
 10
47.310318
 20
154.943114
 30
0.0
  0
LWPOLYLINE
  5
10d
100
AcDbEntity
  8
Layer_1
 62
7
100
AcDbPolyline
 90
1
 70
1
 10
47.310318
 20
277.443121
 30
0.0
  0
SPLINE
  5
10e
100
AcDbEntity
  8
Layer_1
 62
7
100
AcDbSpline
 70
8
 71
3
 72
8
 73
4
 74
0
 40
0
 40
0
 40
0
 40
0
 40
1
 40
1
 40
1
 40
1
 10
46.220318
 20
231.863120
 30
0.0
 10
46.220318
 20
232.934916
 30
0.0
 10
45.648521
 20
233.925297
 30
0.0
 10
44.720318
 20
234.461196
 30
0.0
  0
SPLINE
  5
10f
100
AcDbEntity
  8
Layer_1
 62
7
100
AcDbSpline
 70
8
 71
3
 72
8
 73
4
 74
0
 40
0
 40
0
 40
0
 40
0
 40
1
 40
1
 40
1
 40
1
 10
44.720318
 20
234.461196
 30
0.0
 10
43.792114
 20
234.997094
 30
0.0
 10
42.648521
 20
234.997094
 30
0.0
 10
41.720318
 20
234.461196
 30
0.0
  0
SPLINE
  5
110
100
AcDbEntity
  8
Layer_1
 62
7
100
AcDbSpline
 70
8
 71
3
 72
8
 73
4
 74
0
 40
0
 40
0
 40
0
 40
0
 40
1
 40
1
 40
1
 40
1
 10
41.720318
 20
234.461196
 30
0.0
 10
40.792115
 20
233.925297
 30
0.0
 10
40.220318
 20
232.934916
 30
0.0
 10
40.220318
 20
231.863120
 30
0.0
  0
SPLINE
  5
111
100
AcDbEntity
  8
Layer_1
 62
7
100
AcDbSpline
 70
8
 71
3
 72
8
 73
4
 74
0
 40
0
 40
0
 40
0
 40
0
 40
1
 40
1
 40
1
 40
1
 10
40.220318
 20
231.863120
 30
0.0
 10
40.220318
 20
230.791323
 30
0.0
 10
40.792115
 20
229.800942
 30
0.0
 10
41.720318
 20
229.265044
 30
0.0
  0
SPLINE
  5
112
100
AcDbEntity
  8
Layer_1
 62
7
100
AcDbSpline
 70
8
 71
3
 72
8
 73
4
 74
0
 40
0
 40
0
 40
0
 40
0
 40
1
 40
1
 40
1
 40
1
 10
41.720318
 20
229.265044
 30
0.0
 10
42.648521
 20
228.729145
 30
0.0
 10
43.792114
 20
228.729145
 30
0.0
 10
44.720318
 20
229.265044
 30
0.0
  0
SPLINE
  5
113
100
AcDbEntity
  8
Layer_1
 62
7
100
AcDbSpline
 70
8
 71
3
 72
8
 73
4
 74
0
 40
0
 40
0
 40
0
 40
0
 40
1
 40
1
 40
1
 40
1
 10
44.720318
 20
229.265044
 30
0.0
 10
45.648521
 20
229.800942
 30
0.0
 10
46.220318
 20
230.791323
 30
0.0
 10
46.220318
 20
231.863120
 30
0.0
  0
LWPOLYLINE
  5
114
100
AcDbEntity
  8
Layer_1
 62
7
100
AcDbPolyline
 90
1
 70
1
 10
47.310318
 20
154.943114
 30
0.0
  0
SPLINE
  5
115
100
AcDbEntity
  8
Layer_1
 62
7
100
AcDbSpline
 70
8
 71
3
 72
8
 73
4
 74
0
 40
0
 40
0
 40
0
 40
0
 40
1
 40
1
 40
1
 40
1
 10
46.470318
 20
216.623120
 30
0.0
 10
46.470318
 20
217.784233
 30
0.0
 10
45.850871
 20
218.857146
 30
0.0
 10
44.845318
 20
219.437702
 30
0.0
  0
SPLINE
  5
116
100
AcDbEntity
  8
Layer_1
 62
7
100
AcDbSpline
 70
8
 71
3
 72
8
 73
4
 74
0
 40
0
 40
0
 40
0
 40
0
 40
1
 40
1
 40
1
 40
1
 10
44.845318
 20
219.437702
 30
0.0
 10
43.839764
 20
220.018259
 30
0.0
 10
42.600871
 20
220.018259
 30
0.0
 10
41.595318
 20
219.437702
 30
0.0
  0
SPLINE
  5
117
100
AcDbEntity
  8
Layer_1
 62
7
100
AcDbSpline
 70
8
 71
3
 72
8
 73
4
 74
0
 40
0
 40
0
 40
0
 40
0
 40
1
 40
1
 40
1
 40
1
 10
41.595318
 20
219.437702
 30
0.0
 10
40.589764
 20
218.857146
 30
0.0
 10
39.970318
 20
217.784233
 30
0.0
 10
39.970318
 20
216.623120
 30
0.0
  0
SPLINE
  5
118
100
AcDbEntity
  8
Layer_1
 62
7
100
AcDbSpline
 70
8
 71
3
 72
8
 73
4
 74
0
 40
0
 40
0
 40
0
 40
0
 40
1
 40
1
 40
1
 40
1
 10
39.970318
 20
216.623120
 30
0.0
 10
39.970318
 20
215.462007
 30
0.0
 10
40.589764
 20
214.389094
 30
0.0
 10
41.595318
 20
213.808537
 30
0.0
  0
SPLINE
  5
119
100
AcDbEntity
  8
Layer_1
 62
7
100
AcDbSpline
 70
8
 71
3
 72
8
 73
4
 74
0
 40
0
 40
0
 40
0
 40
0
 40
1
 40
1
 40
1
 40
1
 10
41.595318
 20
213.808537
 30
0.0
 10
42.600871
 20
213.227981
 30
0.0
 10
43.839764
 20
213.227981
 30
0.0
 10
44.845318
 20
213.808537
 30
0.0
  0
SPLINE
  5
11a
100
AcDbEntity
  8
Layer_1
 62
7
100
AcDbSpline
 70
8
 71
3
 72
8
 73
4
 74
0
 40
0
 40
0
 40
0
 40
0
 40
1
 40
1
 40
1
 40
1
 10
44.845318
 20
213.808537
 30
0.0
 10
45.850871
 20
214.389094
 30
0.0
 10
46.470318
 20
215.462007
 30
0.0
 10
46.470318
 20
216.623120
 30
0.0
  0
LWPOLYLINE
  5
11b
100
AcDbEntity
  8
Layer_1
 62
7
100
AcDbPolyline
 90
1
 70
1
 10
46.220318
 20
231.863120
 30
0.0
  0
SPLINE
  5
11c
100
AcDbEntity
  8
Layer_1
 62
7
100
AcDbSpline
 70
8
 71
3
 72
8
 73
4
 74
0
 40
0
 40
0
 40
0
 40
0
 40
1
 40
1
 40
1
 40
1
 10
46.470318
 20
191.223120
 30
0.0
 10
46.470318
 20
192.384233
 30
0.0
 10
45.850871
 20
193.457146
 30
0.0
 10
44.845318
 20
194.037702
 30
0.0
  0
SPLINE
  5
11d
100
AcDbEntity
  8
Layer_1
 62
7
100
AcDbSpline
 70
8
 71
3
 72
8
 73
4
 74
0
 40
0
 40
0
 40
0
 40
0
 40
1
 40
1
 40
1
 40
1
 10
44.845318
 20
194.037702
 30
0.0
 10
43.839764
 20
194.618259
 30
0.0
 10
42.600871
 20
194.618259
 30
0.0
 10
41.595318
 20
194.037702
 30
0.0
  0
SPLINE
  5
11e
100
AcDbEntity
  8
Layer_1
 62
7
100
AcDbSpline
 70
8
 71
3
 72
8
 73
4
 74
0
 40
0
 40
0
 40
0
 40
0
 40
1
 40
1
 40
1
 40
1
 10
41.595318
 20
194.037702
 30
0.0
 10
40.589764
 20
193.457146
 30
0.0
 10
39.970318
 20
192.384233
 30
0.0
 10
39.970318
 20
191.223120
 30
0.0
  0
SPLINE
  5
11f
100
AcDbEntity
  8
Layer_1
 62
7
100
AcDbSpline
 70
8
 71
3
 72
8
 73
4
 74
0
 40
0
 40
0
 40
0
 40
0
 40
1
 40
1
 40
1
 40
1
 10
39.970318
 20
191.223120
 30
0.0
 10
39.970318
 20
190.062007
 30
0.0
 10
40.589764
 20
188.989094
 30
0.0
 10
41.595318
 20
188.408537
 30
0.0
  0
SPLINE
  5
120
100
AcDbEntity
  8
Layer_1
 62
7
100
AcDbSpline
 70
8
 71
3
 72
8
 73
4
 74
0
 40
0
 40
0
 40
0
 40
0
 40
1
 40
1
 40
1
 40
1
 10
41.595318
 20
188.408537
 30
0.0
 10
42.600871
 20
187.827981
 30
0.0
 10
43.839764
 20
187.827981
 30
0.0
 10
44.845318
 20
188.408537
 30
0.0
  0
SPLINE
  5
121
100
AcDbEntity
  8
Layer_1
 62
7
100
AcDbSpline
 70
8
 71
3
 72
8
 73
4
 74
0
 40
0
 40
0
 40
0
 40
0
 40
1
 40
1
 40
1
 40
1
 10
44.845318
 20
188.408537
 30
0.0
 10
45.850871
 20
188.989094
 30
0.0
 10
46.470318
 20
190.062007
 30
0.0
 10
46.470318
 20
191.223120
 30
0.0
  0
LWPOLYLINE
  5
122
100
AcDbEntity
  8
Layer_1
 62
7
100
AcDbPolyline
 90
1
 70
1
 10
46.470318
 20
216.623120
 30
0.0
  0
SPLINE
  5
123
100
AcDbEntity
  8
Layer_1
 62
7
100
AcDbSpline
 70
8
 71
3
 72
8
 73
4
 74
0
 40
0
 40
0
 40
0
 40
0
 40
1
 40
1
 40
1
 40
1
 10
46.220318
 20
174.713120
 30
0.0
 10
46.220318
 20
175.784916
 30
0.0
 10
45.648521
 20
176.775297
 30
0.0
 10
44.720318
 20
177.311196
 30
0.0
  0
SPLINE
  5
124
100
AcDbEntity
  8
Layer_1
 62
7
100
AcDbSpline
 70
8
 71
3
 72
8
 73
4
 74
0
 40
0
 40
0
 40
0
 40
0
 40
1
 40
1
 40
1
 40
1
 10
44.720318
 20
177.311196
 30
0.0
 10
43.792114
 20
177.847094
 30
0.0
 10
42.648521
 20
177.847094
 30
0.0
 10
41.720318
 20
177.311196
 30
0.0
  0
SPLINE
  5
125
100
AcDbEntity
  8
Layer_1
 62
7
100
AcDbSpline
 70
8
 71
3
 72
8
 73
4
 74
0
 40
0
 40
0
 40
0
 40
0
 40
1
 40
1
 40
1
 40
1
 10
41.720318
 20
177.311196
 30
0.0
 10
40.792115
 20
176.775297
 30
0.0
 10
40.220318
 20
175.784916
 30
0.0
 10
40.220318
 20
174.713120
 30
0.0
  0
SPLINE
  5
126
100
AcDbEntity
  8
Layer_1
 62
7
100
AcDbSpline
 70
8
 71
3
 72
8
 73
4
 74
0
 40
0
 40
0
 40
0
 40
0
 40
1
 40
1
 40
1
 40
1
 10
40.220318
 20
174.713120
 30
0.0
 10
40.220318
 20
173.641323
 30
0.0
 10
40.792115
 20
172.650942
 30
0.0
 10
41.720318
 20
172.115044
 30
0.0
  0
SPLINE
  5
127
100
AcDbEntity
  8
Layer_1
 62
7
100
AcDbSpline
 70
8
 71
3
 72
8
 73
4
 74
0
 40
0
 40
0
 40
0
 40
0
 40
1
 40
1
 40
1
 40
1
 10
41.720318
 20
172.115044
 30
0.0
 10
42.648521
 20
171.579145
 30
0.0
 10
43.792114
 20
171.579145
 30
0.0
 10
44.720318
 20
172.115044
 30
0.0
  0
SPLINE
  5
128
100
AcDbEntity
  8
Layer_1
 62
7
100
AcDbSpline
 70
8
 71
3
 72
8
 73
4
 74
0
 40
0
 40
0
 40
0
 40
0
 40
1
 40
1
 40
1
 40
1
 10
44.720318
 20
172.115044
 30
0.0
 10
45.648521
 20
172.650942
 30
0.0
 10
46.220318
 20
173.641323
 30
0.0
 10
46.220318
 20
174.713120
 30
0.0
  0
LWPOLYLINE
  5
129
100
AcDbEntity
  8
Layer_1
 62
7
100
AcDbPolyline
 90
1
 70
1
 10
46.470318
 20
191.223120
 30
0.0
  0
LWPOLYLINE
  5
12a
100
AcDbEntity
  8
Layer_1
 62
7
100
AcDbPolyline
 90
1
 70
1
 10
46.220318
 20
174.713120
 30
0.0
  0
LWPOLYLINE
  5
12b
100
AcDbEntity
  8
Layer_1
 62
7
100
AcDbPolyline
 90
2
 70
0
 10
42.272668
 20
226.155119
 30
0.0
 10
42.272668
 20
223.592121
 30
0.0
  0
LWPOLYLINE
  5
12c
100
AcDbEntity
  8
Layer_1
 62
7
100
AcDbPolyline
 90
5
 70
0
 10
42.777488
 20
223.592121
 30
0.0
 10
42.777488
 20
226.155119
 30
0.0
 10
42.959118
 20
226.155119
 30
0.0
 10
44.169988
 20
223.592121
 30
0.0
 10
44.169988
 20
226.155119
 30
0.0
  0
LWPOLYLINE
  5
12d
100
AcDbEntity
  8
Layer_1
 62
7
100
AcDbPolyline
 90
9
 70
0
 10
40.708488
 20
167.733711
 30
0.0
 10
40.708488
 20
166.906289
 30
0.0
 10
40.748858
 20
166.704471
 30
0.0
 10
40.829578
 20
166.583398
 30
0.0
 10
40.930488
 20
166.502654
 30
0.0
 10
41.071748
 20
166.421939
 30
0.0
 10
41.192838
 20
166.421939
 30
0.0
 10
41.515738
 20
166.421939
 30
0.0
 10
41.697368
 20
166.442259
 30
0.0
  0
LWPOLYLINE
  5
12e
100
AcDbEntity
  8
Layer_1
 62
7
100
AcDbPolyline
 90
17
 70
0
 10
41.697368
 20
166.442118
 30
0.0
 10
41.838628
 20
166.522833
 30
0.0
 10
41.959718
 20
166.684293
 30
0.0
 10
42.020258
 20
166.906289
 30
0.0
 10
42.020258
 20
168.540948
 30
0.0
 10
41.979898
 20
168.702399
 30
0.0
 10
41.899178
 20
168.863850
 30
0.0
 10
41.798268
 20
168.944579
 30
0.0
 10
41.697368
 20
169.005119
 30
0.0
 10
41.515738
 20
169.025298
 30
0.0
 10
41.192838
 20
169.025301
 30
0.0
 10
41.031388
 20
169.005122
 30
0.0
 10
40.890118
 20
168.924400
 30
0.0
 10
40.789218
 20
168.823489
 30
0.0
 10
40.728668
 20
168.702399
 30
0.0
 10
40.708488
 20
168.540948
 30
0.0
 10
40.708488
 20
167.733711
 30
0.0
  0
LWPOLYLINE
  5
12f
100
AcDbEntity
  8
Layer_1
 62
7
100
AcDbPolyline
 90
8
 70
0
 10
42.545668
 20
169.005119
 30
0.0
 10
42.545668
 20
166.926470
 30
0.0
 10
42.606218
 20
166.684293
 30
0.0
 10
42.686938
 20
166.563219
 30
0.0
 10
42.848388
 20
166.462297
 30
0.0
 10
43.050198
 20
166.421939
 30
0.0
 10
43.312558
 20
166.421939
 30
0.0
 10
43.474008
 20
166.442259
 30
0.0
  0
LWPOLYLINE
  5
130
100
AcDbEntity
  8
Layer_1
 62
7
100
AcDbPolyline
 90
5
 70
0
 10
43.474008
 20
166.442118
 30
0.0
 10
43.655628
 20
166.543040
 30
0.0
 10
43.796898
 20
166.724659
 30
0.0
 10
43.837258
 20
166.926470
 30
0.0
 10
43.837258
 20
169.005119
 30
0.0
  0
LWPOLYLINE
  5
131
100
AcDbEntity
  8
Layer_1
 62
7
100
AcDbPolyline
 90
2
 70
0
 10
45.027648
 20
166.443105
 30
0.0
 10
45.027648
 20
169.006118
 30
0.0
  0
LWPOLYLINE
  5
132
100
AcDbEntity
  8
Layer_1
 62
7
100
AcDbPolyline
 90
2
 70
0
 10
44.341488
 20
169.006118
 30
0.0
 10
45.733988
 20
169.006118
 30
0.0
  0
LWPOLYLINE
  5
133
100
AcDbEntity
  8
Layer_1
 62
7
100
AcDbPolyline
 90
25
 70
0
 10
41.928998
 20
210.168418
 30
0.0
 10
41.928998
 20
210.471138
 30
0.0
 10
41.908819
 20
210.612399
 30
0.0
 10
41.848268
 20
210.753668
 30
0.0
 10
41.747368
 20
210.834400
 30
0.0
 10
41.646458
 20
210.894940
 30
0.0
 10
41.525378
 20
210.935301
 30
0.0
 10
41.242838
 20
210.935301
 30
0.0
 10
41.061208
 20
210.915122
 30
0.0
 10
40.919938
 20
210.814210
 30
0.0
 10
40.839218
 20
210.693128
 30
0.0
 10
40.778668
 20
210.531680
 30
0.0
 10
40.778668
 20
208.816289
 30
0.0
 10
40.819038
 20
208.634659
 30
0.0
 10
40.879578
 20
208.513569
 30
0.0
 10
41.000668
 20
208.412660
 30
0.0
 10
41.101568
 20
208.352121
 30
0.0
 10
41.263018
 20
208.331942
 30
0.0
 10
41.464828
 20
208.331939
 30
0.0
 10
41.606098
 20
208.352118
 30
0.0
 10
41.767548
 20
208.432839
 30
0.0
 10
41.868448
 20
208.533750
 30
0.0
 10
41.949178
 20
208.695198
 30
0.0
 10
41.949178
 20
208.816289
 30
0.0
 10
41.949178
 20
209.058458
 30
0.0
  0
LWPOLYLINE
  5
134
100
AcDbEntity
  8
Layer_1
 62
7
100
AcDbPolyline
 90
12
 70
0
 10
42.474668
 20
210.915119
 30
0.0
 10
42.474668
 20
208.836470
 30
0.0
 10
42.535218
 20
208.594290
 30
0.0
 10
42.615938
 20
208.473208
 30
0.0
 10
42.777388
 20
208.372299
 30
0.0
 10
42.979198
 20
208.331939
 30
0.0
 10
43.241558
 20
208.331939
 30
0.0
 10
43.403008
 20
208.352118
 30
0.0
 10
43.584628
 20
208.453029
 30
0.0
 10
43.725898
 20
208.634659
 30
0.0
 10
43.766258
 20
208.836470
 30
0.0
 10
43.766258
 20
210.915119
 30
0.0
  0
LWPOLYLINE
  5
135
100
AcDbEntity
  8
Layer_1
 62
7
100
AcDbPolyline
 90
2
 70
0
 10
44.956648
 20
208.353120
 30
0.0
 10
44.956648
 20
210.916118
 30
0.0
  0
LWPOLYLINE
  5
136
100
AcDbEntity
  8
Layer_1
 62
7
100
AcDbPolyline
 90
2
 70
0
 10
44.270488
 20
210.916118
 30
0.0
 10
45.662988
 20
210.916118
 30
0.0
  0
LWPOLYLINE
  5
137
100
AcDbEntity
  8
Layer_1
 62
7
100
AcDbPolyline
 90
8
 70
0
 10
41.687378
 20
184.363889
 30
0.0
 10
41.869008
 20
184.363889
 30
0.0
 10
42.030448
 20
184.262989
 30
0.0
 10
42.131358
 20
184.121720
 30
0.0
 10
42.151537
 20
183.980448
 30
0.0
 10
42.151538
 20
183.354840
 30
0.0
 10
42.171717
 20
183.213568
 30
0.0
 10
42.191897
 20
183.052120
 30
0.0
  0
LWPOLYLINE
  5
138
100
AcDbEntity
  8
Layer_1
 62
7
100
AcDbPolyline
 90
13
 70
0
 10
40.940668
 20
183.052120
 30
0.0
 10
40.940668
 20
185.615119
 30
0.0
 10
41.667188
 20
185.615119
 30
0.0
 10
41.889188
 20
185.554579
 30
0.0
 10
42.030448
 20
185.453668
 30
0.0
 10
42.131358
 20
185.312399
 30
0.0
 10
42.151537
 20
185.130769
 30
0.0
 10
42.151538
 20
184.848239
 30
0.0
 10
42.131359
 20
184.686788
 30
0.0
 10
42.030448
 20
184.525340
 30
0.0
 10
41.909368
 20
184.424429
 30
0.0
 10
41.687378
 20
184.363889
 30
0.0
 10
40.940668
 20
184.363889
 30
0.0
  0
LWPOLYLINE
  5
139
100
AcDbEntity
  8
Layer_1
 62
7
100
AcDbPolyline
 90
4
 70
0
 10
43.745908
 20
185.615119
 30
0.0
 10
42.696488
 20
185.615119
 30
0.0
 10
42.696488
 20
183.052120
 30
0.0
 10
43.766088
 20
183.052120
 30
0.0
  0
LWPOLYLINE
  5
13a
100
AcDbEntity
  8
Layer_1
 62
7
100
AcDbPolyline
 90
2
 70
0
 10
43.705548
 20
184.363889
 30
0.0
 10
42.696488
 20
184.363889
 30
0.0
  0
LWPOLYLINE
  5
13b
100
AcDbEntity
  8
Layer_1
 62
7
100
AcDbPolyline
 90
33
 70
0
 10
44.290668
 20
183.859361
 30
0.0
 10
44.290668
 20
183.516288
 30
0.0
 10
44.331038
 20
183.334659
 30
0.0
 10
44.431938
 20
183.173208
 30
0.0
 10
44.573208
 20
183.072299
 30
0.0
 10
44.775018
 20
183.031939
 30
0.0
 10
45.017188
 20
183.031939
 30
0.0
 10
45.158458
 20
183.052117
 30
0.0
 10
45.340088
 20
183.153029
 30
0.0
 10
45.461178
 20
183.314468
 30
0.0
 10
45.501538
 20
183.516288
 30
0.0
 10
45.501538
 20
183.657549
 30
0.0
 10
45.461178
 20
183.798818
 30
0.0
 10
45.380448
 20
183.960269
 30
0.0
 10
45.299728
 20
184.040990
 30
0.0
 10
45.178638
 20
184.141899
 30
0.0
 10
44.593388
 20
184.666609
 30
0.0
 10
44.492488
 20
184.747330
 30
0.0
 10
44.391578
 20
184.868418
 30
0.0
 10
44.351218
 20
184.928960
 30
0.0
 10
44.331039
 20
185.029869
 30
0.0
 10
44.331038
 20
185.211498
 30
0.0
 10
44.391578
 20
185.393128
 30
0.0
 10
44.472298
 20
185.514210
 30
0.0
 10
44.593388
 20
185.594940
 30
0.0
 10
44.795198
 20
185.635300
 30
0.0
 10
44.997008
 20
185.635300
 30
0.0
 10
45.118098
 20
185.615121
 30
0.0
 10
45.259368
 20
185.554579
 30
0.0
 10
45.360268
 20
185.453668
 30
0.0
 10
45.440998
 20
185.312399
 30
0.0
 10
45.461177
 20
185.171138
 30
0.0
 10
45.461178
 20
184.989508
 30
0.0
  0
LWPOLYLINE
  5
13c
100
AcDbEntity
  8
Layer_1
 62
7
100
AcDbPolyline
 90
5
 70
0
 10
39.792988
 20
155.831127
 30
0.0
 10
40.384648
 20
154.943622
 30
0.0
 10
40.384648
 20
154.056118
 30
0.0
 10
40.384648
 20
154.943622
 30
0.0
 10
40.976318
 20
155.831127
 30
0.0
  0
LWPOLYLINE
  5
13d
100
AcDbEntity
  8
Layer_1
 62
7
100
AcDbPolyline
 90
5
 70
0
 10
41.449988
 20
154.056118
 30
0.0
 10
41.449988
 20
155.831127
 30
0.0
 10
42.140258
 20
154.549189
 30
0.0
 10
42.830538
 20
155.831127
 30
0.0
 10
42.830538
 20
154.056118
 30
0.0
  0
LWPOLYLINE
  5
13e
100
AcDbEntity
  8
Layer_1
 62
7
100
AcDbPolyline
 90
7
 70
0
 10
39.779238
 20
262.315120
 30
0.0
 10
39.779238
 20
264.457430
 30
0.0
 10
39.779238
 20
264.264858
 30
0.0
 10
40.044018
 20
264.385209
 30
0.0
 10
40.212518
 20
264.457430
 30
0.0
 10
40.429148
 20
264.481503
 30
0.0
 10
40.621718
 20
264.481501
 30
0.0
  0
LWPOLYLINE
  5
13f
100
AcDbEntity
  8
Layer_1
 62
7
100
AcDbPolyline
 90
2
 70
0
 10
41.224238
 20
265.372118
 30
0.0
 10
41.224238
 20
262.315120
 30
0.0
  0
LWPOLYLINE
  5
140
100
AcDbEntity
  8
Layer_1
 62
7
100
AcDbPolyline
 90
2
 70
0
 10
42.716628
 20
265.372118
 30
0.0
 10
42.716628
 20
262.315120
 30
0.0
  0
LWPOLYLINE
  5
141
100
AcDbEntity
  8
Layer_1
 62
7
100
AcDbPolyline
 90
2
 70
0
 10
41.224238
 20
263.879729
 30
0.0
 10
42.716628
 20
263.879729
 30
0.0
  0
LWPOLYLINE
  5
142
100
AcDbEntity
  8
Layer_1
 62
7
100
AcDbPolyline
 90
13
 70
0
 10
43.343238
 20
262.315120
 30
0.0
 10
43.343238
 20
265.372118
 30
0.0
 10
44.209788
 20
265.372118
 30
0.0
 10
44.474568
 20
265.299908
 30
0.0
 10
44.643068
 20
265.179549
 30
0.0
 10
44.763418
 20
265.011059
 30
0.0
 10
44.787488
 20
264.794420
 30
0.0
 10
44.787488
 20
264.457430
 30
0.0
 10
44.763417
 20
264.264858
 30
0.0
 10
44.643068
 20
264.072290
 30
0.0
 10
44.498638
 20
263.951939
 30
0.0
 10
44.233858
 20
263.879729
 30
0.0
 10
43.343238
 20
263.879729
 30
0.0
  0
LWPOLYLINE
  5
143
100
AcDbEntity
  8
Layer_1
 62
7
100
AcDbPolyline
 90
3
 70
0
 10
46.664928
 20
265.372118
 30
0.0
 10
45.413238
 20
265.372118
 30
0.0
 10
45.413238
 20
262.315120
 30
0.0
  0
LWPOLYLINE
  5
144
100
AcDbEntity
  8
Layer_1
 62
7
100
AcDbPolyline
 90
2
 70
0
 10
46.616778
 20
263.879729
 30
0.0
 10
45.413238
 20
263.879729
 30
0.0
  0
ENDSEC
  0
SECTION
  2
OBJECTS
  0
DICTIONARY
  5
C
330
0
100
AcDbDictionary
  3
ACAD_GROUP
350
D
  3
ACAD_MLINESTYLE
350
17
  0
DICTIONARY
  5
D
330
C
100
AcDbDictionary
  0
DICTIONARY
  5
1A
330
C
100
AcDbDictionary
  0
DICTIONARY
  5
17
330
C
100
AcDbDictionary
  3
STANDARD
350
18
  0
DICTIONARY
  5
19
330
C
100
AcDbDictionary
  0
ENDSEC
  0
EOF
