  0
SECTION
  2
HEADER
  9
$MEASUREMENT
  70
  1
  9
$INSUNITS
  70
  4
  0
ENDSEC
  0
SECTION
  2
TABLES
  0
TABLE
  2
LTYPE
 70
     1
  0
LTYPE
  2
CONTINUOUS
 70
    64
  3
Ausgezogene Linie
 72
    65
 73
     0
 40
0.0
  0
ENDTAB
  0
TABLE
  2
LAYER
 70
     3
  0
LAYER
  2
Contour
 70
    64
 62
     7
  6
CONTINUOUS
  0
LAYER
  2
Engraving
 70
    64
 62
     7
  6
CONTINUOUS
  0
LAYER
  2
Reference_points
 70
    64
 62
     1
  6
CONTINUOUS
  0
ENDTAB
  0
TABLE
  2
STYLE
 70
     1
  0
STYLE
  2
TXT
 70
    64
 40
0.0
 41
1.0
 50
0.0
 71
     0
 42
3.500000
  3
TXT
  0
ENDTAB
  0
ENDSEC
  0
SECTION
  2
BLOCKS
  0
ENDSEC
  0
SECTION
  2
ENTITIES
  0
LINE
  8
Contour
 62
   7
 39
0.100
  6
CONTINUOUS
 10
9.82000
 20
128.40000
 30
 0
 11
9.82000
 21
0.00000
  0
LINE
  8
Contour
 62
   7
 39
0.100
  6
CONTINUOUS
 10
9.82000
 20
0.00000
 30
 0
 11
0.00000
 21
0.00000
  0
LINE
  8
Contour
 62
   7
 39
0.100
  6
CONTINUOUS
 10
0.00000
 20
0.00000
 30
 0
 11
0.00000
 21
128.40000
  0
LINE
  8
Contour
 62
   7
 39
0.100
  6
CONTINUOUS
 10
0.00000
 20
128.40000
 30
 0
 11
9.82000
 21
128.40000
  0
LINE
  8
Engraving
 62
   7
 39
0.200
  6
CONTINUOUS
 10
4.17267
 20
103.67800
 30
 0
 11
4.17267
 21
101.90300
  0
LINE
  8
Engraving
 62
   7
 39
0.200
  6
CONTINUOUS
 10
4.64667
 20
101.90300
 30
 0
 11
4.64667
 21
103.67800
  0
LINE
  8
Engraving
 62
   7
 39
0.200
  6
CONTINUOUS
 10
4.64667
 20
103.67800
 30
 0
 11
5.83000
 21
101.90300
  0
LINE
  8
Engraving
 62
   7
 39
0.200
  6
CONTINUOUS
 10
5.83000
 20
101.90300
 30
 0
 11
5.83000
 21
103.67800
  0
ARC
  8
Engraving
 62
   7
 39
0.200
  6
CONTINUOUS
 10
3.34378
 20
11.05467
 30
 0
 40
0.63111
 50
180.00000
 51
360.00000
  0
LINE
  8
Engraving
 62
   7
 39
0.200
  6
CONTINUOUS
 10
3.97489
 20
11.05467
 30
 0
 11
3.97489
 21
11.64633
  0
ARC
  8
Engraving
 62
   7
 39
0.200
  6
CONTINUOUS
 10
3.34378
 20
11.64633
 30
 0
 40
0.63111
 50
0.00000
 51
180.00000
  0
LINE
  8
Engraving
 62
   7
 39
0.200
  6
CONTINUOUS
 10
2.71267
 20
11.64633
 30
 0
 11
2.71267
 21
11.05467
  0
LINE
  8
Engraving
 62
   7
 39
0.200
  6
CONTINUOUS
 10
4.44867
 20
12.23800
 30
 0
 11
4.44867
 21
11.01522
  0
ARC
  8
Engraving
 62
   7
 39
0.200
  6
CONTINUOUS
 10
5.04033
 20
11.01522
 30
 0
 40
0.59167
 50
180.00000
 51
360.00000
  0
LINE
  8
Engraving
 62
   7
 39
0.200
  6
CONTINUOUS
 10
5.63200
 20
11.01522
 30
 0
 11
5.63200
 21
12.23800
  0
LINE
  8
Engraving
 62
   7
 39
0.200
  6
CONTINUOUS
 10
6.10467
 20
12.23800
 30
 0
 11
7.28800
 21
12.23800
  0
LINE
  8
Engraving
 62
   7
 39
0.200
  6
CONTINUOUS
 10
7.28800
 20
12.23800
 30
 0
 11
6.69633
 21
12.23800
  0
LINE
  8
Engraving
 62
   7
 39
0.200
  6
CONTINUOUS
 10
6.69633
 20
12.23800
 30
 0
 11
6.69633
 21
10.46300
  0
ARC
  8
Engraving
 62
   7
 39
0.200
  6
CONTINUOUS
 10
3.21572
 20
42.81282
 30
 0
 40
0.57830
 50
28.82122
 51
181.68902
  0
LINE
  8
Engraving
 62
   7
 39
0.200
  6
CONTINUOUS
 10
2.63767
 20
42.79578
 30
 0
 11
2.63767
 21
42.12522
  0
ARC
  8
Engraving
 62
   7
 39
0.200
  6
CONTINUOUS
 10
3.23037
 20
42.12621
 30
 0
 40
0.59270
 50
180.09515
 51
338.42706
  0
LINE
  8
Engraving
 62
   7
 39
0.200
  6
CONTINUOUS
 10
4.25567
 20
43.34800
 30
 0
 11
4.25567
 21
42.12522
  0
ARC
  8
Engraving
 62
   7
 39
0.200
  6
CONTINUOUS
 10
4.84733
 20
42.12522
 30
 0
 40
0.59167
 50
180.00000
 51
360.00000
  0
LINE
  8
Engraving
 62
   7
 39
0.200
  6
CONTINUOUS
 10
5.43900
 20
42.12522
 30
 0
 11
5.43900
 21
43.34800
  0
LINE
  8
Engraving
 62
   7
 39
0.200
  6
CONTINUOUS
 10
5.91167
 20
43.34800
 30
 0
 11
7.09500
 21
43.34800
  0
LINE
  8
Engraving
 62
   7
 39
0.200
  6
CONTINUOUS
 10
7.09500
 20
43.34800
 30
 0
 11
6.50333
 21
43.34800
  0
LINE
  8
Engraving
 62
   7
 39
0.200
  6
CONTINUOUS
 10
6.50333
 20
43.34800
 30
 0
 11
6.50333
 21
41.57300
  0
LINE
  8
Engraving
 62
   7
 39
0.400
  6
CONTINUOUS
 10
2.23635
 20
73.71900
 30
 0
 11
2.23635
 21
75.51512
  0
LINE
  8
Engraving
 62
   7
 39
0.400
  6
CONTINUOUS
 10
2.23635
 20
75.51512
 30
 0
 11
2.23635
 21
75.35367
  0
LINE
  8
Engraving
 62
   7
 39
0.400
  6
CONTINUOUS
 10
2.23635
 20
75.35367
 30
 0
 11
2.45835
 21
75.45457
  0
LINE
  8
Engraving
 62
   7
 39
0.400
  6
CONTINUOUS
 10
2.45835
 20
75.45457
 30
 0
 11
2.59961
 21
75.51512
  0
LINE
  8
Engraving
 62
   7
 39
0.400
  6
CONTINUOUS
 10
2.59961
 20
75.51512
 30
 0
 11
2.78124
 21
75.53530
  0
LINE
  8
Engraving
 62
   7
 39
0.400
  6
CONTINUOUS
 10
2.78124
 20
75.53530
 30
 0
 11
2.94269
 21
75.53530
  0
LINE
  8
Engraving
 62
   7
 39
0.400
  6
CONTINUOUS
 10
3.44735
 20
76.28200
 30
 0
 11
3.44735
 21
73.71900
  0
LINE
  8
Engraving
 62
   7
 39
0.400
  6
CONTINUOUS
 10
3.44735
 20
73.71900
 30
 0
 11
4.45641
 21
73.71900
  0
LINE
  8
Engraving
 62
   7
 39
0.400
  6
CONTINUOUS
 10
4.98135
 20
73.71900
 30
 0
 11
4.98135
 21
76.28200
  0
LINE
  8
Engraving
 62
   7
 39
0.400
  6
CONTINUOUS
 10
4.98135
 20
76.28200
 30
 0
 11
5.70787
 21
76.28200
  0
LINE
  8
Engraving
 62
   7
 39
0.400
  6
CONTINUOUS
 10
5.70787
 20
76.28200
 30
 0
 11
5.92987
 21
76.22146
  0
LINE
  8
Engraving
 62
   7
 39
0.400
  6
CONTINUOUS
 10
5.92987
 20
76.22146
 30
 0
 11
6.07113
 21
76.12055
  0
LINE
  8
Engraving
 62
   7
 39
0.400
  6
CONTINUOUS
 10
6.07113
 20
76.12055
 30
 0
 11
6.17204
 21
75.97928
  0
LINE
  8
Engraving
 62
   7
 39
0.400
  6
CONTINUOUS
 10
6.17204
 20
75.97928
 30
 0
 11
6.19222
 21
75.79765
  0
LINE
  8
Engraving
 62
   7
 39
0.400
  6
CONTINUOUS
 10
6.19222
 20
75.79765
 30
 0
 11
6.19222
 21
75.51512
  0
LINE
  8
Engraving
 62
   7
 39
0.400
  6
CONTINUOUS
 10
6.19222
 20
75.51512
 30
 0
 11
6.17204
 21
75.35367
  0
LINE
  8
Engraving
 62
   7
 39
0.400
  6
CONTINUOUS
 10
6.17204
 20
75.35367
 30
 0
 11
6.07113
 21
75.19222
  0
LINE
  8
Engraving
 62
   7
 39
0.400
  6
CONTINUOUS
 10
6.07113
 20
75.19222
 30
 0
 11
5.95005
 21
75.09131
  0
LINE
  8
Engraving
 62
   7
 39
0.400
  6
CONTINUOUS
 10
5.95005
 20
75.09131
 30
 0
 11
5.72806
 21
75.03077
  0
LINE
  8
Engraving
 62
   7
 39
0.400
  6
CONTINUOUS
 10
5.72806
 20
75.03077
 30
 0
 11
4.98135
 21
75.03077
  0
LINE
  8
Engraving
 62
   7
 39
0.400
  6
CONTINUOUS
 10
7.76577
 20
76.28200
 30
 0
 11
6.71635
 21
76.28200
  0
LINE
  8
Engraving
 62
   7
 39
0.400
  6
CONTINUOUS
 10
6.71635
 20
76.28200
 30
 0
 11
6.71635
 21
73.71900
  0
LINE
  8
Engraving
 62
   7
 39
0.400
  6
CONTINUOUS
 10
7.72541
 20
75.03077
 30
 0
 11
6.71635
 21
75.03077
  0
CIRCLE
  8
Contour
 62
   7
 39
0.100
  6
CONTINUOUS
 10
7.50000
 20
125.50000
 30
 0
 40
1.50000
  0
CIRCLE
  8
Contour
 62
   7
 39
0.100
  6
CONTINUOUS
 10
7.50000
 20
3.00000
 30
 0
 40
1.50000
  0
CIRCLE
  8
Contour
 62
   7
 39
0.100
  6
CONTINUOUS
 10
4.91500
 20
109.77000
 30
 0
 40
3.00000
  0
CIRCLE
  8
Contour
 62
   7
 39
0.100
  6
CONTINUOUS
 10
4.91500
 20
18.33000
 30
 0
 40
3.00000
  0
CIRCLE
  8
Contour
 62
   7
 39
0.100
  6
CONTINUOUS
 10
4.91500
 20
50.08000
 30
 0
 40
3.25000
  0
CIRCLE
  8
Contour
 62
   7
 39
0.100
  6
CONTINUOUS
 10
4.91500
 20
34.84000
 30
 0
 40
3.25000
  0
ENDSEC
  0
EOF
