  0
SECTION
  2
HEADER
  9
$MEASUREMENT
  70
  1
  9
$INSUNITS
  70
  4
  0
ENDSEC
  0
SECTION
  2
TABLES
  0
TABLE
  2
LTYPE
 70
     1
  0
LTYPE
  2
CONTINUOUS
 70
    64
  3
Ausgezogene Linie
 72
    65
 73
     0
 40
0.0
  0
ENDTAB
  0
TABLE
  2
LAYER
 70
     3
  0
LAYER
  2
Contour
 70
    64
 62
     7
  6
CONTINUOUS
  0
LAYER
  2
Engraving
 70
    64
 62
     7
  6
CONTINUOUS
  0
LAYER
  2
Reference_points
 70
    64
 62
     1
  6
CONTINUOUS
  0
ENDTAB
  0
TABLE
  2
STYLE
 70
     1
  0
STYLE
  2
TXT
 70
    64
 40
0.0
 41
1.0
 50
0.0
 71
     0
 42
3.500000
  3
TXT
  0
ENDTAB
  0
ENDSEC
  0
SECTION
  2
BLOCKS
  0
ENDSEC
  0
SECTION
  2
ENTITIES
  0
LINE
  8
Contour
 62
   7
 39
0.100
  6
CONTINUOUS
 10
9.82000
 20
128.40000
 30
 0
 11
9.82000
 21
0.00000
  0
LINE
  8
Contour
 62
   7
 39
0.100
  6
CONTINUOUS
 10
9.82000
 20
0.00000
 30
 0
 11
0.00000
 21
0.00000
  0
LINE
  8
Contour
 62
   7
 39
0.100
  6
CONTINUOUS
 10
0.00000
 20
0.00000
 30
 0
 11
0.00000
 21
128.40000
  0
LINE
  8
Contour
 62
   7
 39
0.100
  6
CONTINUOUS
 10
0.00000
 20
128.40000
 30
 0
 11
9.82000
 21
128.40000
  0
LINE
  8
Engraving
 62
   7
 39
0.400
  6
CONTINUOUS
 10
3.96235
 20
102.82200
 30
 0
 11
3.96235
 21
100.25900
  0
LINE
  8
Engraving
 62
   7
 39
0.400
  6
CONTINUOUS
 10
4.46717
 20
100.25900
 30
 0
 11
4.46717
 21
102.82200
  0
LINE
  8
Engraving
 62
   7
 39
0.400
  6
CONTINUOUS
 10
4.46717
 20
102.82200
 30
 0
 11
4.64880
 21
102.82200
  0
LINE
  8
Engraving
 62
   7
 39
0.400
  6
CONTINUOUS
 10
4.64880
 20
102.82200
 30
 0
 11
5.85967
 21
100.25900
  0
LINE
  8
Engraving
 62
   7
 39
0.400
  6
CONTINUOUS
 10
5.85967
 20
100.25900
 30
 0
 11
5.85967
 21
102.82200
  0
LINE
  8
Engraving
 62
   7
 39
0.400
  6
CONTINUOUS
 10
2.39817
 20
12.64059
 30
 0
 11
2.39817
 21
11.81317
  0
LINE
  8
Engraving
 62
   7
 39
0.400
  6
CONTINUOUS
 10
2.39817
 20
11.81317
 30
 0
 11
2.43854
 21
11.61135
  0
LINE
  8
Engraving
 62
   7
 39
0.400
  6
CONTINUOUS
 10
2.43854
 20
11.61135
 30
 0
 11
2.51926
 21
11.49027
  0
LINE
  8
Engraving
 62
   7
 39
0.400
  6
CONTINUOUS
 10
2.51926
 20
11.49027
 30
 0
 11
2.62017
 21
11.40954
  0
LINE
  8
Engraving
 62
   7
 39
0.400
  6
CONTINUOUS
 10
2.62017
 20
11.40954
 30
 0
 11
2.76143
 21
11.32882
  0
LINE
  8
Engraving
 62
   7
 39
0.400
  6
CONTINUOUS
 10
2.76143
 20
11.32882
 30
 0
 11
2.88252
 21
11.32882
  0
LINE
  8
Engraving
 62
   7
 39
0.400
  6
CONTINUOUS
 10
2.88252
 20
11.32882
 30
 0
 11
3.20542
 21
11.32882
  0
LINE
  8
Engraving
 62
   7
 39
0.400
  6
CONTINUOUS
 10
3.20542
 20
11.32882
 30
 0
 11
3.38705
 21
11.34900
  0
LINE
  8
Engraving
 62
   7
 39
0.400
  6
CONTINUOUS
 10
3.38705
 20
11.34900
 30
 0
 11
3.52831
 21
11.42972
  0
LINE
  8
Engraving
 62
   7
 39
0.400
  6
CONTINUOUS
 10
3.52831
 20
11.42972
 30
 0
 11
3.64940
 21
11.59117
  0
LINE
  8
Engraving
 62
   7
 39
0.400
  6
CONTINUOUS
 10
3.64940
 20
11.59117
 30
 0
 11
3.70994
 21
11.81317
  0
LINE
  8
Engraving
 62
   7
 39
0.400
  6
CONTINUOUS
 10
3.70994
 20
11.81317
 30
 0
 11
3.70994
 21
13.44783
  0
LINE
  8
Engraving
 62
   7
 39
0.400
  6
CONTINUOUS
 10
3.70994
 20
13.44783
 30
 0
 11
3.66958
 21
13.60928
  0
LINE
  8
Engraving
 62
   7
 39
0.400
  6
CONTINUOUS
 10
3.66958
 20
13.60928
 30
 0
 11
3.58886
 21
13.77073
  0
LINE
  8
Engraving
 62
   7
 39
0.400
  6
CONTINUOUS
 10
3.58886
 20
13.77073
 30
 0
 11
3.48795
 21
13.85146
  0
LINE
  8
Engraving
 62
   7
 39
0.400
  6
CONTINUOUS
 10
3.48795
 20
13.85146
 30
 0
 11
3.38705
 21
13.91200
  0
LINE
  8
Engraving
 62
   7
 39
0.400
  6
CONTINUOUS
 10
3.38705
 20
13.91200
 30
 0
 11
3.20542
 21
13.93218
  0
LINE
  8
Engraving
 62
   7
 39
0.400
  6
CONTINUOUS
 10
3.20542
 20
13.93218
 30
 0
 11
2.88252
 21
13.93218
  0
LINE
  8
Engraving
 62
   7
 39
0.400
  6
CONTINUOUS
 10
2.88252
 20
13.93218
 30
 0
 11
2.72107
 21
13.91200
  0
LINE
  8
Engraving
 62
   7
 39
0.400
  6
CONTINUOUS
 10
2.72107
 20
13.91200
 30
 0
 11
2.57980
 21
13.83128
  0
LINE
  8
Engraving
 62
   7
 39
0.400
  6
CONTINUOUS
 10
2.57980
 20
13.83128
 30
 0
 11
2.47890
 21
13.73037
  0
LINE
  8
Engraving
 62
   7
 39
0.400
  6
CONTINUOUS
 10
2.47890
 20
13.73037
 30
 0
 11
2.41835
 21
13.60928
  0
LINE
  8
Engraving
 62
   7
 39
0.400
  6
CONTINUOUS
 10
2.41835
 20
13.60928
 30
 0
 11
2.39817
 21
13.44783
  0
LINE
  8
Engraving
 62
   7
 39
0.400
  6
CONTINUOUS
 10
2.39817
 20
13.44783
 30
 0
 11
2.39817
 21
12.64059
  0
LINE
  8
Engraving
 62
   7
 39
0.400
  6
CONTINUOUS
 10
4.23535
 20
13.91200
 30
 0
 11
4.23535
 21
11.83335
  0
LINE
  8
Engraving
 62
   7
 39
0.400
  6
CONTINUOUS
 10
4.23535
 20
11.83335
 30
 0
 11
4.29590
 21
11.59117
  0
LINE
  8
Engraving
 62
   7
 39
0.400
  6
CONTINUOUS
 10
4.29590
 20
11.59117
 30
 0
 11
4.37662
 21
11.47009
  0
LINE
  8
Engraving
 62
   7
 39
0.400
  6
CONTINUOUS
 10
4.37662
 20
11.47009
 30
 0
 11
4.53807
 21
11.36918
  0
LINE
  8
Engraving
 62
   7
 39
0.400
  6
CONTINUOUS
 10
4.53807
 20
11.36918
 30
 0
 11
4.73988
 21
11.32882
  0
LINE
  8
Engraving
 62
   7
 39
0.400
  6
CONTINUOUS
 10
4.73988
 20
11.32882
 30
 0
 11
5.00224
 21
11.32882
  0
LINE
  8
Engraving
 62
   7
 39
0.400
  6
CONTINUOUS
 10
5.00224
 20
11.32882
 30
 0
 11
5.16369
 21
11.34900
  0
LINE
  8
Engraving
 62
   7
 39
0.400
  6
CONTINUOUS
 10
5.16369
 20
11.34900
 30
 0
 11
5.34531
 21
11.44991
  0
LINE
  8
Engraving
 62
   7
 39
0.400
  6
CONTINUOUS
 10
5.34531
 20
11.44991
 30
 0
 11
5.48658
 21
11.63154
  0
LINE
  8
Engraving
 62
   7
 39
0.400
  6
CONTINUOUS
 10
5.48658
 20
11.63154
 30
 0
 11
5.52694
 21
11.83335
  0
LINE
  8
Engraving
 62
   7
 39
0.400
  6
CONTINUOUS
 10
5.52694
 20
11.83335
 30
 0
 11
5.52694
 21
13.91200
  0
LINE
  8
Engraving
 62
   7
 39
0.400
  6
CONTINUOUS
 10
6.71733
 20
11.35000
 30
 0
 11
6.71733
 21
13.91300
  0
LINE
  8
Engraving
 62
   7
 39
0.400
  6
CONTINUOUS
 10
6.03117
 20
13.91300
 30
 0
 11
7.42367
 21
13.91300
  0
LINE
  8
Engraving
 62
   7
 39
0.400
  6
CONTINUOUS
 10
3.61868
 20
44.26530
 30
 0
 11
3.61868
 21
44.56802
  0
LINE
  8
Engraving
 62
   7
 39
0.400
  6
CONTINUOUS
 10
3.61868
 20
44.56802
 30
 0
 11
3.59850
 21
44.70928
  0
LINE
  8
Engraving
 62
   7
 39
0.400
  6
CONTINUOUS
 10
3.59850
 20
44.70928
 30
 0
 11
3.53795
 21
44.85055
  0
LINE
  8
Engraving
 62
   7
 39
0.400
  6
CONTINUOUS
 10
3.53795
 20
44.85055
 30
 0
 11
3.43705
 21
44.93128
  0
LINE
  8
Engraving
 62
   7
 39
0.400
  6
CONTINUOUS
 10
3.43705
 20
44.93128
 30
 0
 11
3.33614
 21
44.99182
  0
LINE
  8
Engraving
 62
   7
 39
0.400
  6
CONTINUOUS
 10
3.33614
 20
44.99182
 30
 0
 11
3.21506
 21
45.03218
  0
LINE
  8
Engraving
 62
   7
 39
0.400
  6
CONTINUOUS
 10
3.21506
 20
45.03218
 30
 0
 11
2.93252
 21
45.03218
  0
LINE
  8
Engraving
 62
   7
 39
0.400
  6
CONTINUOUS
 10
2.93252
 20
45.03218
 30
 0
 11
2.75089
 21
45.01200
  0
LINE
  8
Engraving
 62
   7
 39
0.400
  6
CONTINUOUS
 10
2.75089
 20
45.01200
 30
 0
 11
2.60962
 21
44.91109
  0
LINE
  8
Engraving
 62
   7
 39
0.400
  6
CONTINUOUS
 10
2.60962
 20
44.91109
 30
 0
 11
2.52890
 21
44.79001
  0
LINE
  8
Engraving
 62
   7
 39
0.400
  6
CONTINUOUS
 10
2.52890
 20
44.79001
 30
 0
 11
2.46835
 21
44.62856
  0
LINE
  8
Engraving
 62
   7
 39
0.400
  6
CONTINUOUS
 10
2.46835
 20
44.62856
 30
 0
 11
2.46835
 21
42.91317
  0
LINE
  8
Engraving
 62
   7
 39
0.400
  6
CONTINUOUS
 10
2.46835
 20
42.91317
 30
 0
 11
2.50872
 21
42.73154
  0
LINE
  8
Engraving
 62
   7
 39
0.400
  6
CONTINUOUS
 10
2.50872
 20
42.73154
 30
 0
 11
2.56926
 21
42.61045
  0
LINE
  8
Engraving
 62
   7
 39
0.400
  6
CONTINUOUS
 10
2.56926
 20
42.61045
 30
 0
 11
2.69035
 21
42.50954
  0
LINE
  8
Engraving
 62
   7
 39
0.400
  6
CONTINUOUS
 10
2.69035
 20
42.50954
 30
 0
 11
2.79125
 21
42.44900
  0
LINE
  8
Engraving
 62
   7
 39
0.400
  6
CONTINUOUS
 10
2.79125
 20
42.44900
 30
 0
 11
2.95270
 21
42.42882
  0
LINE
  8
Engraving
 62
   7
 39
0.400
  6
CONTINUOUS
 10
2.95270
 20
42.42882
 30
 0
 11
3.15451
 21
42.42882
  0
LINE
  8
Engraving
 62
   7
 39
0.400
  6
CONTINUOUS
 10
3.15451
 20
42.42882
 30
 0
 11
3.29578
 21
42.44900
  0
LINE
  8
Engraving
 62
   7
 39
0.400
  6
CONTINUOUS
 10
3.29578
 20
42.44900
 30
 0
 11
3.45723
 21
42.52972
  0
LINE
  8
Engraving
 62
   7
 39
0.400
  6
CONTINUOUS
 10
3.45723
 20
42.52972
 30
 0
 11
3.55813
 21
42.63063
  0
LINE
  8
Engraving
 62
   7
 39
0.400
  6
CONTINUOUS
 10
3.55813
 20
42.63063
 30
 0
 11
3.63886
 21
42.79208
  0
LINE
  8
Engraving
 62
   7
 39
0.400
  6
CONTINUOUS
 10
3.63886
 20
42.79208
 30
 0
 11
3.63886
 21
42.91317
  0
LINE
  8
Engraving
 62
   7
 39
0.400
  6
CONTINUOUS
 10
3.63886
 20
42.91317
 30
 0
 11
3.63886
 21
43.15534
  0
LINE
  8
Engraving
 62
   7
 39
0.400
  6
CONTINUOUS
 10
4.16435
 20
45.01200
 30
 0
 11
4.16435
 21
42.93335
  0
LINE
  8
Engraving
 62
   7
 39
0.400
  6
CONTINUOUS
 10
4.16435
 20
42.93335
 30
 0
 11
4.22490
 21
42.69117
  0
LINE
  8
Engraving
 62
   7
 39
0.400
  6
CONTINUOUS
 10
4.22490
 20
42.69117
 30
 0
 11
4.30562
 21
42.57009
  0
LINE
  8
Engraving
 62
   7
 39
0.400
  6
CONTINUOUS
 10
4.30562
 20
42.57009
 30
 0
 11
4.46707
 21
42.46918
  0
LINE
  8
Engraving
 62
   7
 39
0.400
  6
CONTINUOUS
 10
4.46707
 20
42.46918
 30
 0
 11
4.66888
 21
42.42882
  0
LINE
  8
Engraving
 62
   7
 39
0.400
  6
CONTINUOUS
 10
4.66888
 20
42.42882
 30
 0
 11
4.93124
 21
42.42882
  0
LINE
  8
Engraving
 62
   7
 39
0.400
  6
CONTINUOUS
 10
4.93124
 20
42.42882
 30
 0
 11
5.09269
 21
42.44900
  0
LINE
  8
Engraving
 62
   7
 39
0.400
  6
CONTINUOUS
 10
5.09269
 20
42.44900
 30
 0
 11
5.27431
 21
42.54991
  0
LINE
  8
Engraving
 62
   7
 39
0.400
  6
CONTINUOUS
 10
5.27431
 20
42.54991
 30
 0
 11
5.41558
 21
42.73154
  0
LINE
  8
Engraving
 62
   7
 39
0.400
  6
CONTINUOUS
 10
5.41558
 20
42.73154
 30
 0
 11
5.45594
 21
42.93335
  0
LINE
  8
Engraving
 62
   7
 39
0.400
  6
CONTINUOUS
 10
5.45594
 20
42.93335
 30
 0
 11
5.45594
 21
45.01200
  0
LINE
  8
Engraving
 62
   7
 39
0.400
  6
CONTINUOUS
 10
6.64633
 20
42.45000
 30
 0
 11
6.64633
 21
45.01300
  0
LINE
  8
Engraving
 62
   7
 39
0.400
  6
CONTINUOUS
 10
5.96017
 20
45.01300
 30
 0
 11
7.35267
 21
45.01300
  0
LINE
  8
Engraving
 62
   7
 39
0.400
  6
CONTINUOUS
 10
1.61292
 20
88.47200
 30
 0
 11
1.61292
 21
90.61431
  0
LINE
  8
Engraving
 62
   7
 39
0.400
  6
CONTINUOUS
 10
1.61292
 20
90.61431
 30
 0
 11
1.61292
 21
90.42174
  0
LINE
  8
Engraving
 62
   7
 39
0.400
  6
CONTINUOUS
 10
1.61292
 20
90.42174
 30
 0
 11
1.87770
 21
90.54209
  0
LINE
  8
Engraving
 62
   7
 39
0.400
  6
CONTINUOUS
 10
1.87770
 20
90.54209
 30
 0
 11
2.04620
 21
90.61431
  0
LINE
  8
Engraving
 62
   7
 39
0.400
  6
CONTINUOUS
 10
2.04620
 20
90.61431
 30
 0
 11
2.26283
 21
90.63838
  0
LINE
  8
Engraving
 62
   7
 39
0.400
  6
CONTINUOUS
 10
2.26283
 20
90.63838
 30
 0
 11
2.45540
 21
90.63838
  0
LINE
  8
Engraving
 62
   7
 39
0.400
  6
CONTINUOUS
 10
3.05792
 20
91.52900
 30
 0
 11
3.05792
 21
88.47200
  0
LINE
  8
Engraving
 62
   7
 39
0.400
  6
CONTINUOUS
 10
3.05792
 20
88.47200
 30
 0
 11
4.26146
 21
88.47200
  0
LINE
  8
Engraving
 62
   7
 39
0.400
  6
CONTINUOUS
 10
4.88792
 20
88.47200
 30
 0
 11
4.88792
 21
91.52900
  0
LINE
  8
Engraving
 62
   7
 39
0.400
  6
CONTINUOUS
 10
4.88792
 20
91.52900
 30
 0
 11
5.75447
 21
91.52900
  0
LINE
  8
Engraving
 62
   7
 39
0.400
  6
CONTINUOUS
 10
5.75447
 20
91.52900
 30
 0
 11
6.01925
 21
91.45679
  0
LINE
  8
Engraving
 62
   7
 39
0.400
  6
CONTINUOUS
 10
6.01925
 20
91.45679
 30
 0
 11
6.18775
 21
91.33643
  0
LINE
  8
Engraving
 62
   7
 39
0.400
  6
CONTINUOUS
 10
6.18775
 20
91.33643
 30
 0
 11
6.30810
 21
91.16794
  0
LINE
  8
Engraving
 62
   7
 39
0.400
  6
CONTINUOUS
 10
6.30810
 20
91.16794
 30
 0
 11
6.33217
 21
90.95130
  0
LINE
  8
Engraving
 62
   7
 39
0.400
  6
CONTINUOUS
 10
6.33217
 20
90.95130
 30
 0
 11
6.33217
 21
90.61431
  0
LINE
  8
Engraving
 62
   7
 39
0.400
  6
CONTINUOUS
 10
6.33217
 20
90.61431
 30
 0
 11
6.30810
 21
90.42174
  0
LINE
  8
Engraving
 62
   7
 39
0.400
  6
CONTINUOUS
 10
6.30810
 20
90.42174
 30
 0
 11
6.18775
 21
90.22917
  0
LINE
  8
Engraving
 62
   7
 39
0.400
  6
CONTINUOUS
 10
6.18775
 20
90.22917
 30
 0
 11
6.04332
 21
90.10882
  0
LINE
  8
Engraving
 62
   7
 39
0.400
  6
CONTINUOUS
 10
6.04332
 20
90.10882
 30
 0
 11
5.77854
 21
90.03661
  0
LINE
  8
Engraving
 62
   7
 39
0.400
  6
CONTINUOUS
 10
5.77854
 20
90.03661
 30
 0
 11
4.88792
 21
90.03661
  0
LINE
  8
Engraving
 62
   7
 39
0.400
  6
CONTINUOUS
 10
8.20961
 20
91.52900
 30
 0
 11
6.95792
 21
91.52900
  0
LINE
  8
Engraving
 62
   7
 39
0.400
  6
CONTINUOUS
 10
6.95792
 20
91.52900
 30
 0
 11
6.95792
 21
88.47200
  0
LINE
  8
Engraving
 62
   7
 39
0.400
  6
CONTINUOUS
 10
8.16146
 20
90.03661
 30
 0
 11
6.95792
 21
90.03661
  0
CIRCLE
  8
Contour
 62
   7
 39
0.100
  6
CONTINUOUS
 10
7.50000
 20
125.50000
 30
 0
 40
1.50000
  0
CIRCLE
  8
Contour
 62
   7
 39
0.100
  6
CONTINUOUS
 10
7.50000
 20
3.00000
 30
 0
 40
1.50000
  0
CIRCLE
  8
Contour
 62
   7
 39
0.100
  6
CONTINUOUS
 10
4.91000
 20
108.51000
 30
 0
 40
3.00000
  0
CIRCLE
  8
Contour
 62
   7
 39
0.100
  6
CONTINUOUS
 10
4.91000
 20
19.60000
 30
 0
 40
3.00000
  0
CIRCLE
  8
Contour
 62
   7
 39
0.100
  6
CONTINUOUS
 10
4.91000
 20
36.11000
 30
 0
 40
3.50000
  0
CIRCLE
  8
Contour
 62
   7
 39
0.100
  6
CONTINUOUS
 10
4.91000
 20
51.35000
 30
 0
 40
3.50000
  0
CIRCLE
  8
Contour
 62
   7
 39
0.100
  6
CONTINUOUS
 10
4.91000
 20
71.67000
 30
 0
 40
2.50000
  0
ENDSEC
  0
EOF
