G04 #@! TF.GenerationSoftware,KiCad,Pcbnew,5.1.7-a382d34a8~87~ubuntu18.04.1*
G04 #@! TF.CreationDate,2021-01-14T14:15:41+00:00*
G04 #@! TF.ProjectId,seq8.2-panel,73657138-2e32-42d7-9061-6e656c2e6b69,rev?*
G04 #@! TF.SameCoordinates,Original*
G04 #@! TF.FileFunction,Copper,L1,Top*
G04 #@! TF.FilePolarity,Positive*
%FSLAX46Y46*%
G04 Gerber Fmt 4.6, Leading zero omitted, Abs format (unit mm)*
G04 Created by KiCad (PCBNEW 5.1.7-a382d34a8~87~ubuntu18.04.1) date 2021-01-14 14:15:41*
%MOMM*%
%LPD*%
G01*
G04 APERTURE LIST*
G04 #@! TA.AperFunction,NonConductor*
%ADD10C,0.300000*%
G04 #@! TD*
G04 #@! TA.AperFunction,NonConductor*
%ADD11C,0.500000*%
G04 #@! TD*
G04 APERTURE END LIST*
D10*
X101898700Y-141106661D02*
X102279652Y-141106661D01*
X102470128Y-141201900D01*
X102660604Y-141392376D01*
X102755842Y-141773328D01*
X102755842Y-142439995D01*
X102660604Y-142820947D01*
X102470128Y-143011423D01*
X102279652Y-143106661D01*
X101898700Y-143106661D01*
X101708223Y-143011423D01*
X101517747Y-142820947D01*
X101422509Y-142439995D01*
X101422509Y-141773328D01*
X101517747Y-141392376D01*
X101708223Y-141201900D01*
X101898700Y-141106661D01*
X103612985Y-141106661D02*
X103612985Y-142725709D01*
X103708223Y-142916185D01*
X103803461Y-143011423D01*
X103993938Y-143106661D01*
X104374890Y-143106661D01*
X104565366Y-143011423D01*
X104660604Y-142916185D01*
X104755842Y-142725709D01*
X104755842Y-141106661D01*
X105422509Y-141106661D02*
X106565366Y-141106661D01*
X105993938Y-143106661D02*
X105993938Y-141106661D01*
X93151461Y-143195561D02*
X92484795Y-142243180D01*
X92008604Y-143195561D02*
X92008604Y-141195561D01*
X92770509Y-141195561D01*
X92960985Y-141290800D01*
X93056223Y-141386038D01*
X93151461Y-141576514D01*
X93151461Y-141862228D01*
X93056223Y-142052704D01*
X92960985Y-142147942D01*
X92770509Y-142243180D01*
X92008604Y-142243180D01*
X93913366Y-143100323D02*
X94199080Y-143195561D01*
X94675271Y-143195561D01*
X94865747Y-143100323D01*
X94960985Y-143005085D01*
X95056223Y-142814609D01*
X95056223Y-142624133D01*
X94960985Y-142433657D01*
X94865747Y-142338419D01*
X94675271Y-142243180D01*
X94294319Y-142147942D01*
X94103842Y-142052704D01*
X94008604Y-141957466D01*
X93913366Y-141766990D01*
X93913366Y-141576514D01*
X94008604Y-141386038D01*
X94103842Y-141290800D01*
X94294319Y-141195561D01*
X94770509Y-141195561D01*
X95056223Y-141290800D01*
X95627652Y-141195561D02*
X96770509Y-141195561D01*
X96199080Y-143195561D02*
X96199080Y-141195561D01*
X83658223Y-143119385D02*
X83562985Y-143214623D01*
X83277271Y-143309861D01*
X83086795Y-143309861D01*
X82801080Y-143214623D01*
X82610604Y-143024147D01*
X82515366Y-142833671D01*
X82420128Y-142452719D01*
X82420128Y-142167004D01*
X82515366Y-141786052D01*
X82610604Y-141595576D01*
X82801080Y-141405100D01*
X83086795Y-141309861D01*
X83277271Y-141309861D01*
X83562985Y-141405100D01*
X83658223Y-141500338D01*
X85467747Y-143309861D02*
X84515366Y-143309861D01*
X84515366Y-141309861D01*
X86134414Y-143309861D02*
X86134414Y-141309861D01*
X87277271Y-143309861D02*
X86420128Y-142167004D01*
X87277271Y-141309861D02*
X86134414Y-142452719D01*
D11*
X92045757Y-32964285D02*
X92474328Y-33107142D01*
X93188614Y-33107142D01*
X93474328Y-32964285D01*
X93617185Y-32821428D01*
X93760042Y-32535714D01*
X93760042Y-32250000D01*
X93617185Y-31964285D01*
X93474328Y-31821428D01*
X93188614Y-31678571D01*
X92617185Y-31535714D01*
X92331471Y-31392857D01*
X92188614Y-31250000D01*
X92045757Y-30964285D01*
X92045757Y-30678571D01*
X92188614Y-30392857D01*
X92331471Y-30250000D01*
X92617185Y-30107142D01*
X93331471Y-30107142D01*
X93760042Y-30250000D01*
X95045757Y-31535714D02*
X96045757Y-31535714D01*
X96474328Y-33107142D02*
X95045757Y-33107142D01*
X95045757Y-30107142D01*
X96474328Y-30107142D01*
X99760042Y-33392857D02*
X99474328Y-33250000D01*
X99188614Y-32964285D01*
X98760042Y-32535714D01*
X98474328Y-32392857D01*
X98188614Y-32392857D01*
X98331471Y-33107142D02*
X98045757Y-32964285D01*
X97760042Y-32678571D01*
X97617185Y-32107142D01*
X97617185Y-31107142D01*
X97760042Y-30535714D01*
X98045757Y-30250000D01*
X98331471Y-30107142D01*
X98902900Y-30107142D01*
X99188614Y-30250000D01*
X99474328Y-30535714D01*
X99617185Y-31107142D01*
X99617185Y-32107142D01*
X99474328Y-32678571D01*
X99188614Y-32964285D01*
X98902900Y-33107142D01*
X98331471Y-33107142D01*
X101331471Y-31392857D02*
X101045757Y-31250000D01*
X100902900Y-31107142D01*
X100760042Y-30821428D01*
X100760042Y-30678571D01*
X100902900Y-30392857D01*
X101045757Y-30250000D01*
X101331471Y-30107142D01*
X101902900Y-30107142D01*
X102188614Y-30250000D01*
X102331471Y-30392857D01*
X102474328Y-30678571D01*
X102474328Y-30821428D01*
X102331471Y-31107142D01*
X102188614Y-31250000D01*
X101902900Y-31392857D01*
X101331471Y-31392857D01*
X101045757Y-31535714D01*
X100902900Y-31678571D01*
X100760042Y-31964285D01*
X100760042Y-32535714D01*
X100902900Y-32821428D01*
X101045757Y-32964285D01*
X101331471Y-33107142D01*
X101902900Y-33107142D01*
X102188614Y-32964285D01*
X102331471Y-32821428D01*
X102474328Y-32535714D01*
X102474328Y-31964285D01*
X102331471Y-31678571D01*
X102188614Y-31535714D01*
X101902900Y-31392857D01*
X103760042Y-32821428D02*
X103902900Y-32964285D01*
X103760042Y-33107142D01*
X103617185Y-32964285D01*
X103760042Y-32821428D01*
X103760042Y-33107142D01*
X105045757Y-30392857D02*
X105188614Y-30250000D01*
X105474328Y-30107142D01*
X106188614Y-30107142D01*
X106474328Y-30250000D01*
X106617185Y-30392857D01*
X106760042Y-30678571D01*
X106760042Y-30964285D01*
X106617185Y-31392857D01*
X104902900Y-33107142D01*
X106760042Y-33107142D01*
M02*
