G04 #@! TF.GenerationSoftware,KiCad,Pcbnew,5.1.7-a382d34a8~87~ubuntu18.04.1*
G04 #@! TF.CreationDate,2021-01-14T14:15:41+00:00*
G04 #@! TF.ProjectId,seq8.2-panel,73657138-2e32-42d7-9061-6e656c2e6b69,rev?*
G04 #@! TF.SameCoordinates,Original*
G04 #@! TF.FileFunction,Legend,Bot*
G04 #@! TF.FilePolarity,Positive*
%FSLAX46Y46*%
G04 Gerber Fmt 4.6, Leading zero omitted, Abs format (unit mm)*
G04 Created by KiCad (PCBNEW 5.1.7-a382d34a8~87~ubuntu18.04.1) date 2021-01-14 14:15:41*
%MOMM*%
%LPD*%
G01*
G04 APERTURE LIST*
%ADD10C,0.375000*%
G04 APERTURE END LIST*
D10*
X105028571Y-146114285D02*
X105028571Y-146828571D01*
X105528571Y-145328571D02*
X105028571Y-146114285D01*
X104528571Y-145328571D01*
X103814285Y-146828571D02*
X103957142Y-146757142D01*
X104028571Y-146685714D01*
X104100000Y-146542857D01*
X104100000Y-146114285D01*
X104028571Y-145971428D01*
X103957142Y-145900000D01*
X103814285Y-145828571D01*
X103600000Y-145828571D01*
X103457142Y-145900000D01*
X103385714Y-145971428D01*
X103314285Y-146114285D01*
X103314285Y-146542857D01*
X103385714Y-146685714D01*
X103457142Y-146757142D01*
X103600000Y-146828571D01*
X103814285Y-146828571D01*
X102671428Y-146828571D02*
X102671428Y-145828571D01*
X102671428Y-146114285D02*
X102600000Y-145971428D01*
X102528571Y-145900000D01*
X102385714Y-145828571D01*
X102242857Y-145828571D01*
X101742857Y-146828571D02*
X101742857Y-145328571D01*
X101600000Y-146257142D02*
X101171428Y-146828571D01*
X101171428Y-145828571D02*
X101742857Y-146400000D01*
X99385714Y-146828571D02*
X99385714Y-145328571D01*
X98885714Y-146400000D01*
X98385714Y-145328571D01*
X98385714Y-146828571D01*
X97457142Y-146828571D02*
X97600000Y-146757142D01*
X97671428Y-146685714D01*
X97742857Y-146542857D01*
X97742857Y-146114285D01*
X97671428Y-145971428D01*
X97600000Y-145900000D01*
X97457142Y-145828571D01*
X97242857Y-145828571D01*
X97100000Y-145900000D01*
X97028571Y-145971428D01*
X96957142Y-146114285D01*
X96957142Y-146542857D01*
X97028571Y-146685714D01*
X97100000Y-146757142D01*
X97242857Y-146828571D01*
X97457142Y-146828571D01*
X95671428Y-146828571D02*
X95671428Y-145328571D01*
X95671428Y-146757142D02*
X95814285Y-146828571D01*
X96100000Y-146828571D01*
X96242857Y-146757142D01*
X96314285Y-146685714D01*
X96385714Y-146542857D01*
X96385714Y-146114285D01*
X96314285Y-145971428D01*
X96242857Y-145900000D01*
X96100000Y-145828571D01*
X95814285Y-145828571D01*
X95671428Y-145900000D01*
X94314285Y-145828571D02*
X94314285Y-146828571D01*
X94957142Y-145828571D02*
X94957142Y-146614285D01*
X94885714Y-146757142D01*
X94742857Y-146828571D01*
X94528571Y-146828571D01*
X94385714Y-146757142D01*
X94314285Y-146685714D01*
X93385714Y-146828571D02*
X93528571Y-146757142D01*
X93600000Y-146614285D01*
X93600000Y-145328571D01*
X92171428Y-146828571D02*
X92171428Y-146042857D01*
X92242857Y-145900000D01*
X92385714Y-145828571D01*
X92671428Y-145828571D01*
X92814285Y-145900000D01*
X92171428Y-146757142D02*
X92314285Y-146828571D01*
X92671428Y-146828571D01*
X92814285Y-146757142D01*
X92885714Y-146614285D01*
X92885714Y-146471428D01*
X92814285Y-146328571D01*
X92671428Y-146257142D01*
X92314285Y-146257142D01*
X92171428Y-146185714D01*
X91457142Y-146828571D02*
X91457142Y-145828571D01*
X91457142Y-146114285D02*
X91385714Y-145971428D01*
X91314285Y-145900000D01*
X91171428Y-145828571D01*
X91028571Y-145828571D01*
X89457142Y-145471428D02*
X89385714Y-145400000D01*
X89242857Y-145328571D01*
X88885714Y-145328571D01*
X88742857Y-145400000D01*
X88671428Y-145471428D01*
X88600000Y-145614285D01*
X88600000Y-145757142D01*
X88671428Y-145971428D01*
X89528571Y-146828571D01*
X88600000Y-146828571D01*
X87671428Y-145328571D02*
X87528571Y-145328571D01*
X87385714Y-145400000D01*
X87314285Y-145471428D01*
X87242857Y-145614285D01*
X87171428Y-145900000D01*
X87171428Y-146257142D01*
X87242857Y-146542857D01*
X87314285Y-146685714D01*
X87385714Y-146757142D01*
X87528571Y-146828571D01*
X87671428Y-146828571D01*
X87814285Y-146757142D01*
X87885714Y-146685714D01*
X87957142Y-146542857D01*
X88028571Y-146257142D01*
X88028571Y-145900000D01*
X87957142Y-145614285D01*
X87885714Y-145471428D01*
X87814285Y-145400000D01*
X87671428Y-145328571D01*
X86600000Y-145471428D02*
X86528571Y-145400000D01*
X86385714Y-145328571D01*
X86028571Y-145328571D01*
X85885714Y-145400000D01*
X85814285Y-145471428D01*
X85742857Y-145614285D01*
X85742857Y-145757142D01*
X85814285Y-145971428D01*
X86671428Y-146828571D01*
X85742857Y-146828571D01*
X84814285Y-145328571D02*
X84671428Y-145328571D01*
X84528571Y-145400000D01*
X84457142Y-145471428D01*
X84385714Y-145614285D01*
X84314285Y-145900000D01*
X84314285Y-146257142D01*
X84385714Y-146542857D01*
X84457142Y-146685714D01*
X84528571Y-146757142D01*
X84671428Y-146828571D01*
X84814285Y-146828571D01*
X84957142Y-146757142D01*
X85028571Y-146685714D01*
X85100000Y-146542857D01*
X85171428Y-146257142D01*
X85171428Y-145900000D01*
X85100000Y-145614285D01*
X85028571Y-145471428D01*
X84957142Y-145400000D01*
X84814285Y-145328571D01*
M02*
