G04 #@! TF.GenerationSoftware,KiCad,Pcbnew,5.1.7-a382d34a8~87~ubuntu18.04.1*
G04 #@! TF.CreationDate,2021-01-14T14:15:41+00:00*
G04 #@! TF.ProjectId,seq8.2-panel,73657138-2e32-42d7-9061-6e656c2e6b69,rev?*
G04 #@! TF.SameCoordinates,Original*
G04 #@! TF.FileFunction,Soldermask,Top*
G04 #@! TF.FilePolarity,Negative*
%FSLAX46Y46*%
G04 Gerber Fmt 4.6, Leading zero omitted, Abs format (unit mm)*
G04 Created by KiCad (PCBNEW 5.1.7-a382d34a8~87~ubuntu18.04.1) date 2021-01-14 14:15:41*
%MOMM*%
%LPD*%
G01*
G04 APERTURE LIST*
%ADD10C,0.300000*%
%ADD11C,0.500000*%
G04 APERTURE END LIST*
D10*
X101900000Y-141104761D02*
X102280952Y-141104761D01*
X102471428Y-141200000D01*
X102661904Y-141390476D01*
X102757142Y-141771428D01*
X102757142Y-142438095D01*
X102661904Y-142819047D01*
X102471428Y-143009523D01*
X102280952Y-143104761D01*
X101900000Y-143104761D01*
X101709523Y-143009523D01*
X101519047Y-142819047D01*
X101423809Y-142438095D01*
X101423809Y-141771428D01*
X101519047Y-141390476D01*
X101709523Y-141200000D01*
X101900000Y-141104761D01*
X103614285Y-141104761D02*
X103614285Y-142723809D01*
X103709523Y-142914285D01*
X103804761Y-143009523D01*
X103995238Y-143104761D01*
X104376190Y-143104761D01*
X104566666Y-143009523D01*
X104661904Y-142914285D01*
X104757142Y-142723809D01*
X104757142Y-141104761D01*
X105423809Y-141104761D02*
X106566666Y-141104761D01*
X105995238Y-143104761D02*
X105995238Y-141104761D01*
X93154761Y-143204761D02*
X92488095Y-142252380D01*
X92011904Y-143204761D02*
X92011904Y-141204761D01*
X92773809Y-141204761D01*
X92964285Y-141300000D01*
X93059523Y-141395238D01*
X93154761Y-141585714D01*
X93154761Y-141871428D01*
X93059523Y-142061904D01*
X92964285Y-142157142D01*
X92773809Y-142252380D01*
X92011904Y-142252380D01*
X93916666Y-143109523D02*
X94202380Y-143204761D01*
X94678571Y-143204761D01*
X94869047Y-143109523D01*
X94964285Y-143014285D01*
X95059523Y-142823809D01*
X95059523Y-142633333D01*
X94964285Y-142442857D01*
X94869047Y-142347619D01*
X94678571Y-142252380D01*
X94297619Y-142157142D01*
X94107142Y-142061904D01*
X94011904Y-141966666D01*
X93916666Y-141776190D01*
X93916666Y-141585714D01*
X94011904Y-141395238D01*
X94107142Y-141300000D01*
X94297619Y-141204761D01*
X94773809Y-141204761D01*
X95059523Y-141300000D01*
X95630952Y-141204761D02*
X96773809Y-141204761D01*
X96202380Y-143204761D02*
X96202380Y-141204761D01*
X83659523Y-143114285D02*
X83564285Y-143209523D01*
X83278571Y-143304761D01*
X83088095Y-143304761D01*
X82802380Y-143209523D01*
X82611904Y-143019047D01*
X82516666Y-142828571D01*
X82421428Y-142447619D01*
X82421428Y-142161904D01*
X82516666Y-141780952D01*
X82611904Y-141590476D01*
X82802380Y-141400000D01*
X83088095Y-141304761D01*
X83278571Y-141304761D01*
X83564285Y-141400000D01*
X83659523Y-141495238D01*
X85469047Y-143304761D02*
X84516666Y-143304761D01*
X84516666Y-141304761D01*
X86135714Y-143304761D02*
X86135714Y-141304761D01*
X87278571Y-143304761D02*
X86421428Y-142161904D01*
X87278571Y-141304761D02*
X86135714Y-142447619D01*
D11*
X92042857Y-32964285D02*
X92471428Y-33107142D01*
X93185714Y-33107142D01*
X93471428Y-32964285D01*
X93614285Y-32821428D01*
X93757142Y-32535714D01*
X93757142Y-32250000D01*
X93614285Y-31964285D01*
X93471428Y-31821428D01*
X93185714Y-31678571D01*
X92614285Y-31535714D01*
X92328571Y-31392857D01*
X92185714Y-31250000D01*
X92042857Y-30964285D01*
X92042857Y-30678571D01*
X92185714Y-30392857D01*
X92328571Y-30250000D01*
X92614285Y-30107142D01*
X93328571Y-30107142D01*
X93757142Y-30250000D01*
X95042857Y-31535714D02*
X96042857Y-31535714D01*
X96471428Y-33107142D02*
X95042857Y-33107142D01*
X95042857Y-30107142D01*
X96471428Y-30107142D01*
X99757142Y-33392857D02*
X99471428Y-33250000D01*
X99185714Y-32964285D01*
X98757142Y-32535714D01*
X98471428Y-32392857D01*
X98185714Y-32392857D01*
X98328571Y-33107142D02*
X98042857Y-32964285D01*
X97757142Y-32678571D01*
X97614285Y-32107142D01*
X97614285Y-31107142D01*
X97757142Y-30535714D01*
X98042857Y-30250000D01*
X98328571Y-30107142D01*
X98900000Y-30107142D01*
X99185714Y-30250000D01*
X99471428Y-30535714D01*
X99614285Y-31107142D01*
X99614285Y-32107142D01*
X99471428Y-32678571D01*
X99185714Y-32964285D01*
X98900000Y-33107142D01*
X98328571Y-33107142D01*
X101328571Y-31392857D02*
X101042857Y-31250000D01*
X100900000Y-31107142D01*
X100757142Y-30821428D01*
X100757142Y-30678571D01*
X100900000Y-30392857D01*
X101042857Y-30250000D01*
X101328571Y-30107142D01*
X101900000Y-30107142D01*
X102185714Y-30250000D01*
X102328571Y-30392857D01*
X102471428Y-30678571D01*
X102471428Y-30821428D01*
X102328571Y-31107142D01*
X102185714Y-31250000D01*
X101900000Y-31392857D01*
X101328571Y-31392857D01*
X101042857Y-31535714D01*
X100900000Y-31678571D01*
X100757142Y-31964285D01*
X100757142Y-32535714D01*
X100900000Y-32821428D01*
X101042857Y-32964285D01*
X101328571Y-33107142D01*
X101900000Y-33107142D01*
X102185714Y-32964285D01*
X102328571Y-32821428D01*
X102471428Y-32535714D01*
X102471428Y-31964285D01*
X102328571Y-31678571D01*
X102185714Y-31535714D01*
X101900000Y-31392857D01*
X103757142Y-32821428D02*
X103900000Y-32964285D01*
X103757142Y-33107142D01*
X103614285Y-32964285D01*
X103757142Y-32821428D01*
X103757142Y-33107142D01*
X105042857Y-30392857D02*
X105185714Y-30250000D01*
X105471428Y-30107142D01*
X106185714Y-30107142D01*
X106471428Y-30250000D01*
X106614285Y-30392857D01*
X106757142Y-30678571D01*
X106757142Y-30964285D01*
X106614285Y-31392857D01*
X104900000Y-33107142D01*
X106757142Y-33107142D01*
D10*
X101900000Y-141104761D02*
X102280952Y-141104761D01*
X102471428Y-141200000D01*
X102661904Y-141390476D01*
X102757142Y-141771428D01*
X102757142Y-142438095D01*
X102661904Y-142819047D01*
X102471428Y-143009523D01*
X102280952Y-143104761D01*
X101900000Y-143104761D01*
X101709523Y-143009523D01*
X101519047Y-142819047D01*
X101423809Y-142438095D01*
X101423809Y-141771428D01*
X101519047Y-141390476D01*
X101709523Y-141200000D01*
X101900000Y-141104761D01*
X103614285Y-141104761D02*
X103614285Y-142723809D01*
X103709523Y-142914285D01*
X103804761Y-143009523D01*
X103995238Y-143104761D01*
X104376190Y-143104761D01*
X104566666Y-143009523D01*
X104661904Y-142914285D01*
X104757142Y-142723809D01*
X104757142Y-141104761D01*
X105423809Y-141104761D02*
X106566666Y-141104761D01*
X105995238Y-143104761D02*
X105995238Y-141104761D01*
X93154761Y-143204761D02*
X92488095Y-142252380D01*
X92011904Y-143204761D02*
X92011904Y-141204761D01*
X92773809Y-141204761D01*
X92964285Y-141300000D01*
X93059523Y-141395238D01*
X93154761Y-141585714D01*
X93154761Y-141871428D01*
X93059523Y-142061904D01*
X92964285Y-142157142D01*
X92773809Y-142252380D01*
X92011904Y-142252380D01*
X93916666Y-143109523D02*
X94202380Y-143204761D01*
X94678571Y-143204761D01*
X94869047Y-143109523D01*
X94964285Y-143014285D01*
X95059523Y-142823809D01*
X95059523Y-142633333D01*
X94964285Y-142442857D01*
X94869047Y-142347619D01*
X94678571Y-142252380D01*
X94297619Y-142157142D01*
X94107142Y-142061904D01*
X94011904Y-141966666D01*
X93916666Y-141776190D01*
X93916666Y-141585714D01*
X94011904Y-141395238D01*
X94107142Y-141300000D01*
X94297619Y-141204761D01*
X94773809Y-141204761D01*
X95059523Y-141300000D01*
X95630952Y-141204761D02*
X96773809Y-141204761D01*
X96202380Y-143204761D02*
X96202380Y-141204761D01*
X83659523Y-143114285D02*
X83564285Y-143209523D01*
X83278571Y-143304761D01*
X83088095Y-143304761D01*
X82802380Y-143209523D01*
X82611904Y-143019047D01*
X82516666Y-142828571D01*
X82421428Y-142447619D01*
X82421428Y-142161904D01*
X82516666Y-141780952D01*
X82611904Y-141590476D01*
X82802380Y-141400000D01*
X83088095Y-141304761D01*
X83278571Y-141304761D01*
X83564285Y-141400000D01*
X83659523Y-141495238D01*
X85469047Y-143304761D02*
X84516666Y-143304761D01*
X84516666Y-141304761D01*
X86135714Y-143304761D02*
X86135714Y-141304761D01*
X87278571Y-143304761D02*
X86421428Y-142161904D01*
X87278571Y-141304761D02*
X86135714Y-142447619D01*
D11*
X92042857Y-32964285D02*
X92471428Y-33107142D01*
X93185714Y-33107142D01*
X93471428Y-32964285D01*
X93614285Y-32821428D01*
X93757142Y-32535714D01*
X93757142Y-32250000D01*
X93614285Y-31964285D01*
X93471428Y-31821428D01*
X93185714Y-31678571D01*
X92614285Y-31535714D01*
X92328571Y-31392857D01*
X92185714Y-31250000D01*
X92042857Y-30964285D01*
X92042857Y-30678571D01*
X92185714Y-30392857D01*
X92328571Y-30250000D01*
X92614285Y-30107142D01*
X93328571Y-30107142D01*
X93757142Y-30250000D01*
X95042857Y-31535714D02*
X96042857Y-31535714D01*
X96471428Y-33107142D02*
X95042857Y-33107142D01*
X95042857Y-30107142D01*
X96471428Y-30107142D01*
X99757142Y-33392857D02*
X99471428Y-33250000D01*
X99185714Y-32964285D01*
X98757142Y-32535714D01*
X98471428Y-32392857D01*
X98185714Y-32392857D01*
X98328571Y-33107142D02*
X98042857Y-32964285D01*
X97757142Y-32678571D01*
X97614285Y-32107142D01*
X97614285Y-31107142D01*
X97757142Y-30535714D01*
X98042857Y-30250000D01*
X98328571Y-30107142D01*
X98900000Y-30107142D01*
X99185714Y-30250000D01*
X99471428Y-30535714D01*
X99614285Y-31107142D01*
X99614285Y-32107142D01*
X99471428Y-32678571D01*
X99185714Y-32964285D01*
X98900000Y-33107142D01*
X98328571Y-33107142D01*
X101328571Y-31392857D02*
X101042857Y-31250000D01*
X100900000Y-31107142D01*
X100757142Y-30821428D01*
X100757142Y-30678571D01*
X100900000Y-30392857D01*
X101042857Y-30250000D01*
X101328571Y-30107142D01*
X101900000Y-30107142D01*
X102185714Y-30250000D01*
X102328571Y-30392857D01*
X102471428Y-30678571D01*
X102471428Y-30821428D01*
X102328571Y-31107142D01*
X102185714Y-31250000D01*
X101900000Y-31392857D01*
X101328571Y-31392857D01*
X101042857Y-31535714D01*
X100900000Y-31678571D01*
X100757142Y-31964285D01*
X100757142Y-32535714D01*
X100900000Y-32821428D01*
X101042857Y-32964285D01*
X101328571Y-33107142D01*
X101900000Y-33107142D01*
X102185714Y-32964285D01*
X102328571Y-32821428D01*
X102471428Y-32535714D01*
X102471428Y-31964285D01*
X102328571Y-31678571D01*
X102185714Y-31535714D01*
X101900000Y-31392857D01*
X103757142Y-32821428D02*
X103900000Y-32964285D01*
X103757142Y-33107142D01*
X103614285Y-32964285D01*
X103757142Y-32821428D01*
X103757142Y-33107142D01*
X105042857Y-30392857D02*
X105185714Y-30250000D01*
X105471428Y-30107142D01*
X106185714Y-30107142D01*
X106471428Y-30250000D01*
X106614285Y-30392857D01*
X106757142Y-30678571D01*
X106757142Y-30964285D01*
X106614285Y-31392857D01*
X104900000Y-33107142D01*
X106757142Y-33107142D01*
M02*
