G04 #@! TF.GenerationSoftware,KiCad,Pcbnew,5.1.7-a382d34a8~87~ubuntu18.04.1*
G04 #@! TF.CreationDate,2021-01-14T14:15:41+00:00*
G04 #@! TF.ProjectId,seq8.2-panel,73657138-2e32-42d7-9061-6e656c2e6b69,rev?*
G04 #@! TF.SameCoordinates,Original*
G04 #@! TF.FileFunction,Profile,NP*
%FSLAX46Y46*%
G04 Gerber Fmt 4.6, Leading zero omitted, Abs format (unit mm)*
G04 Created by KiCad (PCBNEW 5.1.7-a382d34a8~87~ubuntu18.04.1) date 2021-01-14 14:15:41*
%MOMM*%
%LPD*%
G01*
G04 APERTURE LIST*
G04 #@! TA.AperFunction,Profile*
%ADD10C,0.200000*%
G04 #@! TD*
G04 APERTURE END LIST*
D10*
X109430450Y-27902180D02*
X109430450Y-156302180D01*
X88290450Y-153302180D02*
G75*
G03*
X88290450Y-153302180I-1500000J0D01*
G01*
X88290450Y-30802180D02*
G75*
G03*
X88290450Y-30802180I-1500000J0D01*
G01*
X90490450Y-93367180D02*
G75*
G03*
X90490450Y-93367180I-3750000J0D01*
G01*
X104460450Y-85747180D02*
G75*
G03*
X104460450Y-85747180I-3750000J0D01*
G01*
X91670450Y-100987180D02*
G75*
G03*
X91670450Y-100987180I-1750000J0D01*
G01*
X99290450Y-93367180D02*
G75*
G03*
X99290450Y-93367180I-1750000J0D01*
G01*
X91670450Y-85747180D02*
G75*
G03*
X91670450Y-85747180I-1750000J0D01*
G01*
X104460450Y-117507180D02*
G75*
G03*
X104460450Y-117507180I-3750000J0D01*
G01*
X90490450Y-109247180D02*
G75*
G03*
X90490450Y-109247180I-3750000J0D01*
G01*
X104460450Y-101627180D02*
G75*
G03*
X104460450Y-101627180I-3750000J0D01*
G01*
X90490450Y-62887180D02*
G75*
G03*
X90490450Y-62887180I-3750000J0D01*
G01*
X106900450Y-133387180D02*
G75*
G03*
X106900450Y-133387180I-3000000J0D01*
G01*
X99290450Y-78127180D02*
G75*
G03*
X99290450Y-78127180I-1750000J0D01*
G01*
X91670450Y-70507180D02*
G75*
G03*
X91670450Y-70507180I-1750000J0D01*
G01*
X99290450Y-62887180D02*
G75*
G03*
X99290450Y-62887180I-1750000J0D01*
G01*
X90490450Y-78127180D02*
G75*
G03*
X90490450Y-78127180I-3750000J0D01*
G01*
X104460450Y-70507180D02*
G75*
G03*
X104460450Y-70507180I-3750000J0D01*
G01*
X79290450Y-156302180D02*
X79290450Y-27902180D01*
X97370450Y-133387180D02*
G75*
G03*
X97370450Y-133387180I-3000000J0D01*
G01*
X87840450Y-133387180D02*
G75*
G03*
X87840450Y-133387180I-3000000J0D01*
G01*
X91670450Y-117507180D02*
G75*
G03*
X91670450Y-117507180I-1750000J0D01*
G01*
X99290450Y-109247180D02*
G75*
G03*
X99290450Y-109247180I-1750000J0D01*
G01*
X109430450Y-156302180D02*
X79290450Y-156302180D01*
X79290450Y-27902180D02*
X109430450Y-27902180D01*
M02*
