G04 #@! TF.GenerationSoftware,KiCad,Pcbnew,5.1.7-a382d34a8~87~ubuntu18.04.1*
G04 #@! TF.CreationDate,2021-01-14T14:00:11+00:00*
G04 #@! TF.ProjectId,2hp-bpf-panel,3268702d-6270-4662-9d70-616e656c2e6b,rev?*
G04 #@! TF.SameCoordinates,Original*
G04 #@! TF.FileFunction,Copper,L2,Bot*
G04 #@! TF.FilePolarity,Positive*
%FSLAX46Y46*%
G04 Gerber Fmt 4.6, Leading zero omitted, Abs format (unit mm)*
G04 Created by KiCad (PCBNEW 5.1.7-a382d34a8~87~ubuntu18.04.1) date 2021-01-14 14:00:11*
%MOMM*%
%LPD*%
G01*
G04 APERTURE LIST*
G04 #@! TA.AperFunction,NonConductor*
%ADD10C,0.254000*%
G04 #@! TD*
G04 #@! TA.AperFunction,NonConductor*
%ADD11C,0.100000*%
G04 #@! TD*
G04 APERTURE END LIST*
D10*
X134125208Y-24238100D02*
X133716800Y-24407268D01*
X133349243Y-24652861D01*
X133036661Y-24965443D01*
X132791068Y-25333000D01*
X132621900Y-25741408D01*
X132535658Y-26174971D01*
X132535658Y-26617029D01*
X132621900Y-27050592D01*
X132791068Y-27459000D01*
X133036661Y-27826557D01*
X133349243Y-28139139D01*
X133716800Y-28384732D01*
X134125208Y-28553900D01*
X134558771Y-28640142D01*
X135000829Y-28640142D01*
X135434392Y-28553900D01*
X135842800Y-28384732D01*
X136210357Y-28139139D01*
X136364800Y-27984696D01*
X136364801Y-147307305D01*
X136210357Y-147152861D01*
X135842800Y-146907268D01*
X135434392Y-146738100D01*
X135000829Y-146651858D01*
X134558771Y-146651858D01*
X134125208Y-146738100D01*
X133716800Y-146907268D01*
X133349243Y-147152861D01*
X133036661Y-147465443D01*
X132791068Y-147833000D01*
X132621900Y-148241408D01*
X132535658Y-148674971D01*
X132535658Y-149117029D01*
X132621900Y-149550592D01*
X132791068Y-149959000D01*
X133036661Y-150326557D01*
X133349243Y-150639139D01*
X133716800Y-150884732D01*
X134125208Y-151053900D01*
X134558771Y-151140142D01*
X135000829Y-151140142D01*
X135434392Y-151053900D01*
X135842800Y-150884732D01*
X136210357Y-150639139D01*
X136364801Y-150484695D01*
X136364801Y-151161000D01*
X128014800Y-151161000D01*
X128014800Y-132107946D01*
X128462881Y-132107946D01*
X128462881Y-132844054D01*
X128606489Y-133566019D01*
X128888186Y-134246095D01*
X129297146Y-134858147D01*
X129817653Y-135378654D01*
X130429705Y-135787614D01*
X131109781Y-136069311D01*
X131831746Y-136212919D01*
X132567854Y-136212919D01*
X133289819Y-136069311D01*
X133969895Y-135787614D01*
X134581947Y-135378654D01*
X135102454Y-134858147D01*
X135511414Y-134246095D01*
X135793111Y-133566019D01*
X135936719Y-132844054D01*
X135936719Y-132107946D01*
X135793111Y-131385981D01*
X135511414Y-130705905D01*
X135102454Y-130093853D01*
X134581947Y-129573346D01*
X133969895Y-129164386D01*
X133289819Y-128882689D01*
X132567854Y-128739081D01*
X131831746Y-128739081D01*
X131109781Y-128882689D01*
X130429705Y-129164386D01*
X129817653Y-129573346D01*
X129297146Y-130093853D01*
X128888186Y-130705905D01*
X128606489Y-131385981D01*
X128462881Y-132107946D01*
X128014800Y-132107946D01*
X128014800Y-115573441D01*
X128214085Y-115573441D01*
X128214085Y-116358559D01*
X128367254Y-117128590D01*
X128667705Y-117853944D01*
X129103893Y-118506745D01*
X129659055Y-119061907D01*
X130311856Y-119498095D01*
X131037210Y-119798546D01*
X131807241Y-119951715D01*
X132592359Y-119951715D01*
X133362390Y-119798546D01*
X134087744Y-119498095D01*
X134740545Y-119061907D01*
X135295707Y-118506745D01*
X135731895Y-117853944D01*
X136032346Y-117128590D01*
X136185515Y-116358559D01*
X136185515Y-115573441D01*
X136032346Y-114803410D01*
X135731895Y-114078056D01*
X135295707Y-113425255D01*
X134740545Y-112870093D01*
X134087744Y-112433905D01*
X133362390Y-112133454D01*
X132592359Y-111980285D01*
X131807241Y-111980285D01*
X131037210Y-112133454D01*
X130311856Y-112433905D01*
X129659055Y-112870093D01*
X129103893Y-113425255D01*
X128667705Y-114078056D01*
X128367254Y-114803410D01*
X128214085Y-115573441D01*
X128014800Y-115573441D01*
X128014800Y-100963441D01*
X128214085Y-100963441D01*
X128214085Y-101748559D01*
X128367254Y-102518590D01*
X128667705Y-103243944D01*
X129103893Y-103896745D01*
X129659055Y-104451907D01*
X130311856Y-104888095D01*
X131037210Y-105188546D01*
X131807241Y-105341715D01*
X132592359Y-105341715D01*
X133362390Y-105188546D01*
X134087744Y-104888095D01*
X134740545Y-104451907D01*
X135295707Y-103896745D01*
X135731895Y-103243944D01*
X136032346Y-102518590D01*
X136185515Y-101748559D01*
X136185515Y-100963441D01*
X136032346Y-100193410D01*
X135731895Y-99468056D01*
X135295707Y-98815255D01*
X134740545Y-98260093D01*
X134087744Y-97823905D01*
X133362390Y-97523454D01*
X132592359Y-97370285D01*
X131807241Y-97370285D01*
X131037210Y-97523454D01*
X130311856Y-97823905D01*
X129659055Y-98260093D01*
X129103893Y-98815255D01*
X128667705Y-99468056D01*
X128367254Y-100193410D01*
X128214085Y-100963441D01*
X128014800Y-100963441D01*
X128014800Y-86932441D01*
X128214085Y-86932441D01*
X128214085Y-87717559D01*
X128367254Y-88487590D01*
X128667705Y-89212944D01*
X129103893Y-89865745D01*
X129659055Y-90420907D01*
X130311856Y-90857095D01*
X131037210Y-91157546D01*
X131807241Y-91310715D01*
X132592359Y-91310715D01*
X133362390Y-91157546D01*
X134087744Y-90857095D01*
X134740545Y-90420907D01*
X135295707Y-89865745D01*
X135731895Y-89212944D01*
X136032346Y-88487590D01*
X136185515Y-87717559D01*
X136185515Y-86932441D01*
X136032346Y-86162410D01*
X135731895Y-85437056D01*
X135295707Y-84784255D01*
X134740545Y-84229093D01*
X134087744Y-83792905D01*
X133362390Y-83492454D01*
X132592359Y-83339285D01*
X131807241Y-83339285D01*
X131037210Y-83492454D01*
X130311856Y-83792905D01*
X129659055Y-84229093D01*
X129103893Y-84784255D01*
X128667705Y-85437056D01*
X128367254Y-86162410D01*
X128214085Y-86932441D01*
X128014800Y-86932441D01*
X128014800Y-41927946D01*
X128462881Y-41927946D01*
X128462881Y-42664054D01*
X128606489Y-43386019D01*
X128888186Y-44066095D01*
X129297146Y-44678147D01*
X129817653Y-45198654D01*
X130429705Y-45607614D01*
X131109781Y-45889311D01*
X131831746Y-46032919D01*
X132567854Y-46032919D01*
X133289819Y-45889311D01*
X133969895Y-45607614D01*
X134581947Y-45198654D01*
X135102454Y-44678147D01*
X135511414Y-44066095D01*
X135793111Y-43386019D01*
X135936719Y-42664054D01*
X135936719Y-41927946D01*
X135793111Y-41205981D01*
X135511414Y-40525905D01*
X135102454Y-39913853D01*
X134581947Y-39393346D01*
X133969895Y-38984386D01*
X133289819Y-38702689D01*
X132567854Y-38559081D01*
X131831746Y-38559081D01*
X131109781Y-38702689D01*
X130429705Y-38984386D01*
X129817653Y-39393346D01*
X129297146Y-39913853D01*
X128888186Y-40525905D01*
X128606489Y-41205981D01*
X128462881Y-41927946D01*
X128014800Y-41927946D01*
X128014800Y-24231000D01*
X134160902Y-24231000D01*
X134125208Y-24238100D01*
G04 #@! TA.AperFunction,NonConductor*
D11*
G36*
X134125208Y-24238100D02*
G01*
X133716800Y-24407268D01*
X133349243Y-24652861D01*
X133036661Y-24965443D01*
X132791068Y-25333000D01*
X132621900Y-25741408D01*
X132535658Y-26174971D01*
X132535658Y-26617029D01*
X132621900Y-27050592D01*
X132791068Y-27459000D01*
X133036661Y-27826557D01*
X133349243Y-28139139D01*
X133716800Y-28384732D01*
X134125208Y-28553900D01*
X134558771Y-28640142D01*
X135000829Y-28640142D01*
X135434392Y-28553900D01*
X135842800Y-28384732D01*
X136210357Y-28139139D01*
X136364800Y-27984696D01*
X136364801Y-147307305D01*
X136210357Y-147152861D01*
X135842800Y-146907268D01*
X135434392Y-146738100D01*
X135000829Y-146651858D01*
X134558771Y-146651858D01*
X134125208Y-146738100D01*
X133716800Y-146907268D01*
X133349243Y-147152861D01*
X133036661Y-147465443D01*
X132791068Y-147833000D01*
X132621900Y-148241408D01*
X132535658Y-148674971D01*
X132535658Y-149117029D01*
X132621900Y-149550592D01*
X132791068Y-149959000D01*
X133036661Y-150326557D01*
X133349243Y-150639139D01*
X133716800Y-150884732D01*
X134125208Y-151053900D01*
X134558771Y-151140142D01*
X135000829Y-151140142D01*
X135434392Y-151053900D01*
X135842800Y-150884732D01*
X136210357Y-150639139D01*
X136364801Y-150484695D01*
X136364801Y-151161000D01*
X128014800Y-151161000D01*
X128014800Y-132107946D01*
X128462881Y-132107946D01*
X128462881Y-132844054D01*
X128606489Y-133566019D01*
X128888186Y-134246095D01*
X129297146Y-134858147D01*
X129817653Y-135378654D01*
X130429705Y-135787614D01*
X131109781Y-136069311D01*
X131831746Y-136212919D01*
X132567854Y-136212919D01*
X133289819Y-136069311D01*
X133969895Y-135787614D01*
X134581947Y-135378654D01*
X135102454Y-134858147D01*
X135511414Y-134246095D01*
X135793111Y-133566019D01*
X135936719Y-132844054D01*
X135936719Y-132107946D01*
X135793111Y-131385981D01*
X135511414Y-130705905D01*
X135102454Y-130093853D01*
X134581947Y-129573346D01*
X133969895Y-129164386D01*
X133289819Y-128882689D01*
X132567854Y-128739081D01*
X131831746Y-128739081D01*
X131109781Y-128882689D01*
X130429705Y-129164386D01*
X129817653Y-129573346D01*
X129297146Y-130093853D01*
X128888186Y-130705905D01*
X128606489Y-131385981D01*
X128462881Y-132107946D01*
X128014800Y-132107946D01*
X128014800Y-115573441D01*
X128214085Y-115573441D01*
X128214085Y-116358559D01*
X128367254Y-117128590D01*
X128667705Y-117853944D01*
X129103893Y-118506745D01*
X129659055Y-119061907D01*
X130311856Y-119498095D01*
X131037210Y-119798546D01*
X131807241Y-119951715D01*
X132592359Y-119951715D01*
X133362390Y-119798546D01*
X134087744Y-119498095D01*
X134740545Y-119061907D01*
X135295707Y-118506745D01*
X135731895Y-117853944D01*
X136032346Y-117128590D01*
X136185515Y-116358559D01*
X136185515Y-115573441D01*
X136032346Y-114803410D01*
X135731895Y-114078056D01*
X135295707Y-113425255D01*
X134740545Y-112870093D01*
X134087744Y-112433905D01*
X133362390Y-112133454D01*
X132592359Y-111980285D01*
X131807241Y-111980285D01*
X131037210Y-112133454D01*
X130311856Y-112433905D01*
X129659055Y-112870093D01*
X129103893Y-113425255D01*
X128667705Y-114078056D01*
X128367254Y-114803410D01*
X128214085Y-115573441D01*
X128014800Y-115573441D01*
X128014800Y-100963441D01*
X128214085Y-100963441D01*
X128214085Y-101748559D01*
X128367254Y-102518590D01*
X128667705Y-103243944D01*
X129103893Y-103896745D01*
X129659055Y-104451907D01*
X130311856Y-104888095D01*
X131037210Y-105188546D01*
X131807241Y-105341715D01*
X132592359Y-105341715D01*
X133362390Y-105188546D01*
X134087744Y-104888095D01*
X134740545Y-104451907D01*
X135295707Y-103896745D01*
X135731895Y-103243944D01*
X136032346Y-102518590D01*
X136185515Y-101748559D01*
X136185515Y-100963441D01*
X136032346Y-100193410D01*
X135731895Y-99468056D01*
X135295707Y-98815255D01*
X134740545Y-98260093D01*
X134087744Y-97823905D01*
X133362390Y-97523454D01*
X132592359Y-97370285D01*
X131807241Y-97370285D01*
X131037210Y-97523454D01*
X130311856Y-97823905D01*
X129659055Y-98260093D01*
X129103893Y-98815255D01*
X128667705Y-99468056D01*
X128367254Y-100193410D01*
X128214085Y-100963441D01*
X128014800Y-100963441D01*
X128014800Y-86932441D01*
X128214085Y-86932441D01*
X128214085Y-87717559D01*
X128367254Y-88487590D01*
X128667705Y-89212944D01*
X129103893Y-89865745D01*
X129659055Y-90420907D01*
X130311856Y-90857095D01*
X131037210Y-91157546D01*
X131807241Y-91310715D01*
X132592359Y-91310715D01*
X133362390Y-91157546D01*
X134087744Y-90857095D01*
X134740545Y-90420907D01*
X135295707Y-89865745D01*
X135731895Y-89212944D01*
X136032346Y-88487590D01*
X136185515Y-87717559D01*
X136185515Y-86932441D01*
X136032346Y-86162410D01*
X135731895Y-85437056D01*
X135295707Y-84784255D01*
X134740545Y-84229093D01*
X134087744Y-83792905D01*
X133362390Y-83492454D01*
X132592359Y-83339285D01*
X131807241Y-83339285D01*
X131037210Y-83492454D01*
X130311856Y-83792905D01*
X129659055Y-84229093D01*
X129103893Y-84784255D01*
X128667705Y-85437056D01*
X128367254Y-86162410D01*
X128214085Y-86932441D01*
X128014800Y-86932441D01*
X128014800Y-41927946D01*
X128462881Y-41927946D01*
X128462881Y-42664054D01*
X128606489Y-43386019D01*
X128888186Y-44066095D01*
X129297146Y-44678147D01*
X129817653Y-45198654D01*
X130429705Y-45607614D01*
X131109781Y-45889311D01*
X131831746Y-46032919D01*
X132567854Y-46032919D01*
X133289819Y-45889311D01*
X133969895Y-45607614D01*
X134581947Y-45198654D01*
X135102454Y-44678147D01*
X135511414Y-44066095D01*
X135793111Y-43386019D01*
X135936719Y-42664054D01*
X135936719Y-41927946D01*
X135793111Y-41205981D01*
X135511414Y-40525905D01*
X135102454Y-39913853D01*
X134581947Y-39393346D01*
X133969895Y-38984386D01*
X133289819Y-38702689D01*
X132567854Y-38559081D01*
X131831746Y-38559081D01*
X131109781Y-38702689D01*
X130429705Y-38984386D01*
X129817653Y-39393346D01*
X129297146Y-39913853D01*
X128888186Y-40525905D01*
X128606489Y-41205981D01*
X128462881Y-41927946D01*
X128014800Y-41927946D01*
X128014800Y-24231000D01*
X134160902Y-24231000D01*
X134125208Y-24238100D01*
G37*
G04 #@! TD.AperFunction*
D10*
X136364800Y-24807304D02*
X136210357Y-24652861D01*
X135842800Y-24407268D01*
X135434392Y-24238100D01*
X135398698Y-24231000D01*
X136364800Y-24231000D01*
X136364800Y-24807304D01*
G04 #@! TA.AperFunction,NonConductor*
D11*
G36*
X136364800Y-24807304D02*
G01*
X136210357Y-24652861D01*
X135842800Y-24407268D01*
X135434392Y-24238100D01*
X135398698Y-24231000D01*
X136364800Y-24231000D01*
X136364800Y-24807304D01*
G37*
G04 #@! TD.AperFunction*
M02*
