G04 #@! TF.GenerationSoftware,KiCad,Pcbnew,5.1.7-a382d34a8~87~ubuntu18.04.1*
G04 #@! TF.CreationDate,2021-01-14T14:00:11+00:00*
G04 #@! TF.ProjectId,2hp-bpf-panel,3268702d-6270-4662-9d70-616e656c2e6b,rev?*
G04 #@! TF.SameCoordinates,Original*
G04 #@! TF.FileFunction,Legend,Bot*
G04 #@! TF.FilePolarity,Positive*
%FSLAX46Y46*%
G04 Gerber Fmt 4.6, Leading zero omitted, Abs format (unit mm)*
G04 Created by KiCad (PCBNEW 5.1.7-a382d34a8~87~ubuntu18.04.1) date 2021-01-14 14:00:11*
%MOMM*%
%LPD*%
G01*
G04 APERTURE LIST*
%ADD10C,0.150000*%
G04 APERTURE END LIST*
D10*
X131902380Y-49228571D02*
X132854761Y-49228571D01*
X130854761Y-48561904D02*
X131902380Y-49228571D01*
X130854761Y-49895238D01*
X132854761Y-50847619D02*
X132759523Y-50657142D01*
X132664285Y-50561904D01*
X132473809Y-50466666D01*
X131902380Y-50466666D01*
X131711904Y-50561904D01*
X131616666Y-50657142D01*
X131521428Y-50847619D01*
X131521428Y-51133333D01*
X131616666Y-51323809D01*
X131711904Y-51419047D01*
X131902380Y-51514285D01*
X132473809Y-51514285D01*
X132664285Y-51419047D01*
X132759523Y-51323809D01*
X132854761Y-51133333D01*
X132854761Y-50847619D01*
X132854761Y-52371428D02*
X131521428Y-52371428D01*
X131902380Y-52371428D02*
X131711904Y-52466666D01*
X131616666Y-52561904D01*
X131521428Y-52752380D01*
X131521428Y-52942857D01*
X132854761Y-53609523D02*
X130854761Y-53609523D01*
X132092857Y-53800000D02*
X132854761Y-54371428D01*
X131521428Y-54371428D02*
X132283333Y-53609523D01*
X132854761Y-56752380D02*
X130854761Y-56752380D01*
X132283333Y-57419047D01*
X130854761Y-58085714D01*
X132854761Y-58085714D01*
X132854761Y-59323809D02*
X132759523Y-59133333D01*
X132664285Y-59038095D01*
X132473809Y-58942857D01*
X131902380Y-58942857D01*
X131711904Y-59038095D01*
X131616666Y-59133333D01*
X131521428Y-59323809D01*
X131521428Y-59609523D01*
X131616666Y-59800000D01*
X131711904Y-59895238D01*
X131902380Y-59990476D01*
X132473809Y-59990476D01*
X132664285Y-59895238D01*
X132759523Y-59800000D01*
X132854761Y-59609523D01*
X132854761Y-59323809D01*
X132854761Y-61704761D02*
X130854761Y-61704761D01*
X132759523Y-61704761D02*
X132854761Y-61514285D01*
X132854761Y-61133333D01*
X132759523Y-60942857D01*
X132664285Y-60847619D01*
X132473809Y-60752380D01*
X131902380Y-60752380D01*
X131711904Y-60847619D01*
X131616666Y-60942857D01*
X131521428Y-61133333D01*
X131521428Y-61514285D01*
X131616666Y-61704761D01*
X131521428Y-63514285D02*
X132854761Y-63514285D01*
X131521428Y-62657142D02*
X132569047Y-62657142D01*
X132759523Y-62752380D01*
X132854761Y-62942857D01*
X132854761Y-63228571D01*
X132759523Y-63419047D01*
X132664285Y-63514285D01*
X132854761Y-64752380D02*
X132759523Y-64561904D01*
X132569047Y-64466666D01*
X130854761Y-64466666D01*
X132854761Y-66371428D02*
X131807142Y-66371428D01*
X131616666Y-66276190D01*
X131521428Y-66085714D01*
X131521428Y-65704761D01*
X131616666Y-65514285D01*
X132759523Y-66371428D02*
X132854761Y-66180952D01*
X132854761Y-65704761D01*
X132759523Y-65514285D01*
X132569047Y-65419047D01*
X132378571Y-65419047D01*
X132188095Y-65514285D01*
X132092857Y-65704761D01*
X132092857Y-66180952D01*
X131997619Y-66371428D01*
X132854761Y-67323809D02*
X131521428Y-67323809D01*
X131902380Y-67323809D02*
X131711904Y-67419047D01*
X131616666Y-67514285D01*
X131521428Y-67704761D01*
X131521428Y-67895238D01*
X131045238Y-69990476D02*
X130950000Y-70085714D01*
X130854761Y-70276190D01*
X130854761Y-70752380D01*
X130950000Y-70942857D01*
X131045238Y-71038095D01*
X131235714Y-71133333D01*
X131426190Y-71133333D01*
X131711904Y-71038095D01*
X132854761Y-69895238D01*
X132854761Y-71133333D01*
X130854761Y-72371428D02*
X130854761Y-72561904D01*
X130950000Y-72752380D01*
X131045238Y-72847619D01*
X131235714Y-72942857D01*
X131616666Y-73038095D01*
X132092857Y-73038095D01*
X132473809Y-72942857D01*
X132664285Y-72847619D01*
X132759523Y-72752380D01*
X132854761Y-72561904D01*
X132854761Y-72371428D01*
X132759523Y-72180952D01*
X132664285Y-72085714D01*
X132473809Y-71990476D01*
X132092857Y-71895238D01*
X131616666Y-71895238D01*
X131235714Y-71990476D01*
X131045238Y-72085714D01*
X130950000Y-72180952D01*
X130854761Y-72371428D01*
X131045238Y-73800000D02*
X130950000Y-73895238D01*
X130854761Y-74085714D01*
X130854761Y-74561904D01*
X130950000Y-74752380D01*
X131045238Y-74847619D01*
X131235714Y-74942857D01*
X131426190Y-74942857D01*
X131711904Y-74847619D01*
X132854761Y-73704761D01*
X132854761Y-74942857D01*
X130854761Y-76180952D02*
X130854761Y-76371428D01*
X130950000Y-76561904D01*
X131045238Y-76657142D01*
X131235714Y-76752380D01*
X131616666Y-76847619D01*
X132092857Y-76847619D01*
X132473809Y-76752380D01*
X132664285Y-76657142D01*
X132759523Y-76561904D01*
X132854761Y-76371428D01*
X132854761Y-76180952D01*
X132759523Y-75990476D01*
X132664285Y-75895238D01*
X132473809Y-75800000D01*
X132092857Y-75704761D01*
X131616666Y-75704761D01*
X131235714Y-75800000D01*
X131045238Y-75895238D01*
X130950000Y-75990476D01*
X130854761Y-76180952D01*
M02*
