G04 #@! TF.GenerationSoftware,KiCad,Pcbnew,5.1.7-a382d34a8~87~ubuntu18.04.1*
G04 #@! TF.CreationDate,2021-01-14T14:00:11+00:00*
G04 #@! TF.ProjectId,2hp-bpf-panel,3268702d-6270-4662-9d70-616e656c2e6b,rev?*
G04 #@! TF.SameCoordinates,Original*
G04 #@! TF.FileFunction,Copper,L1,Top*
G04 #@! TF.FilePolarity,Positive*
%FSLAX46Y46*%
G04 Gerber Fmt 4.6, Leading zero omitted, Abs format (unit mm)*
G04 Created by KiCad (PCBNEW 5.1.7-a382d34a8~87~ubuntu18.04.1) date 2021-01-14 14:00:11*
%MOMM*%
%LPD*%
G01*
G04 APERTURE LIST*
G04 #@! TA.AperFunction,NonConductor*
%ADD10C,0.500000*%
G04 #@! TD*
G04 APERTURE END LIST*
D10*
X130207000Y-140712961D02*
X130587952Y-140712961D01*
X130778428Y-140808200D01*
X130968904Y-140998676D01*
X131064142Y-141379628D01*
X131064142Y-142046295D01*
X130968904Y-142427247D01*
X130778428Y-142617723D01*
X130587952Y-142712961D01*
X130207000Y-142712961D01*
X130016523Y-142617723D01*
X129826047Y-142427247D01*
X129730809Y-142046295D01*
X129730809Y-141379628D01*
X129826047Y-140998676D01*
X130016523Y-140808200D01*
X130207000Y-140712961D01*
X131921285Y-140712961D02*
X131921285Y-142332009D01*
X132016523Y-142522485D01*
X132111761Y-142617723D01*
X132302238Y-142712961D01*
X132683190Y-142712961D01*
X132873666Y-142617723D01*
X132968904Y-142522485D01*
X133064142Y-142332009D01*
X133064142Y-140712961D01*
X133730809Y-140712961D02*
X134873666Y-140712961D01*
X134302238Y-142712961D02*
X134302238Y-140712961D01*
X130918104Y-125707661D02*
X130251438Y-124755280D01*
X129775247Y-125707661D02*
X129775247Y-123707661D01*
X130537152Y-123707661D01*
X130727628Y-123802900D01*
X130822866Y-123898138D01*
X130918104Y-124088614D01*
X130918104Y-124374328D01*
X130822866Y-124564804D01*
X130727628Y-124660042D01*
X130537152Y-124755280D01*
X129775247Y-124755280D01*
X131775247Y-124660042D02*
X132441914Y-124660042D01*
X132727628Y-125707661D02*
X131775247Y-125707661D01*
X131775247Y-123707661D01*
X132727628Y-123707661D01*
X133489533Y-125612423D02*
X133775247Y-125707661D01*
X134251438Y-125707661D01*
X134441914Y-125612423D01*
X134537152Y-125517185D01*
X134632390Y-125326709D01*
X134632390Y-125136233D01*
X134537152Y-124945757D01*
X134441914Y-124850519D01*
X134251438Y-124755280D01*
X133870485Y-124660042D01*
X133680009Y-124564804D01*
X133584771Y-124469566D01*
X133489533Y-124279090D01*
X133489533Y-124088614D01*
X133584771Y-123898138D01*
X133680009Y-123802900D01*
X133870485Y-123707661D01*
X134346676Y-123707661D01*
X134632390Y-123802900D01*
X130914923Y-94846685D02*
X130819685Y-94941923D01*
X130533971Y-95037161D01*
X130343495Y-95037161D01*
X130057780Y-94941923D01*
X129867304Y-94751447D01*
X129772066Y-94560971D01*
X129676828Y-94180019D01*
X129676828Y-93894304D01*
X129772066Y-93513352D01*
X129867304Y-93322876D01*
X130057780Y-93132400D01*
X130343495Y-93037161D01*
X130533971Y-93037161D01*
X130819685Y-93132400D01*
X130914923Y-93227638D01*
X131772066Y-93037161D02*
X131772066Y-94656209D01*
X131867304Y-94846685D01*
X131962542Y-94941923D01*
X132153019Y-95037161D01*
X132533971Y-95037161D01*
X132724447Y-94941923D01*
X132819685Y-94846685D01*
X132914923Y-94656209D01*
X132914923Y-93037161D01*
X133581590Y-93037161D02*
X134724447Y-93037161D01*
X134153019Y-95037161D02*
X134153019Y-93037161D01*
X130000642Y-67621185D02*
X130357785Y-67811661D01*
X130476833Y-68002138D01*
X130595880Y-68383090D01*
X130595880Y-68954519D01*
X130476833Y-69335471D01*
X130357785Y-69525947D01*
X130119690Y-69716423D01*
X129167309Y-69716423D01*
X129167309Y-65716423D01*
X130000642Y-65716423D01*
X130238738Y-65906900D01*
X130357785Y-66097376D01*
X130476833Y-66478328D01*
X130476833Y-66859280D01*
X130357785Y-67240233D01*
X130238738Y-67430709D01*
X130000642Y-67621185D01*
X129167309Y-67621185D01*
X131667309Y-69716423D02*
X131667309Y-65716423D01*
X132619690Y-65716423D01*
X132857785Y-65906900D01*
X132976833Y-66097376D01*
X133095880Y-66478328D01*
X133095880Y-67049757D01*
X132976833Y-67430709D01*
X132857785Y-67621185D01*
X132619690Y-67811661D01*
X131667309Y-67811661D01*
X135000642Y-67621185D02*
X134167309Y-67621185D01*
X134167309Y-69716423D02*
X134167309Y-65716423D01*
X135357785Y-65716423D01*
X131184780Y-51552361D02*
X131184780Y-49552361D01*
X132137161Y-51552361D02*
X132137161Y-49552361D01*
X133280019Y-51552361D01*
X133280019Y-49552361D01*
M02*
