G04 #@! TF.GenerationSoftware,KiCad,Pcbnew,5.1.7-a382d34a8~87~ubuntu18.04.1*
G04 #@! TF.CreationDate,2021-01-14T14:00:11+00:00*
G04 #@! TF.ProjectId,2hp-bpf-panel,3268702d-6270-4662-9d70-616e656c2e6b,rev?*
G04 #@! TF.SameCoordinates,Original*
G04 #@! TF.FileFunction,Soldermask,Top*
G04 #@! TF.FilePolarity,Negative*
%FSLAX46Y46*%
G04 Gerber Fmt 4.6, Leading zero omitted, Abs format (unit mm)*
G04 Created by KiCad (PCBNEW 5.1.7-a382d34a8~87~ubuntu18.04.1) date 2021-01-14 14:00:11*
%MOMM*%
%LPD*%
G01*
G04 APERTURE LIST*
%ADD10C,0.500000*%
G04 APERTURE END LIST*
D10*
X130007142Y-67614285D02*
X130364285Y-67804761D01*
X130483333Y-67995238D01*
X130602380Y-68376190D01*
X130602380Y-68947619D01*
X130483333Y-69328571D01*
X130364285Y-69519047D01*
X130126190Y-69709523D01*
X129173809Y-69709523D01*
X129173809Y-65709523D01*
X130007142Y-65709523D01*
X130245238Y-65900000D01*
X130364285Y-66090476D01*
X130483333Y-66471428D01*
X130483333Y-66852380D01*
X130364285Y-67233333D01*
X130245238Y-67423809D01*
X130007142Y-67614285D01*
X129173809Y-67614285D01*
X131673809Y-69709523D02*
X131673809Y-65709523D01*
X132626190Y-65709523D01*
X132864285Y-65900000D01*
X132983333Y-66090476D01*
X133102380Y-66471428D01*
X133102380Y-67042857D01*
X132983333Y-67423809D01*
X132864285Y-67614285D01*
X132626190Y-67804761D01*
X131673809Y-67804761D01*
X135007142Y-67614285D02*
X134173809Y-67614285D01*
X134173809Y-69709523D02*
X134173809Y-65709523D01*
X135364285Y-65709523D01*
X130200000Y-140704761D02*
X130580952Y-140704761D01*
X130771428Y-140800000D01*
X130961904Y-140990476D01*
X131057142Y-141371428D01*
X131057142Y-142038095D01*
X130961904Y-142419047D01*
X130771428Y-142609523D01*
X130580952Y-142704761D01*
X130200000Y-142704761D01*
X130009523Y-142609523D01*
X129819047Y-142419047D01*
X129723809Y-142038095D01*
X129723809Y-141371428D01*
X129819047Y-140990476D01*
X130009523Y-140800000D01*
X130200000Y-140704761D01*
X131914285Y-140704761D02*
X131914285Y-142323809D01*
X132009523Y-142514285D01*
X132104761Y-142609523D01*
X132295238Y-142704761D01*
X132676190Y-142704761D01*
X132866666Y-142609523D01*
X132961904Y-142514285D01*
X133057142Y-142323809D01*
X133057142Y-140704761D01*
X133723809Y-140704761D02*
X134866666Y-140704761D01*
X134295238Y-142704761D02*
X134295238Y-140704761D01*
X130911904Y-125704761D02*
X130245238Y-124752380D01*
X129769047Y-125704761D02*
X129769047Y-123704761D01*
X130530952Y-123704761D01*
X130721428Y-123800000D01*
X130816666Y-123895238D01*
X130911904Y-124085714D01*
X130911904Y-124371428D01*
X130816666Y-124561904D01*
X130721428Y-124657142D01*
X130530952Y-124752380D01*
X129769047Y-124752380D01*
X131769047Y-124657142D02*
X132435714Y-124657142D01*
X132721428Y-125704761D02*
X131769047Y-125704761D01*
X131769047Y-123704761D01*
X132721428Y-123704761D01*
X133483333Y-125609523D02*
X133769047Y-125704761D01*
X134245238Y-125704761D01*
X134435714Y-125609523D01*
X134530952Y-125514285D01*
X134626190Y-125323809D01*
X134626190Y-125133333D01*
X134530952Y-124942857D01*
X134435714Y-124847619D01*
X134245238Y-124752380D01*
X133864285Y-124657142D01*
X133673809Y-124561904D01*
X133578571Y-124466666D01*
X133483333Y-124276190D01*
X133483333Y-124085714D01*
X133578571Y-123895238D01*
X133673809Y-123800000D01*
X133864285Y-123704761D01*
X134340476Y-123704761D01*
X134626190Y-123800000D01*
X130909523Y-94864285D02*
X130814285Y-94959523D01*
X130528571Y-95054761D01*
X130338095Y-95054761D01*
X130052380Y-94959523D01*
X129861904Y-94769047D01*
X129766666Y-94578571D01*
X129671428Y-94197619D01*
X129671428Y-93911904D01*
X129766666Y-93530952D01*
X129861904Y-93340476D01*
X130052380Y-93150000D01*
X130338095Y-93054761D01*
X130528571Y-93054761D01*
X130814285Y-93150000D01*
X130909523Y-93245238D01*
X131766666Y-93054761D02*
X131766666Y-94673809D01*
X131861904Y-94864285D01*
X131957142Y-94959523D01*
X132147619Y-95054761D01*
X132528571Y-95054761D01*
X132719047Y-94959523D01*
X132814285Y-94864285D01*
X132909523Y-94673809D01*
X132909523Y-93054761D01*
X133576190Y-93054761D02*
X134719047Y-93054761D01*
X134147619Y-95054761D02*
X134147619Y-93054761D01*
X131202380Y-51554761D02*
X131202380Y-49554761D01*
X132154761Y-51554761D02*
X132154761Y-49554761D01*
X133297619Y-51554761D01*
X133297619Y-49554761D01*
X130007142Y-67614285D02*
X130364285Y-67804761D01*
X130483333Y-67995238D01*
X130602380Y-68376190D01*
X130602380Y-68947619D01*
X130483333Y-69328571D01*
X130364285Y-69519047D01*
X130126190Y-69709523D01*
X129173809Y-69709523D01*
X129173809Y-65709523D01*
X130007142Y-65709523D01*
X130245238Y-65900000D01*
X130364285Y-66090476D01*
X130483333Y-66471428D01*
X130483333Y-66852380D01*
X130364285Y-67233333D01*
X130245238Y-67423809D01*
X130007142Y-67614285D01*
X129173809Y-67614285D01*
X131673809Y-69709523D02*
X131673809Y-65709523D01*
X132626190Y-65709523D01*
X132864285Y-65900000D01*
X132983333Y-66090476D01*
X133102380Y-66471428D01*
X133102380Y-67042857D01*
X132983333Y-67423809D01*
X132864285Y-67614285D01*
X132626190Y-67804761D01*
X131673809Y-67804761D01*
X135007142Y-67614285D02*
X134173809Y-67614285D01*
X134173809Y-69709523D02*
X134173809Y-65709523D01*
X135364285Y-65709523D01*
X130200000Y-140704761D02*
X130580952Y-140704761D01*
X130771428Y-140800000D01*
X130961904Y-140990476D01*
X131057142Y-141371428D01*
X131057142Y-142038095D01*
X130961904Y-142419047D01*
X130771428Y-142609523D01*
X130580952Y-142704761D01*
X130200000Y-142704761D01*
X130009523Y-142609523D01*
X129819047Y-142419047D01*
X129723809Y-142038095D01*
X129723809Y-141371428D01*
X129819047Y-140990476D01*
X130009523Y-140800000D01*
X130200000Y-140704761D01*
X131914285Y-140704761D02*
X131914285Y-142323809D01*
X132009523Y-142514285D01*
X132104761Y-142609523D01*
X132295238Y-142704761D01*
X132676190Y-142704761D01*
X132866666Y-142609523D01*
X132961904Y-142514285D01*
X133057142Y-142323809D01*
X133057142Y-140704761D01*
X133723809Y-140704761D02*
X134866666Y-140704761D01*
X134295238Y-142704761D02*
X134295238Y-140704761D01*
X130911904Y-125704761D02*
X130245238Y-124752380D01*
X129769047Y-125704761D02*
X129769047Y-123704761D01*
X130530952Y-123704761D01*
X130721428Y-123800000D01*
X130816666Y-123895238D01*
X130911904Y-124085714D01*
X130911904Y-124371428D01*
X130816666Y-124561904D01*
X130721428Y-124657142D01*
X130530952Y-124752380D01*
X129769047Y-124752380D01*
X131769047Y-124657142D02*
X132435714Y-124657142D01*
X132721428Y-125704761D02*
X131769047Y-125704761D01*
X131769047Y-123704761D01*
X132721428Y-123704761D01*
X133483333Y-125609523D02*
X133769047Y-125704761D01*
X134245238Y-125704761D01*
X134435714Y-125609523D01*
X134530952Y-125514285D01*
X134626190Y-125323809D01*
X134626190Y-125133333D01*
X134530952Y-124942857D01*
X134435714Y-124847619D01*
X134245238Y-124752380D01*
X133864285Y-124657142D01*
X133673809Y-124561904D01*
X133578571Y-124466666D01*
X133483333Y-124276190D01*
X133483333Y-124085714D01*
X133578571Y-123895238D01*
X133673809Y-123800000D01*
X133864285Y-123704761D01*
X134340476Y-123704761D01*
X134626190Y-123800000D01*
X130909523Y-94864285D02*
X130814285Y-94959523D01*
X130528571Y-95054761D01*
X130338095Y-95054761D01*
X130052380Y-94959523D01*
X129861904Y-94769047D01*
X129766666Y-94578571D01*
X129671428Y-94197619D01*
X129671428Y-93911904D01*
X129766666Y-93530952D01*
X129861904Y-93340476D01*
X130052380Y-93150000D01*
X130338095Y-93054761D01*
X130528571Y-93054761D01*
X130814285Y-93150000D01*
X130909523Y-93245238D01*
X131766666Y-93054761D02*
X131766666Y-94673809D01*
X131861904Y-94864285D01*
X131957142Y-94959523D01*
X132147619Y-95054761D01*
X132528571Y-95054761D01*
X132719047Y-94959523D01*
X132814285Y-94864285D01*
X132909523Y-94673809D01*
X132909523Y-93054761D01*
X133576190Y-93054761D02*
X134719047Y-93054761D01*
X134147619Y-95054761D02*
X134147619Y-93054761D01*
X131202380Y-51554761D02*
X131202380Y-49554761D01*
X132154761Y-51554761D02*
X132154761Y-49554761D01*
X133297619Y-51554761D01*
X133297619Y-49554761D01*
M02*
