G04 #@! TF.GenerationSoftware,KiCad,Pcbnew,5.1.7-a382d34a8~87~ubuntu18.04.1*
G04 #@! TF.CreationDate,2021-01-14T14:23:33+00:00*
G04 #@! TF.ProjectId,dv3-panel,6476332d-7061-46e6-956c-2e6b69636164,rev?*
G04 #@! TF.SameCoordinates,Original*
G04 #@! TF.FileFunction,Soldermask,Top*
G04 #@! TF.FilePolarity,Negative*
%FSLAX46Y46*%
G04 Gerber Fmt 4.6, Leading zero omitted, Abs format (unit mm)*
G04 Created by KiCad (PCBNEW 5.1.7-a382d34a8~87~ubuntu18.04.1) date 2021-01-14 14:23:33*
%MOMM*%
%LPD*%
G01*
G04 APERTURE LIST*
%ADD10C,0.300000*%
%ADD11C,0.250000*%
%ADD12C,0.500000*%
G04 APERTURE END LIST*
D10*
X146615400Y-155952961D02*
X146996352Y-155952961D01*
X147186828Y-156048200D01*
X147377304Y-156238676D01*
X147472542Y-156619628D01*
X147472542Y-157286295D01*
X147377304Y-157667247D01*
X147186828Y-157857723D01*
X146996352Y-157952961D01*
X146615400Y-157952961D01*
X146424923Y-157857723D01*
X146234447Y-157667247D01*
X146139209Y-157286295D01*
X146139209Y-156619628D01*
X146234447Y-156238676D01*
X146424923Y-156048200D01*
X146615400Y-155952961D01*
X148329685Y-155952961D02*
X148329685Y-157572009D01*
X148424923Y-157762485D01*
X148520161Y-157857723D01*
X148710638Y-157952961D01*
X149091590Y-157952961D01*
X149282066Y-157857723D01*
X149377304Y-157762485D01*
X149472542Y-157572009D01*
X149472542Y-155952961D01*
X150139209Y-155952961D02*
X151282066Y-155952961D01*
X150710638Y-157952961D02*
X150710638Y-155952961D01*
X138372980Y-158054561D02*
X138372980Y-156054561D01*
X139325361Y-158054561D02*
X139325361Y-156054561D01*
X140468219Y-158054561D01*
X140468219Y-156054561D01*
X146869400Y-109928161D02*
X147250352Y-109928161D01*
X147440828Y-110023400D01*
X147631304Y-110213876D01*
X147726542Y-110594828D01*
X147726542Y-111261495D01*
X147631304Y-111642447D01*
X147440828Y-111832923D01*
X147250352Y-111928161D01*
X146869400Y-111928161D01*
X146678923Y-111832923D01*
X146488447Y-111642447D01*
X146393209Y-111261495D01*
X146393209Y-110594828D01*
X146488447Y-110213876D01*
X146678923Y-110023400D01*
X146869400Y-109928161D01*
X148583685Y-109928161D02*
X148583685Y-111547209D01*
X148678923Y-111737685D01*
X148774161Y-111832923D01*
X148964638Y-111928161D01*
X149345590Y-111928161D01*
X149536066Y-111832923D01*
X149631304Y-111737685D01*
X149726542Y-111547209D01*
X149726542Y-109928161D01*
X150393209Y-109928161D02*
X151536066Y-109928161D01*
X150964638Y-111928161D02*
X150964638Y-109928161D01*
X138296780Y-112004361D02*
X138296780Y-110004361D01*
X139249161Y-112004361D02*
X139249161Y-110004361D01*
X140392019Y-112004361D01*
X140392019Y-110004361D01*
D11*
X147416666Y-46454761D02*
X147416666Y-44454761D01*
X147892857Y-44454761D01*
X148178571Y-44550000D01*
X148369047Y-44740476D01*
X148464285Y-44930952D01*
X148559523Y-45311904D01*
X148559523Y-45597619D01*
X148464285Y-45978571D01*
X148369047Y-46169047D01*
X148178571Y-46359523D01*
X147892857Y-46454761D01*
X147416666Y-46454761D01*
X149130952Y-44454761D02*
X149797619Y-46454761D01*
X150464285Y-44454761D01*
X150940476Y-44454761D02*
X152178571Y-44454761D01*
X151511904Y-45216666D01*
X151797619Y-45216666D01*
X151988095Y-45311904D01*
X152083333Y-45407142D01*
X152178571Y-45597619D01*
X152178571Y-46073809D01*
X152083333Y-46264285D01*
X151988095Y-46359523D01*
X151797619Y-46454761D01*
X151226190Y-46454761D01*
X151035714Y-46359523D01*
X150940476Y-46264285D01*
D12*
X152909471Y-136383542D02*
X151909471Y-134954971D01*
X151195185Y-136383542D02*
X151195185Y-133383542D01*
X152338042Y-133383542D01*
X152623757Y-133526400D01*
X152766614Y-133669257D01*
X152909471Y-133954971D01*
X152909471Y-134383542D01*
X152766614Y-134669257D01*
X152623757Y-134812114D01*
X152338042Y-134954971D01*
X151195185Y-134954971D01*
X152858671Y-90841342D02*
X151858671Y-89412771D01*
X151144385Y-90841342D02*
X151144385Y-87841342D01*
X152287242Y-87841342D01*
X152572957Y-87984200D01*
X152715814Y-88127057D01*
X152858671Y-88412771D01*
X152858671Y-88841342D01*
X152715814Y-89127057D01*
X152572957Y-89269914D01*
X152287242Y-89412771D01*
X151144385Y-89412771D01*
X151430099Y-76039600D02*
X152858670Y-76039600D01*
X151144385Y-76896742D02*
X152144385Y-73896742D01*
X153144385Y-76896742D01*
X151393614Y-121581800D02*
X152822185Y-121581800D01*
X151107900Y-122438942D02*
X152107900Y-119438942D01*
X153107900Y-122438942D01*
D10*
X146615400Y-155952961D02*
X146996352Y-155952961D01*
X147186828Y-156048200D01*
X147377304Y-156238676D01*
X147472542Y-156619628D01*
X147472542Y-157286295D01*
X147377304Y-157667247D01*
X147186828Y-157857723D01*
X146996352Y-157952961D01*
X146615400Y-157952961D01*
X146424923Y-157857723D01*
X146234447Y-157667247D01*
X146139209Y-157286295D01*
X146139209Y-156619628D01*
X146234447Y-156238676D01*
X146424923Y-156048200D01*
X146615400Y-155952961D01*
X148329685Y-155952961D02*
X148329685Y-157572009D01*
X148424923Y-157762485D01*
X148520161Y-157857723D01*
X148710638Y-157952961D01*
X149091590Y-157952961D01*
X149282066Y-157857723D01*
X149377304Y-157762485D01*
X149472542Y-157572009D01*
X149472542Y-155952961D01*
X150139209Y-155952961D02*
X151282066Y-155952961D01*
X150710638Y-157952961D02*
X150710638Y-155952961D01*
X138372980Y-158054561D02*
X138372980Y-156054561D01*
X139325361Y-158054561D02*
X139325361Y-156054561D01*
X140468219Y-158054561D01*
X140468219Y-156054561D01*
X146869400Y-109928161D02*
X147250352Y-109928161D01*
X147440828Y-110023400D01*
X147631304Y-110213876D01*
X147726542Y-110594828D01*
X147726542Y-111261495D01*
X147631304Y-111642447D01*
X147440828Y-111832923D01*
X147250352Y-111928161D01*
X146869400Y-111928161D01*
X146678923Y-111832923D01*
X146488447Y-111642447D01*
X146393209Y-111261495D01*
X146393209Y-110594828D01*
X146488447Y-110213876D01*
X146678923Y-110023400D01*
X146869400Y-109928161D01*
X148583685Y-109928161D02*
X148583685Y-111547209D01*
X148678923Y-111737685D01*
X148774161Y-111832923D01*
X148964638Y-111928161D01*
X149345590Y-111928161D01*
X149536066Y-111832923D01*
X149631304Y-111737685D01*
X149726542Y-111547209D01*
X149726542Y-109928161D01*
X150393209Y-109928161D02*
X151536066Y-109928161D01*
X150964638Y-111928161D02*
X150964638Y-109928161D01*
X138296780Y-112004361D02*
X138296780Y-110004361D01*
X139249161Y-112004361D02*
X139249161Y-110004361D01*
X140392019Y-112004361D01*
X140392019Y-110004361D01*
D11*
X147416666Y-46454761D02*
X147416666Y-44454761D01*
X147892857Y-44454761D01*
X148178571Y-44550000D01*
X148369047Y-44740476D01*
X148464285Y-44930952D01*
X148559523Y-45311904D01*
X148559523Y-45597619D01*
X148464285Y-45978571D01*
X148369047Y-46169047D01*
X148178571Y-46359523D01*
X147892857Y-46454761D01*
X147416666Y-46454761D01*
X149130952Y-44454761D02*
X149797619Y-46454761D01*
X150464285Y-44454761D01*
X150940476Y-44454761D02*
X152178571Y-44454761D01*
X151511904Y-45216666D01*
X151797619Y-45216666D01*
X151988095Y-45311904D01*
X152083333Y-45407142D01*
X152178571Y-45597619D01*
X152178571Y-46073809D01*
X152083333Y-46264285D01*
X151988095Y-46359523D01*
X151797619Y-46454761D01*
X151226190Y-46454761D01*
X151035714Y-46359523D01*
X150940476Y-46264285D01*
D12*
X152909471Y-136383542D02*
X151909471Y-134954971D01*
X151195185Y-136383542D02*
X151195185Y-133383542D01*
X152338042Y-133383542D01*
X152623757Y-133526400D01*
X152766614Y-133669257D01*
X152909471Y-133954971D01*
X152909471Y-134383542D01*
X152766614Y-134669257D01*
X152623757Y-134812114D01*
X152338042Y-134954971D01*
X151195185Y-134954971D01*
X152858671Y-90841342D02*
X151858671Y-89412771D01*
X151144385Y-90841342D02*
X151144385Y-87841342D01*
X152287242Y-87841342D01*
X152572957Y-87984200D01*
X152715814Y-88127057D01*
X152858671Y-88412771D01*
X152858671Y-88841342D01*
X152715814Y-89127057D01*
X152572957Y-89269914D01*
X152287242Y-89412771D01*
X151144385Y-89412771D01*
X151430099Y-76039600D02*
X152858670Y-76039600D01*
X151144385Y-76896742D02*
X152144385Y-73896742D01*
X153144385Y-76896742D01*
X151393614Y-121581800D02*
X152822185Y-121581800D01*
X151107900Y-122438942D02*
X152107900Y-119438942D01*
X153107900Y-122438942D01*
M02*
