G04 #@! TF.GenerationSoftware,KiCad,Pcbnew,5.1.7-a382d34a8~87~ubuntu18.04.1*
G04 #@! TF.CreationDate,2021-01-14T14:23:33+00:00*
G04 #@! TF.ProjectId,dv3-panel,6476332d-7061-46e6-956c-2e6b69636164,rev?*
G04 #@! TF.SameCoordinates,Original*
G04 #@! TF.FileFunction,Copper,L2,Bot*
G04 #@! TF.FilePolarity,Positive*
%FSLAX46Y46*%
G04 Gerber Fmt 4.6, Leading zero omitted, Abs format (unit mm)*
G04 Created by KiCad (PCBNEW 5.1.7-a382d34a8~87~ubuntu18.04.1) date 2021-01-14 14:23:33*
%MOMM*%
%LPD*%
G01*
G04 APERTURE LIST*
G04 #@! TA.AperFunction,NonConductor*
%ADD10C,0.254000*%
G04 #@! TD*
G04 #@! TA.AperFunction,NonConductor*
%ADD11C,0.100000*%
G04 #@! TD*
G04 APERTURE END LIST*
D10*
X140985978Y-43478340D02*
X140577570Y-43647508D01*
X140210013Y-43893101D01*
X139897431Y-44205683D01*
X139651838Y-44573240D01*
X139482670Y-44981648D01*
X139396428Y-45415211D01*
X139396428Y-45857269D01*
X139482670Y-46290832D01*
X139651838Y-46699240D01*
X139897431Y-47066797D01*
X140210013Y-47379379D01*
X140577570Y-47624972D01*
X140985978Y-47794140D01*
X141419541Y-47880382D01*
X141861599Y-47880382D01*
X142295162Y-47794140D01*
X142703570Y-47624972D01*
X143071127Y-47379379D01*
X143383709Y-47066797D01*
X143629302Y-46699240D01*
X143798470Y-46290832D01*
X143884712Y-45857269D01*
X143884712Y-45415211D01*
X143798470Y-44981648D01*
X143629302Y-44573240D01*
X143383709Y-44205683D01*
X143071127Y-43893101D01*
X142703570Y-43647508D01*
X142295162Y-43478340D01*
X142259468Y-43471240D01*
X153385570Y-43471240D01*
X153385571Y-170256379D01*
X142350225Y-170271332D01*
X142703570Y-170124972D01*
X143071127Y-169879379D01*
X143383709Y-169566797D01*
X143629302Y-169199240D01*
X143798470Y-168790832D01*
X143884712Y-168357269D01*
X143884712Y-167915211D01*
X143798470Y-167481648D01*
X143629302Y-167073240D01*
X143383709Y-166705683D01*
X143071127Y-166393101D01*
X142703570Y-166147508D01*
X142295162Y-165978340D01*
X141861599Y-165892098D01*
X141419541Y-165892098D01*
X140985978Y-165978340D01*
X140577570Y-166147508D01*
X140210013Y-166393101D01*
X139897431Y-166705683D01*
X139651838Y-167073240D01*
X139482670Y-167481648D01*
X139396428Y-167915211D01*
X139396428Y-168357269D01*
X139482670Y-168790832D01*
X139651838Y-169199240D01*
X139897431Y-169566797D01*
X140210013Y-169879379D01*
X140577570Y-170124972D01*
X140935542Y-170273249D01*
X134899400Y-170281428D01*
X134899400Y-148808186D01*
X135633651Y-148808186D01*
X135633651Y-149544294D01*
X135777259Y-150266259D01*
X136058956Y-150946335D01*
X136467916Y-151558387D01*
X136988423Y-152078894D01*
X137600475Y-152487854D01*
X138280551Y-152769551D01*
X139002516Y-152913159D01*
X139738624Y-152913159D01*
X140460589Y-152769551D01*
X141140665Y-152487854D01*
X141752717Y-152078894D01*
X142273224Y-151558387D01*
X142682184Y-150946335D01*
X142963881Y-150266259D01*
X143107489Y-149544294D01*
X143107489Y-148808186D01*
X145153651Y-148808186D01*
X145153651Y-149544294D01*
X145297259Y-150266259D01*
X145578956Y-150946335D01*
X145987916Y-151558387D01*
X146508423Y-152078894D01*
X147120475Y-152487854D01*
X147800551Y-152769551D01*
X148522516Y-152913159D01*
X149258624Y-152913159D01*
X149980589Y-152769551D01*
X150660665Y-152487854D01*
X151272717Y-152078894D01*
X151793224Y-151558387D01*
X152202184Y-150946335D01*
X152483881Y-150266259D01*
X152627489Y-149544294D01*
X152627489Y-148808186D01*
X152483881Y-148086221D01*
X152202184Y-147406145D01*
X151793224Y-146794093D01*
X151272717Y-146273586D01*
X150660665Y-145864626D01*
X149980589Y-145582929D01*
X149258624Y-145439321D01*
X148522516Y-145439321D01*
X147800551Y-145582929D01*
X147120475Y-145864626D01*
X146508423Y-146273586D01*
X145987916Y-146794093D01*
X145578956Y-147406145D01*
X145297259Y-148086221D01*
X145153651Y-148808186D01*
X143107489Y-148808186D01*
X142963881Y-148086221D01*
X142682184Y-147406145D01*
X142273224Y-146794093D01*
X141752717Y-146273586D01*
X141140665Y-145864626D01*
X140460589Y-145582929D01*
X139738624Y-145439321D01*
X139002516Y-145439321D01*
X138280551Y-145582929D01*
X137600475Y-145864626D01*
X136988423Y-146273586D01*
X136467916Y-146794093D01*
X136058956Y-147406145D01*
X135777259Y-148086221D01*
X135633651Y-148808186D01*
X134899400Y-148808186D01*
X134899400Y-134764673D01*
X139967263Y-134764673D01*
X139967263Y-135647807D01*
X140139554Y-136513972D01*
X140477515Y-137329882D01*
X140968158Y-138064182D01*
X141592628Y-138688652D01*
X142326928Y-139179295D01*
X143142838Y-139517256D01*
X144009003Y-139689547D01*
X144892137Y-139689547D01*
X145758302Y-139517256D01*
X146574212Y-139179295D01*
X147308512Y-138688652D01*
X147932982Y-138064182D01*
X148423625Y-137329882D01*
X148761586Y-136513972D01*
X148933877Y-135647807D01*
X148933877Y-134764673D01*
X148761586Y-133898508D01*
X148423625Y-133082598D01*
X147932982Y-132348298D01*
X147308512Y-131723828D01*
X146574212Y-131233185D01*
X145758302Y-130895224D01*
X144892137Y-130722933D01*
X144009003Y-130722933D01*
X143142838Y-130895224D01*
X142326928Y-131233185D01*
X141592628Y-131723828D01*
X140968158Y-132348298D01*
X140477515Y-133082598D01*
X140139554Y-133898508D01*
X139967263Y-134764673D01*
X134899400Y-134764673D01*
X134899400Y-127970707D01*
X134967632Y-127970707D01*
X134967632Y-128461773D01*
X135063434Y-128943403D01*
X135251357Y-129397089D01*
X135524179Y-129805395D01*
X135871415Y-130152631D01*
X136279721Y-130425453D01*
X136733407Y-130613376D01*
X137215037Y-130709178D01*
X137706103Y-130709178D01*
X138187733Y-130613376D01*
X138641419Y-130425453D01*
X139049725Y-130152631D01*
X139396961Y-129805395D01*
X139669783Y-129397089D01*
X139857706Y-128943403D01*
X139953508Y-128461773D01*
X139953508Y-127970707D01*
X139857706Y-127489077D01*
X139669783Y-127035391D01*
X139396961Y-126627085D01*
X139049725Y-126279849D01*
X138641419Y-126007027D01*
X138187733Y-125819104D01*
X137706103Y-125723302D01*
X137215037Y-125723302D01*
X136733407Y-125819104D01*
X136279721Y-126007027D01*
X135871415Y-126279849D01*
X135524179Y-126627085D01*
X135251357Y-127035391D01*
X135063434Y-127489077D01*
X134967632Y-127970707D01*
X134899400Y-127970707D01*
X134899400Y-120784673D01*
X139967263Y-120784673D01*
X139967263Y-121667807D01*
X140139554Y-122533972D01*
X140477515Y-123349882D01*
X140968158Y-124084182D01*
X141592628Y-124708652D01*
X142326928Y-125199295D01*
X143142838Y-125537256D01*
X144009003Y-125709547D01*
X144892137Y-125709547D01*
X145758302Y-125537256D01*
X146574212Y-125199295D01*
X147308512Y-124708652D01*
X147932982Y-124084182D01*
X148423625Y-123349882D01*
X148761586Y-122533972D01*
X148933877Y-121667807D01*
X148933877Y-120784673D01*
X148761586Y-119918508D01*
X148423625Y-119102598D01*
X147932982Y-118368298D01*
X147308512Y-117743828D01*
X146574212Y-117253185D01*
X145758302Y-116915224D01*
X144892137Y-116742933D01*
X144009003Y-116742933D01*
X143142838Y-116915224D01*
X142326928Y-117253185D01*
X141592628Y-117743828D01*
X140968158Y-118368298D01*
X140477515Y-119102598D01*
X140139554Y-119918508D01*
X139967263Y-120784673D01*
X134899400Y-120784673D01*
X134899400Y-102978186D01*
X135633651Y-102978186D01*
X135633651Y-103714294D01*
X135777259Y-104436259D01*
X136058956Y-105116335D01*
X136467916Y-105728387D01*
X136988423Y-106248894D01*
X137600475Y-106657854D01*
X138280551Y-106939551D01*
X139002516Y-107083159D01*
X139738624Y-107083159D01*
X140460589Y-106939551D01*
X141140665Y-106657854D01*
X141752717Y-106248894D01*
X142273224Y-105728387D01*
X142682184Y-105116335D01*
X142963881Y-104436259D01*
X143107489Y-103714294D01*
X143107489Y-103078186D01*
X145163652Y-103078186D01*
X145163652Y-103814294D01*
X145307260Y-104536259D01*
X145588957Y-105216334D01*
X145997917Y-105828386D01*
X146518424Y-106348893D01*
X147130476Y-106757853D01*
X147810551Y-107039550D01*
X148532516Y-107183158D01*
X149268624Y-107183158D01*
X149990589Y-107039550D01*
X150670664Y-106757853D01*
X151282716Y-106348893D01*
X151803223Y-105828386D01*
X152212183Y-105216334D01*
X152493880Y-104536259D01*
X152637488Y-103814294D01*
X152637488Y-103078186D01*
X152493880Y-102356221D01*
X152212183Y-101676146D01*
X151803223Y-101064094D01*
X151282716Y-100543587D01*
X150670664Y-100134627D01*
X149990589Y-99852930D01*
X149268624Y-99709322D01*
X148532516Y-99709322D01*
X147810551Y-99852930D01*
X147130476Y-100134627D01*
X146518424Y-100543587D01*
X145997917Y-101064094D01*
X145588957Y-101676146D01*
X145307260Y-102356221D01*
X145163652Y-103078186D01*
X143107489Y-103078186D01*
X143107489Y-102978186D01*
X142963881Y-102256221D01*
X142682184Y-101576145D01*
X142273224Y-100964093D01*
X141752717Y-100443586D01*
X141140665Y-100034626D01*
X140460589Y-99752929D01*
X139738624Y-99609321D01*
X139002516Y-99609321D01*
X138280551Y-99752929D01*
X137600475Y-100034626D01*
X136988423Y-100443586D01*
X136467916Y-100964093D01*
X136058956Y-101576145D01*
X135777259Y-102256221D01*
X135633651Y-102978186D01*
X134899400Y-102978186D01*
X134899400Y-89034673D01*
X139967263Y-89034673D01*
X139967263Y-89917807D01*
X140139554Y-90783972D01*
X140477515Y-91599882D01*
X140968158Y-92334182D01*
X141592628Y-92958652D01*
X142326928Y-93449295D01*
X143142838Y-93787256D01*
X144009003Y-93959547D01*
X144892137Y-93959547D01*
X145758302Y-93787256D01*
X146574212Y-93449295D01*
X147308512Y-92958652D01*
X147932982Y-92334182D01*
X148423625Y-91599882D01*
X148761586Y-90783972D01*
X148933877Y-89917807D01*
X148933877Y-89034673D01*
X148761586Y-88168508D01*
X148423625Y-87352598D01*
X147932982Y-86618298D01*
X147308512Y-85993828D01*
X146574212Y-85503185D01*
X145758302Y-85165224D01*
X144892137Y-84992933D01*
X144009003Y-84992933D01*
X143142838Y-85165224D01*
X142326928Y-85503185D01*
X141592628Y-85993828D01*
X140968158Y-86618298D01*
X140477515Y-87352598D01*
X140139554Y-88168508D01*
X139967263Y-89034673D01*
X134899400Y-89034673D01*
X134899400Y-82250707D01*
X134967632Y-82250707D01*
X134967632Y-82741773D01*
X135063434Y-83223403D01*
X135251357Y-83677089D01*
X135524179Y-84085395D01*
X135871415Y-84432631D01*
X136279721Y-84705453D01*
X136733407Y-84893376D01*
X137215037Y-84989178D01*
X137706103Y-84989178D01*
X138187733Y-84893376D01*
X138641419Y-84705453D01*
X139049725Y-84432631D01*
X139396961Y-84085395D01*
X139669783Y-83677089D01*
X139857706Y-83223403D01*
X139953508Y-82741773D01*
X139953508Y-82250707D01*
X139857706Y-81769077D01*
X139669783Y-81315391D01*
X139396961Y-80907085D01*
X139049725Y-80559849D01*
X138641419Y-80287027D01*
X138187733Y-80099104D01*
X137706103Y-80003302D01*
X137215037Y-80003302D01*
X136733407Y-80099104D01*
X136279721Y-80287027D01*
X135871415Y-80559849D01*
X135524179Y-80907085D01*
X135251357Y-81315391D01*
X135063434Y-81769077D01*
X134967632Y-82250707D01*
X134899400Y-82250707D01*
X134899400Y-75059673D01*
X139967263Y-75059673D01*
X139967263Y-75942807D01*
X140139554Y-76808972D01*
X140477515Y-77624882D01*
X140968158Y-78359182D01*
X141592628Y-78983652D01*
X142326928Y-79474295D01*
X143142838Y-79812256D01*
X144009003Y-79984547D01*
X144892137Y-79984547D01*
X145758302Y-79812256D01*
X146574212Y-79474295D01*
X147308512Y-78983652D01*
X147932982Y-78359182D01*
X148423625Y-77624882D01*
X148761586Y-76808972D01*
X148933877Y-75942807D01*
X148933877Y-75059673D01*
X148761586Y-74193508D01*
X148423625Y-73377598D01*
X147932982Y-72643298D01*
X147308512Y-72018828D01*
X146574212Y-71528185D01*
X145758302Y-71190224D01*
X144892137Y-71017933D01*
X144009003Y-71017933D01*
X143142838Y-71190224D01*
X142326928Y-71528185D01*
X141592628Y-72018828D01*
X140968158Y-72643298D01*
X140477515Y-73377598D01*
X140139554Y-74193508D01*
X139967263Y-75059673D01*
X134899400Y-75059673D01*
X134899400Y-43471240D01*
X141021672Y-43471240D01*
X140985978Y-43478340D01*
G04 #@! TA.AperFunction,NonConductor*
D11*
G36*
X140985978Y-43478340D02*
G01*
X140577570Y-43647508D01*
X140210013Y-43893101D01*
X139897431Y-44205683D01*
X139651838Y-44573240D01*
X139482670Y-44981648D01*
X139396428Y-45415211D01*
X139396428Y-45857269D01*
X139482670Y-46290832D01*
X139651838Y-46699240D01*
X139897431Y-47066797D01*
X140210013Y-47379379D01*
X140577570Y-47624972D01*
X140985978Y-47794140D01*
X141419541Y-47880382D01*
X141861599Y-47880382D01*
X142295162Y-47794140D01*
X142703570Y-47624972D01*
X143071127Y-47379379D01*
X143383709Y-47066797D01*
X143629302Y-46699240D01*
X143798470Y-46290832D01*
X143884712Y-45857269D01*
X143884712Y-45415211D01*
X143798470Y-44981648D01*
X143629302Y-44573240D01*
X143383709Y-44205683D01*
X143071127Y-43893101D01*
X142703570Y-43647508D01*
X142295162Y-43478340D01*
X142259468Y-43471240D01*
X153385570Y-43471240D01*
X153385571Y-170256379D01*
X142350225Y-170271332D01*
X142703570Y-170124972D01*
X143071127Y-169879379D01*
X143383709Y-169566797D01*
X143629302Y-169199240D01*
X143798470Y-168790832D01*
X143884712Y-168357269D01*
X143884712Y-167915211D01*
X143798470Y-167481648D01*
X143629302Y-167073240D01*
X143383709Y-166705683D01*
X143071127Y-166393101D01*
X142703570Y-166147508D01*
X142295162Y-165978340D01*
X141861599Y-165892098D01*
X141419541Y-165892098D01*
X140985978Y-165978340D01*
X140577570Y-166147508D01*
X140210013Y-166393101D01*
X139897431Y-166705683D01*
X139651838Y-167073240D01*
X139482670Y-167481648D01*
X139396428Y-167915211D01*
X139396428Y-168357269D01*
X139482670Y-168790832D01*
X139651838Y-169199240D01*
X139897431Y-169566797D01*
X140210013Y-169879379D01*
X140577570Y-170124972D01*
X140935542Y-170273249D01*
X134899400Y-170281428D01*
X134899400Y-148808186D01*
X135633651Y-148808186D01*
X135633651Y-149544294D01*
X135777259Y-150266259D01*
X136058956Y-150946335D01*
X136467916Y-151558387D01*
X136988423Y-152078894D01*
X137600475Y-152487854D01*
X138280551Y-152769551D01*
X139002516Y-152913159D01*
X139738624Y-152913159D01*
X140460589Y-152769551D01*
X141140665Y-152487854D01*
X141752717Y-152078894D01*
X142273224Y-151558387D01*
X142682184Y-150946335D01*
X142963881Y-150266259D01*
X143107489Y-149544294D01*
X143107489Y-148808186D01*
X145153651Y-148808186D01*
X145153651Y-149544294D01*
X145297259Y-150266259D01*
X145578956Y-150946335D01*
X145987916Y-151558387D01*
X146508423Y-152078894D01*
X147120475Y-152487854D01*
X147800551Y-152769551D01*
X148522516Y-152913159D01*
X149258624Y-152913159D01*
X149980589Y-152769551D01*
X150660665Y-152487854D01*
X151272717Y-152078894D01*
X151793224Y-151558387D01*
X152202184Y-150946335D01*
X152483881Y-150266259D01*
X152627489Y-149544294D01*
X152627489Y-148808186D01*
X152483881Y-148086221D01*
X152202184Y-147406145D01*
X151793224Y-146794093D01*
X151272717Y-146273586D01*
X150660665Y-145864626D01*
X149980589Y-145582929D01*
X149258624Y-145439321D01*
X148522516Y-145439321D01*
X147800551Y-145582929D01*
X147120475Y-145864626D01*
X146508423Y-146273586D01*
X145987916Y-146794093D01*
X145578956Y-147406145D01*
X145297259Y-148086221D01*
X145153651Y-148808186D01*
X143107489Y-148808186D01*
X142963881Y-148086221D01*
X142682184Y-147406145D01*
X142273224Y-146794093D01*
X141752717Y-146273586D01*
X141140665Y-145864626D01*
X140460589Y-145582929D01*
X139738624Y-145439321D01*
X139002516Y-145439321D01*
X138280551Y-145582929D01*
X137600475Y-145864626D01*
X136988423Y-146273586D01*
X136467916Y-146794093D01*
X136058956Y-147406145D01*
X135777259Y-148086221D01*
X135633651Y-148808186D01*
X134899400Y-148808186D01*
X134899400Y-134764673D01*
X139967263Y-134764673D01*
X139967263Y-135647807D01*
X140139554Y-136513972D01*
X140477515Y-137329882D01*
X140968158Y-138064182D01*
X141592628Y-138688652D01*
X142326928Y-139179295D01*
X143142838Y-139517256D01*
X144009003Y-139689547D01*
X144892137Y-139689547D01*
X145758302Y-139517256D01*
X146574212Y-139179295D01*
X147308512Y-138688652D01*
X147932982Y-138064182D01*
X148423625Y-137329882D01*
X148761586Y-136513972D01*
X148933877Y-135647807D01*
X148933877Y-134764673D01*
X148761586Y-133898508D01*
X148423625Y-133082598D01*
X147932982Y-132348298D01*
X147308512Y-131723828D01*
X146574212Y-131233185D01*
X145758302Y-130895224D01*
X144892137Y-130722933D01*
X144009003Y-130722933D01*
X143142838Y-130895224D01*
X142326928Y-131233185D01*
X141592628Y-131723828D01*
X140968158Y-132348298D01*
X140477515Y-133082598D01*
X140139554Y-133898508D01*
X139967263Y-134764673D01*
X134899400Y-134764673D01*
X134899400Y-127970707D01*
X134967632Y-127970707D01*
X134967632Y-128461773D01*
X135063434Y-128943403D01*
X135251357Y-129397089D01*
X135524179Y-129805395D01*
X135871415Y-130152631D01*
X136279721Y-130425453D01*
X136733407Y-130613376D01*
X137215037Y-130709178D01*
X137706103Y-130709178D01*
X138187733Y-130613376D01*
X138641419Y-130425453D01*
X139049725Y-130152631D01*
X139396961Y-129805395D01*
X139669783Y-129397089D01*
X139857706Y-128943403D01*
X139953508Y-128461773D01*
X139953508Y-127970707D01*
X139857706Y-127489077D01*
X139669783Y-127035391D01*
X139396961Y-126627085D01*
X139049725Y-126279849D01*
X138641419Y-126007027D01*
X138187733Y-125819104D01*
X137706103Y-125723302D01*
X137215037Y-125723302D01*
X136733407Y-125819104D01*
X136279721Y-126007027D01*
X135871415Y-126279849D01*
X135524179Y-126627085D01*
X135251357Y-127035391D01*
X135063434Y-127489077D01*
X134967632Y-127970707D01*
X134899400Y-127970707D01*
X134899400Y-120784673D01*
X139967263Y-120784673D01*
X139967263Y-121667807D01*
X140139554Y-122533972D01*
X140477515Y-123349882D01*
X140968158Y-124084182D01*
X141592628Y-124708652D01*
X142326928Y-125199295D01*
X143142838Y-125537256D01*
X144009003Y-125709547D01*
X144892137Y-125709547D01*
X145758302Y-125537256D01*
X146574212Y-125199295D01*
X147308512Y-124708652D01*
X147932982Y-124084182D01*
X148423625Y-123349882D01*
X148761586Y-122533972D01*
X148933877Y-121667807D01*
X148933877Y-120784673D01*
X148761586Y-119918508D01*
X148423625Y-119102598D01*
X147932982Y-118368298D01*
X147308512Y-117743828D01*
X146574212Y-117253185D01*
X145758302Y-116915224D01*
X144892137Y-116742933D01*
X144009003Y-116742933D01*
X143142838Y-116915224D01*
X142326928Y-117253185D01*
X141592628Y-117743828D01*
X140968158Y-118368298D01*
X140477515Y-119102598D01*
X140139554Y-119918508D01*
X139967263Y-120784673D01*
X134899400Y-120784673D01*
X134899400Y-102978186D01*
X135633651Y-102978186D01*
X135633651Y-103714294D01*
X135777259Y-104436259D01*
X136058956Y-105116335D01*
X136467916Y-105728387D01*
X136988423Y-106248894D01*
X137600475Y-106657854D01*
X138280551Y-106939551D01*
X139002516Y-107083159D01*
X139738624Y-107083159D01*
X140460589Y-106939551D01*
X141140665Y-106657854D01*
X141752717Y-106248894D01*
X142273224Y-105728387D01*
X142682184Y-105116335D01*
X142963881Y-104436259D01*
X143107489Y-103714294D01*
X143107489Y-103078186D01*
X145163652Y-103078186D01*
X145163652Y-103814294D01*
X145307260Y-104536259D01*
X145588957Y-105216334D01*
X145997917Y-105828386D01*
X146518424Y-106348893D01*
X147130476Y-106757853D01*
X147810551Y-107039550D01*
X148532516Y-107183158D01*
X149268624Y-107183158D01*
X149990589Y-107039550D01*
X150670664Y-106757853D01*
X151282716Y-106348893D01*
X151803223Y-105828386D01*
X152212183Y-105216334D01*
X152493880Y-104536259D01*
X152637488Y-103814294D01*
X152637488Y-103078186D01*
X152493880Y-102356221D01*
X152212183Y-101676146D01*
X151803223Y-101064094D01*
X151282716Y-100543587D01*
X150670664Y-100134627D01*
X149990589Y-99852930D01*
X149268624Y-99709322D01*
X148532516Y-99709322D01*
X147810551Y-99852930D01*
X147130476Y-100134627D01*
X146518424Y-100543587D01*
X145997917Y-101064094D01*
X145588957Y-101676146D01*
X145307260Y-102356221D01*
X145163652Y-103078186D01*
X143107489Y-103078186D01*
X143107489Y-102978186D01*
X142963881Y-102256221D01*
X142682184Y-101576145D01*
X142273224Y-100964093D01*
X141752717Y-100443586D01*
X141140665Y-100034626D01*
X140460589Y-99752929D01*
X139738624Y-99609321D01*
X139002516Y-99609321D01*
X138280551Y-99752929D01*
X137600475Y-100034626D01*
X136988423Y-100443586D01*
X136467916Y-100964093D01*
X136058956Y-101576145D01*
X135777259Y-102256221D01*
X135633651Y-102978186D01*
X134899400Y-102978186D01*
X134899400Y-89034673D01*
X139967263Y-89034673D01*
X139967263Y-89917807D01*
X140139554Y-90783972D01*
X140477515Y-91599882D01*
X140968158Y-92334182D01*
X141592628Y-92958652D01*
X142326928Y-93449295D01*
X143142838Y-93787256D01*
X144009003Y-93959547D01*
X144892137Y-93959547D01*
X145758302Y-93787256D01*
X146574212Y-93449295D01*
X147308512Y-92958652D01*
X147932982Y-92334182D01*
X148423625Y-91599882D01*
X148761586Y-90783972D01*
X148933877Y-89917807D01*
X148933877Y-89034673D01*
X148761586Y-88168508D01*
X148423625Y-87352598D01*
X147932982Y-86618298D01*
X147308512Y-85993828D01*
X146574212Y-85503185D01*
X145758302Y-85165224D01*
X144892137Y-84992933D01*
X144009003Y-84992933D01*
X143142838Y-85165224D01*
X142326928Y-85503185D01*
X141592628Y-85993828D01*
X140968158Y-86618298D01*
X140477515Y-87352598D01*
X140139554Y-88168508D01*
X139967263Y-89034673D01*
X134899400Y-89034673D01*
X134899400Y-82250707D01*
X134967632Y-82250707D01*
X134967632Y-82741773D01*
X135063434Y-83223403D01*
X135251357Y-83677089D01*
X135524179Y-84085395D01*
X135871415Y-84432631D01*
X136279721Y-84705453D01*
X136733407Y-84893376D01*
X137215037Y-84989178D01*
X137706103Y-84989178D01*
X138187733Y-84893376D01*
X138641419Y-84705453D01*
X139049725Y-84432631D01*
X139396961Y-84085395D01*
X139669783Y-83677089D01*
X139857706Y-83223403D01*
X139953508Y-82741773D01*
X139953508Y-82250707D01*
X139857706Y-81769077D01*
X139669783Y-81315391D01*
X139396961Y-80907085D01*
X139049725Y-80559849D01*
X138641419Y-80287027D01*
X138187733Y-80099104D01*
X137706103Y-80003302D01*
X137215037Y-80003302D01*
X136733407Y-80099104D01*
X136279721Y-80287027D01*
X135871415Y-80559849D01*
X135524179Y-80907085D01*
X135251357Y-81315391D01*
X135063434Y-81769077D01*
X134967632Y-82250707D01*
X134899400Y-82250707D01*
X134899400Y-75059673D01*
X139967263Y-75059673D01*
X139967263Y-75942807D01*
X140139554Y-76808972D01*
X140477515Y-77624882D01*
X140968158Y-78359182D01*
X141592628Y-78983652D01*
X142326928Y-79474295D01*
X143142838Y-79812256D01*
X144009003Y-79984547D01*
X144892137Y-79984547D01*
X145758302Y-79812256D01*
X146574212Y-79474295D01*
X147308512Y-78983652D01*
X147932982Y-78359182D01*
X148423625Y-77624882D01*
X148761586Y-76808972D01*
X148933877Y-75942807D01*
X148933877Y-75059673D01*
X148761586Y-74193508D01*
X148423625Y-73377598D01*
X147932982Y-72643298D01*
X147308512Y-72018828D01*
X146574212Y-71528185D01*
X145758302Y-71190224D01*
X144892137Y-71017933D01*
X144009003Y-71017933D01*
X143142838Y-71190224D01*
X142326928Y-71528185D01*
X141592628Y-72018828D01*
X140968158Y-72643298D01*
X140477515Y-73377598D01*
X140139554Y-74193508D01*
X139967263Y-75059673D01*
X134899400Y-75059673D01*
X134899400Y-43471240D01*
X141021672Y-43471240D01*
X140985978Y-43478340D01*
G37*
G04 #@! TD.AperFunction*
M02*
