G04 #@! TF.GenerationSoftware,KiCad,Pcbnew,5.1.7-a382d34a8~87~ubuntu18.04.1*
G04 #@! TF.CreationDate,2021-01-14T14:32:31+00:00*
G04 #@! TF.ProjectId,4hp-2180-vca,3468702d-3231-4383-902d-7663612e6b69,rev?*
G04 #@! TF.SameCoordinates,Original*
G04 #@! TF.FileFunction,Legend,Bot*
G04 #@! TF.FilePolarity,Positive*
%FSLAX46Y46*%
G04 Gerber Fmt 4.6, Leading zero omitted, Abs format (unit mm)*
G04 Created by KiCad (PCBNEW 5.1.7-a382d34a8~87~ubuntu18.04.1) date 2021-01-14 14:32:31*
%MOMM*%
%LPD*%
G01*
G04 APERTURE LIST*
%ADD10C,0.375000*%
G04 APERTURE END LIST*
D10*
X80998000Y-99701285D02*
X80998000Y-100415571D01*
X81498000Y-98915571D02*
X80998000Y-99701285D01*
X80498000Y-98915571D01*
X79783714Y-100415571D02*
X79926571Y-100344142D01*
X79998000Y-100272714D01*
X80069428Y-100129857D01*
X80069428Y-99701285D01*
X79998000Y-99558428D01*
X79926571Y-99487000D01*
X79783714Y-99415571D01*
X79569428Y-99415571D01*
X79426571Y-99487000D01*
X79355142Y-99558428D01*
X79283714Y-99701285D01*
X79283714Y-100129857D01*
X79355142Y-100272714D01*
X79426571Y-100344142D01*
X79569428Y-100415571D01*
X79783714Y-100415571D01*
X78640857Y-100415571D02*
X78640857Y-99415571D01*
X78640857Y-99701285D02*
X78569428Y-99558428D01*
X78498000Y-99487000D01*
X78355142Y-99415571D01*
X78212285Y-99415571D01*
X77712285Y-100415571D02*
X77712285Y-98915571D01*
X77569428Y-99844142D02*
X77140857Y-100415571D01*
X77140857Y-99415571D02*
X77712285Y-99987000D01*
X83319428Y-103040571D02*
X83319428Y-101540571D01*
X82819428Y-102612000D01*
X82319428Y-101540571D01*
X82319428Y-103040571D01*
X81390857Y-103040571D02*
X81533714Y-102969142D01*
X81605142Y-102897714D01*
X81676571Y-102754857D01*
X81676571Y-102326285D01*
X81605142Y-102183428D01*
X81533714Y-102112000D01*
X81390857Y-102040571D01*
X81176571Y-102040571D01*
X81033714Y-102112000D01*
X80962285Y-102183428D01*
X80890857Y-102326285D01*
X80890857Y-102754857D01*
X80962285Y-102897714D01*
X81033714Y-102969142D01*
X81176571Y-103040571D01*
X81390857Y-103040571D01*
X79605142Y-103040571D02*
X79605142Y-101540571D01*
X79605142Y-102969142D02*
X79748000Y-103040571D01*
X80033714Y-103040571D01*
X80176571Y-102969142D01*
X80248000Y-102897714D01*
X80319428Y-102754857D01*
X80319428Y-102326285D01*
X80248000Y-102183428D01*
X80176571Y-102112000D01*
X80033714Y-102040571D01*
X79748000Y-102040571D01*
X79605142Y-102112000D01*
X78248000Y-102040571D02*
X78248000Y-103040571D01*
X78890857Y-102040571D02*
X78890857Y-102826285D01*
X78819428Y-102969142D01*
X78676571Y-103040571D01*
X78462285Y-103040571D01*
X78319428Y-102969142D01*
X78248000Y-102897714D01*
X77319428Y-103040571D02*
X77462285Y-102969142D01*
X77533714Y-102826285D01*
X77533714Y-101540571D01*
X76105142Y-103040571D02*
X76105142Y-102254857D01*
X76176571Y-102112000D01*
X76319428Y-102040571D01*
X76605142Y-102040571D01*
X76748000Y-102112000D01*
X76105142Y-102969142D02*
X76248000Y-103040571D01*
X76605142Y-103040571D01*
X76748000Y-102969142D01*
X76819428Y-102826285D01*
X76819428Y-102683428D01*
X76748000Y-102540571D01*
X76605142Y-102469142D01*
X76248000Y-102469142D01*
X76105142Y-102397714D01*
X75390857Y-103040571D02*
X75390857Y-102040571D01*
X75390857Y-102326285D02*
X75319428Y-102183428D01*
X75248000Y-102112000D01*
X75105142Y-102040571D01*
X74962285Y-102040571D01*
X81819428Y-104308428D02*
X81748000Y-104237000D01*
X81605142Y-104165571D01*
X81248000Y-104165571D01*
X81105142Y-104237000D01*
X81033714Y-104308428D01*
X80962285Y-104451285D01*
X80962285Y-104594142D01*
X81033714Y-104808428D01*
X81890857Y-105665571D01*
X80962285Y-105665571D01*
X80033714Y-104165571D02*
X79890857Y-104165571D01*
X79748000Y-104237000D01*
X79676571Y-104308428D01*
X79605142Y-104451285D01*
X79533714Y-104737000D01*
X79533714Y-105094142D01*
X79605142Y-105379857D01*
X79676571Y-105522714D01*
X79748000Y-105594142D01*
X79890857Y-105665571D01*
X80033714Y-105665571D01*
X80176571Y-105594142D01*
X80248000Y-105522714D01*
X80319428Y-105379857D01*
X80390857Y-105094142D01*
X80390857Y-104737000D01*
X80319428Y-104451285D01*
X80248000Y-104308428D01*
X80176571Y-104237000D01*
X80033714Y-104165571D01*
X78962285Y-104308428D02*
X78890857Y-104237000D01*
X78748000Y-104165571D01*
X78390857Y-104165571D01*
X78248000Y-104237000D01*
X78176571Y-104308428D01*
X78105142Y-104451285D01*
X78105142Y-104594142D01*
X78176571Y-104808428D01*
X79033714Y-105665571D01*
X78105142Y-105665571D01*
X77176571Y-104165571D02*
X77033714Y-104165571D01*
X76890857Y-104237000D01*
X76819428Y-104308428D01*
X76748000Y-104451285D01*
X76676571Y-104737000D01*
X76676571Y-105094142D01*
X76748000Y-105379857D01*
X76819428Y-105522714D01*
X76890857Y-105594142D01*
X77033714Y-105665571D01*
X77176571Y-105665571D01*
X77319428Y-105594142D01*
X77390857Y-105522714D01*
X77462285Y-105379857D01*
X77533714Y-105094142D01*
X77533714Y-104737000D01*
X77462285Y-104451285D01*
X77390857Y-104308428D01*
X77319428Y-104237000D01*
X77176571Y-104165571D01*
M02*
