G04 #@! TF.GenerationSoftware,KiCad,Pcbnew,5.1.7-a382d34a8~87~ubuntu18.04.1*
G04 #@! TF.CreationDate,2021-01-14T14:32:31+00:00*
G04 #@! TF.ProjectId,4hp-2180-vca,3468702d-3231-4383-902d-7663612e6b69,rev?*
G04 #@! TF.SameCoordinates,Original*
G04 #@! TF.FileFunction,Copper,L1,Top*
G04 #@! TF.FilePolarity,Positive*
%FSLAX46Y46*%
G04 Gerber Fmt 4.6, Leading zero omitted, Abs format (unit mm)*
G04 Created by KiCad (PCBNEW 5.1.7-a382d34a8~87~ubuntu18.04.1) date 2021-01-14 14:32:31*
%MOMM*%
%LPD*%
G01*
G04 APERTURE LIST*
G04 #@! TA.AperFunction,NonConductor*
%ADD10C,0.500000*%
G04 #@! TD*
G04 APERTURE END LIST*
D10*
X82312190Y-37004761D02*
X82978857Y-39004761D01*
X83645523Y-37004761D01*
X85455047Y-38814285D02*
X85359809Y-38909523D01*
X85074095Y-39004761D01*
X84883619Y-39004761D01*
X84597904Y-38909523D01*
X84407428Y-38719047D01*
X84312190Y-38528571D01*
X84216952Y-38147619D01*
X84216952Y-37861904D01*
X84312190Y-37480952D01*
X84407428Y-37290476D01*
X84597904Y-37100000D01*
X84883619Y-37004761D01*
X85074095Y-37004761D01*
X85359809Y-37100000D01*
X85455047Y-37195238D01*
X86216952Y-38433333D02*
X87169333Y-38433333D01*
X86026476Y-39004761D02*
X86693142Y-37004761D01*
X87359809Y-39004761D01*
X71946380Y-118499142D02*
X73089238Y-118499142D01*
X72517809Y-121499142D02*
X72517809Y-118499142D01*
X73755904Y-121499142D02*
X73755904Y-118499142D01*
X73755904Y-119927714D02*
X74898761Y-119927714D01*
X74898761Y-121499142D02*
X74898761Y-118499142D01*
X75755904Y-120642000D02*
X76708285Y-120642000D01*
X75565428Y-121499142D02*
X76232095Y-118499142D01*
X76898761Y-121499142D01*
X77279714Y-118499142D02*
X78422571Y-118499142D01*
X77851142Y-121499142D02*
X77851142Y-118499142D01*
X78994000Y-118784857D02*
X79089238Y-118642000D01*
X79279714Y-118499142D01*
X79755904Y-118499142D01*
X79946380Y-118642000D01*
X80041619Y-118784857D01*
X80136857Y-119070571D01*
X80136857Y-119356285D01*
X80041619Y-119784857D01*
X78898761Y-121499142D01*
X80136857Y-121499142D01*
X82041619Y-121499142D02*
X80898761Y-121499142D01*
X81470190Y-121499142D02*
X81470190Y-118499142D01*
X81279714Y-118927714D01*
X81089238Y-119213428D01*
X80898761Y-119356285D01*
X83184476Y-119784857D02*
X82994000Y-119642000D01*
X82898761Y-119499142D01*
X82803523Y-119213428D01*
X82803523Y-119070571D01*
X82898761Y-118784857D01*
X82994000Y-118642000D01*
X83184476Y-118499142D01*
X83565428Y-118499142D01*
X83755904Y-118642000D01*
X83851142Y-118784857D01*
X83946380Y-119070571D01*
X83946380Y-119213428D01*
X83851142Y-119499142D01*
X83755904Y-119642000D01*
X83565428Y-119784857D01*
X83184476Y-119784857D01*
X82994000Y-119927714D01*
X82898761Y-120070571D01*
X82803523Y-120356285D01*
X82803523Y-120927714D01*
X82898761Y-121213428D01*
X82994000Y-121356285D01*
X83184476Y-121499142D01*
X83565428Y-121499142D01*
X83755904Y-121356285D01*
X83851142Y-121213428D01*
X83946380Y-120927714D01*
X83946380Y-120356285D01*
X83851142Y-120070571D01*
X83755904Y-119927714D01*
X83565428Y-119784857D01*
X85184476Y-118499142D02*
X85374952Y-118499142D01*
X85565428Y-118642000D01*
X85660666Y-118784857D01*
X85755904Y-119070571D01*
X85851142Y-119642000D01*
X85851142Y-120356285D01*
X85755904Y-120927714D01*
X85660666Y-121213428D01*
X85565428Y-121356285D01*
X85374952Y-121499142D01*
X85184476Y-121499142D01*
X84994000Y-121356285D01*
X84898761Y-121213428D01*
X84803523Y-120927714D01*
X84708285Y-120356285D01*
X84708285Y-119642000D01*
X84803523Y-119070571D01*
X84898761Y-118784857D01*
X84994000Y-118642000D01*
X85184476Y-118499142D01*
X69770761Y-146018000D02*
X69770761Y-145637047D01*
X69866000Y-145446571D01*
X70056476Y-145256095D01*
X70437428Y-145160857D01*
X71104095Y-145160857D01*
X71485047Y-145256095D01*
X71675523Y-145446571D01*
X71770761Y-145637047D01*
X71770761Y-146018000D01*
X71675523Y-146208476D01*
X71485047Y-146398952D01*
X71104095Y-146494190D01*
X70437428Y-146494190D01*
X70056476Y-146398952D01*
X69866000Y-146208476D01*
X69770761Y-146018000D01*
X69770761Y-144303714D02*
X71389809Y-144303714D01*
X71580285Y-144208476D01*
X71675523Y-144113238D01*
X71770761Y-143922761D01*
X71770761Y-143541809D01*
X71675523Y-143351333D01*
X71580285Y-143256095D01*
X71389809Y-143160857D01*
X69770761Y-143160857D01*
X69770761Y-142494190D02*
X69770761Y-141351333D01*
X71770761Y-141922761D02*
X69770761Y-141922761D01*
X71770761Y-78263619D02*
X71770761Y-79216000D01*
X69770761Y-79216000D01*
X69770761Y-77882666D02*
X71770761Y-77216000D01*
X69770761Y-76549333D01*
X71770761Y-74930285D02*
X71770761Y-75882666D01*
X69770761Y-75882666D01*
X71580285Y-65262095D02*
X71675523Y-65357333D01*
X71770761Y-65643047D01*
X71770761Y-65833523D01*
X71675523Y-66119238D01*
X71485047Y-66309714D01*
X71294571Y-66404952D01*
X70913619Y-66500190D01*
X70627904Y-66500190D01*
X70246952Y-66404952D01*
X70056476Y-66309714D01*
X69866000Y-66119238D01*
X69770761Y-65833523D01*
X69770761Y-65643047D01*
X69866000Y-65357333D01*
X69961238Y-65262095D01*
X69770761Y-64690666D02*
X71770761Y-64024000D01*
X69770761Y-63357333D01*
X71770761Y-55657619D02*
X69770761Y-55657619D01*
X71770761Y-54705238D02*
X69770761Y-54705238D01*
X71770761Y-53562380D01*
X69770761Y-53562380D01*
M02*
