G04 #@! TF.GenerationSoftware,KiCad,Pcbnew,5.1.7-a382d34a8~87~ubuntu18.04.1*
G04 #@! TF.CreationDate,2021-01-14T14:08:13+00:00*
G04 #@! TF.ProjectId,bad-trip-panel,6261642d-7472-4697-902d-70616e656c2e,rev?*
G04 #@! TF.SameCoordinates,Original*
G04 #@! TF.FileFunction,Copper,L1,Top*
G04 #@! TF.FilePolarity,Positive*
%FSLAX46Y46*%
G04 Gerber Fmt 4.6, Leading zero omitted, Abs format (unit mm)*
G04 Created by KiCad (PCBNEW 5.1.7-a382d34a8~87~ubuntu18.04.1) date 2021-01-14 14:08:13*
%MOMM*%
%LPD*%
G01*
G04 APERTURE LIST*
G04 #@! TA.AperFunction,NonConductor*
%ADD10C,0.312500*%
G04 #@! TD*
G04 #@! TA.AperFunction,NonConductor*
%ADD11C,0.300000*%
G04 #@! TD*
G04 APERTURE END LIST*
D10*
X127010566Y-27202628D02*
X127189138Y-27321676D01*
X127248661Y-27440723D01*
X127308185Y-27678819D01*
X127308185Y-28035961D01*
X127248661Y-28274057D01*
X127189138Y-28393104D01*
X127070090Y-28512152D01*
X126593900Y-28512152D01*
X126593900Y-26012152D01*
X127010566Y-26012152D01*
X127129614Y-26131200D01*
X127189138Y-26250247D01*
X127248661Y-26488342D01*
X127248661Y-26726438D01*
X127189138Y-26964533D01*
X127129614Y-27083580D01*
X127010566Y-27202628D01*
X126593900Y-27202628D01*
X127784376Y-27797866D02*
X128379614Y-27797866D01*
X127665328Y-28512152D02*
X128081995Y-26012152D01*
X128498661Y-28512152D01*
X128915328Y-28512152D02*
X128915328Y-26012152D01*
X129212947Y-26012152D01*
X129391519Y-26131200D01*
X129510566Y-26369295D01*
X129570090Y-26607390D01*
X129629614Y-27083580D01*
X129629614Y-27440723D01*
X129570090Y-27916914D01*
X129510566Y-28155009D01*
X129391519Y-28393104D01*
X129212947Y-28512152D01*
X128915328Y-28512152D01*
X130939138Y-26012152D02*
X131653423Y-26012152D01*
X131296280Y-28512152D02*
X131296280Y-26012152D01*
X132784376Y-28512152D02*
X132367709Y-27321676D01*
X132070090Y-28512152D02*
X132070090Y-26012152D01*
X132546280Y-26012152D01*
X132665328Y-26131200D01*
X132724852Y-26250247D01*
X132784376Y-26488342D01*
X132784376Y-26845485D01*
X132724852Y-27083580D01*
X132665328Y-27202628D01*
X132546280Y-27321676D01*
X132070090Y-27321676D01*
X133320090Y-28512152D02*
X133320090Y-26012152D01*
X133915328Y-28512152D02*
X133915328Y-26012152D01*
X134391519Y-26012152D01*
X134510566Y-26131200D01*
X134570090Y-26250247D01*
X134629614Y-26488342D01*
X134629614Y-26845485D01*
X134570090Y-27083580D01*
X134510566Y-27202628D01*
X134391519Y-27321676D01*
X133915328Y-27321676D01*
X135939138Y-26012152D02*
X136355804Y-28512152D01*
X136772471Y-26012152D01*
X137903423Y-28274057D02*
X137843900Y-28393104D01*
X137665328Y-28512152D01*
X137546280Y-28512152D01*
X137367709Y-28393104D01*
X137248661Y-28155009D01*
X137189138Y-27916914D01*
X137129614Y-27440723D01*
X137129614Y-27083580D01*
X137189138Y-26607390D01*
X137248661Y-26369295D01*
X137367709Y-26131200D01*
X137546280Y-26012152D01*
X137665328Y-26012152D01*
X137843900Y-26131200D01*
X137903423Y-26250247D01*
X138677233Y-26012152D02*
X138915328Y-26012152D01*
X139034376Y-26131200D01*
X139153423Y-26369295D01*
X139212947Y-26845485D01*
X139212947Y-27678819D01*
X139153423Y-28155009D01*
X139034376Y-28393104D01*
X138915328Y-28512152D01*
X138677233Y-28512152D01*
X138558185Y-28393104D01*
X138439138Y-28155009D01*
X138379614Y-27678819D01*
X138379614Y-26845485D01*
X138439138Y-26369295D01*
X138558185Y-26131200D01*
X138677233Y-26012152D01*
X139748661Y-27559771D02*
X140701042Y-27559771D01*
X140224852Y-28512152D02*
X140224852Y-26607390D01*
X141117709Y-26012152D02*
X141534376Y-28512152D01*
X141951042Y-26012152D01*
X143081995Y-28274057D02*
X143022471Y-28393104D01*
X142843900Y-28512152D01*
X142724852Y-28512152D01*
X142546280Y-28393104D01*
X142427233Y-28155009D01*
X142367709Y-27916914D01*
X142308185Y-27440723D01*
X142308185Y-27083580D01*
X142367709Y-26607390D01*
X142427233Y-26369295D01*
X142546280Y-26131200D01*
X142724852Y-26012152D01*
X142843900Y-26012152D01*
X143022471Y-26131200D01*
X143081995Y-26250247D01*
X144034376Y-27202628D02*
X143617709Y-27202628D01*
X143617709Y-28512152D02*
X143617709Y-26012152D01*
X144212947Y-26012152D01*
D11*
X137865100Y-136166361D02*
X138246052Y-136166361D01*
X138436528Y-136261600D01*
X138627004Y-136452076D01*
X138722242Y-136833028D01*
X138722242Y-137499695D01*
X138627004Y-137880647D01*
X138436528Y-138071123D01*
X138246052Y-138166361D01*
X137865100Y-138166361D01*
X137674623Y-138071123D01*
X137484147Y-137880647D01*
X137388909Y-137499695D01*
X137388909Y-136833028D01*
X137484147Y-136452076D01*
X137674623Y-136261600D01*
X137865100Y-136166361D01*
X139579385Y-136166361D02*
X139579385Y-137785409D01*
X139674623Y-137975885D01*
X139769861Y-138071123D01*
X139960338Y-138166361D01*
X140341290Y-138166361D01*
X140531766Y-138071123D01*
X140627004Y-137975885D01*
X140722242Y-137785409D01*
X140722242Y-136166361D01*
X141388909Y-136166361D02*
X142531766Y-136166361D01*
X141960338Y-138166361D02*
X141960338Y-136166361D01*
X129435242Y-143211204D02*
X129435242Y-143877871D01*
X130482861Y-143877871D02*
X128482861Y-143877871D01*
X128482861Y-142925490D01*
X130482861Y-142163585D02*
X129149528Y-142163585D01*
X128482861Y-142163585D02*
X128578100Y-142258823D01*
X128673338Y-142163585D01*
X128578100Y-142068347D01*
X128482861Y-142163585D01*
X128673338Y-142163585D01*
X130482861Y-140925490D02*
X130387623Y-141115966D01*
X130197147Y-141211204D01*
X128482861Y-141211204D01*
X129149528Y-140449300D02*
X129149528Y-139687395D01*
X128482861Y-140163585D02*
X130197147Y-140163585D01*
X130387623Y-140068347D01*
X130482861Y-139877871D01*
X130482861Y-139687395D01*
X130387623Y-138258823D02*
X130482861Y-138449300D01*
X130482861Y-138830252D01*
X130387623Y-139020728D01*
X130197147Y-139115966D01*
X129435242Y-139115966D01*
X129244766Y-139020728D01*
X129149528Y-138830252D01*
X129149528Y-138449300D01*
X129244766Y-138258823D01*
X129435242Y-138163585D01*
X129625719Y-138163585D01*
X129816195Y-139115966D01*
X130482861Y-137306442D02*
X129149528Y-137306442D01*
X129530480Y-137306442D02*
X129340004Y-137211204D01*
X129244766Y-137115966D01*
X129149528Y-136925490D01*
X129149528Y-136735014D01*
X120418242Y-142576228D02*
X120418242Y-143242895D01*
X121465861Y-143242895D02*
X119465861Y-143242895D01*
X119465861Y-142290514D01*
X121465861Y-141242895D02*
X121370623Y-141433371D01*
X121275385Y-141528609D01*
X121084909Y-141623847D01*
X120513480Y-141623847D01*
X120323004Y-141528609D01*
X120227766Y-141433371D01*
X120132528Y-141242895D01*
X120132528Y-140957180D01*
X120227766Y-140766704D01*
X120323004Y-140671466D01*
X120513480Y-140576228D01*
X121084909Y-140576228D01*
X121275385Y-140671466D01*
X121370623Y-140766704D01*
X121465861Y-140957180D01*
X121465861Y-141242895D01*
X121465861Y-139719085D02*
X120132528Y-139719085D01*
X120513480Y-139719085D02*
X120323004Y-139623847D01*
X120227766Y-139528609D01*
X120132528Y-139338133D01*
X120132528Y-139147657D01*
X121465861Y-138480990D02*
X120132528Y-138480990D01*
X120323004Y-138480990D02*
X120227766Y-138385752D01*
X120132528Y-138195276D01*
X120132528Y-137909561D01*
X120227766Y-137719085D01*
X120418242Y-137623847D01*
X121465861Y-137623847D01*
X120418242Y-137623847D02*
X120227766Y-137528609D01*
X120132528Y-137338133D01*
X120132528Y-137052419D01*
X120227766Y-136861942D01*
X120418242Y-136766704D01*
X121465861Y-136766704D01*
X128431942Y-90842885D02*
X128431942Y-91509552D01*
X129479561Y-91509552D02*
X127479561Y-91509552D01*
X127479561Y-90557171D01*
X128431942Y-89128600D02*
X128527180Y-88842885D01*
X128622419Y-88747647D01*
X128812895Y-88652409D01*
X129098609Y-88652409D01*
X129289085Y-88747647D01*
X129384323Y-88842885D01*
X129479561Y-89033361D01*
X129479561Y-89795266D01*
X127479561Y-89795266D01*
X127479561Y-89128600D01*
X127574800Y-88938123D01*
X127670038Y-88842885D01*
X127860514Y-88747647D01*
X128050990Y-88747647D01*
X128241466Y-88842885D01*
X128336704Y-88938123D01*
X128431942Y-89128600D01*
X128431942Y-89795266D01*
X129479561Y-87795266D02*
X127479561Y-87795266D01*
X129479561Y-86652409D02*
X128336704Y-87509552D01*
X127479561Y-86652409D02*
X128622419Y-87795266D01*
X136836280Y-67414661D02*
X135883900Y-67414661D01*
X135883900Y-65414661D01*
X137217233Y-65414661D02*
X137883900Y-67414661D01*
X138550566Y-65414661D01*
X140169614Y-67414661D02*
X139217233Y-67414661D01*
X139217233Y-65414661D01*
X121494680Y-67414661D02*
X120542300Y-67414661D01*
X120542300Y-65414661D01*
X121875633Y-65414661D02*
X122542300Y-67414661D01*
X123208966Y-65414661D01*
X124828014Y-67414661D02*
X123875633Y-67414661D01*
X123875633Y-65414661D01*
X138801504Y-58638985D02*
X138706266Y-58734223D01*
X138420552Y-58829461D01*
X138230076Y-58829461D01*
X137944361Y-58734223D01*
X137753885Y-58543747D01*
X137658647Y-58353271D01*
X137563409Y-57972319D01*
X137563409Y-57686604D01*
X137658647Y-57305652D01*
X137753885Y-57115176D01*
X137944361Y-56924700D01*
X138230076Y-56829461D01*
X138420552Y-56829461D01*
X138706266Y-56924700D01*
X138801504Y-57019938D01*
X139372933Y-56829461D02*
X140039600Y-58829461D01*
X140706266Y-56829461D01*
X121262804Y-58638985D02*
X121167566Y-58734223D01*
X120881852Y-58829461D01*
X120691376Y-58829461D01*
X120405661Y-58734223D01*
X120215185Y-58543747D01*
X120119947Y-58353271D01*
X120024709Y-57972319D01*
X120024709Y-57686604D01*
X120119947Y-57305652D01*
X120215185Y-57115176D01*
X120405661Y-56924700D01*
X120691376Y-56829461D01*
X120881852Y-56829461D01*
X121167566Y-56924700D01*
X121262804Y-57019938D01*
X121834233Y-56829461D02*
X122500900Y-58829461D01*
X123167566Y-56829461D01*
X136757090Y-39087561D02*
X137423757Y-41087561D01*
X138090423Y-39087561D01*
X139899947Y-40897085D02*
X139804709Y-40992323D01*
X139518995Y-41087561D01*
X139328519Y-41087561D01*
X139042804Y-40992323D01*
X138852328Y-40801847D01*
X138757090Y-40611371D01*
X138661852Y-40230419D01*
X138661852Y-39944704D01*
X138757090Y-39563752D01*
X138852328Y-39373276D01*
X139042804Y-39182800D01*
X139328519Y-39087561D01*
X139518995Y-39087561D01*
X139804709Y-39182800D01*
X139899947Y-39278038D01*
X141423757Y-40039942D02*
X140757090Y-40039942D01*
X140757090Y-41087561D02*
X140757090Y-39087561D01*
X141709471Y-39087561D01*
X118875514Y-39087561D02*
X119542180Y-41087561D01*
X120208847Y-39087561D01*
X122018371Y-40897085D02*
X121923133Y-40992323D01*
X121637419Y-41087561D01*
X121446942Y-41087561D01*
X121161228Y-40992323D01*
X120970752Y-40801847D01*
X120875514Y-40611371D01*
X120780276Y-40230419D01*
X120780276Y-39944704D01*
X120875514Y-39563752D01*
X120970752Y-39373276D01*
X121161228Y-39182800D01*
X121446942Y-39087561D01*
X121637419Y-39087561D01*
X121923133Y-39182800D01*
X122018371Y-39278038D01*
X123256466Y-39087561D02*
X123637419Y-39087561D01*
X123827895Y-39182800D01*
X124018371Y-39373276D01*
X124113609Y-39754228D01*
X124113609Y-40420895D01*
X124018371Y-40801847D01*
X123827895Y-40992323D01*
X123637419Y-41087561D01*
X123256466Y-41087561D01*
X123065990Y-40992323D01*
X122875514Y-40801847D01*
X122780276Y-40420895D01*
X122780276Y-39754228D01*
X122875514Y-39373276D01*
X123065990Y-39182800D01*
X123256466Y-39087561D01*
M02*
