G04 #@! TF.GenerationSoftware,KiCad,Pcbnew,5.1.7-a382d34a8~87~ubuntu18.04.1*
G04 #@! TF.CreationDate,2021-01-14T14:08:13+00:00*
G04 #@! TF.ProjectId,bad-trip-panel,6261642d-7472-4697-902d-70616e656c2e,rev?*
G04 #@! TF.SameCoordinates,Original*
G04 #@! TF.FileFunction,Copper,L2,Bot*
G04 #@! TF.FilePolarity,Positive*
%FSLAX46Y46*%
G04 Gerber Fmt 4.6, Leading zero omitted, Abs format (unit mm)*
G04 Created by KiCad (PCBNEW 5.1.7-a382d34a8~87~ubuntu18.04.1) date 2021-01-14 14:08:13*
%MOMM*%
%LPD*%
G01*
G04 APERTURE LIST*
G04 #@! TA.AperFunction,NonConductor*
%ADD10C,0.254000*%
G04 #@! TD*
G04 #@! TA.AperFunction,NonConductor*
%ADD11C,0.100000*%
G04 #@! TD*
G04 APERTURE END LIST*
D10*
X121982728Y-25277720D02*
X121574320Y-25446888D01*
X121206763Y-25692481D01*
X120894181Y-26005063D01*
X120648588Y-26372620D01*
X120479420Y-26781028D01*
X120393178Y-27214591D01*
X120393178Y-27656649D01*
X120479420Y-28090212D01*
X120648588Y-28498620D01*
X120894181Y-28866177D01*
X121206763Y-29178759D01*
X121574320Y-29424352D01*
X121982728Y-29593520D01*
X122416291Y-29679762D01*
X122858349Y-29679762D01*
X123291912Y-29593520D01*
X123700320Y-29424352D01*
X124067877Y-29178759D01*
X124380459Y-28866177D01*
X124626052Y-28498620D01*
X124795220Y-28090212D01*
X124881462Y-27656649D01*
X124881462Y-27214591D01*
X124795220Y-26781028D01*
X124626052Y-26372620D01*
X124380459Y-26005063D01*
X124067877Y-25692481D01*
X123700320Y-25446888D01*
X123291912Y-25277720D01*
X123256218Y-25270620D01*
X144542320Y-25270620D01*
X144542321Y-152200620D01*
X115872320Y-152200620D01*
X115872320Y-149714591D01*
X120393178Y-149714591D01*
X120393178Y-150156649D01*
X120479420Y-150590212D01*
X120648588Y-150998620D01*
X120894181Y-151366177D01*
X121206763Y-151678759D01*
X121574320Y-151924352D01*
X121982728Y-152093520D01*
X122416291Y-152179762D01*
X122858349Y-152179762D01*
X123291912Y-152093520D01*
X123700320Y-151924352D01*
X124067877Y-151678759D01*
X124380459Y-151366177D01*
X124626052Y-150998620D01*
X124795220Y-150590212D01*
X124881462Y-150156649D01*
X124881462Y-149714591D01*
X124795220Y-149281028D01*
X124626052Y-148872620D01*
X124380459Y-148505063D01*
X124067877Y-148192481D01*
X123700320Y-147946888D01*
X123291912Y-147777720D01*
X122858349Y-147691478D01*
X122416291Y-147691478D01*
X121982728Y-147777720D01*
X121574320Y-147946888D01*
X121206763Y-148192481D01*
X120894181Y-148505063D01*
X120648588Y-148872620D01*
X120479420Y-149281028D01*
X120393178Y-149714591D01*
X115872320Y-149714591D01*
X115872320Y-129502070D01*
X117199198Y-129502070D01*
X117199198Y-130189170D01*
X117333244Y-130863068D01*
X117596186Y-131497866D01*
X117977918Y-132069168D01*
X118463772Y-132555022D01*
X119035074Y-132936754D01*
X119669872Y-133199696D01*
X120343770Y-133333742D01*
X121030870Y-133333742D01*
X121704768Y-133199696D01*
X122339566Y-132936754D01*
X122910868Y-132555022D01*
X123396722Y-132069168D01*
X123778454Y-131497866D01*
X124041396Y-130863068D01*
X124175442Y-130189170D01*
X124175442Y-129502070D01*
X126089199Y-129502070D01*
X126089199Y-130189170D01*
X126223245Y-130863068D01*
X126486187Y-131497865D01*
X126867919Y-132069168D01*
X127353772Y-132555021D01*
X127925075Y-132936753D01*
X128559872Y-133199695D01*
X129233770Y-133333741D01*
X129920870Y-133333741D01*
X130594768Y-133199695D01*
X131229565Y-132936753D01*
X131800868Y-132555021D01*
X132286721Y-132069168D01*
X132668453Y-131497865D01*
X132931395Y-130863068D01*
X133065441Y-130189170D01*
X133065441Y-129502070D01*
X132931395Y-128828172D01*
X132668453Y-128193375D01*
X132661562Y-128183061D01*
X135751605Y-128183061D01*
X135751605Y-128968179D01*
X135904774Y-129738210D01*
X136205225Y-130463564D01*
X136641413Y-131116365D01*
X137196575Y-131671527D01*
X137849376Y-132107715D01*
X138574730Y-132408166D01*
X139344761Y-132561335D01*
X140129879Y-132561335D01*
X140899910Y-132408166D01*
X141625264Y-132107715D01*
X142278065Y-131671527D01*
X142833227Y-131116365D01*
X143269415Y-130463564D01*
X143569866Y-129738210D01*
X143723035Y-128968179D01*
X143723035Y-128183061D01*
X143569866Y-127413030D01*
X143269415Y-126687676D01*
X142833227Y-126034875D01*
X142278065Y-125479713D01*
X141625264Y-125043525D01*
X140899910Y-124743074D01*
X140129879Y-124589905D01*
X139344761Y-124589905D01*
X138574730Y-124743074D01*
X137849376Y-125043525D01*
X137196575Y-125479713D01*
X136641413Y-126034875D01*
X136205225Y-126687676D01*
X135904774Y-127413030D01*
X135751605Y-128183061D01*
X132661562Y-128183061D01*
X132286721Y-127622072D01*
X131800868Y-127136219D01*
X131229565Y-126754487D01*
X130594768Y-126491545D01*
X129920870Y-126357499D01*
X129233770Y-126357499D01*
X128559872Y-126491545D01*
X127925075Y-126754487D01*
X127353772Y-127136219D01*
X126867919Y-127622072D01*
X126486187Y-128193375D01*
X126223245Y-128828172D01*
X126089199Y-129502070D01*
X124175442Y-129502070D01*
X124041396Y-128828172D01*
X123778454Y-128193374D01*
X123396722Y-127622072D01*
X122910868Y-127136218D01*
X122339566Y-126754486D01*
X121704768Y-126491544D01*
X121030870Y-126357498D01*
X120343770Y-126357498D01*
X119669872Y-126491544D01*
X119035074Y-126754486D01*
X118463772Y-127136218D01*
X117977918Y-127622072D01*
X117596186Y-128193374D01*
X117333244Y-128828172D01*
X117199198Y-129502070D01*
X115872320Y-129502070D01*
X115872320Y-88764053D01*
X133354013Y-88764053D01*
X133354013Y-89647187D01*
X133526304Y-90513352D01*
X133864265Y-91329262D01*
X134354908Y-92063562D01*
X134979378Y-92688032D01*
X135713678Y-93178675D01*
X136529588Y-93516636D01*
X137395753Y-93688927D01*
X138278887Y-93688927D01*
X139145052Y-93516636D01*
X139960962Y-93178675D01*
X140695262Y-92688032D01*
X141319732Y-92063562D01*
X141810375Y-91329262D01*
X142148336Y-90513352D01*
X142320627Y-89647187D01*
X142320627Y-88764053D01*
X142148336Y-87897888D01*
X141810375Y-87081978D01*
X141319732Y-86347678D01*
X140695262Y-85723208D01*
X139960962Y-85232565D01*
X139145052Y-84894604D01*
X138278887Y-84722313D01*
X137395753Y-84722313D01*
X136529588Y-84894604D01*
X135713678Y-85232565D01*
X134979378Y-85723208D01*
X134354908Y-86347678D01*
X133864265Y-87081978D01*
X133526304Y-87897888D01*
X133354013Y-88764053D01*
X115872320Y-88764053D01*
X115872320Y-74794053D01*
X118114013Y-74794053D01*
X118114013Y-75677187D01*
X118286304Y-76543352D01*
X118624265Y-77359262D01*
X119114908Y-78093562D01*
X119739378Y-78718032D01*
X120473678Y-79208675D01*
X121289588Y-79546636D01*
X122155753Y-79718927D01*
X123038887Y-79718927D01*
X123905052Y-79546636D01*
X124720962Y-79208675D01*
X125455262Y-78718032D01*
X126079732Y-78093562D01*
X126570375Y-77359262D01*
X126908336Y-76543352D01*
X127080627Y-75677187D01*
X127080627Y-74794053D01*
X133354013Y-74794053D01*
X133354013Y-75677187D01*
X133526304Y-76543352D01*
X133864265Y-77359262D01*
X134354908Y-78093562D01*
X134979378Y-78718032D01*
X135713678Y-79208675D01*
X136529588Y-79546636D01*
X137395753Y-79718927D01*
X138278887Y-79718927D01*
X139145052Y-79546636D01*
X139960962Y-79208675D01*
X140695262Y-78718032D01*
X141319732Y-78093562D01*
X141810375Y-77359262D01*
X142148336Y-76543352D01*
X142320627Y-75677187D01*
X142320627Y-74794053D01*
X142148336Y-73927888D01*
X141810375Y-73111978D01*
X141319732Y-72377678D01*
X140695262Y-71753208D01*
X139960962Y-71262565D01*
X139145052Y-70924604D01*
X138278887Y-70752313D01*
X137395753Y-70752313D01*
X136529588Y-70924604D01*
X135713678Y-71262565D01*
X134979378Y-71753208D01*
X134354908Y-72377678D01*
X133864265Y-73111978D01*
X133526304Y-73927888D01*
X133354013Y-74794053D01*
X127080627Y-74794053D01*
X126908336Y-73927888D01*
X126570375Y-73111978D01*
X126079732Y-72377678D01*
X125455262Y-71753208D01*
X124720962Y-71262565D01*
X123905052Y-70924604D01*
X123038887Y-70752313D01*
X122155753Y-70752313D01*
X121289588Y-70924604D01*
X120473678Y-71262565D01*
X119739378Y-71753208D01*
X119114908Y-72377678D01*
X118624265Y-73111978D01*
X118286304Y-73927888D01*
X118114013Y-74794053D01*
X115872320Y-74794053D01*
X115872320Y-48173061D01*
X117341605Y-48173061D01*
X117341605Y-48958179D01*
X117494774Y-49728210D01*
X117795225Y-50453564D01*
X118231413Y-51106365D01*
X118786575Y-51661527D01*
X119439376Y-52097715D01*
X120164730Y-52398166D01*
X120934761Y-52551335D01*
X121719879Y-52551335D01*
X122489910Y-52398166D01*
X123215264Y-52097715D01*
X123868065Y-51661527D01*
X124423227Y-51106365D01*
X124859415Y-50453564D01*
X125159866Y-49728210D01*
X125313035Y-48958179D01*
X125313035Y-48173061D01*
X135121605Y-48173061D01*
X135121605Y-48958179D01*
X135274774Y-49728210D01*
X135575225Y-50453564D01*
X136011413Y-51106365D01*
X136566575Y-51661527D01*
X137219376Y-52097715D01*
X137944730Y-52398166D01*
X138714761Y-52551335D01*
X139499879Y-52551335D01*
X140269910Y-52398166D01*
X140995264Y-52097715D01*
X141648065Y-51661527D01*
X142203227Y-51106365D01*
X142639415Y-50453564D01*
X142939866Y-49728210D01*
X143093035Y-48958179D01*
X143093035Y-48173061D01*
X142939866Y-47403030D01*
X142639415Y-46677676D01*
X142203227Y-46024875D01*
X141648065Y-45469713D01*
X140995264Y-45033525D01*
X140269910Y-44733074D01*
X139499879Y-44579905D01*
X138714761Y-44579905D01*
X137944730Y-44733074D01*
X137219376Y-45033525D01*
X136566575Y-45469713D01*
X136011413Y-46024875D01*
X135575225Y-46677676D01*
X135274774Y-47403030D01*
X135121605Y-48173061D01*
X125313035Y-48173061D01*
X125159866Y-47403030D01*
X124859415Y-46677676D01*
X124423227Y-46024875D01*
X123868065Y-45469713D01*
X123215264Y-45033525D01*
X122489910Y-44733074D01*
X121719879Y-44579905D01*
X120934761Y-44579905D01*
X120164730Y-44733074D01*
X119439376Y-45033525D01*
X118786575Y-45469713D01*
X118231413Y-46024875D01*
X117795225Y-46677676D01*
X117494774Y-47403030D01*
X117341605Y-48173061D01*
X115872320Y-48173061D01*
X115872320Y-25270620D01*
X122018422Y-25270620D01*
X121982728Y-25277720D01*
G04 #@! TA.AperFunction,NonConductor*
D11*
G36*
X121982728Y-25277720D02*
G01*
X121574320Y-25446888D01*
X121206763Y-25692481D01*
X120894181Y-26005063D01*
X120648588Y-26372620D01*
X120479420Y-26781028D01*
X120393178Y-27214591D01*
X120393178Y-27656649D01*
X120479420Y-28090212D01*
X120648588Y-28498620D01*
X120894181Y-28866177D01*
X121206763Y-29178759D01*
X121574320Y-29424352D01*
X121982728Y-29593520D01*
X122416291Y-29679762D01*
X122858349Y-29679762D01*
X123291912Y-29593520D01*
X123700320Y-29424352D01*
X124067877Y-29178759D01*
X124380459Y-28866177D01*
X124626052Y-28498620D01*
X124795220Y-28090212D01*
X124881462Y-27656649D01*
X124881462Y-27214591D01*
X124795220Y-26781028D01*
X124626052Y-26372620D01*
X124380459Y-26005063D01*
X124067877Y-25692481D01*
X123700320Y-25446888D01*
X123291912Y-25277720D01*
X123256218Y-25270620D01*
X144542320Y-25270620D01*
X144542321Y-152200620D01*
X115872320Y-152200620D01*
X115872320Y-149714591D01*
X120393178Y-149714591D01*
X120393178Y-150156649D01*
X120479420Y-150590212D01*
X120648588Y-150998620D01*
X120894181Y-151366177D01*
X121206763Y-151678759D01*
X121574320Y-151924352D01*
X121982728Y-152093520D01*
X122416291Y-152179762D01*
X122858349Y-152179762D01*
X123291912Y-152093520D01*
X123700320Y-151924352D01*
X124067877Y-151678759D01*
X124380459Y-151366177D01*
X124626052Y-150998620D01*
X124795220Y-150590212D01*
X124881462Y-150156649D01*
X124881462Y-149714591D01*
X124795220Y-149281028D01*
X124626052Y-148872620D01*
X124380459Y-148505063D01*
X124067877Y-148192481D01*
X123700320Y-147946888D01*
X123291912Y-147777720D01*
X122858349Y-147691478D01*
X122416291Y-147691478D01*
X121982728Y-147777720D01*
X121574320Y-147946888D01*
X121206763Y-148192481D01*
X120894181Y-148505063D01*
X120648588Y-148872620D01*
X120479420Y-149281028D01*
X120393178Y-149714591D01*
X115872320Y-149714591D01*
X115872320Y-129502070D01*
X117199198Y-129502070D01*
X117199198Y-130189170D01*
X117333244Y-130863068D01*
X117596186Y-131497866D01*
X117977918Y-132069168D01*
X118463772Y-132555022D01*
X119035074Y-132936754D01*
X119669872Y-133199696D01*
X120343770Y-133333742D01*
X121030870Y-133333742D01*
X121704768Y-133199696D01*
X122339566Y-132936754D01*
X122910868Y-132555022D01*
X123396722Y-132069168D01*
X123778454Y-131497866D01*
X124041396Y-130863068D01*
X124175442Y-130189170D01*
X124175442Y-129502070D01*
X126089199Y-129502070D01*
X126089199Y-130189170D01*
X126223245Y-130863068D01*
X126486187Y-131497865D01*
X126867919Y-132069168D01*
X127353772Y-132555021D01*
X127925075Y-132936753D01*
X128559872Y-133199695D01*
X129233770Y-133333741D01*
X129920870Y-133333741D01*
X130594768Y-133199695D01*
X131229565Y-132936753D01*
X131800868Y-132555021D01*
X132286721Y-132069168D01*
X132668453Y-131497865D01*
X132931395Y-130863068D01*
X133065441Y-130189170D01*
X133065441Y-129502070D01*
X132931395Y-128828172D01*
X132668453Y-128193375D01*
X132661562Y-128183061D01*
X135751605Y-128183061D01*
X135751605Y-128968179D01*
X135904774Y-129738210D01*
X136205225Y-130463564D01*
X136641413Y-131116365D01*
X137196575Y-131671527D01*
X137849376Y-132107715D01*
X138574730Y-132408166D01*
X139344761Y-132561335D01*
X140129879Y-132561335D01*
X140899910Y-132408166D01*
X141625264Y-132107715D01*
X142278065Y-131671527D01*
X142833227Y-131116365D01*
X143269415Y-130463564D01*
X143569866Y-129738210D01*
X143723035Y-128968179D01*
X143723035Y-128183061D01*
X143569866Y-127413030D01*
X143269415Y-126687676D01*
X142833227Y-126034875D01*
X142278065Y-125479713D01*
X141625264Y-125043525D01*
X140899910Y-124743074D01*
X140129879Y-124589905D01*
X139344761Y-124589905D01*
X138574730Y-124743074D01*
X137849376Y-125043525D01*
X137196575Y-125479713D01*
X136641413Y-126034875D01*
X136205225Y-126687676D01*
X135904774Y-127413030D01*
X135751605Y-128183061D01*
X132661562Y-128183061D01*
X132286721Y-127622072D01*
X131800868Y-127136219D01*
X131229565Y-126754487D01*
X130594768Y-126491545D01*
X129920870Y-126357499D01*
X129233770Y-126357499D01*
X128559872Y-126491545D01*
X127925075Y-126754487D01*
X127353772Y-127136219D01*
X126867919Y-127622072D01*
X126486187Y-128193375D01*
X126223245Y-128828172D01*
X126089199Y-129502070D01*
X124175442Y-129502070D01*
X124041396Y-128828172D01*
X123778454Y-128193374D01*
X123396722Y-127622072D01*
X122910868Y-127136218D01*
X122339566Y-126754486D01*
X121704768Y-126491544D01*
X121030870Y-126357498D01*
X120343770Y-126357498D01*
X119669872Y-126491544D01*
X119035074Y-126754486D01*
X118463772Y-127136218D01*
X117977918Y-127622072D01*
X117596186Y-128193374D01*
X117333244Y-128828172D01*
X117199198Y-129502070D01*
X115872320Y-129502070D01*
X115872320Y-88764053D01*
X133354013Y-88764053D01*
X133354013Y-89647187D01*
X133526304Y-90513352D01*
X133864265Y-91329262D01*
X134354908Y-92063562D01*
X134979378Y-92688032D01*
X135713678Y-93178675D01*
X136529588Y-93516636D01*
X137395753Y-93688927D01*
X138278887Y-93688927D01*
X139145052Y-93516636D01*
X139960962Y-93178675D01*
X140695262Y-92688032D01*
X141319732Y-92063562D01*
X141810375Y-91329262D01*
X142148336Y-90513352D01*
X142320627Y-89647187D01*
X142320627Y-88764053D01*
X142148336Y-87897888D01*
X141810375Y-87081978D01*
X141319732Y-86347678D01*
X140695262Y-85723208D01*
X139960962Y-85232565D01*
X139145052Y-84894604D01*
X138278887Y-84722313D01*
X137395753Y-84722313D01*
X136529588Y-84894604D01*
X135713678Y-85232565D01*
X134979378Y-85723208D01*
X134354908Y-86347678D01*
X133864265Y-87081978D01*
X133526304Y-87897888D01*
X133354013Y-88764053D01*
X115872320Y-88764053D01*
X115872320Y-74794053D01*
X118114013Y-74794053D01*
X118114013Y-75677187D01*
X118286304Y-76543352D01*
X118624265Y-77359262D01*
X119114908Y-78093562D01*
X119739378Y-78718032D01*
X120473678Y-79208675D01*
X121289588Y-79546636D01*
X122155753Y-79718927D01*
X123038887Y-79718927D01*
X123905052Y-79546636D01*
X124720962Y-79208675D01*
X125455262Y-78718032D01*
X126079732Y-78093562D01*
X126570375Y-77359262D01*
X126908336Y-76543352D01*
X127080627Y-75677187D01*
X127080627Y-74794053D01*
X133354013Y-74794053D01*
X133354013Y-75677187D01*
X133526304Y-76543352D01*
X133864265Y-77359262D01*
X134354908Y-78093562D01*
X134979378Y-78718032D01*
X135713678Y-79208675D01*
X136529588Y-79546636D01*
X137395753Y-79718927D01*
X138278887Y-79718927D01*
X139145052Y-79546636D01*
X139960962Y-79208675D01*
X140695262Y-78718032D01*
X141319732Y-78093562D01*
X141810375Y-77359262D01*
X142148336Y-76543352D01*
X142320627Y-75677187D01*
X142320627Y-74794053D01*
X142148336Y-73927888D01*
X141810375Y-73111978D01*
X141319732Y-72377678D01*
X140695262Y-71753208D01*
X139960962Y-71262565D01*
X139145052Y-70924604D01*
X138278887Y-70752313D01*
X137395753Y-70752313D01*
X136529588Y-70924604D01*
X135713678Y-71262565D01*
X134979378Y-71753208D01*
X134354908Y-72377678D01*
X133864265Y-73111978D01*
X133526304Y-73927888D01*
X133354013Y-74794053D01*
X127080627Y-74794053D01*
X126908336Y-73927888D01*
X126570375Y-73111978D01*
X126079732Y-72377678D01*
X125455262Y-71753208D01*
X124720962Y-71262565D01*
X123905052Y-70924604D01*
X123038887Y-70752313D01*
X122155753Y-70752313D01*
X121289588Y-70924604D01*
X120473678Y-71262565D01*
X119739378Y-71753208D01*
X119114908Y-72377678D01*
X118624265Y-73111978D01*
X118286304Y-73927888D01*
X118114013Y-74794053D01*
X115872320Y-74794053D01*
X115872320Y-48173061D01*
X117341605Y-48173061D01*
X117341605Y-48958179D01*
X117494774Y-49728210D01*
X117795225Y-50453564D01*
X118231413Y-51106365D01*
X118786575Y-51661527D01*
X119439376Y-52097715D01*
X120164730Y-52398166D01*
X120934761Y-52551335D01*
X121719879Y-52551335D01*
X122489910Y-52398166D01*
X123215264Y-52097715D01*
X123868065Y-51661527D01*
X124423227Y-51106365D01*
X124859415Y-50453564D01*
X125159866Y-49728210D01*
X125313035Y-48958179D01*
X125313035Y-48173061D01*
X135121605Y-48173061D01*
X135121605Y-48958179D01*
X135274774Y-49728210D01*
X135575225Y-50453564D01*
X136011413Y-51106365D01*
X136566575Y-51661527D01*
X137219376Y-52097715D01*
X137944730Y-52398166D01*
X138714761Y-52551335D01*
X139499879Y-52551335D01*
X140269910Y-52398166D01*
X140995264Y-52097715D01*
X141648065Y-51661527D01*
X142203227Y-51106365D01*
X142639415Y-50453564D01*
X142939866Y-49728210D01*
X143093035Y-48958179D01*
X143093035Y-48173061D01*
X142939866Y-47403030D01*
X142639415Y-46677676D01*
X142203227Y-46024875D01*
X141648065Y-45469713D01*
X140995264Y-45033525D01*
X140269910Y-44733074D01*
X139499879Y-44579905D01*
X138714761Y-44579905D01*
X137944730Y-44733074D01*
X137219376Y-45033525D01*
X136566575Y-45469713D01*
X136011413Y-46024875D01*
X135575225Y-46677676D01*
X135274774Y-47403030D01*
X135121605Y-48173061D01*
X125313035Y-48173061D01*
X125159866Y-47403030D01*
X124859415Y-46677676D01*
X124423227Y-46024875D01*
X123868065Y-45469713D01*
X123215264Y-45033525D01*
X122489910Y-44733074D01*
X121719879Y-44579905D01*
X120934761Y-44579905D01*
X120164730Y-44733074D01*
X119439376Y-45033525D01*
X118786575Y-45469713D01*
X118231413Y-46024875D01*
X117795225Y-46677676D01*
X117494774Y-47403030D01*
X117341605Y-48173061D01*
X115872320Y-48173061D01*
X115872320Y-25270620D01*
X122018422Y-25270620D01*
X121982728Y-25277720D01*
G37*
G04 #@! TD.AperFunction*
M02*
