G04 #@! TF.GenerationSoftware,KiCad,Pcbnew,5.1.7-a382d34a8~87~ubuntu18.04.1*
G04 #@! TF.CreationDate,2021-01-14T14:08:13+00:00*
G04 #@! TF.ProjectId,bad-trip-panel,6261642d-7472-4697-902d-70616e656c2e,rev?*
G04 #@! TF.SameCoordinates,Original*
G04 #@! TF.FileFunction,Legend,Bot*
G04 #@! TF.FilePolarity,Positive*
%FSLAX46Y46*%
G04 Gerber Fmt 4.6, Leading zero omitted, Abs format (unit mm)*
G04 Created by KiCad (PCBNEW 5.1.7-a382d34a8~87~ubuntu18.04.1) date 2021-01-14 14:08:13*
%MOMM*%
%LPD*%
G01*
G04 APERTURE LIST*
%ADD10C,0.150000*%
G04 APERTURE END LIST*
D10*
X116257390Y-95538185D02*
X116733580Y-95538185D01*
X115733580Y-95204852D02*
X116257390Y-95538185D01*
X115733580Y-95871519D01*
X116733580Y-96347709D02*
X116685961Y-96252471D01*
X116638342Y-96204852D01*
X116543104Y-96157233D01*
X116257390Y-96157233D01*
X116162152Y-96204852D01*
X116114533Y-96252471D01*
X116066914Y-96347709D01*
X116066914Y-96490566D01*
X116114533Y-96585804D01*
X116162152Y-96633423D01*
X116257390Y-96681042D01*
X116543104Y-96681042D01*
X116638342Y-96633423D01*
X116685961Y-96585804D01*
X116733580Y-96490566D01*
X116733580Y-96347709D01*
X116733580Y-97109614D02*
X116066914Y-97109614D01*
X116257390Y-97109614D02*
X116162152Y-97157233D01*
X116114533Y-97204852D01*
X116066914Y-97300090D01*
X116066914Y-97395328D01*
X116733580Y-97728661D02*
X115733580Y-97728661D01*
X116352628Y-97823900D02*
X116733580Y-98109614D01*
X116066914Y-98109614D02*
X116447866Y-97728661D01*
X116733580Y-99300090D02*
X115733580Y-99300090D01*
X116447866Y-99633423D01*
X115733580Y-99966757D01*
X116733580Y-99966757D01*
X116733580Y-100585804D02*
X116685961Y-100490566D01*
X116638342Y-100442947D01*
X116543104Y-100395328D01*
X116257390Y-100395328D01*
X116162152Y-100442947D01*
X116114533Y-100490566D01*
X116066914Y-100585804D01*
X116066914Y-100728661D01*
X116114533Y-100823900D01*
X116162152Y-100871519D01*
X116257390Y-100919138D01*
X116543104Y-100919138D01*
X116638342Y-100871519D01*
X116685961Y-100823900D01*
X116733580Y-100728661D01*
X116733580Y-100585804D01*
X116733580Y-101776280D02*
X115733580Y-101776280D01*
X116685961Y-101776280D02*
X116733580Y-101681042D01*
X116733580Y-101490566D01*
X116685961Y-101395328D01*
X116638342Y-101347709D01*
X116543104Y-101300090D01*
X116257390Y-101300090D01*
X116162152Y-101347709D01*
X116114533Y-101395328D01*
X116066914Y-101490566D01*
X116066914Y-101681042D01*
X116114533Y-101776280D01*
X116066914Y-102681042D02*
X116733580Y-102681042D01*
X116066914Y-102252471D02*
X116590723Y-102252471D01*
X116685961Y-102300090D01*
X116733580Y-102395328D01*
X116733580Y-102538185D01*
X116685961Y-102633423D01*
X116638342Y-102681042D01*
X116733580Y-103300090D02*
X116685961Y-103204852D01*
X116590723Y-103157233D01*
X115733580Y-103157233D01*
X116733580Y-104109614D02*
X116209771Y-104109614D01*
X116114533Y-104061995D01*
X116066914Y-103966757D01*
X116066914Y-103776280D01*
X116114533Y-103681042D01*
X116685961Y-104109614D02*
X116733580Y-104014376D01*
X116733580Y-103776280D01*
X116685961Y-103681042D01*
X116590723Y-103633423D01*
X116495485Y-103633423D01*
X116400247Y-103681042D01*
X116352628Y-103776280D01*
X116352628Y-104014376D01*
X116305009Y-104109614D01*
X116733580Y-104585804D02*
X116066914Y-104585804D01*
X116257390Y-104585804D02*
X116162152Y-104633423D01*
X116114533Y-104681042D01*
X116066914Y-104776280D01*
X116066914Y-104871519D01*
X115828819Y-105919138D02*
X115781200Y-105966757D01*
X115733580Y-106061995D01*
X115733580Y-106300090D01*
X115781200Y-106395328D01*
X115828819Y-106442947D01*
X115924057Y-106490566D01*
X116019295Y-106490566D01*
X116162152Y-106442947D01*
X116733580Y-105871519D01*
X116733580Y-106490566D01*
X115733580Y-107109614D02*
X115733580Y-107204852D01*
X115781200Y-107300090D01*
X115828819Y-107347709D01*
X115924057Y-107395328D01*
X116114533Y-107442947D01*
X116352628Y-107442947D01*
X116543104Y-107395328D01*
X116638342Y-107347709D01*
X116685961Y-107300090D01*
X116733580Y-107204852D01*
X116733580Y-107109614D01*
X116685961Y-107014376D01*
X116638342Y-106966757D01*
X116543104Y-106919138D01*
X116352628Y-106871519D01*
X116114533Y-106871519D01*
X115924057Y-106919138D01*
X115828819Y-106966757D01*
X115781200Y-107014376D01*
X115733580Y-107109614D01*
X115828819Y-107823900D02*
X115781200Y-107871519D01*
X115733580Y-107966757D01*
X115733580Y-108204852D01*
X115781200Y-108300090D01*
X115828819Y-108347709D01*
X115924057Y-108395328D01*
X116019295Y-108395328D01*
X116162152Y-108347709D01*
X116733580Y-107776280D01*
X116733580Y-108395328D01*
X115733580Y-109014376D02*
X115733580Y-109109614D01*
X115781200Y-109204852D01*
X115828819Y-109252471D01*
X115924057Y-109300090D01*
X116114533Y-109347709D01*
X116352628Y-109347709D01*
X116543104Y-109300090D01*
X116638342Y-109252471D01*
X116685961Y-109204852D01*
X116733580Y-109109614D01*
X116733580Y-109014376D01*
X116685961Y-108919138D01*
X116638342Y-108871519D01*
X116543104Y-108823900D01*
X116352628Y-108776280D01*
X116114533Y-108776280D01*
X115924057Y-108823900D01*
X115828819Y-108871519D01*
X115781200Y-108919138D01*
X115733580Y-109014376D01*
M02*
