G04 #@! TF.GenerationSoftware,KiCad,Pcbnew,5.1.7-a382d34a8~87~ubuntu18.04.1*
G04 #@! TF.CreationDate,2021-01-14T14:29:35+00:00*
G04 #@! TF.ProjectId,4hp-vco-panel,3468702d-7663-46f2-9d70-616e656c2e6b,rev?*
G04 #@! TF.SameCoordinates,Original*
G04 #@! TF.FileFunction,Legend,Bot*
G04 #@! TF.FilePolarity,Positive*
%FSLAX46Y46*%
G04 Gerber Fmt 4.6, Leading zero omitted, Abs format (unit mm)*
G04 Created by KiCad (PCBNEW 5.1.7-a382d34a8~87~ubuntu18.04.1) date 2021-01-14 14:29:35*
%MOMM*%
%LPD*%
G01*
G04 APERTURE LIST*
%ADD10C,0.500000*%
G04 APERTURE END LIST*
D10*
X99107333Y-116086380D02*
X99107333Y-117038761D01*
X99774000Y-115038761D02*
X99107333Y-116086380D01*
X98440666Y-115038761D01*
X97488285Y-117038761D02*
X97678761Y-116943523D01*
X97774000Y-116848285D01*
X97869238Y-116657809D01*
X97869238Y-116086380D01*
X97774000Y-115895904D01*
X97678761Y-115800666D01*
X97488285Y-115705428D01*
X97202571Y-115705428D01*
X97012095Y-115800666D01*
X96916857Y-115895904D01*
X96821619Y-116086380D01*
X96821619Y-116657809D01*
X96916857Y-116848285D01*
X97012095Y-116943523D01*
X97202571Y-117038761D01*
X97488285Y-117038761D01*
X95964476Y-117038761D02*
X95964476Y-115705428D01*
X95964476Y-116086380D02*
X95869238Y-115895904D01*
X95774000Y-115800666D01*
X95583523Y-115705428D01*
X95393047Y-115705428D01*
X94726380Y-117038761D02*
X94726380Y-115038761D01*
X94535904Y-116276857D02*
X93964476Y-117038761D01*
X93964476Y-115705428D02*
X94726380Y-116467333D01*
X102202571Y-120538761D02*
X102202571Y-118538761D01*
X101535904Y-119967333D01*
X100869238Y-118538761D01*
X100869238Y-120538761D01*
X99631142Y-120538761D02*
X99821619Y-120443523D01*
X99916857Y-120348285D01*
X100012095Y-120157809D01*
X100012095Y-119586380D01*
X99916857Y-119395904D01*
X99821619Y-119300666D01*
X99631142Y-119205428D01*
X99345428Y-119205428D01*
X99154952Y-119300666D01*
X99059714Y-119395904D01*
X98964476Y-119586380D01*
X98964476Y-120157809D01*
X99059714Y-120348285D01*
X99154952Y-120443523D01*
X99345428Y-120538761D01*
X99631142Y-120538761D01*
X97250190Y-120538761D02*
X97250190Y-118538761D01*
X97250190Y-120443523D02*
X97440666Y-120538761D01*
X97821619Y-120538761D01*
X98012095Y-120443523D01*
X98107333Y-120348285D01*
X98202571Y-120157809D01*
X98202571Y-119586380D01*
X98107333Y-119395904D01*
X98012095Y-119300666D01*
X97821619Y-119205428D01*
X97440666Y-119205428D01*
X97250190Y-119300666D01*
X95440666Y-119205428D02*
X95440666Y-120538761D01*
X96297809Y-119205428D02*
X96297809Y-120253047D01*
X96202571Y-120443523D01*
X96012095Y-120538761D01*
X95726380Y-120538761D01*
X95535904Y-120443523D01*
X95440666Y-120348285D01*
X94202571Y-120538761D02*
X94393047Y-120443523D01*
X94488285Y-120253047D01*
X94488285Y-118538761D01*
X92583523Y-120538761D02*
X92583523Y-119491142D01*
X92678761Y-119300666D01*
X92869238Y-119205428D01*
X93250190Y-119205428D01*
X93440666Y-119300666D01*
X92583523Y-120443523D02*
X92773999Y-120538761D01*
X93250190Y-120538761D01*
X93440666Y-120443523D01*
X93535904Y-120253047D01*
X93535904Y-120062571D01*
X93440666Y-119872095D01*
X93250190Y-119776857D01*
X92773999Y-119776857D01*
X92583523Y-119681619D01*
X91631142Y-120538761D02*
X91631142Y-119205428D01*
X91631142Y-119586380D02*
X91535904Y-119395904D01*
X91440666Y-119300666D01*
X91250190Y-119205428D01*
X91059714Y-119205428D01*
X100202571Y-122229238D02*
X100107333Y-122134000D01*
X99916857Y-122038761D01*
X99440666Y-122038761D01*
X99250190Y-122134000D01*
X99154952Y-122229238D01*
X99059714Y-122419714D01*
X99059714Y-122610190D01*
X99154952Y-122895904D01*
X100297809Y-124038761D01*
X99059714Y-124038761D01*
X97821619Y-122038761D02*
X97631142Y-122038761D01*
X97440666Y-122134000D01*
X97345428Y-122229238D01*
X97250190Y-122419714D01*
X97154952Y-122800666D01*
X97154952Y-123276857D01*
X97250190Y-123657809D01*
X97345428Y-123848285D01*
X97440666Y-123943523D01*
X97631142Y-124038761D01*
X97821619Y-124038761D01*
X98012095Y-123943523D01*
X98107333Y-123848285D01*
X98202571Y-123657809D01*
X98297809Y-123276857D01*
X98297809Y-122800666D01*
X98202571Y-122419714D01*
X98107333Y-122229238D01*
X98012095Y-122134000D01*
X97821619Y-122038761D01*
X96393047Y-122229238D02*
X96297809Y-122134000D01*
X96107333Y-122038761D01*
X95631142Y-122038761D01*
X95440666Y-122134000D01*
X95345428Y-122229238D01*
X95250190Y-122419714D01*
X95250190Y-122610190D01*
X95345428Y-122895904D01*
X96488285Y-124038761D01*
X95250190Y-124038761D01*
X94012095Y-122038761D02*
X93821619Y-122038761D01*
X93631142Y-122134000D01*
X93535904Y-122229238D01*
X93440666Y-122419714D01*
X93345428Y-122800666D01*
X93345428Y-123276857D01*
X93440666Y-123657809D01*
X93535904Y-123848285D01*
X93631142Y-123943523D01*
X93821619Y-124038761D01*
X94012095Y-124038761D01*
X94202571Y-123943523D01*
X94297809Y-123848285D01*
X94393047Y-123657809D01*
X94488285Y-123276857D01*
X94488285Y-122800666D01*
X94393047Y-122419714D01*
X94297809Y-122229238D01*
X94202571Y-122134000D01*
X94012095Y-122038761D01*
M02*
