G04 #@! TF.GenerationSoftware,KiCad,Pcbnew,5.1.7-a382d34a8~87~ubuntu18.04.1*
G04 #@! TF.CreationDate,2021-01-14T13:57:17+00:00*
G04 #@! TF.ProjectId,pmix-panel,706d6978-2d70-4616-9e65-6c2e6b696361,rev?*
G04 #@! TF.SameCoordinates,Original*
G04 #@! TF.FileFunction,Copper,L1,Top*
G04 #@! TF.FilePolarity,Positive*
%FSLAX46Y46*%
G04 Gerber Fmt 4.6, Leading zero omitted, Abs format (unit mm)*
G04 Created by KiCad (PCBNEW 5.1.7-a382d34a8~87~ubuntu18.04.1) date 2021-01-14 13:57:17*
%MOMM*%
%LPD*%
G01*
G04 APERTURE LIST*
G04 #@! TA.AperFunction,NonConductor*
%ADD10C,0.500000*%
G04 #@! TD*
G04 #@! TA.AperFunction,NonConductor*
%ADD11C,0.300000*%
G04 #@! TD*
G04 APERTURE END LIST*
D10*
X168472100Y-148167861D02*
X168853052Y-148167861D01*
X169043528Y-148263100D01*
X169234004Y-148453576D01*
X169329242Y-148834528D01*
X169329242Y-149501195D01*
X169234004Y-149882147D01*
X169043528Y-150072623D01*
X168853052Y-150167861D01*
X168472100Y-150167861D01*
X168281623Y-150072623D01*
X168091147Y-149882147D01*
X167995909Y-149501195D01*
X167995909Y-148834528D01*
X168091147Y-148453576D01*
X168281623Y-148263100D01*
X168472100Y-148167861D01*
X170186385Y-148167861D02*
X170186385Y-149786909D01*
X170281623Y-149977385D01*
X170376861Y-150072623D01*
X170567338Y-150167861D01*
X170948290Y-150167861D01*
X171138766Y-150072623D01*
X171234004Y-149977385D01*
X171329242Y-149786909D01*
X171329242Y-148167861D01*
X171995909Y-148167861D02*
X173138766Y-148167861D01*
X172567338Y-150167861D02*
X172567338Y-148167861D01*
D11*
X169894333Y-117243361D02*
X171132428Y-117243361D01*
X170465761Y-118005266D01*
X170751476Y-118005266D01*
X170941952Y-118100504D01*
X171037190Y-118195742D01*
X171132428Y-118386219D01*
X171132428Y-118862409D01*
X171037190Y-119052885D01*
X170941952Y-119148123D01*
X170751476Y-119243361D01*
X170180047Y-119243361D01*
X169989571Y-119148123D01*
X169894333Y-119052885D01*
X170091171Y-88503238D02*
X170186409Y-88408000D01*
X170376885Y-88312761D01*
X170853076Y-88312761D01*
X171043552Y-88408000D01*
X171138790Y-88503238D01*
X171234028Y-88693714D01*
X171234028Y-88884190D01*
X171138790Y-89169904D01*
X169995933Y-90312761D01*
X171234028Y-90312761D01*
X171335628Y-61001161D02*
X170192771Y-61001161D01*
X170764200Y-61001161D02*
X170764200Y-59001161D01*
X170573723Y-59286876D01*
X170383247Y-59477352D01*
X170192771Y-59572590D01*
D10*
X167440361Y-43051242D02*
X167440361Y-40051242D01*
X168202266Y-40051242D01*
X168392742Y-40194100D01*
X168487980Y-40336957D01*
X168583219Y-40622671D01*
X168583219Y-41051242D01*
X168487980Y-41336957D01*
X168392742Y-41479814D01*
X168202266Y-41622671D01*
X167440361Y-41622671D01*
X169440361Y-43051242D02*
X169440361Y-40051242D01*
X170107028Y-42194100D01*
X170773695Y-40051242D01*
X170773695Y-43051242D01*
X171726076Y-43051242D02*
X171726076Y-40051242D01*
X172487980Y-40051242D02*
X173821314Y-43051242D01*
X173821314Y-40051242D02*
X172487980Y-43051242D01*
M02*
