G04 #@! TF.GenerationSoftware,KiCad,Pcbnew,5.1.7-a382d34a8~87~ubuntu18.04.1*
G04 #@! TF.CreationDate,2021-01-14T13:57:17+00:00*
G04 #@! TF.ProjectId,pmix-panel,706d6978-2d70-4616-9e65-6c2e6b696361,rev?*
G04 #@! TF.SameCoordinates,Original*
G04 #@! TF.FileFunction,Soldermask,Top*
G04 #@! TF.FilePolarity,Negative*
%FSLAX46Y46*%
G04 Gerber Fmt 4.6, Leading zero omitted, Abs format (unit mm)*
G04 Created by KiCad (PCBNEW 5.1.7-a382d34a8~87~ubuntu18.04.1) date 2021-01-14 13:57:17*
%MOMM*%
%LPD*%
G01*
G04 APERTURE LIST*
%ADD10C,0.500000*%
%ADD11C,0.300000*%
G04 APERTURE END LIST*
D10*
X167440361Y-43063942D02*
X167440361Y-40063942D01*
X168202266Y-40063942D01*
X168392742Y-40206800D01*
X168487980Y-40349657D01*
X168583219Y-40635371D01*
X168583219Y-41063942D01*
X168487980Y-41349657D01*
X168392742Y-41492514D01*
X168202266Y-41635371D01*
X167440361Y-41635371D01*
X169440361Y-43063942D02*
X169440361Y-40063942D01*
X170107028Y-42206800D01*
X170773695Y-40063942D01*
X170773695Y-43063942D01*
X171726076Y-43063942D02*
X171726076Y-40063942D01*
X172487980Y-40063942D02*
X173821314Y-43063942D01*
X173821314Y-40063942D02*
X172487980Y-43063942D01*
D11*
X171335628Y-61013861D02*
X170192771Y-61013861D01*
X170764200Y-61013861D02*
X170764200Y-59013861D01*
X170573723Y-59299576D01*
X170383247Y-59490052D01*
X170192771Y-59585290D01*
X170091171Y-88515938D02*
X170186409Y-88420700D01*
X170376885Y-88325461D01*
X170853076Y-88325461D01*
X171043552Y-88420700D01*
X171138790Y-88515938D01*
X171234028Y-88706414D01*
X171234028Y-88896890D01*
X171138790Y-89182604D01*
X169995933Y-90325461D01*
X171234028Y-90325461D01*
X169894333Y-117243361D02*
X171132428Y-117243361D01*
X170465761Y-118005266D01*
X170751476Y-118005266D01*
X170941952Y-118100504D01*
X171037190Y-118195742D01*
X171132428Y-118386219D01*
X171132428Y-118862409D01*
X171037190Y-119052885D01*
X170941952Y-119148123D01*
X170751476Y-119243361D01*
X170180047Y-119243361D01*
X169989571Y-119148123D01*
X169894333Y-119052885D01*
D10*
X168484800Y-148180561D02*
X168865752Y-148180561D01*
X169056228Y-148275800D01*
X169246704Y-148466276D01*
X169341942Y-148847228D01*
X169341942Y-149513895D01*
X169246704Y-149894847D01*
X169056228Y-150085323D01*
X168865752Y-150180561D01*
X168484800Y-150180561D01*
X168294323Y-150085323D01*
X168103847Y-149894847D01*
X168008609Y-149513895D01*
X168008609Y-148847228D01*
X168103847Y-148466276D01*
X168294323Y-148275800D01*
X168484800Y-148180561D01*
X170199085Y-148180561D02*
X170199085Y-149799609D01*
X170294323Y-149990085D01*
X170389561Y-150085323D01*
X170580038Y-150180561D01*
X170960990Y-150180561D01*
X171151466Y-150085323D01*
X171246704Y-149990085D01*
X171341942Y-149799609D01*
X171341942Y-148180561D01*
X172008609Y-148180561D02*
X173151466Y-148180561D01*
X172580038Y-150180561D02*
X172580038Y-148180561D01*
X167440361Y-43063942D02*
X167440361Y-40063942D01*
X168202266Y-40063942D01*
X168392742Y-40206800D01*
X168487980Y-40349657D01*
X168583219Y-40635371D01*
X168583219Y-41063942D01*
X168487980Y-41349657D01*
X168392742Y-41492514D01*
X168202266Y-41635371D01*
X167440361Y-41635371D01*
X169440361Y-43063942D02*
X169440361Y-40063942D01*
X170107028Y-42206800D01*
X170773695Y-40063942D01*
X170773695Y-43063942D01*
X171726076Y-43063942D02*
X171726076Y-40063942D01*
X172487980Y-40063942D02*
X173821314Y-43063942D01*
X173821314Y-40063942D02*
X172487980Y-43063942D01*
D11*
X171335628Y-61013861D02*
X170192771Y-61013861D01*
X170764200Y-61013861D02*
X170764200Y-59013861D01*
X170573723Y-59299576D01*
X170383247Y-59490052D01*
X170192771Y-59585290D01*
X170091171Y-88515938D02*
X170186409Y-88420700D01*
X170376885Y-88325461D01*
X170853076Y-88325461D01*
X171043552Y-88420700D01*
X171138790Y-88515938D01*
X171234028Y-88706414D01*
X171234028Y-88896890D01*
X171138790Y-89182604D01*
X169995933Y-90325461D01*
X171234028Y-90325461D01*
X169894333Y-117243361D02*
X171132428Y-117243361D01*
X170465761Y-118005266D01*
X170751476Y-118005266D01*
X170941952Y-118100504D01*
X171037190Y-118195742D01*
X171132428Y-118386219D01*
X171132428Y-118862409D01*
X171037190Y-119052885D01*
X170941952Y-119148123D01*
X170751476Y-119243361D01*
X170180047Y-119243361D01*
X169989571Y-119148123D01*
X169894333Y-119052885D01*
D10*
X168484800Y-148180561D02*
X168865752Y-148180561D01*
X169056228Y-148275800D01*
X169246704Y-148466276D01*
X169341942Y-148847228D01*
X169341942Y-149513895D01*
X169246704Y-149894847D01*
X169056228Y-150085323D01*
X168865752Y-150180561D01*
X168484800Y-150180561D01*
X168294323Y-150085323D01*
X168103847Y-149894847D01*
X168008609Y-149513895D01*
X168008609Y-148847228D01*
X168103847Y-148466276D01*
X168294323Y-148275800D01*
X168484800Y-148180561D01*
X170199085Y-148180561D02*
X170199085Y-149799609D01*
X170294323Y-149990085D01*
X170389561Y-150085323D01*
X170580038Y-150180561D01*
X170960990Y-150180561D01*
X171151466Y-150085323D01*
X171246704Y-149990085D01*
X171341942Y-149799609D01*
X171341942Y-148180561D01*
X172008609Y-148180561D02*
X173151466Y-148180561D01*
X172580038Y-150180561D02*
X172580038Y-148180561D01*
M02*
