G04 #@! TF.GenerationSoftware,KiCad,Pcbnew,5.1.7-a382d34a8~87~ubuntu18.04.1*
G04 #@! TF.CreationDate,2021-01-14T14:36:13+00:00*
G04 #@! TF.ProjectId,2hp-mult-panel,3268702d-6d75-46c7-942d-70616e656c2e,rev?*
G04 #@! TF.SameCoordinates,Original*
G04 #@! TF.FileFunction,Soldermask,Top*
G04 #@! TF.FilePolarity,Negative*
%FSLAX46Y46*%
G04 Gerber Fmt 4.6, Leading zero omitted, Abs format (unit mm)*
G04 Created by KiCad (PCBNEW 5.1.7-a382d34a8~87~ubuntu18.04.1) date 2021-01-14 14:36:13*
%MOMM*%
%LPD*%
G01*
G04 APERTURE LIST*
%ADD10C,0.500000*%
G04 APERTURE END LIST*
D10*
X119650285Y-49109142D02*
X119650285Y-46109142D01*
X120316952Y-48252000D01*
X120983619Y-46109142D01*
X120983619Y-49109142D01*
X121936000Y-46109142D02*
X121936000Y-48537714D01*
X122031238Y-48823428D01*
X122126476Y-48966285D01*
X122316952Y-49109142D01*
X122697904Y-49109142D01*
X122888380Y-48966285D01*
X122983619Y-48823428D01*
X123078857Y-48537714D01*
X123078857Y-46109142D01*
X124983619Y-49109142D02*
X124031238Y-49109142D01*
X124031238Y-46109142D01*
X125364571Y-46109142D02*
X126507428Y-46109142D01*
X125936000Y-49109142D02*
X125936000Y-46109142D01*
X121634380Y-66182761D02*
X121634380Y-64182761D01*
X122586761Y-66182761D02*
X122586761Y-64182761D01*
X123729619Y-66182761D01*
X123729619Y-64182761D01*
X120682000Y-78152761D02*
X121062952Y-78152761D01*
X121253428Y-78248000D01*
X121443904Y-78438476D01*
X121539142Y-78819428D01*
X121539142Y-79486095D01*
X121443904Y-79867047D01*
X121253428Y-80057523D01*
X121062952Y-80152761D01*
X120682000Y-80152761D01*
X120491523Y-80057523D01*
X120301047Y-79867047D01*
X120205809Y-79486095D01*
X120205809Y-78819428D01*
X120301047Y-78438476D01*
X120491523Y-78248000D01*
X120682000Y-78152761D01*
X122396285Y-78152761D02*
X122396285Y-79771809D01*
X122491523Y-79962285D01*
X122586761Y-80057523D01*
X122777238Y-80152761D01*
X123158190Y-80152761D01*
X123348666Y-80057523D01*
X123443904Y-79962285D01*
X123539142Y-79771809D01*
X123539142Y-78152761D01*
X124205809Y-78152761D02*
X125348666Y-78152761D01*
X124777238Y-80152761D02*
X124777238Y-78152761D01*
X120682000Y-91868761D02*
X121062952Y-91868761D01*
X121253428Y-91964000D01*
X121443904Y-92154476D01*
X121539142Y-92535428D01*
X121539142Y-93202095D01*
X121443904Y-93583047D01*
X121253428Y-93773523D01*
X121062952Y-93868761D01*
X120682000Y-93868761D01*
X120491523Y-93773523D01*
X120301047Y-93583047D01*
X120205809Y-93202095D01*
X120205809Y-92535428D01*
X120301047Y-92154476D01*
X120491523Y-91964000D01*
X120682000Y-91868761D01*
X122396285Y-91868761D02*
X122396285Y-93487809D01*
X122491523Y-93678285D01*
X122586761Y-93773523D01*
X122777238Y-93868761D01*
X123158190Y-93868761D01*
X123348666Y-93773523D01*
X123443904Y-93678285D01*
X123539142Y-93487809D01*
X123539142Y-91868761D01*
X124205809Y-91868761D02*
X125348666Y-91868761D01*
X124777238Y-93868761D02*
X124777238Y-91868761D01*
X120682000Y-122348761D02*
X121062952Y-122348761D01*
X121253428Y-122444000D01*
X121443904Y-122634476D01*
X121539142Y-123015428D01*
X121539142Y-123682095D01*
X121443904Y-124063047D01*
X121253428Y-124253523D01*
X121062952Y-124348761D01*
X120682000Y-124348761D01*
X120491523Y-124253523D01*
X120301047Y-124063047D01*
X120205809Y-123682095D01*
X120205809Y-123015428D01*
X120301047Y-122634476D01*
X120491523Y-122444000D01*
X120682000Y-122348761D01*
X122396285Y-122348761D02*
X122396285Y-123967809D01*
X122491523Y-124158285D01*
X122586761Y-124253523D01*
X122777238Y-124348761D01*
X123158190Y-124348761D01*
X123348666Y-124253523D01*
X123443904Y-124158285D01*
X123539142Y-123967809D01*
X123539142Y-122348761D01*
X124205809Y-122348761D02*
X125348666Y-122348761D01*
X124777238Y-124348761D02*
X124777238Y-122348761D01*
X120682000Y-136572761D02*
X121062952Y-136572761D01*
X121253428Y-136668000D01*
X121443904Y-136858476D01*
X121539142Y-137239428D01*
X121539142Y-137906095D01*
X121443904Y-138287047D01*
X121253428Y-138477523D01*
X121062952Y-138572761D01*
X120682000Y-138572761D01*
X120491523Y-138477523D01*
X120301047Y-138287047D01*
X120205809Y-137906095D01*
X120205809Y-137239428D01*
X120301047Y-136858476D01*
X120491523Y-136668000D01*
X120682000Y-136572761D01*
X122396285Y-136572761D02*
X122396285Y-138191809D01*
X122491523Y-138382285D01*
X122586761Y-138477523D01*
X122777238Y-138572761D01*
X123158190Y-138572761D01*
X123348666Y-138477523D01*
X123443904Y-138382285D01*
X123539142Y-138191809D01*
X123539142Y-136572761D01*
X124205809Y-136572761D02*
X125348666Y-136572761D01*
X124777238Y-138572761D02*
X124777238Y-136572761D01*
X120682000Y-150288761D02*
X121062952Y-150288761D01*
X121253428Y-150384000D01*
X121443904Y-150574476D01*
X121539142Y-150955428D01*
X121539142Y-151622095D01*
X121443904Y-152003047D01*
X121253428Y-152193523D01*
X121062952Y-152288761D01*
X120682000Y-152288761D01*
X120491523Y-152193523D01*
X120301047Y-152003047D01*
X120205809Y-151622095D01*
X120205809Y-150955428D01*
X120301047Y-150574476D01*
X120491523Y-150384000D01*
X120682000Y-150288761D01*
X122396285Y-150288761D02*
X122396285Y-151907809D01*
X122491523Y-152098285D01*
X122586761Y-152193523D01*
X122777238Y-152288761D01*
X123158190Y-152288761D01*
X123348666Y-152193523D01*
X123443904Y-152098285D01*
X123539142Y-151907809D01*
X123539142Y-150288761D01*
X124205809Y-150288761D02*
X125348666Y-150288761D01*
X124777238Y-152288761D02*
X124777238Y-150288761D01*
X119650285Y-49109142D02*
X119650285Y-46109142D01*
X120316952Y-48252000D01*
X120983619Y-46109142D01*
X120983619Y-49109142D01*
X121936000Y-46109142D02*
X121936000Y-48537714D01*
X122031238Y-48823428D01*
X122126476Y-48966285D01*
X122316952Y-49109142D01*
X122697904Y-49109142D01*
X122888380Y-48966285D01*
X122983619Y-48823428D01*
X123078857Y-48537714D01*
X123078857Y-46109142D01*
X124983619Y-49109142D02*
X124031238Y-49109142D01*
X124031238Y-46109142D01*
X125364571Y-46109142D02*
X126507428Y-46109142D01*
X125936000Y-49109142D02*
X125936000Y-46109142D01*
X121634380Y-66182761D02*
X121634380Y-64182761D01*
X122586761Y-66182761D02*
X122586761Y-64182761D01*
X123729619Y-66182761D01*
X123729619Y-64182761D01*
X120682000Y-78152761D02*
X121062952Y-78152761D01*
X121253428Y-78248000D01*
X121443904Y-78438476D01*
X121539142Y-78819428D01*
X121539142Y-79486095D01*
X121443904Y-79867047D01*
X121253428Y-80057523D01*
X121062952Y-80152761D01*
X120682000Y-80152761D01*
X120491523Y-80057523D01*
X120301047Y-79867047D01*
X120205809Y-79486095D01*
X120205809Y-78819428D01*
X120301047Y-78438476D01*
X120491523Y-78248000D01*
X120682000Y-78152761D01*
X122396285Y-78152761D02*
X122396285Y-79771809D01*
X122491523Y-79962285D01*
X122586761Y-80057523D01*
X122777238Y-80152761D01*
X123158190Y-80152761D01*
X123348666Y-80057523D01*
X123443904Y-79962285D01*
X123539142Y-79771809D01*
X123539142Y-78152761D01*
X124205809Y-78152761D02*
X125348666Y-78152761D01*
X124777238Y-80152761D02*
X124777238Y-78152761D01*
X120682000Y-91868761D02*
X121062952Y-91868761D01*
X121253428Y-91964000D01*
X121443904Y-92154476D01*
X121539142Y-92535428D01*
X121539142Y-93202095D01*
X121443904Y-93583047D01*
X121253428Y-93773523D01*
X121062952Y-93868761D01*
X120682000Y-93868761D01*
X120491523Y-93773523D01*
X120301047Y-93583047D01*
X120205809Y-93202095D01*
X120205809Y-92535428D01*
X120301047Y-92154476D01*
X120491523Y-91964000D01*
X120682000Y-91868761D01*
X122396285Y-91868761D02*
X122396285Y-93487809D01*
X122491523Y-93678285D01*
X122586761Y-93773523D01*
X122777238Y-93868761D01*
X123158190Y-93868761D01*
X123348666Y-93773523D01*
X123443904Y-93678285D01*
X123539142Y-93487809D01*
X123539142Y-91868761D01*
X124205809Y-91868761D02*
X125348666Y-91868761D01*
X124777238Y-93868761D02*
X124777238Y-91868761D01*
X120682000Y-122348761D02*
X121062952Y-122348761D01*
X121253428Y-122444000D01*
X121443904Y-122634476D01*
X121539142Y-123015428D01*
X121539142Y-123682095D01*
X121443904Y-124063047D01*
X121253428Y-124253523D01*
X121062952Y-124348761D01*
X120682000Y-124348761D01*
X120491523Y-124253523D01*
X120301047Y-124063047D01*
X120205809Y-123682095D01*
X120205809Y-123015428D01*
X120301047Y-122634476D01*
X120491523Y-122444000D01*
X120682000Y-122348761D01*
X122396285Y-122348761D02*
X122396285Y-123967809D01*
X122491523Y-124158285D01*
X122586761Y-124253523D01*
X122777238Y-124348761D01*
X123158190Y-124348761D01*
X123348666Y-124253523D01*
X123443904Y-124158285D01*
X123539142Y-123967809D01*
X123539142Y-122348761D01*
X124205809Y-122348761D02*
X125348666Y-122348761D01*
X124777238Y-124348761D02*
X124777238Y-122348761D01*
X120682000Y-136572761D02*
X121062952Y-136572761D01*
X121253428Y-136668000D01*
X121443904Y-136858476D01*
X121539142Y-137239428D01*
X121539142Y-137906095D01*
X121443904Y-138287047D01*
X121253428Y-138477523D01*
X121062952Y-138572761D01*
X120682000Y-138572761D01*
X120491523Y-138477523D01*
X120301047Y-138287047D01*
X120205809Y-137906095D01*
X120205809Y-137239428D01*
X120301047Y-136858476D01*
X120491523Y-136668000D01*
X120682000Y-136572761D01*
X122396285Y-136572761D02*
X122396285Y-138191809D01*
X122491523Y-138382285D01*
X122586761Y-138477523D01*
X122777238Y-138572761D01*
X123158190Y-138572761D01*
X123348666Y-138477523D01*
X123443904Y-138382285D01*
X123539142Y-138191809D01*
X123539142Y-136572761D01*
X124205809Y-136572761D02*
X125348666Y-136572761D01*
X124777238Y-138572761D02*
X124777238Y-136572761D01*
X120682000Y-150288761D02*
X121062952Y-150288761D01*
X121253428Y-150384000D01*
X121443904Y-150574476D01*
X121539142Y-150955428D01*
X121539142Y-151622095D01*
X121443904Y-152003047D01*
X121253428Y-152193523D01*
X121062952Y-152288761D01*
X120682000Y-152288761D01*
X120491523Y-152193523D01*
X120301047Y-152003047D01*
X120205809Y-151622095D01*
X120205809Y-150955428D01*
X120301047Y-150574476D01*
X120491523Y-150384000D01*
X120682000Y-150288761D01*
X122396285Y-150288761D02*
X122396285Y-151907809D01*
X122491523Y-152098285D01*
X122586761Y-152193523D01*
X122777238Y-152288761D01*
X123158190Y-152288761D01*
X123348666Y-152193523D01*
X123443904Y-152098285D01*
X123539142Y-151907809D01*
X123539142Y-150288761D01*
X124205809Y-150288761D02*
X125348666Y-150288761D01*
X124777238Y-152288761D02*
X124777238Y-150288761D01*
M02*
