G04 #@! TF.GenerationSoftware,KiCad,Pcbnew,5.1.7-a382d34a8~87~ubuntu18.04.1*
G04 #@! TF.CreationDate,2021-01-14T14:18:25+00:00*
G04 #@! TF.ProjectId,divider-panel,64697669-6465-4722-9d70-616e656c2e6b,rev?*
G04 #@! TF.SameCoordinates,Original*
G04 #@! TF.FileFunction,Profile,NP*
%FSLAX46Y46*%
G04 Gerber Fmt 4.6, Leading zero omitted, Abs format (unit mm)*
G04 Created by KiCad (PCBNEW 5.1.7-a382d34a8~87~ubuntu18.04.1) date 2021-01-14 14:18:25*
%MOMM*%
%LPD*%
G01*
G04 APERTURE LIST*
G04 #@! TA.AperFunction,Profile*
%ADD10C,0.200000*%
G04 #@! TD*
G04 APERTURE END LIST*
D10*
X104931000Y-39370140D02*
X124911000Y-39370140D01*
X113931000Y-164770140D02*
G75*
G03*
X113931000Y-164770140I-1500000J0D01*
G01*
X113931000Y-42270140D02*
G75*
G03*
X113931000Y-42270140I-1500000J0D01*
G01*
X116681000Y-72465140D02*
G75*
G03*
X116681000Y-72465140I-3000000J0D01*
G01*
X116681000Y-81995140D02*
G75*
G03*
X116681000Y-81995140I-3000000J0D01*
G01*
X122421000Y-124555140D02*
G75*
G03*
X122421000Y-124555140I-1750000J0D01*
G01*
X116681000Y-99145140D02*
G75*
G03*
X116681000Y-99145140I-3000000J0D01*
G01*
X122421000Y-143615140D02*
G75*
G03*
X122421000Y-143615140I-1750000J0D01*
G01*
X116681000Y-146795140D02*
G75*
G03*
X116681000Y-146795140I-3000000J0D01*
G01*
X122421000Y-134085140D02*
G75*
G03*
X122421000Y-134085140I-1750000J0D01*
G01*
X116681000Y-118205140D02*
G75*
G03*
X116681000Y-118205140I-3000000J0D01*
G01*
X124911000Y-167770140D02*
X104931000Y-167770140D01*
X122421000Y-95966140D02*
G75*
G03*
X122421000Y-95966140I-1750000J0D01*
G01*
X116681000Y-137265140D02*
G75*
G03*
X116681000Y-137265140I-3000000J0D01*
G01*
X124911000Y-39370140D02*
X124911000Y-167770140D01*
X104931000Y-167770140D02*
X104931000Y-39370140D01*
X122421000Y-115025140D02*
G75*
G03*
X122421000Y-115025140I-1750000J0D01*
G01*
X122421000Y-105495140D02*
G75*
G03*
X122421000Y-105495140I-1750000J0D01*
G01*
X116681000Y-127735140D02*
G75*
G03*
X116681000Y-127735140I-3000000J0D01*
G01*
X116681000Y-108675140D02*
G75*
G03*
X116681000Y-108675140I-3000000J0D01*
G01*
M02*
