G04 #@! TF.GenerationSoftware,KiCad,Pcbnew,5.1.7-a382d34a8~87~ubuntu18.04.1*
G04 #@! TF.CreationDate,2021-01-14T14:18:25+00:00*
G04 #@! TF.ProjectId,divider-panel,64697669-6465-4722-9d70-616e656c2e6b,rev?*
G04 #@! TF.SameCoordinates,Original*
G04 #@! TF.FileFunction,Copper,L2,Bot*
G04 #@! TF.FilePolarity,Positive*
%FSLAX46Y46*%
G04 Gerber Fmt 4.6, Leading zero omitted, Abs format (unit mm)*
G04 Created by KiCad (PCBNEW 5.1.7-a382d34a8~87~ubuntu18.04.1) date 2021-01-14 14:18:25*
%MOMM*%
%LPD*%
G01*
G04 APERTURE LIST*
G04 #@! TA.AperFunction,NonConductor*
%ADD10C,0.254000*%
G04 #@! TD*
G04 #@! TA.AperFunction,NonConductor*
%ADD11C,0.100000*%
G04 #@! TD*
G04 APERTURE END LIST*
D10*
X111776408Y-40112240D02*
X111368000Y-40281408D01*
X111000443Y-40527001D01*
X110687861Y-40839583D01*
X110442268Y-41207140D01*
X110273100Y-41615548D01*
X110186858Y-42049111D01*
X110186858Y-42491169D01*
X110273100Y-42924732D01*
X110442268Y-43333140D01*
X110687861Y-43700697D01*
X111000443Y-44013279D01*
X111368000Y-44258872D01*
X111776408Y-44428040D01*
X112209971Y-44514282D01*
X112652029Y-44514282D01*
X113085592Y-44428040D01*
X113494000Y-44258872D01*
X113861557Y-44013279D01*
X114174139Y-43700697D01*
X114419732Y-43333140D01*
X114588900Y-42924732D01*
X114675142Y-42491169D01*
X114675142Y-42049111D01*
X114588900Y-41615548D01*
X114419732Y-41207140D01*
X114174139Y-40839583D01*
X113861557Y-40527001D01*
X113494000Y-40281408D01*
X113085592Y-40112240D01*
X113049898Y-40105140D01*
X124176000Y-40105140D01*
X124176001Y-167035140D01*
X105666000Y-167035140D01*
X105666000Y-164549111D01*
X110186858Y-164549111D01*
X110186858Y-164991169D01*
X110273100Y-165424732D01*
X110442268Y-165833140D01*
X110687861Y-166200697D01*
X111000443Y-166513279D01*
X111368000Y-166758872D01*
X111776408Y-166928040D01*
X112209971Y-167014282D01*
X112652029Y-167014282D01*
X113085592Y-166928040D01*
X113494000Y-166758872D01*
X113861557Y-166513279D01*
X114174139Y-166200697D01*
X114419732Y-165833140D01*
X114588900Y-165424732D01*
X114675142Y-164991169D01*
X114675142Y-164549111D01*
X114588900Y-164115548D01*
X114419732Y-163707140D01*
X114174139Y-163339583D01*
X113861557Y-163027001D01*
X113494000Y-162781408D01*
X113085592Y-162612240D01*
X112652029Y-162525998D01*
X112209971Y-162525998D01*
X111776408Y-162612240D01*
X111368000Y-162781408D01*
X111000443Y-163027001D01*
X110687861Y-163339583D01*
X110442268Y-163707140D01*
X110273100Y-164115548D01*
X110186858Y-164549111D01*
X105666000Y-164549111D01*
X105666000Y-146427086D01*
X109944081Y-146427086D01*
X109944081Y-147163194D01*
X110087689Y-147885159D01*
X110369386Y-148565235D01*
X110778346Y-149177287D01*
X111298853Y-149697794D01*
X111910905Y-150106754D01*
X112590981Y-150388451D01*
X113312946Y-150532059D01*
X114049054Y-150532059D01*
X114771019Y-150388451D01*
X115451095Y-150106754D01*
X116063147Y-149697794D01*
X116583654Y-149177287D01*
X116992614Y-148565235D01*
X117274311Y-147885159D01*
X117417919Y-147163194D01*
X117417919Y-146427086D01*
X117274311Y-145705121D01*
X116992614Y-145025045D01*
X116583654Y-144412993D01*
X116063147Y-143892486D01*
X115451095Y-143483526D01*
X115176071Y-143369607D01*
X118178062Y-143369607D01*
X118178062Y-143860673D01*
X118273864Y-144342303D01*
X118461787Y-144795989D01*
X118734609Y-145204295D01*
X119081845Y-145551531D01*
X119490151Y-145824353D01*
X119943837Y-146012276D01*
X120425467Y-146108078D01*
X120916533Y-146108078D01*
X121398163Y-146012276D01*
X121851849Y-145824353D01*
X122260155Y-145551531D01*
X122607391Y-145204295D01*
X122880213Y-144795989D01*
X123068136Y-144342303D01*
X123163938Y-143860673D01*
X123163938Y-143369607D01*
X123068136Y-142887977D01*
X122880213Y-142434291D01*
X122607391Y-142025985D01*
X122260155Y-141678749D01*
X121851849Y-141405927D01*
X121398163Y-141218004D01*
X120916533Y-141122202D01*
X120425467Y-141122202D01*
X119943837Y-141218004D01*
X119490151Y-141405927D01*
X119081845Y-141678749D01*
X118734609Y-142025985D01*
X118461787Y-142434291D01*
X118273864Y-142887977D01*
X118178062Y-143369607D01*
X115176071Y-143369607D01*
X114771019Y-143201829D01*
X114049054Y-143058221D01*
X113312946Y-143058221D01*
X112590981Y-143201829D01*
X111910905Y-143483526D01*
X111298853Y-143892486D01*
X110778346Y-144412993D01*
X110369386Y-145025045D01*
X110087689Y-145705121D01*
X109944081Y-146427086D01*
X105666000Y-146427086D01*
X105666000Y-136897086D01*
X109944081Y-136897086D01*
X109944081Y-137633194D01*
X110087689Y-138355159D01*
X110369386Y-139035235D01*
X110778346Y-139647287D01*
X111298853Y-140167794D01*
X111910905Y-140576754D01*
X112590981Y-140858451D01*
X113312946Y-141002059D01*
X114049054Y-141002059D01*
X114771019Y-140858451D01*
X115451095Y-140576754D01*
X116063147Y-140167794D01*
X116583654Y-139647287D01*
X116992614Y-139035235D01*
X117274311Y-138355159D01*
X117417919Y-137633194D01*
X117417919Y-136897086D01*
X117274311Y-136175121D01*
X116992614Y-135495045D01*
X116583654Y-134882993D01*
X116063147Y-134362486D01*
X115451095Y-133953526D01*
X115176071Y-133839607D01*
X118178062Y-133839607D01*
X118178062Y-134330673D01*
X118273864Y-134812303D01*
X118461787Y-135265989D01*
X118734609Y-135674295D01*
X119081845Y-136021531D01*
X119490151Y-136294353D01*
X119943837Y-136482276D01*
X120425467Y-136578078D01*
X120916533Y-136578078D01*
X121398163Y-136482276D01*
X121851849Y-136294353D01*
X122260155Y-136021531D01*
X122607391Y-135674295D01*
X122880213Y-135265989D01*
X123068136Y-134812303D01*
X123163938Y-134330673D01*
X123163938Y-133839607D01*
X123068136Y-133357977D01*
X122880213Y-132904291D01*
X122607391Y-132495985D01*
X122260155Y-132148749D01*
X121851849Y-131875927D01*
X121398163Y-131688004D01*
X120916533Y-131592202D01*
X120425467Y-131592202D01*
X119943837Y-131688004D01*
X119490151Y-131875927D01*
X119081845Y-132148749D01*
X118734609Y-132495985D01*
X118461787Y-132904291D01*
X118273864Y-133357977D01*
X118178062Y-133839607D01*
X115176071Y-133839607D01*
X114771019Y-133671829D01*
X114049054Y-133528221D01*
X113312946Y-133528221D01*
X112590981Y-133671829D01*
X111910905Y-133953526D01*
X111298853Y-134362486D01*
X110778346Y-134882993D01*
X110369386Y-135495045D01*
X110087689Y-136175121D01*
X109944081Y-136897086D01*
X105666000Y-136897086D01*
X105666000Y-127367086D01*
X109944081Y-127367086D01*
X109944081Y-128103194D01*
X110087689Y-128825159D01*
X110369386Y-129505235D01*
X110778346Y-130117287D01*
X111298853Y-130637794D01*
X111910905Y-131046754D01*
X112590981Y-131328451D01*
X113312946Y-131472059D01*
X114049054Y-131472059D01*
X114771019Y-131328451D01*
X115451095Y-131046754D01*
X116063147Y-130637794D01*
X116583654Y-130117287D01*
X116992614Y-129505235D01*
X117274311Y-128825159D01*
X117417919Y-128103194D01*
X117417919Y-127367086D01*
X117274311Y-126645121D01*
X116992614Y-125965045D01*
X116583654Y-125352993D01*
X116063147Y-124832486D01*
X115451095Y-124423526D01*
X115176071Y-124309607D01*
X118178062Y-124309607D01*
X118178062Y-124800673D01*
X118273864Y-125282303D01*
X118461787Y-125735989D01*
X118734609Y-126144295D01*
X119081845Y-126491531D01*
X119490151Y-126764353D01*
X119943837Y-126952276D01*
X120425467Y-127048078D01*
X120916533Y-127048078D01*
X121398163Y-126952276D01*
X121851849Y-126764353D01*
X122260155Y-126491531D01*
X122607391Y-126144295D01*
X122880213Y-125735989D01*
X123068136Y-125282303D01*
X123163938Y-124800673D01*
X123163938Y-124309607D01*
X123068136Y-123827977D01*
X122880213Y-123374291D01*
X122607391Y-122965985D01*
X122260155Y-122618749D01*
X121851849Y-122345927D01*
X121398163Y-122158004D01*
X120916533Y-122062202D01*
X120425467Y-122062202D01*
X119943837Y-122158004D01*
X119490151Y-122345927D01*
X119081845Y-122618749D01*
X118734609Y-122965985D01*
X118461787Y-123374291D01*
X118273864Y-123827977D01*
X118178062Y-124309607D01*
X115176071Y-124309607D01*
X114771019Y-124141829D01*
X114049054Y-123998221D01*
X113312946Y-123998221D01*
X112590981Y-124141829D01*
X111910905Y-124423526D01*
X111298853Y-124832486D01*
X110778346Y-125352993D01*
X110369386Y-125965045D01*
X110087689Y-126645121D01*
X109944081Y-127367086D01*
X105666000Y-127367086D01*
X105666000Y-117837086D01*
X109944081Y-117837086D01*
X109944081Y-118573194D01*
X110087689Y-119295159D01*
X110369386Y-119975235D01*
X110778346Y-120587287D01*
X111298853Y-121107794D01*
X111910905Y-121516754D01*
X112590981Y-121798451D01*
X113312946Y-121942059D01*
X114049054Y-121942059D01*
X114771019Y-121798451D01*
X115451095Y-121516754D01*
X116063147Y-121107794D01*
X116583654Y-120587287D01*
X116992614Y-119975235D01*
X117274311Y-119295159D01*
X117417919Y-118573194D01*
X117417919Y-117837086D01*
X117274311Y-117115121D01*
X116992614Y-116435045D01*
X116583654Y-115822993D01*
X116063147Y-115302486D01*
X115451095Y-114893526D01*
X115176071Y-114779607D01*
X118178062Y-114779607D01*
X118178062Y-115270673D01*
X118273864Y-115752303D01*
X118461787Y-116205989D01*
X118734609Y-116614295D01*
X119081845Y-116961531D01*
X119490151Y-117234353D01*
X119943837Y-117422276D01*
X120425467Y-117518078D01*
X120916533Y-117518078D01*
X121398163Y-117422276D01*
X121851849Y-117234353D01*
X122260155Y-116961531D01*
X122607391Y-116614295D01*
X122880213Y-116205989D01*
X123068136Y-115752303D01*
X123163938Y-115270673D01*
X123163938Y-114779607D01*
X123068136Y-114297977D01*
X122880213Y-113844291D01*
X122607391Y-113435985D01*
X122260155Y-113088749D01*
X121851849Y-112815927D01*
X121398163Y-112628004D01*
X120916533Y-112532202D01*
X120425467Y-112532202D01*
X119943837Y-112628004D01*
X119490151Y-112815927D01*
X119081845Y-113088749D01*
X118734609Y-113435985D01*
X118461787Y-113844291D01*
X118273864Y-114297977D01*
X118178062Y-114779607D01*
X115176071Y-114779607D01*
X114771019Y-114611829D01*
X114049054Y-114468221D01*
X113312946Y-114468221D01*
X112590981Y-114611829D01*
X111910905Y-114893526D01*
X111298853Y-115302486D01*
X110778346Y-115822993D01*
X110369386Y-116435045D01*
X110087689Y-117115121D01*
X109944081Y-117837086D01*
X105666000Y-117837086D01*
X105666000Y-108307086D01*
X109944081Y-108307086D01*
X109944081Y-109043194D01*
X110087689Y-109765159D01*
X110369386Y-110445235D01*
X110778346Y-111057287D01*
X111298853Y-111577794D01*
X111910905Y-111986754D01*
X112590981Y-112268451D01*
X113312946Y-112412059D01*
X114049054Y-112412059D01*
X114771019Y-112268451D01*
X115451095Y-111986754D01*
X116063147Y-111577794D01*
X116583654Y-111057287D01*
X116992614Y-110445235D01*
X117274311Y-109765159D01*
X117417919Y-109043194D01*
X117417919Y-108307086D01*
X117274311Y-107585121D01*
X116992614Y-106905045D01*
X116583654Y-106292993D01*
X116063147Y-105772486D01*
X115451095Y-105363526D01*
X115176071Y-105249607D01*
X118178062Y-105249607D01*
X118178062Y-105740673D01*
X118273864Y-106222303D01*
X118461787Y-106675989D01*
X118734609Y-107084295D01*
X119081845Y-107431531D01*
X119490151Y-107704353D01*
X119943837Y-107892276D01*
X120425467Y-107988078D01*
X120916533Y-107988078D01*
X121398163Y-107892276D01*
X121851849Y-107704353D01*
X122260155Y-107431531D01*
X122607391Y-107084295D01*
X122880213Y-106675989D01*
X123068136Y-106222303D01*
X123163938Y-105740673D01*
X123163938Y-105249607D01*
X123068136Y-104767977D01*
X122880213Y-104314291D01*
X122607391Y-103905985D01*
X122260155Y-103558749D01*
X121851849Y-103285927D01*
X121398163Y-103098004D01*
X120916533Y-103002202D01*
X120425467Y-103002202D01*
X119943837Y-103098004D01*
X119490151Y-103285927D01*
X119081845Y-103558749D01*
X118734609Y-103905985D01*
X118461787Y-104314291D01*
X118273864Y-104767977D01*
X118178062Y-105249607D01*
X115176071Y-105249607D01*
X114771019Y-105081829D01*
X114049054Y-104938221D01*
X113312946Y-104938221D01*
X112590981Y-105081829D01*
X111910905Y-105363526D01*
X111298853Y-105772486D01*
X110778346Y-106292993D01*
X110369386Y-106905045D01*
X110087689Y-107585121D01*
X109944081Y-108307086D01*
X105666000Y-108307086D01*
X105666000Y-98777086D01*
X109944081Y-98777086D01*
X109944081Y-99513194D01*
X110087689Y-100235159D01*
X110369386Y-100915235D01*
X110778346Y-101527287D01*
X111298853Y-102047794D01*
X111910905Y-102456754D01*
X112590981Y-102738451D01*
X113312946Y-102882059D01*
X114049054Y-102882059D01*
X114771019Y-102738451D01*
X115451095Y-102456754D01*
X116063147Y-102047794D01*
X116583654Y-101527287D01*
X116992614Y-100915235D01*
X117274311Y-100235159D01*
X117417919Y-99513194D01*
X117417919Y-98777086D01*
X117274311Y-98055121D01*
X116992614Y-97375045D01*
X116583654Y-96762993D01*
X116063147Y-96242486D01*
X115451095Y-95833526D01*
X115178485Y-95720607D01*
X118178062Y-95720607D01*
X118178062Y-96211673D01*
X118273864Y-96693303D01*
X118461787Y-97146989D01*
X118734609Y-97555295D01*
X119081845Y-97902531D01*
X119490151Y-98175353D01*
X119943837Y-98363276D01*
X120425467Y-98459078D01*
X120916533Y-98459078D01*
X121398163Y-98363276D01*
X121851849Y-98175353D01*
X122260155Y-97902531D01*
X122607391Y-97555295D01*
X122880213Y-97146989D01*
X123068136Y-96693303D01*
X123163938Y-96211673D01*
X123163938Y-95720607D01*
X123068136Y-95238977D01*
X122880213Y-94785291D01*
X122607391Y-94376985D01*
X122260155Y-94029749D01*
X121851849Y-93756927D01*
X121398163Y-93569004D01*
X120916533Y-93473202D01*
X120425467Y-93473202D01*
X119943837Y-93569004D01*
X119490151Y-93756927D01*
X119081845Y-94029749D01*
X118734609Y-94376985D01*
X118461787Y-94785291D01*
X118273864Y-95238977D01*
X118178062Y-95720607D01*
X115178485Y-95720607D01*
X114771019Y-95551829D01*
X114049054Y-95408221D01*
X113312946Y-95408221D01*
X112590981Y-95551829D01*
X111910905Y-95833526D01*
X111298853Y-96242486D01*
X110778346Y-96762993D01*
X110369386Y-97375045D01*
X110087689Y-98055121D01*
X109944081Y-98777086D01*
X105666000Y-98777086D01*
X105666000Y-81627086D01*
X109944081Y-81627086D01*
X109944081Y-82363194D01*
X110087689Y-83085159D01*
X110369386Y-83765235D01*
X110778346Y-84377287D01*
X111298853Y-84897794D01*
X111910905Y-85306754D01*
X112590981Y-85588451D01*
X113312946Y-85732059D01*
X114049054Y-85732059D01*
X114771019Y-85588451D01*
X115451095Y-85306754D01*
X116063147Y-84897794D01*
X116583654Y-84377287D01*
X116992614Y-83765235D01*
X117274311Y-83085159D01*
X117417919Y-82363194D01*
X117417919Y-81627086D01*
X117274311Y-80905121D01*
X116992614Y-80225045D01*
X116583654Y-79612993D01*
X116063147Y-79092486D01*
X115451095Y-78683526D01*
X114771019Y-78401829D01*
X114049054Y-78258221D01*
X113312946Y-78258221D01*
X112590981Y-78401829D01*
X111910905Y-78683526D01*
X111298853Y-79092486D01*
X110778346Y-79612993D01*
X110369386Y-80225045D01*
X110087689Y-80905121D01*
X109944081Y-81627086D01*
X105666000Y-81627086D01*
X105666000Y-72097086D01*
X109944081Y-72097086D01*
X109944081Y-72833194D01*
X110087689Y-73555159D01*
X110369386Y-74235235D01*
X110778346Y-74847287D01*
X111298853Y-75367794D01*
X111910905Y-75776754D01*
X112590981Y-76058451D01*
X113312946Y-76202059D01*
X114049054Y-76202059D01*
X114771019Y-76058451D01*
X115451095Y-75776754D01*
X116063147Y-75367794D01*
X116583654Y-74847287D01*
X116992614Y-74235235D01*
X117274311Y-73555159D01*
X117417919Y-72833194D01*
X117417919Y-72097086D01*
X117274311Y-71375121D01*
X116992614Y-70695045D01*
X116583654Y-70082993D01*
X116063147Y-69562486D01*
X115451095Y-69153526D01*
X114771019Y-68871829D01*
X114049054Y-68728221D01*
X113312946Y-68728221D01*
X112590981Y-68871829D01*
X111910905Y-69153526D01*
X111298853Y-69562486D01*
X110778346Y-70082993D01*
X110369386Y-70695045D01*
X110087689Y-71375121D01*
X109944081Y-72097086D01*
X105666000Y-72097086D01*
X105666000Y-40105140D01*
X111812102Y-40105140D01*
X111776408Y-40112240D01*
G04 #@! TA.AperFunction,NonConductor*
D11*
G36*
X111776408Y-40112240D02*
G01*
X111368000Y-40281408D01*
X111000443Y-40527001D01*
X110687861Y-40839583D01*
X110442268Y-41207140D01*
X110273100Y-41615548D01*
X110186858Y-42049111D01*
X110186858Y-42491169D01*
X110273100Y-42924732D01*
X110442268Y-43333140D01*
X110687861Y-43700697D01*
X111000443Y-44013279D01*
X111368000Y-44258872D01*
X111776408Y-44428040D01*
X112209971Y-44514282D01*
X112652029Y-44514282D01*
X113085592Y-44428040D01*
X113494000Y-44258872D01*
X113861557Y-44013279D01*
X114174139Y-43700697D01*
X114419732Y-43333140D01*
X114588900Y-42924732D01*
X114675142Y-42491169D01*
X114675142Y-42049111D01*
X114588900Y-41615548D01*
X114419732Y-41207140D01*
X114174139Y-40839583D01*
X113861557Y-40527001D01*
X113494000Y-40281408D01*
X113085592Y-40112240D01*
X113049898Y-40105140D01*
X124176000Y-40105140D01*
X124176001Y-167035140D01*
X105666000Y-167035140D01*
X105666000Y-164549111D01*
X110186858Y-164549111D01*
X110186858Y-164991169D01*
X110273100Y-165424732D01*
X110442268Y-165833140D01*
X110687861Y-166200697D01*
X111000443Y-166513279D01*
X111368000Y-166758872D01*
X111776408Y-166928040D01*
X112209971Y-167014282D01*
X112652029Y-167014282D01*
X113085592Y-166928040D01*
X113494000Y-166758872D01*
X113861557Y-166513279D01*
X114174139Y-166200697D01*
X114419732Y-165833140D01*
X114588900Y-165424732D01*
X114675142Y-164991169D01*
X114675142Y-164549111D01*
X114588900Y-164115548D01*
X114419732Y-163707140D01*
X114174139Y-163339583D01*
X113861557Y-163027001D01*
X113494000Y-162781408D01*
X113085592Y-162612240D01*
X112652029Y-162525998D01*
X112209971Y-162525998D01*
X111776408Y-162612240D01*
X111368000Y-162781408D01*
X111000443Y-163027001D01*
X110687861Y-163339583D01*
X110442268Y-163707140D01*
X110273100Y-164115548D01*
X110186858Y-164549111D01*
X105666000Y-164549111D01*
X105666000Y-146427086D01*
X109944081Y-146427086D01*
X109944081Y-147163194D01*
X110087689Y-147885159D01*
X110369386Y-148565235D01*
X110778346Y-149177287D01*
X111298853Y-149697794D01*
X111910905Y-150106754D01*
X112590981Y-150388451D01*
X113312946Y-150532059D01*
X114049054Y-150532059D01*
X114771019Y-150388451D01*
X115451095Y-150106754D01*
X116063147Y-149697794D01*
X116583654Y-149177287D01*
X116992614Y-148565235D01*
X117274311Y-147885159D01*
X117417919Y-147163194D01*
X117417919Y-146427086D01*
X117274311Y-145705121D01*
X116992614Y-145025045D01*
X116583654Y-144412993D01*
X116063147Y-143892486D01*
X115451095Y-143483526D01*
X115176071Y-143369607D01*
X118178062Y-143369607D01*
X118178062Y-143860673D01*
X118273864Y-144342303D01*
X118461787Y-144795989D01*
X118734609Y-145204295D01*
X119081845Y-145551531D01*
X119490151Y-145824353D01*
X119943837Y-146012276D01*
X120425467Y-146108078D01*
X120916533Y-146108078D01*
X121398163Y-146012276D01*
X121851849Y-145824353D01*
X122260155Y-145551531D01*
X122607391Y-145204295D01*
X122880213Y-144795989D01*
X123068136Y-144342303D01*
X123163938Y-143860673D01*
X123163938Y-143369607D01*
X123068136Y-142887977D01*
X122880213Y-142434291D01*
X122607391Y-142025985D01*
X122260155Y-141678749D01*
X121851849Y-141405927D01*
X121398163Y-141218004D01*
X120916533Y-141122202D01*
X120425467Y-141122202D01*
X119943837Y-141218004D01*
X119490151Y-141405927D01*
X119081845Y-141678749D01*
X118734609Y-142025985D01*
X118461787Y-142434291D01*
X118273864Y-142887977D01*
X118178062Y-143369607D01*
X115176071Y-143369607D01*
X114771019Y-143201829D01*
X114049054Y-143058221D01*
X113312946Y-143058221D01*
X112590981Y-143201829D01*
X111910905Y-143483526D01*
X111298853Y-143892486D01*
X110778346Y-144412993D01*
X110369386Y-145025045D01*
X110087689Y-145705121D01*
X109944081Y-146427086D01*
X105666000Y-146427086D01*
X105666000Y-136897086D01*
X109944081Y-136897086D01*
X109944081Y-137633194D01*
X110087689Y-138355159D01*
X110369386Y-139035235D01*
X110778346Y-139647287D01*
X111298853Y-140167794D01*
X111910905Y-140576754D01*
X112590981Y-140858451D01*
X113312946Y-141002059D01*
X114049054Y-141002059D01*
X114771019Y-140858451D01*
X115451095Y-140576754D01*
X116063147Y-140167794D01*
X116583654Y-139647287D01*
X116992614Y-139035235D01*
X117274311Y-138355159D01*
X117417919Y-137633194D01*
X117417919Y-136897086D01*
X117274311Y-136175121D01*
X116992614Y-135495045D01*
X116583654Y-134882993D01*
X116063147Y-134362486D01*
X115451095Y-133953526D01*
X115176071Y-133839607D01*
X118178062Y-133839607D01*
X118178062Y-134330673D01*
X118273864Y-134812303D01*
X118461787Y-135265989D01*
X118734609Y-135674295D01*
X119081845Y-136021531D01*
X119490151Y-136294353D01*
X119943837Y-136482276D01*
X120425467Y-136578078D01*
X120916533Y-136578078D01*
X121398163Y-136482276D01*
X121851849Y-136294353D01*
X122260155Y-136021531D01*
X122607391Y-135674295D01*
X122880213Y-135265989D01*
X123068136Y-134812303D01*
X123163938Y-134330673D01*
X123163938Y-133839607D01*
X123068136Y-133357977D01*
X122880213Y-132904291D01*
X122607391Y-132495985D01*
X122260155Y-132148749D01*
X121851849Y-131875927D01*
X121398163Y-131688004D01*
X120916533Y-131592202D01*
X120425467Y-131592202D01*
X119943837Y-131688004D01*
X119490151Y-131875927D01*
X119081845Y-132148749D01*
X118734609Y-132495985D01*
X118461787Y-132904291D01*
X118273864Y-133357977D01*
X118178062Y-133839607D01*
X115176071Y-133839607D01*
X114771019Y-133671829D01*
X114049054Y-133528221D01*
X113312946Y-133528221D01*
X112590981Y-133671829D01*
X111910905Y-133953526D01*
X111298853Y-134362486D01*
X110778346Y-134882993D01*
X110369386Y-135495045D01*
X110087689Y-136175121D01*
X109944081Y-136897086D01*
X105666000Y-136897086D01*
X105666000Y-127367086D01*
X109944081Y-127367086D01*
X109944081Y-128103194D01*
X110087689Y-128825159D01*
X110369386Y-129505235D01*
X110778346Y-130117287D01*
X111298853Y-130637794D01*
X111910905Y-131046754D01*
X112590981Y-131328451D01*
X113312946Y-131472059D01*
X114049054Y-131472059D01*
X114771019Y-131328451D01*
X115451095Y-131046754D01*
X116063147Y-130637794D01*
X116583654Y-130117287D01*
X116992614Y-129505235D01*
X117274311Y-128825159D01*
X117417919Y-128103194D01*
X117417919Y-127367086D01*
X117274311Y-126645121D01*
X116992614Y-125965045D01*
X116583654Y-125352993D01*
X116063147Y-124832486D01*
X115451095Y-124423526D01*
X115176071Y-124309607D01*
X118178062Y-124309607D01*
X118178062Y-124800673D01*
X118273864Y-125282303D01*
X118461787Y-125735989D01*
X118734609Y-126144295D01*
X119081845Y-126491531D01*
X119490151Y-126764353D01*
X119943837Y-126952276D01*
X120425467Y-127048078D01*
X120916533Y-127048078D01*
X121398163Y-126952276D01*
X121851849Y-126764353D01*
X122260155Y-126491531D01*
X122607391Y-126144295D01*
X122880213Y-125735989D01*
X123068136Y-125282303D01*
X123163938Y-124800673D01*
X123163938Y-124309607D01*
X123068136Y-123827977D01*
X122880213Y-123374291D01*
X122607391Y-122965985D01*
X122260155Y-122618749D01*
X121851849Y-122345927D01*
X121398163Y-122158004D01*
X120916533Y-122062202D01*
X120425467Y-122062202D01*
X119943837Y-122158004D01*
X119490151Y-122345927D01*
X119081845Y-122618749D01*
X118734609Y-122965985D01*
X118461787Y-123374291D01*
X118273864Y-123827977D01*
X118178062Y-124309607D01*
X115176071Y-124309607D01*
X114771019Y-124141829D01*
X114049054Y-123998221D01*
X113312946Y-123998221D01*
X112590981Y-124141829D01*
X111910905Y-124423526D01*
X111298853Y-124832486D01*
X110778346Y-125352993D01*
X110369386Y-125965045D01*
X110087689Y-126645121D01*
X109944081Y-127367086D01*
X105666000Y-127367086D01*
X105666000Y-117837086D01*
X109944081Y-117837086D01*
X109944081Y-118573194D01*
X110087689Y-119295159D01*
X110369386Y-119975235D01*
X110778346Y-120587287D01*
X111298853Y-121107794D01*
X111910905Y-121516754D01*
X112590981Y-121798451D01*
X113312946Y-121942059D01*
X114049054Y-121942059D01*
X114771019Y-121798451D01*
X115451095Y-121516754D01*
X116063147Y-121107794D01*
X116583654Y-120587287D01*
X116992614Y-119975235D01*
X117274311Y-119295159D01*
X117417919Y-118573194D01*
X117417919Y-117837086D01*
X117274311Y-117115121D01*
X116992614Y-116435045D01*
X116583654Y-115822993D01*
X116063147Y-115302486D01*
X115451095Y-114893526D01*
X115176071Y-114779607D01*
X118178062Y-114779607D01*
X118178062Y-115270673D01*
X118273864Y-115752303D01*
X118461787Y-116205989D01*
X118734609Y-116614295D01*
X119081845Y-116961531D01*
X119490151Y-117234353D01*
X119943837Y-117422276D01*
X120425467Y-117518078D01*
X120916533Y-117518078D01*
X121398163Y-117422276D01*
X121851849Y-117234353D01*
X122260155Y-116961531D01*
X122607391Y-116614295D01*
X122880213Y-116205989D01*
X123068136Y-115752303D01*
X123163938Y-115270673D01*
X123163938Y-114779607D01*
X123068136Y-114297977D01*
X122880213Y-113844291D01*
X122607391Y-113435985D01*
X122260155Y-113088749D01*
X121851849Y-112815927D01*
X121398163Y-112628004D01*
X120916533Y-112532202D01*
X120425467Y-112532202D01*
X119943837Y-112628004D01*
X119490151Y-112815927D01*
X119081845Y-113088749D01*
X118734609Y-113435985D01*
X118461787Y-113844291D01*
X118273864Y-114297977D01*
X118178062Y-114779607D01*
X115176071Y-114779607D01*
X114771019Y-114611829D01*
X114049054Y-114468221D01*
X113312946Y-114468221D01*
X112590981Y-114611829D01*
X111910905Y-114893526D01*
X111298853Y-115302486D01*
X110778346Y-115822993D01*
X110369386Y-116435045D01*
X110087689Y-117115121D01*
X109944081Y-117837086D01*
X105666000Y-117837086D01*
X105666000Y-108307086D01*
X109944081Y-108307086D01*
X109944081Y-109043194D01*
X110087689Y-109765159D01*
X110369386Y-110445235D01*
X110778346Y-111057287D01*
X111298853Y-111577794D01*
X111910905Y-111986754D01*
X112590981Y-112268451D01*
X113312946Y-112412059D01*
X114049054Y-112412059D01*
X114771019Y-112268451D01*
X115451095Y-111986754D01*
X116063147Y-111577794D01*
X116583654Y-111057287D01*
X116992614Y-110445235D01*
X117274311Y-109765159D01*
X117417919Y-109043194D01*
X117417919Y-108307086D01*
X117274311Y-107585121D01*
X116992614Y-106905045D01*
X116583654Y-106292993D01*
X116063147Y-105772486D01*
X115451095Y-105363526D01*
X115176071Y-105249607D01*
X118178062Y-105249607D01*
X118178062Y-105740673D01*
X118273864Y-106222303D01*
X118461787Y-106675989D01*
X118734609Y-107084295D01*
X119081845Y-107431531D01*
X119490151Y-107704353D01*
X119943837Y-107892276D01*
X120425467Y-107988078D01*
X120916533Y-107988078D01*
X121398163Y-107892276D01*
X121851849Y-107704353D01*
X122260155Y-107431531D01*
X122607391Y-107084295D01*
X122880213Y-106675989D01*
X123068136Y-106222303D01*
X123163938Y-105740673D01*
X123163938Y-105249607D01*
X123068136Y-104767977D01*
X122880213Y-104314291D01*
X122607391Y-103905985D01*
X122260155Y-103558749D01*
X121851849Y-103285927D01*
X121398163Y-103098004D01*
X120916533Y-103002202D01*
X120425467Y-103002202D01*
X119943837Y-103098004D01*
X119490151Y-103285927D01*
X119081845Y-103558749D01*
X118734609Y-103905985D01*
X118461787Y-104314291D01*
X118273864Y-104767977D01*
X118178062Y-105249607D01*
X115176071Y-105249607D01*
X114771019Y-105081829D01*
X114049054Y-104938221D01*
X113312946Y-104938221D01*
X112590981Y-105081829D01*
X111910905Y-105363526D01*
X111298853Y-105772486D01*
X110778346Y-106292993D01*
X110369386Y-106905045D01*
X110087689Y-107585121D01*
X109944081Y-108307086D01*
X105666000Y-108307086D01*
X105666000Y-98777086D01*
X109944081Y-98777086D01*
X109944081Y-99513194D01*
X110087689Y-100235159D01*
X110369386Y-100915235D01*
X110778346Y-101527287D01*
X111298853Y-102047794D01*
X111910905Y-102456754D01*
X112590981Y-102738451D01*
X113312946Y-102882059D01*
X114049054Y-102882059D01*
X114771019Y-102738451D01*
X115451095Y-102456754D01*
X116063147Y-102047794D01*
X116583654Y-101527287D01*
X116992614Y-100915235D01*
X117274311Y-100235159D01*
X117417919Y-99513194D01*
X117417919Y-98777086D01*
X117274311Y-98055121D01*
X116992614Y-97375045D01*
X116583654Y-96762993D01*
X116063147Y-96242486D01*
X115451095Y-95833526D01*
X115178485Y-95720607D01*
X118178062Y-95720607D01*
X118178062Y-96211673D01*
X118273864Y-96693303D01*
X118461787Y-97146989D01*
X118734609Y-97555295D01*
X119081845Y-97902531D01*
X119490151Y-98175353D01*
X119943837Y-98363276D01*
X120425467Y-98459078D01*
X120916533Y-98459078D01*
X121398163Y-98363276D01*
X121851849Y-98175353D01*
X122260155Y-97902531D01*
X122607391Y-97555295D01*
X122880213Y-97146989D01*
X123068136Y-96693303D01*
X123163938Y-96211673D01*
X123163938Y-95720607D01*
X123068136Y-95238977D01*
X122880213Y-94785291D01*
X122607391Y-94376985D01*
X122260155Y-94029749D01*
X121851849Y-93756927D01*
X121398163Y-93569004D01*
X120916533Y-93473202D01*
X120425467Y-93473202D01*
X119943837Y-93569004D01*
X119490151Y-93756927D01*
X119081845Y-94029749D01*
X118734609Y-94376985D01*
X118461787Y-94785291D01*
X118273864Y-95238977D01*
X118178062Y-95720607D01*
X115178485Y-95720607D01*
X114771019Y-95551829D01*
X114049054Y-95408221D01*
X113312946Y-95408221D01*
X112590981Y-95551829D01*
X111910905Y-95833526D01*
X111298853Y-96242486D01*
X110778346Y-96762993D01*
X110369386Y-97375045D01*
X110087689Y-98055121D01*
X109944081Y-98777086D01*
X105666000Y-98777086D01*
X105666000Y-81627086D01*
X109944081Y-81627086D01*
X109944081Y-82363194D01*
X110087689Y-83085159D01*
X110369386Y-83765235D01*
X110778346Y-84377287D01*
X111298853Y-84897794D01*
X111910905Y-85306754D01*
X112590981Y-85588451D01*
X113312946Y-85732059D01*
X114049054Y-85732059D01*
X114771019Y-85588451D01*
X115451095Y-85306754D01*
X116063147Y-84897794D01*
X116583654Y-84377287D01*
X116992614Y-83765235D01*
X117274311Y-83085159D01*
X117417919Y-82363194D01*
X117417919Y-81627086D01*
X117274311Y-80905121D01*
X116992614Y-80225045D01*
X116583654Y-79612993D01*
X116063147Y-79092486D01*
X115451095Y-78683526D01*
X114771019Y-78401829D01*
X114049054Y-78258221D01*
X113312946Y-78258221D01*
X112590981Y-78401829D01*
X111910905Y-78683526D01*
X111298853Y-79092486D01*
X110778346Y-79612993D01*
X110369386Y-80225045D01*
X110087689Y-80905121D01*
X109944081Y-81627086D01*
X105666000Y-81627086D01*
X105666000Y-72097086D01*
X109944081Y-72097086D01*
X109944081Y-72833194D01*
X110087689Y-73555159D01*
X110369386Y-74235235D01*
X110778346Y-74847287D01*
X111298853Y-75367794D01*
X111910905Y-75776754D01*
X112590981Y-76058451D01*
X113312946Y-76202059D01*
X114049054Y-76202059D01*
X114771019Y-76058451D01*
X115451095Y-75776754D01*
X116063147Y-75367794D01*
X116583654Y-74847287D01*
X116992614Y-74235235D01*
X117274311Y-73555159D01*
X117417919Y-72833194D01*
X117417919Y-72097086D01*
X117274311Y-71375121D01*
X116992614Y-70695045D01*
X116583654Y-70082993D01*
X116063147Y-69562486D01*
X115451095Y-69153526D01*
X114771019Y-68871829D01*
X114049054Y-68728221D01*
X113312946Y-68728221D01*
X112590981Y-68871829D01*
X111910905Y-69153526D01*
X111298853Y-69562486D01*
X110778346Y-70082993D01*
X110369386Y-70695045D01*
X110087689Y-71375121D01*
X109944081Y-72097086D01*
X105666000Y-72097086D01*
X105666000Y-40105140D01*
X111812102Y-40105140D01*
X111776408Y-40112240D01*
G37*
G04 #@! TD.AperFunction*
M02*
