G04 #@! TF.GenerationSoftware,KiCad,Pcbnew,5.1.7-a382d34a8~87~ubuntu18.04.1*
G04 #@! TF.CreationDate,2021-01-14T14:18:25+00:00*
G04 #@! TF.ProjectId,divider-panel,64697669-6465-4722-9d70-616e656c2e6b,rev?*
G04 #@! TF.SameCoordinates,Original*
G04 #@! TF.FileFunction,Legend,Bot*
G04 #@! TF.FilePolarity,Positive*
%FSLAX46Y46*%
G04 Gerber Fmt 4.6, Leading zero omitted, Abs format (unit mm)*
G04 Created by KiCad (PCBNEW 5.1.7-a382d34a8~87~ubuntu18.04.1) date 2021-01-14 14:18:25*
%MOMM*%
%LPD*%
G01*
G04 APERTURE LIST*
%ADD10C,0.150000*%
%ADD11C,0.010000*%
G04 APERTURE END LIST*
D10*
X116522285Y-56697619D02*
X116474666Y-56650000D01*
X116379428Y-56602380D01*
X116141333Y-56602380D01*
X116046095Y-56650000D01*
X115998476Y-56697619D01*
X115950857Y-56792857D01*
X115950857Y-56888095D01*
X115998476Y-57030952D01*
X116569904Y-57602380D01*
X115950857Y-57602380D01*
X115331809Y-56602380D02*
X115236571Y-56602380D01*
X115141333Y-56650000D01*
X115093714Y-56697619D01*
X115046095Y-56792857D01*
X114998476Y-56983333D01*
X114998476Y-57221428D01*
X115046095Y-57411904D01*
X115093714Y-57507142D01*
X115141333Y-57554761D01*
X115236571Y-57602380D01*
X115331809Y-57602380D01*
X115427047Y-57554761D01*
X115474666Y-57507142D01*
X115522285Y-57411904D01*
X115569904Y-57221428D01*
X115569904Y-56983333D01*
X115522285Y-56792857D01*
X115474666Y-56697619D01*
X115427047Y-56650000D01*
X115331809Y-56602380D01*
X114617523Y-56697619D02*
X114569904Y-56650000D01*
X114474666Y-56602380D01*
X114236571Y-56602380D01*
X114141333Y-56650000D01*
X114093714Y-56697619D01*
X114046095Y-56792857D01*
X114046095Y-56888095D01*
X114093714Y-57030952D01*
X114665142Y-57602380D01*
X114046095Y-57602380D01*
X113427047Y-56602380D02*
X113331809Y-56602380D01*
X113236571Y-56650000D01*
X113188952Y-56697619D01*
X113141333Y-56792857D01*
X113093714Y-56983333D01*
X113093714Y-57221428D01*
X113141333Y-57411904D01*
X113188952Y-57507142D01*
X113236571Y-57554761D01*
X113331809Y-57602380D01*
X113427047Y-57602380D01*
X113522285Y-57554761D01*
X113569904Y-57507142D01*
X113617523Y-57411904D01*
X113665142Y-57221428D01*
X113665142Y-56983333D01*
X113617523Y-56792857D01*
X113569904Y-56697619D01*
X113522285Y-56650000D01*
X113427047Y-56602380D01*
X117522285Y-55570380D02*
X117522285Y-54570380D01*
X117188952Y-55284666D01*
X116855619Y-54570380D01*
X116855619Y-55570380D01*
X116236571Y-55570380D02*
X116331809Y-55522761D01*
X116379428Y-55475142D01*
X116427047Y-55379904D01*
X116427047Y-55094190D01*
X116379428Y-54998952D01*
X116331809Y-54951333D01*
X116236571Y-54903714D01*
X116093714Y-54903714D01*
X115998476Y-54951333D01*
X115950857Y-54998952D01*
X115903238Y-55094190D01*
X115903238Y-55379904D01*
X115950857Y-55475142D01*
X115998476Y-55522761D01*
X116093714Y-55570380D01*
X116236571Y-55570380D01*
X115046095Y-55570380D02*
X115046095Y-54570380D01*
X115046095Y-55522761D02*
X115141333Y-55570380D01*
X115331809Y-55570380D01*
X115427047Y-55522761D01*
X115474666Y-55475142D01*
X115522285Y-55379904D01*
X115522285Y-55094190D01*
X115474666Y-54998952D01*
X115427047Y-54951333D01*
X115331809Y-54903714D01*
X115141333Y-54903714D01*
X115046095Y-54951333D01*
X114141333Y-54903714D02*
X114141333Y-55570380D01*
X114569904Y-54903714D02*
X114569904Y-55427523D01*
X114522285Y-55522761D01*
X114427047Y-55570380D01*
X114284190Y-55570380D01*
X114188952Y-55522761D01*
X114141333Y-55475142D01*
X113522285Y-55570380D02*
X113617523Y-55522761D01*
X113665142Y-55427523D01*
X113665142Y-54570380D01*
X112712761Y-55570380D02*
X112712761Y-55046571D01*
X112760380Y-54951333D01*
X112855619Y-54903714D01*
X113046095Y-54903714D01*
X113141333Y-54951333D01*
X112712761Y-55522761D02*
X112808000Y-55570380D01*
X113046095Y-55570380D01*
X113141333Y-55522761D01*
X113188952Y-55427523D01*
X113188952Y-55332285D01*
X113141333Y-55237047D01*
X113046095Y-55189428D01*
X112808000Y-55189428D01*
X112712761Y-55141809D01*
X112236571Y-55570380D02*
X112236571Y-54903714D01*
X112236571Y-55094190D02*
X112188952Y-54998952D01*
X112141333Y-54951333D01*
X112046095Y-54903714D01*
X111950857Y-54903714D01*
X115974666Y-53316190D02*
X115974666Y-53792380D01*
X116308000Y-52792380D02*
X115974666Y-53316190D01*
X115641333Y-52792380D01*
X115165142Y-53792380D02*
X115260380Y-53744761D01*
X115308000Y-53697142D01*
X115355619Y-53601904D01*
X115355619Y-53316190D01*
X115308000Y-53220952D01*
X115260380Y-53173333D01*
X115165142Y-53125714D01*
X115022285Y-53125714D01*
X114927047Y-53173333D01*
X114879428Y-53220952D01*
X114831809Y-53316190D01*
X114831809Y-53601904D01*
X114879428Y-53697142D01*
X114927047Y-53744761D01*
X115022285Y-53792380D01*
X115165142Y-53792380D01*
X114403238Y-53792380D02*
X114403238Y-53125714D01*
X114403238Y-53316190D02*
X114355619Y-53220952D01*
X114308000Y-53173333D01*
X114212761Y-53125714D01*
X114117523Y-53125714D01*
X113784190Y-53792380D02*
X113784190Y-52792380D01*
X113688952Y-53411428D02*
X113403238Y-53792380D01*
X113403238Y-53125714D02*
X113784190Y-53506666D01*
D11*
G36*
X119890100Y-160579903D02*
G01*
X119778550Y-160635522D01*
X119680092Y-160737931D01*
X119652977Y-160775864D01*
X119623438Y-160825500D01*
X119604272Y-160879412D01*
X119593307Y-160951364D01*
X119588371Y-161055122D01*
X119587287Y-161192101D01*
X119592182Y-161379815D01*
X119609196Y-161520758D01*
X119641823Y-161625908D01*
X119693558Y-161706243D01*
X119767896Y-161772741D01*
X119773358Y-161776678D01*
X119846620Y-161816953D01*
X119934840Y-161836880D01*
X120047038Y-161841793D01*
X120229433Y-161841793D01*
X120229509Y-162018857D01*
X120231207Y-162117470D01*
X120241550Y-162175314D01*
X120268578Y-162210006D01*
X120320332Y-162239164D01*
X120332761Y-162245121D01*
X120390923Y-162273039D01*
X120435956Y-162290672D01*
X120469441Y-162292194D01*
X120492962Y-162271781D01*
X120508100Y-162223607D01*
X120516437Y-162141846D01*
X120519556Y-162020672D01*
X120519040Y-161854260D01*
X120516471Y-161636785D01*
X120515668Y-161571736D01*
X120512778Y-161347502D01*
X120510188Y-161200821D01*
X120229586Y-161200821D01*
X120228009Y-161325326D01*
X120221000Y-161406787D01*
X120205142Y-161460515D01*
X120177019Y-161501823D01*
X120157925Y-161521971D01*
X120079865Y-161580921D01*
X120010753Y-161585720D01*
X119939440Y-161537038D01*
X119937632Y-161535241D01*
X119908617Y-161497618D01*
X119890967Y-161446484D01*
X119882064Y-161367738D01*
X119879291Y-161247276D01*
X119879241Y-161220588D01*
X119885942Y-161054583D01*
X119907752Y-160939505D01*
X119947235Y-160869254D01*
X120006956Y-160837729D01*
X120041472Y-160834552D01*
X120123389Y-160849460D01*
X120179579Y-160898548D01*
X120213402Y-160988362D01*
X120228220Y-161125445D01*
X120229586Y-161200821D01*
X120510188Y-161200821D01*
X120509713Y-161173952D01*
X120505753Y-161043382D01*
X120500174Y-160948087D01*
X120492254Y-160880364D01*
X120481269Y-160832507D01*
X120466499Y-160796813D01*
X120447218Y-160765578D01*
X120438951Y-160753824D01*
X120329288Y-160642797D01*
X120190635Y-160579847D01*
X120030246Y-160562297D01*
X119890100Y-160579903D01*
G37*
X119890100Y-160579903D02*
X119778550Y-160635522D01*
X119680092Y-160737931D01*
X119652977Y-160775864D01*
X119623438Y-160825500D01*
X119604272Y-160879412D01*
X119593307Y-160951364D01*
X119588371Y-161055122D01*
X119587287Y-161192101D01*
X119592182Y-161379815D01*
X119609196Y-161520758D01*
X119641823Y-161625908D01*
X119693558Y-161706243D01*
X119767896Y-161772741D01*
X119773358Y-161776678D01*
X119846620Y-161816953D01*
X119934840Y-161836880D01*
X120047038Y-161841793D01*
X120229433Y-161841793D01*
X120229509Y-162018857D01*
X120231207Y-162117470D01*
X120241550Y-162175314D01*
X120268578Y-162210006D01*
X120320332Y-162239164D01*
X120332761Y-162245121D01*
X120390923Y-162273039D01*
X120435956Y-162290672D01*
X120469441Y-162292194D01*
X120492962Y-162271781D01*
X120508100Y-162223607D01*
X120516437Y-162141846D01*
X120519556Y-162020672D01*
X120519040Y-161854260D01*
X120516471Y-161636785D01*
X120515668Y-161571736D01*
X120512778Y-161347502D01*
X120510188Y-161200821D01*
X120229586Y-161200821D01*
X120228009Y-161325326D01*
X120221000Y-161406787D01*
X120205142Y-161460515D01*
X120177019Y-161501823D01*
X120157925Y-161521971D01*
X120079865Y-161580921D01*
X120010753Y-161585720D01*
X119939440Y-161537038D01*
X119937632Y-161535241D01*
X119908617Y-161497618D01*
X119890967Y-161446484D01*
X119882064Y-161367738D01*
X119879291Y-161247276D01*
X119879241Y-161220588D01*
X119885942Y-161054583D01*
X119907752Y-160939505D01*
X119947235Y-160869254D01*
X120006956Y-160837729D01*
X120041472Y-160834552D01*
X120123389Y-160849460D01*
X120179579Y-160898548D01*
X120213402Y-160988362D01*
X120228220Y-161125445D01*
X120229586Y-161200821D01*
X120510188Y-161200821D01*
X120509713Y-161173952D01*
X120505753Y-161043382D01*
X120500174Y-160948087D01*
X120492254Y-160880364D01*
X120481269Y-160832507D01*
X120466499Y-160796813D01*
X120447218Y-160765578D01*
X120438951Y-160753824D01*
X120329288Y-160642797D01*
X120190635Y-160579847D01*
X120030246Y-160562297D01*
X119890100Y-160579903D01*
G36*
X117644571Y-160595719D02*
G01*
X117550877Y-160649914D01*
X117485736Y-160703707D01*
X117438093Y-160760066D01*
X117405272Y-160828987D01*
X117384594Y-160920468D01*
X117373380Y-161044506D01*
X117368951Y-161211098D01*
X117368437Y-161330851D01*
X117368437Y-161771659D01*
X117492517Y-161827283D01*
X117616598Y-161882907D01*
X117631195Y-161400095D01*
X117637227Y-161219779D01*
X117643555Y-161088901D01*
X117651394Y-160998511D01*
X117661963Y-160939664D01*
X117676477Y-160903413D01*
X117696152Y-160880810D01*
X117702465Y-160875917D01*
X117798112Y-160837706D01*
X117894793Y-160852827D01*
X117952345Y-160892943D01*
X117975755Y-160921370D01*
X117991961Y-160958672D01*
X118002259Y-161015223D01*
X118007951Y-161101394D01*
X118010336Y-161227558D01*
X118010736Y-161359042D01*
X118010814Y-161523999D01*
X118013639Y-161640761D01*
X118023093Y-161719510D01*
X118043060Y-161770431D01*
X118077424Y-161803706D01*
X118130068Y-161829520D01*
X118200383Y-161856344D01*
X118277180Y-161885542D01*
X118268038Y-161367346D01*
X118264357Y-161180539D01*
X118260050Y-161042490D01*
X118253877Y-160943568D01*
X118244598Y-160874145D01*
X118230973Y-160824590D01*
X118211761Y-160785273D01*
X118188598Y-160750584D01*
X118076848Y-160639770D01*
X117940487Y-160575689D01*
X117792175Y-160560339D01*
X117644571Y-160595719D01*
G37*
X117644571Y-160595719D02*
X117550877Y-160649914D01*
X117485736Y-160703707D01*
X117438093Y-160760066D01*
X117405272Y-160828987D01*
X117384594Y-160920468D01*
X117373380Y-161044506D01*
X117368951Y-161211098D01*
X117368437Y-161330851D01*
X117368437Y-161771659D01*
X117492517Y-161827283D01*
X117616598Y-161882907D01*
X117631195Y-161400095D01*
X117637227Y-161219779D01*
X117643555Y-161088901D01*
X117651394Y-160998511D01*
X117661963Y-160939664D01*
X117676477Y-160903413D01*
X117696152Y-160880810D01*
X117702465Y-160875917D01*
X117798112Y-160837706D01*
X117894793Y-160852827D01*
X117952345Y-160892943D01*
X117975755Y-160921370D01*
X117991961Y-160958672D01*
X118002259Y-161015223D01*
X118007951Y-161101394D01*
X118010336Y-161227558D01*
X118010736Y-161359042D01*
X118010814Y-161523999D01*
X118013639Y-161640761D01*
X118023093Y-161719510D01*
X118043060Y-161770431D01*
X118077424Y-161803706D01*
X118130068Y-161829520D01*
X118200383Y-161856344D01*
X118277180Y-161885542D01*
X118268038Y-161367346D01*
X118264357Y-161180539D01*
X118260050Y-161042490D01*
X118253877Y-160943568D01*
X118244598Y-160874145D01*
X118230973Y-160824590D01*
X118211761Y-160785273D01*
X118188598Y-160750584D01*
X118076848Y-160639770D01*
X117940487Y-160575689D01*
X117792175Y-160560339D01*
X117644571Y-160595719D01*
G36*
X121013779Y-160584015D02*
G01*
X120876939Y-160655968D01*
X120775949Y-160771766D01*
X120740075Y-160846213D01*
X120712161Y-160957992D01*
X120697871Y-161099227D01*
X120696516Y-161253371D01*
X120707405Y-161403879D01*
X120729847Y-161534205D01*
X120763150Y-161627803D01*
X120773385Y-161643922D01*
X120894618Y-161764249D01*
X121038613Y-161836317D01*
X121194861Y-161857408D01*
X121352852Y-161824802D01*
X121396820Y-161805253D01*
X121482444Y-161745012D01*
X121557592Y-161665135D01*
X121564694Y-161655004D01*
X121593561Y-161606181D01*
X121612643Y-161553990D01*
X121623916Y-161485285D01*
X121629355Y-161386918D01*
X121630938Y-161245744D01*
X121630965Y-161214092D01*
X121630893Y-161204019D01*
X121339011Y-161204019D01*
X121337313Y-161337256D01*
X121330628Y-161425674D01*
X121316575Y-161482785D01*
X121292771Y-161522102D01*
X121280621Y-161535241D01*
X121210764Y-161585172D01*
X121142941Y-161582895D01*
X121074365Y-161539584D01*
X121033465Y-161493346D01*
X121009242Y-161425857D01*
X120995639Y-161319433D01*
X120994706Y-161307020D01*
X120992384Y-161114147D01*
X121016650Y-160970900D01*
X121067176Y-160878160D01*
X121143632Y-160836807D01*
X121170924Y-160834552D01*
X121242589Y-160845893D01*
X121291610Y-160885184D01*
X121321582Y-160960326D01*
X121336101Y-161079222D01*
X121339011Y-161204019D01*
X121630893Y-161204019D01*
X121629878Y-161063659D01*
X121625312Y-160958549D01*
X121615312Y-160885714D01*
X121597921Y-160832108D01*
X121571184Y-160784681D01*
X121565276Y-160775864D01*
X121465968Y-160657007D01*
X121357758Y-160588008D01*
X121226019Y-160560619D01*
X121181283Y-160559281D01*
X121013779Y-160584015D01*
G37*
X121013779Y-160584015D02*
X120876939Y-160655968D01*
X120775949Y-160771766D01*
X120740075Y-160846213D01*
X120712161Y-160957992D01*
X120697871Y-161099227D01*
X120696516Y-161253371D01*
X120707405Y-161403879D01*
X120729847Y-161534205D01*
X120763150Y-161627803D01*
X120773385Y-161643922D01*
X120894618Y-161764249D01*
X121038613Y-161836317D01*
X121194861Y-161857408D01*
X121352852Y-161824802D01*
X121396820Y-161805253D01*
X121482444Y-161745012D01*
X121557592Y-161665135D01*
X121564694Y-161655004D01*
X121593561Y-161606181D01*
X121612643Y-161553990D01*
X121623916Y-161485285D01*
X121629355Y-161386918D01*
X121630938Y-161245744D01*
X121630965Y-161214092D01*
X121630893Y-161204019D01*
X121339011Y-161204019D01*
X121337313Y-161337256D01*
X121330628Y-161425674D01*
X121316575Y-161482785D01*
X121292771Y-161522102D01*
X121280621Y-161535241D01*
X121210764Y-161585172D01*
X121142941Y-161582895D01*
X121074365Y-161539584D01*
X121033465Y-161493346D01*
X121009242Y-161425857D01*
X120995639Y-161319433D01*
X120994706Y-161307020D01*
X120992384Y-161114147D01*
X121016650Y-160970900D01*
X121067176Y-160878160D01*
X121143632Y-160836807D01*
X121170924Y-160834552D01*
X121242589Y-160845893D01*
X121291610Y-160885184D01*
X121321582Y-160960326D01*
X121336101Y-161079222D01*
X121339011Y-161204019D01*
X121630893Y-161204019D01*
X121629878Y-161063659D01*
X121625312Y-160958549D01*
X121615312Y-160885714D01*
X121597921Y-160832108D01*
X121571184Y-160784681D01*
X121565276Y-160775864D01*
X121465968Y-160657007D01*
X121357758Y-160588008D01*
X121226019Y-160560619D01*
X121181283Y-160559281D01*
X121013779Y-160584015D01*
G36*
X118746448Y-160602676D02*
G01*
X118631342Y-160680111D01*
X118542389Y-160791949D01*
X118489251Y-160934265D01*
X118478503Y-161039015D01*
X118479724Y-161082726D01*
X118489944Y-161116194D01*
X118518039Y-161146179D01*
X118572884Y-161179440D01*
X118663355Y-161222738D01*
X118798328Y-161282833D01*
X118799011Y-161283134D01*
X118923249Y-161340037D01*
X119025127Y-161390565D01*
X119094233Y-161429280D01*
X119120154Y-161450740D01*
X119120161Y-161450913D01*
X119097315Y-161497644D01*
X119043891Y-161549154D01*
X118982558Y-161586261D01*
X118951485Y-161593632D01*
X118866711Y-161568138D01*
X118793707Y-161504291D01*
X118758087Y-161434094D01*
X118723820Y-161382343D01*
X118656697Y-161323409D01*
X118577792Y-161272496D01*
X118508179Y-161244809D01*
X118493623Y-161243287D01*
X118477237Y-161268321D01*
X118476250Y-161332311D01*
X118488292Y-161418593D01*
X118510993Y-161510501D01*
X118541986Y-161591369D01*
X118543552Y-161594509D01*
X118636819Y-161724734D01*
X118757696Y-161813311D01*
X118894973Y-161856786D01*
X119037440Y-161851706D01*
X119173888Y-161794616D01*
X119179955Y-161790602D01*
X119287290Y-161693326D01*
X119357868Y-161566409D01*
X119396926Y-161399526D01*
X119402168Y-161352639D01*
X119411452Y-161131329D01*
X119400322Y-161028124D01*
X119120161Y-161028124D01*
X119116521Y-161092503D01*
X119096611Y-161111291D01*
X119046974Y-161097235D01*
X118968733Y-161064009D01*
X118881274Y-161022359D01*
X118879101Y-161021256D01*
X118804970Y-160982265D01*
X118775219Y-160956244D01*
X118782555Y-160928965D01*
X118813447Y-160893121D01*
X118892040Y-160841251D01*
X118976677Y-160837439D01*
X119052597Y-160875189D01*
X119105035Y-160948001D01*
X119120161Y-161028124D01*
X119400322Y-161028124D01*
X119392356Y-160954261D01*
X119343366Y-160813829D01*
X119275164Y-160715447D01*
X119152065Y-160616030D01*
X119016472Y-160566711D01*
X118878045Y-160563568D01*
X118746448Y-160602676D01*
G37*
X118746448Y-160602676D02*
X118631342Y-160680111D01*
X118542389Y-160791949D01*
X118489251Y-160934265D01*
X118478503Y-161039015D01*
X118479724Y-161082726D01*
X118489944Y-161116194D01*
X118518039Y-161146179D01*
X118572884Y-161179440D01*
X118663355Y-161222738D01*
X118798328Y-161282833D01*
X118799011Y-161283134D01*
X118923249Y-161340037D01*
X119025127Y-161390565D01*
X119094233Y-161429280D01*
X119120154Y-161450740D01*
X119120161Y-161450913D01*
X119097315Y-161497644D01*
X119043891Y-161549154D01*
X118982558Y-161586261D01*
X118951485Y-161593632D01*
X118866711Y-161568138D01*
X118793707Y-161504291D01*
X118758087Y-161434094D01*
X118723820Y-161382343D01*
X118656697Y-161323409D01*
X118577792Y-161272496D01*
X118508179Y-161244809D01*
X118493623Y-161243287D01*
X118477237Y-161268321D01*
X118476250Y-161332311D01*
X118488292Y-161418593D01*
X118510993Y-161510501D01*
X118541986Y-161591369D01*
X118543552Y-161594509D01*
X118636819Y-161724734D01*
X118757696Y-161813311D01*
X118894973Y-161856786D01*
X119037440Y-161851706D01*
X119173888Y-161794616D01*
X119179955Y-161790602D01*
X119287290Y-161693326D01*
X119357868Y-161566409D01*
X119396926Y-161399526D01*
X119402168Y-161352639D01*
X119411452Y-161131329D01*
X119400322Y-161028124D01*
X119120161Y-161028124D01*
X119116521Y-161092503D01*
X119096611Y-161111291D01*
X119046974Y-161097235D01*
X118968733Y-161064009D01*
X118881274Y-161022359D01*
X118879101Y-161021256D01*
X118804970Y-160982265D01*
X118775219Y-160956244D01*
X118782555Y-160928965D01*
X118813447Y-160893121D01*
X118892040Y-160841251D01*
X118976677Y-160837439D01*
X119052597Y-160875189D01*
X119105035Y-160948001D01*
X119120161Y-161028124D01*
X119400322Y-161028124D01*
X119392356Y-160954261D01*
X119343366Y-160813829D01*
X119275164Y-160715447D01*
X119152065Y-160616030D01*
X119016472Y-160566711D01*
X118878045Y-160563568D01*
X118746448Y-160602676D01*
G36*
X116317402Y-160441857D02*
G01*
X116308846Y-160561188D01*
X116299019Y-160631506D01*
X116285401Y-160662179D01*
X116265473Y-160662571D01*
X116259011Y-160658910D01*
X116173060Y-160632398D01*
X116061255Y-160633946D01*
X115947586Y-160661199D01*
X115876490Y-160696455D01*
X115803595Y-160752778D01*
X115750307Y-160816519D01*
X115713725Y-160897510D01*
X115690950Y-161005586D01*
X115679081Y-161150580D01*
X115675218Y-161342326D01*
X115675149Y-161379109D01*
X115675103Y-161792288D01*
X115767046Y-161824339D01*
X115832348Y-161846144D01*
X115868176Y-161856297D01*
X115869230Y-161856391D01*
X115872758Y-161828860D01*
X115875761Y-161752923D01*
X115878010Y-161638565D01*
X115879276Y-161495769D01*
X115879471Y-161408951D01*
X115879877Y-161237773D01*
X115881968Y-161115088D01*
X115887053Y-161031000D01*
X115896440Y-160975614D01*
X115911439Y-160939032D01*
X115933358Y-160911359D01*
X115947043Y-160898032D01*
X116041051Y-160844328D01*
X116143636Y-160840307D01*
X116236710Y-160885725D01*
X116253922Y-160902123D01*
X116279168Y-160932957D01*
X116296680Y-160969531D01*
X116307858Y-161022415D01*
X116314104Y-161102177D01*
X116316818Y-161219385D01*
X116317402Y-161380991D01*
X116317402Y-161792288D01*
X116409345Y-161824339D01*
X116474647Y-161846144D01*
X116510475Y-161856297D01*
X116511529Y-161856391D01*
X116514225Y-161828448D01*
X116516655Y-161749630D01*
X116518722Y-161627453D01*
X116520329Y-161469432D01*
X116521377Y-161283083D01*
X116521769Y-161075920D01*
X116521770Y-161066706D01*
X116521770Y-160277020D01*
X116426885Y-160236997D01*
X116332000Y-160196973D01*
X116317402Y-160441857D01*
G37*
X116317402Y-160441857D02*
X116308846Y-160561188D01*
X116299019Y-160631506D01*
X116285401Y-160662179D01*
X116265473Y-160662571D01*
X116259011Y-160658910D01*
X116173060Y-160632398D01*
X116061255Y-160633946D01*
X115947586Y-160661199D01*
X115876490Y-160696455D01*
X115803595Y-160752778D01*
X115750307Y-160816519D01*
X115713725Y-160897510D01*
X115690950Y-161005586D01*
X115679081Y-161150580D01*
X115675218Y-161342326D01*
X115675149Y-161379109D01*
X115675103Y-161792288D01*
X115767046Y-161824339D01*
X115832348Y-161846144D01*
X115868176Y-161856297D01*
X115869230Y-161856391D01*
X115872758Y-161828860D01*
X115875761Y-161752923D01*
X115878010Y-161638565D01*
X115879276Y-161495769D01*
X115879471Y-161408951D01*
X115879877Y-161237773D01*
X115881968Y-161115088D01*
X115887053Y-161031000D01*
X115896440Y-160975614D01*
X115911439Y-160939032D01*
X115933358Y-160911359D01*
X115947043Y-160898032D01*
X116041051Y-160844328D01*
X116143636Y-160840307D01*
X116236710Y-160885725D01*
X116253922Y-160902123D01*
X116279168Y-160932957D01*
X116296680Y-160969531D01*
X116307858Y-161022415D01*
X116314104Y-161102177D01*
X116316818Y-161219385D01*
X116317402Y-161380991D01*
X116317402Y-161792288D01*
X116409345Y-161824339D01*
X116474647Y-161846144D01*
X116510475Y-161856297D01*
X116511529Y-161856391D01*
X116514225Y-161828448D01*
X116516655Y-161749630D01*
X116518722Y-161627453D01*
X116520329Y-161469432D01*
X116521377Y-161283083D01*
X116521769Y-161075920D01*
X116521770Y-161066706D01*
X116521770Y-160277020D01*
X116426885Y-160236997D01*
X116332000Y-160196973D01*
X116317402Y-160441857D01*
G36*
X114982056Y-160642360D02*
G01*
X114867657Y-160684842D01*
X114866348Y-160685658D01*
X114795597Y-160737730D01*
X114743364Y-160798584D01*
X114706629Y-160877887D01*
X114682366Y-160985309D01*
X114667555Y-161130517D01*
X114659171Y-161323179D01*
X114658436Y-161350628D01*
X114647880Y-161764521D01*
X114736709Y-161810456D01*
X114800982Y-161841498D01*
X114839790Y-161856206D01*
X114841585Y-161856391D01*
X114848300Y-161829250D01*
X114853635Y-161756041D01*
X114856917Y-161649081D01*
X114857632Y-161562469D01*
X114857649Y-161422162D01*
X114864063Y-161334051D01*
X114886420Y-161292025D01*
X114934268Y-161289975D01*
X115017151Y-161321790D01*
X115142287Y-161380272D01*
X115234303Y-161428845D01*
X115281629Y-161470986D01*
X115295542Y-161516916D01*
X115295563Y-161519189D01*
X115272605Y-161598311D01*
X115204630Y-161641055D01*
X115100602Y-161647246D01*
X115025670Y-161646172D01*
X114986161Y-161667753D01*
X114961522Y-161719591D01*
X114947341Y-161785632D01*
X114967777Y-161823104D01*
X114975472Y-161828467D01*
X115047917Y-161850006D01*
X115149367Y-161853055D01*
X115253843Y-161838778D01*
X115327875Y-161812688D01*
X115430228Y-161725785D01*
X115488409Y-161604816D01*
X115499931Y-161510308D01*
X115491138Y-161425062D01*
X115459320Y-161355476D01*
X115396316Y-161293672D01*
X115293969Y-161231772D01*
X115144118Y-161161897D01*
X115134988Y-161157948D01*
X115000003Y-161095588D01*
X114916706Y-161044446D01*
X114881003Y-160998488D01*
X114888797Y-160951683D01*
X114935993Y-160897998D01*
X114950106Y-160885644D01*
X115044641Y-160837741D01*
X115142594Y-160839758D01*
X115227903Y-160886724D01*
X115284504Y-160973669D01*
X115289763Y-160990734D01*
X115340977Y-161073504D01*
X115405963Y-161113372D01*
X115499931Y-161152882D01*
X115499931Y-161050658D01*
X115471347Y-160902072D01*
X115386505Y-160765784D01*
X115342355Y-160720191D01*
X115241995Y-160661674D01*
X115114365Y-160635184D01*
X114982056Y-160642360D01*
G37*
X114982056Y-160642360D02*
X114867657Y-160684842D01*
X114866348Y-160685658D01*
X114795597Y-160737730D01*
X114743364Y-160798584D01*
X114706629Y-160877887D01*
X114682366Y-160985309D01*
X114667555Y-161130517D01*
X114659171Y-161323179D01*
X114658436Y-161350628D01*
X114647880Y-161764521D01*
X114736709Y-161810456D01*
X114800982Y-161841498D01*
X114839790Y-161856206D01*
X114841585Y-161856391D01*
X114848300Y-161829250D01*
X114853635Y-161756041D01*
X114856917Y-161649081D01*
X114857632Y-161562469D01*
X114857649Y-161422162D01*
X114864063Y-161334051D01*
X114886420Y-161292025D01*
X114934268Y-161289975D01*
X115017151Y-161321790D01*
X115142287Y-161380272D01*
X115234303Y-161428845D01*
X115281629Y-161470986D01*
X115295542Y-161516916D01*
X115295563Y-161519189D01*
X115272605Y-161598311D01*
X115204630Y-161641055D01*
X115100602Y-161647246D01*
X115025670Y-161646172D01*
X114986161Y-161667753D01*
X114961522Y-161719591D01*
X114947341Y-161785632D01*
X114967777Y-161823104D01*
X114975472Y-161828467D01*
X115047917Y-161850006D01*
X115149367Y-161853055D01*
X115253843Y-161838778D01*
X115327875Y-161812688D01*
X115430228Y-161725785D01*
X115488409Y-161604816D01*
X115499931Y-161510308D01*
X115491138Y-161425062D01*
X115459320Y-161355476D01*
X115396316Y-161293672D01*
X115293969Y-161231772D01*
X115144118Y-161161897D01*
X115134988Y-161157948D01*
X115000003Y-161095588D01*
X114916706Y-161044446D01*
X114881003Y-160998488D01*
X114888797Y-160951683D01*
X114935993Y-160897998D01*
X114950106Y-160885644D01*
X115044641Y-160837741D01*
X115142594Y-160839758D01*
X115227903Y-160886724D01*
X115284504Y-160973669D01*
X115289763Y-160990734D01*
X115340977Y-161073504D01*
X115405963Y-161113372D01*
X115499931Y-161152882D01*
X115499931Y-161050658D01*
X115471347Y-160902072D01*
X115386505Y-160765784D01*
X115342355Y-160720191D01*
X115241995Y-160661674D01*
X115114365Y-160635184D01*
X114982056Y-160642360D01*
G36*
X113996057Y-160639920D02*
G01*
X113863435Y-160688859D01*
X113755990Y-160775419D01*
X113713968Y-160836352D01*
X113668157Y-160948161D01*
X113669109Y-161029006D01*
X113717192Y-161083378D01*
X113734983Y-161092624D01*
X113811796Y-161121450D01*
X113851024Y-161114065D01*
X113864311Y-161065658D01*
X113864988Y-161038920D01*
X113889314Y-160940548D01*
X113952719Y-160871734D01*
X114040846Y-160838498D01*
X114139337Y-160846861D01*
X114219398Y-160890296D01*
X114246439Y-160915072D01*
X114265606Y-160945129D01*
X114278554Y-160990565D01*
X114286936Y-161061476D01*
X114292407Y-161167960D01*
X114296622Y-161320112D01*
X114297713Y-161368287D01*
X114301693Y-161533095D01*
X114306219Y-161649088D01*
X114313005Y-161725833D01*
X114323769Y-161772893D01*
X114340227Y-161799835D01*
X114364094Y-161816223D01*
X114379374Y-161823463D01*
X114444267Y-161848220D01*
X114482466Y-161856391D01*
X114495088Y-161829103D01*
X114502792Y-161746603D01*
X114505620Y-161607941D01*
X114503614Y-161412162D01*
X114502989Y-161381965D01*
X114498579Y-161203349D01*
X114493365Y-161072923D01*
X114485945Y-160980492D01*
X114474918Y-160915858D01*
X114458883Y-160868825D01*
X114436439Y-160829196D01*
X114424698Y-160812215D01*
X114357381Y-160737080D01*
X114282090Y-160678638D01*
X114272872Y-160673536D01*
X114137867Y-160633260D01*
X113996057Y-160639920D01*
G37*
X113996057Y-160639920D02*
X113863435Y-160688859D01*
X113755990Y-160775419D01*
X113713968Y-160836352D01*
X113668157Y-160948161D01*
X113669109Y-161029006D01*
X113717192Y-161083378D01*
X113734983Y-161092624D01*
X113811796Y-161121450D01*
X113851024Y-161114065D01*
X113864311Y-161065658D01*
X113864988Y-161038920D01*
X113889314Y-160940548D01*
X113952719Y-160871734D01*
X114040846Y-160838498D01*
X114139337Y-160846861D01*
X114219398Y-160890296D01*
X114246439Y-160915072D01*
X114265606Y-160945129D01*
X114278554Y-160990565D01*
X114286936Y-161061476D01*
X114292407Y-161167960D01*
X114296622Y-161320112D01*
X114297713Y-161368287D01*
X114301693Y-161533095D01*
X114306219Y-161649088D01*
X114313005Y-161725833D01*
X114323769Y-161772893D01*
X114340227Y-161799835D01*
X114364094Y-161816223D01*
X114379374Y-161823463D01*
X114444267Y-161848220D01*
X114482466Y-161856391D01*
X114495088Y-161829103D01*
X114502792Y-161746603D01*
X114505620Y-161607941D01*
X114503614Y-161412162D01*
X114502989Y-161381965D01*
X114498579Y-161203349D01*
X114493365Y-161072923D01*
X114485945Y-160980492D01*
X114474918Y-160915858D01*
X114458883Y-160868825D01*
X114436439Y-160829196D01*
X114424698Y-160812215D01*
X114357381Y-160737080D01*
X114282090Y-160678638D01*
X114272872Y-160673536D01*
X114137867Y-160633260D01*
X113996057Y-160639920D01*
G36*
X112668086Y-160872455D02*
G01*
X112668457Y-161090661D01*
X112669892Y-161258519D01*
X112672998Y-161384070D01*
X112678378Y-161475355D01*
X112686638Y-161540415D01*
X112698384Y-161587291D01*
X112714219Y-161624024D01*
X112726210Y-161644991D01*
X112825510Y-161758694D01*
X112951412Y-161829965D01*
X113090709Y-161855538D01*
X113230195Y-161832150D01*
X113313257Y-161790119D01*
X113400455Y-161717411D01*
X113459883Y-161628612D01*
X113495739Y-161512320D01*
X113512219Y-161357135D01*
X113514553Y-161243287D01*
X113514239Y-161235106D01*
X113310276Y-161235106D01*
X113309030Y-161365657D01*
X113303322Y-161452080D01*
X113290196Y-161508618D01*
X113266694Y-161549514D01*
X113238614Y-161580362D01*
X113144312Y-161639905D01*
X113043060Y-161644992D01*
X112947364Y-161595279D01*
X112939916Y-161588543D01*
X112908126Y-161553502D01*
X112888192Y-161511811D01*
X112877400Y-161449762D01*
X112873035Y-161353644D01*
X112872345Y-161247379D01*
X112873841Y-161113880D01*
X112880036Y-161024822D01*
X112893486Y-160966293D01*
X112916749Y-160924382D01*
X112935825Y-160902123D01*
X113024437Y-160845985D01*
X113126492Y-160839235D01*
X113223905Y-160882114D01*
X113242704Y-160898032D01*
X113274707Y-160933382D01*
X113294682Y-160975502D01*
X113305407Y-161038251D01*
X113309661Y-161135487D01*
X113310276Y-161235106D01*
X113514239Y-161235106D01*
X113507496Y-161059947D01*
X113483528Y-160922195D01*
X113438452Y-160818632D01*
X113368072Y-160737856D01*
X113313257Y-160696455D01*
X113213624Y-160651728D01*
X113098145Y-160630967D01*
X112990801Y-160636525D01*
X112930736Y-160658943D01*
X112907165Y-160665323D01*
X112891523Y-160641535D01*
X112880605Y-160577788D01*
X112872345Y-160480687D01*
X112863301Y-160372541D01*
X112850739Y-160307475D01*
X112827881Y-160270268D01*
X112787949Y-160245699D01*
X112762862Y-160234819D01*
X112667977Y-160195072D01*
X112668086Y-160872455D01*
G37*
X112668086Y-160872455D02*
X112668457Y-161090661D01*
X112669892Y-161258519D01*
X112672998Y-161384070D01*
X112678378Y-161475355D01*
X112686638Y-161540415D01*
X112698384Y-161587291D01*
X112714219Y-161624024D01*
X112726210Y-161644991D01*
X112825510Y-161758694D01*
X112951412Y-161829965D01*
X113090709Y-161855538D01*
X113230195Y-161832150D01*
X113313257Y-161790119D01*
X113400455Y-161717411D01*
X113459883Y-161628612D01*
X113495739Y-161512320D01*
X113512219Y-161357135D01*
X113514553Y-161243287D01*
X113514239Y-161235106D01*
X113310276Y-161235106D01*
X113309030Y-161365657D01*
X113303322Y-161452080D01*
X113290196Y-161508618D01*
X113266694Y-161549514D01*
X113238614Y-161580362D01*
X113144312Y-161639905D01*
X113043060Y-161644992D01*
X112947364Y-161595279D01*
X112939916Y-161588543D01*
X112908126Y-161553502D01*
X112888192Y-161511811D01*
X112877400Y-161449762D01*
X112873035Y-161353644D01*
X112872345Y-161247379D01*
X112873841Y-161113880D01*
X112880036Y-161024822D01*
X112893486Y-160966293D01*
X112916749Y-160924382D01*
X112935825Y-160902123D01*
X113024437Y-160845985D01*
X113126492Y-160839235D01*
X113223905Y-160882114D01*
X113242704Y-160898032D01*
X113274707Y-160933382D01*
X113294682Y-160975502D01*
X113305407Y-161038251D01*
X113309661Y-161135487D01*
X113310276Y-161235106D01*
X113514239Y-161235106D01*
X113507496Y-161059947D01*
X113483528Y-160922195D01*
X113438452Y-160818632D01*
X113368072Y-160737856D01*
X113313257Y-160696455D01*
X113213624Y-160651728D01*
X113098145Y-160630967D01*
X112990801Y-160636525D01*
X112930736Y-160658943D01*
X112907165Y-160665323D01*
X112891523Y-160641535D01*
X112880605Y-160577788D01*
X112872345Y-160480687D01*
X112863301Y-160372541D01*
X112850739Y-160307475D01*
X112827881Y-160270268D01*
X112787949Y-160245699D01*
X112762862Y-160234819D01*
X112667977Y-160195072D01*
X112668086Y-160872455D01*
G36*
X111481876Y-160657840D02*
G01*
X111477421Y-160734653D01*
X111473929Y-160851391D01*
X111471685Y-160998821D01*
X111470965Y-161153455D01*
X111470965Y-161676727D01*
X111563355Y-161769117D01*
X111627022Y-161826047D01*
X111682911Y-161849107D01*
X111759298Y-161847647D01*
X111789620Y-161843934D01*
X111884390Y-161833126D01*
X111962778Y-161826933D01*
X111981885Y-161826361D01*
X112046301Y-161830102D01*
X112138429Y-161839494D01*
X112174150Y-161843934D01*
X112261886Y-161850801D01*
X112320847Y-161835885D01*
X112379310Y-161789835D01*
X112400415Y-161769117D01*
X112492805Y-161676727D01*
X112492805Y-160697947D01*
X112418442Y-160664066D01*
X112354410Y-160638970D01*
X112316948Y-160630184D01*
X112307343Y-160657950D01*
X112298365Y-160735530D01*
X112290614Y-160854348D01*
X112284686Y-161005828D01*
X112281827Y-161133805D01*
X112273839Y-161637425D01*
X112204152Y-161647278D01*
X112140771Y-161640389D01*
X112109714Y-161618083D01*
X112101033Y-161576379D01*
X112093622Y-161487544D01*
X112088069Y-161362834D01*
X112084964Y-161213507D01*
X112084516Y-161136661D01*
X112084069Y-160694287D01*
X111992126Y-160662235D01*
X111927051Y-160640443D01*
X111891653Y-160630281D01*
X111890632Y-160630184D01*
X111887080Y-160657809D01*
X111883177Y-160734411D01*
X111879249Y-160850579D01*
X111875624Y-160996904D01*
X111873092Y-161133805D01*
X111865103Y-161637425D01*
X111689931Y-161637425D01*
X111681893Y-161177965D01*
X111673854Y-160718505D01*
X111588457Y-160674344D01*
X111525407Y-160644019D01*
X111488090Y-160630258D01*
X111487013Y-160630184D01*
X111481876Y-160657840D01*
G37*
X111481876Y-160657840D02*
X111477421Y-160734653D01*
X111473929Y-160851391D01*
X111471685Y-160998821D01*
X111470965Y-161153455D01*
X111470965Y-161676727D01*
X111563355Y-161769117D01*
X111627022Y-161826047D01*
X111682911Y-161849107D01*
X111759298Y-161847647D01*
X111789620Y-161843934D01*
X111884390Y-161833126D01*
X111962778Y-161826933D01*
X111981885Y-161826361D01*
X112046301Y-161830102D01*
X112138429Y-161839494D01*
X112174150Y-161843934D01*
X112261886Y-161850801D01*
X112320847Y-161835885D01*
X112379310Y-161789835D01*
X112400415Y-161769117D01*
X112492805Y-161676727D01*
X112492805Y-160697947D01*
X112418442Y-160664066D01*
X112354410Y-160638970D01*
X112316948Y-160630184D01*
X112307343Y-160657950D01*
X112298365Y-160735530D01*
X112290614Y-160854348D01*
X112284686Y-161005828D01*
X112281827Y-161133805D01*
X112273839Y-161637425D01*
X112204152Y-161647278D01*
X112140771Y-161640389D01*
X112109714Y-161618083D01*
X112101033Y-161576379D01*
X112093622Y-161487544D01*
X112088069Y-161362834D01*
X112084964Y-161213507D01*
X112084516Y-161136661D01*
X112084069Y-160694287D01*
X111992126Y-160662235D01*
X111927051Y-160640443D01*
X111891653Y-160630281D01*
X111890632Y-160630184D01*
X111887080Y-160657809D01*
X111883177Y-160734411D01*
X111879249Y-160850579D01*
X111875624Y-160996904D01*
X111873092Y-161133805D01*
X111865103Y-161637425D01*
X111689931Y-161637425D01*
X111681893Y-161177965D01*
X111673854Y-160718505D01*
X111588457Y-160674344D01*
X111525407Y-160644019D01*
X111488090Y-160630258D01*
X111487013Y-160630184D01*
X111481876Y-160657840D01*
G36*
X110747594Y-160653156D02*
G01*
X110663531Y-160691393D01*
X110597550Y-160737726D01*
X110549206Y-160789532D01*
X110515828Y-160856363D01*
X110494747Y-160947769D01*
X110483293Y-161073301D01*
X110478797Y-161242508D01*
X110478322Y-161353933D01*
X110478322Y-161788627D01*
X110552684Y-161822509D01*
X110611254Y-161847272D01*
X110640270Y-161856391D01*
X110645821Y-161829257D01*
X110650225Y-161756094D01*
X110652922Y-161649263D01*
X110653494Y-161564437D01*
X110655954Y-161441887D01*
X110662588Y-161344668D01*
X110672274Y-161285134D01*
X110679968Y-161272483D01*
X110731689Y-161285402D01*
X110812883Y-161318539D01*
X110906898Y-161363461D01*
X110997083Y-161411735D01*
X111066785Y-161454928D01*
X111099352Y-161484608D01*
X111099481Y-161484929D01*
X111096680Y-161539857D01*
X111071561Y-161592292D01*
X111027459Y-161634881D01*
X110963091Y-161649126D01*
X110908079Y-161647466D01*
X110830165Y-161646245D01*
X110789268Y-161664498D01*
X110764705Y-161712726D01*
X110761608Y-161721820D01*
X110750960Y-161790598D01*
X110779435Y-161832360D01*
X110853656Y-161852263D01*
X110933832Y-161855944D01*
X111078110Y-161828658D01*
X111152797Y-161789690D01*
X111245037Y-161698148D01*
X111293957Y-161585782D01*
X111298346Y-161467051D01*
X111256999Y-161356411D01*
X111194803Y-161287080D01*
X111132706Y-161248265D01*
X111035105Y-161199125D01*
X110921368Y-161149292D01*
X110902410Y-161141677D01*
X110777479Y-161086545D01*
X110705461Y-161037954D01*
X110682300Y-160989647D01*
X110703936Y-160935370D01*
X110741080Y-160892943D01*
X110828873Y-160840702D01*
X110925470Y-160836784D01*
X111014056Y-160877041D01*
X111077814Y-160957326D01*
X111086183Y-160978040D01*
X111134904Y-161054225D01*
X111206035Y-161110785D01*
X111295793Y-161157201D01*
X111295793Y-161025584D01*
X111290510Y-160945168D01*
X111267858Y-160881786D01*
X111217633Y-160814163D01*
X111169418Y-160762076D01*
X111094446Y-160688322D01*
X111036194Y-160648702D01*
X110973628Y-160632810D01*
X110902807Y-160630184D01*
X110747594Y-160653156D01*
G37*
X110747594Y-160653156D02*
X110663531Y-160691393D01*
X110597550Y-160737726D01*
X110549206Y-160789532D01*
X110515828Y-160856363D01*
X110494747Y-160947769D01*
X110483293Y-161073301D01*
X110478797Y-161242508D01*
X110478322Y-161353933D01*
X110478322Y-161788627D01*
X110552684Y-161822509D01*
X110611254Y-161847272D01*
X110640270Y-161856391D01*
X110645821Y-161829257D01*
X110650225Y-161756094D01*
X110652922Y-161649263D01*
X110653494Y-161564437D01*
X110655954Y-161441887D01*
X110662588Y-161344668D01*
X110672274Y-161285134D01*
X110679968Y-161272483D01*
X110731689Y-161285402D01*
X110812883Y-161318539D01*
X110906898Y-161363461D01*
X110997083Y-161411735D01*
X111066785Y-161454928D01*
X111099352Y-161484608D01*
X111099481Y-161484929D01*
X111096680Y-161539857D01*
X111071561Y-161592292D01*
X111027459Y-161634881D01*
X110963091Y-161649126D01*
X110908079Y-161647466D01*
X110830165Y-161646245D01*
X110789268Y-161664498D01*
X110764705Y-161712726D01*
X110761608Y-161721820D01*
X110750960Y-161790598D01*
X110779435Y-161832360D01*
X110853656Y-161852263D01*
X110933832Y-161855944D01*
X111078110Y-161828658D01*
X111152797Y-161789690D01*
X111245037Y-161698148D01*
X111293957Y-161585782D01*
X111298346Y-161467051D01*
X111256999Y-161356411D01*
X111194803Y-161287080D01*
X111132706Y-161248265D01*
X111035105Y-161199125D01*
X110921368Y-161149292D01*
X110902410Y-161141677D01*
X110777479Y-161086545D01*
X110705461Y-161037954D01*
X110682300Y-160989647D01*
X110703936Y-160935370D01*
X110741080Y-160892943D01*
X110828873Y-160840702D01*
X110925470Y-160836784D01*
X111014056Y-160877041D01*
X111077814Y-160957326D01*
X111086183Y-160978040D01*
X111134904Y-161054225D01*
X111206035Y-161110785D01*
X111295793Y-161157201D01*
X111295793Y-161025584D01*
X111290510Y-160945168D01*
X111267858Y-160881786D01*
X111217633Y-160814163D01*
X111169418Y-160762076D01*
X111094446Y-160688322D01*
X111036194Y-160648702D01*
X110973628Y-160632810D01*
X110902807Y-160630184D01*
X110747594Y-160653156D01*
G36*
X109726310Y-160658018D02*
G01*
X109691415Y-160673269D01*
X109608123Y-160739235D01*
X109536897Y-160834618D01*
X109492847Y-160936406D01*
X109485678Y-160986587D01*
X109509715Y-161056647D01*
X109562439Y-161093717D01*
X109618969Y-161116164D01*
X109644854Y-161120300D01*
X109657458Y-161090283D01*
X109682346Y-161024961D01*
X109693265Y-160995445D01*
X109754492Y-160893348D01*
X109843139Y-160842423D01*
X109956807Y-160843989D01*
X109965226Y-160845994D01*
X110025912Y-160874767D01*
X110070526Y-160930859D01*
X110100998Y-161021163D01*
X110119256Y-161152571D01*
X110127229Y-161331974D01*
X110127977Y-161427433D01*
X110128348Y-161577913D01*
X110130777Y-161680495D01*
X110137240Y-161745672D01*
X110149712Y-161783938D01*
X110170167Y-161805785D01*
X110200581Y-161821707D01*
X110202339Y-161822509D01*
X110260909Y-161847272D01*
X110289925Y-161856391D01*
X110294384Y-161828822D01*
X110298201Y-161752620D01*
X110301101Y-161637541D01*
X110302809Y-161493341D01*
X110303149Y-161387814D01*
X110301412Y-161183613D01*
X110294618Y-161028697D01*
X110280393Y-160914024D01*
X110256362Y-160830551D01*
X110220152Y-160769236D01*
X110169388Y-160721034D01*
X110119261Y-160687393D01*
X109998725Y-160642619D01*
X109858443Y-160632521D01*
X109726310Y-160658018D01*
G37*
X109726310Y-160658018D02*
X109691415Y-160673269D01*
X109608123Y-160739235D01*
X109536897Y-160834618D01*
X109492847Y-160936406D01*
X109485678Y-160986587D01*
X109509715Y-161056647D01*
X109562439Y-161093717D01*
X109618969Y-161116164D01*
X109644854Y-161120300D01*
X109657458Y-161090283D01*
X109682346Y-161024961D01*
X109693265Y-160995445D01*
X109754492Y-160893348D01*
X109843139Y-160842423D01*
X109956807Y-160843989D01*
X109965226Y-160845994D01*
X110025912Y-160874767D01*
X110070526Y-160930859D01*
X110100998Y-161021163D01*
X110119256Y-161152571D01*
X110127229Y-161331974D01*
X110127977Y-161427433D01*
X110128348Y-161577913D01*
X110130777Y-161680495D01*
X110137240Y-161745672D01*
X110149712Y-161783938D01*
X110170167Y-161805785D01*
X110200581Y-161821707D01*
X110202339Y-161822509D01*
X110260909Y-161847272D01*
X110289925Y-161856391D01*
X110294384Y-161828822D01*
X110298201Y-161752620D01*
X110301101Y-161637541D01*
X110302809Y-161493341D01*
X110303149Y-161387814D01*
X110301412Y-161183613D01*
X110294618Y-161028697D01*
X110280393Y-160914024D01*
X110256362Y-160830551D01*
X110220152Y-160769236D01*
X110169388Y-160721034D01*
X110119261Y-160687393D01*
X109998725Y-160642619D01*
X109858443Y-160632521D01*
X109726310Y-160658018D01*
G36*
X108718561Y-160674540D02*
G01*
X108603050Y-160750034D01*
X108547336Y-160817617D01*
X108503196Y-160940255D01*
X108499691Y-161037298D01*
X108507632Y-161167056D01*
X108806885Y-161298039D01*
X108952389Y-161364958D01*
X109047463Y-161418790D01*
X109096899Y-161465416D01*
X109105489Y-161510720D01*
X109078028Y-161560582D01*
X109047747Y-161593632D01*
X108959637Y-161646633D01*
X108863804Y-161650347D01*
X108775788Y-161609041D01*
X108711131Y-161526983D01*
X108699567Y-161498008D01*
X108644175Y-161407509D01*
X108580447Y-161368940D01*
X108493034Y-161335946D01*
X108493034Y-161461034D01*
X108500762Y-161546156D01*
X108531034Y-161617938D01*
X108594482Y-161700356D01*
X108603912Y-161711066D01*
X108674487Y-161784391D01*
X108735153Y-161823742D01*
X108811050Y-161841845D01*
X108873970Y-161847774D01*
X108986513Y-161849251D01*
X109066630Y-161830535D01*
X109116610Y-161802747D01*
X109195162Y-161741641D01*
X109249537Y-161675554D01*
X109283948Y-161592441D01*
X109302612Y-161480254D01*
X109309744Y-161326946D01*
X109310313Y-161249136D01*
X109308378Y-161155853D01*
X109132101Y-161155853D01*
X109130056Y-161205896D01*
X109124961Y-161214092D01*
X109091334Y-161202958D01*
X109018970Y-161173493D01*
X108922253Y-161131601D01*
X108902027Y-161122597D01*
X108779797Y-161060442D01*
X108712453Y-161005815D01*
X108697652Y-160954649D01*
X108733053Y-160902876D01*
X108762289Y-160880000D01*
X108867784Y-160834250D01*
X108966524Y-160841808D01*
X109049188Y-160897651D01*
X109106452Y-160996753D01*
X109124812Y-161075414D01*
X109132101Y-161155853D01*
X109308378Y-161155853D01*
X109306541Y-161067351D01*
X109292641Y-160932853D01*
X109265106Y-160834916D01*
X109220428Y-160762811D01*
X109155099Y-160705813D01*
X109126617Y-160687393D01*
X108997237Y-160639422D01*
X108855588Y-160636403D01*
X108718561Y-160674540D01*
G37*
X108718561Y-160674540D02*
X108603050Y-160750034D01*
X108547336Y-160817617D01*
X108503196Y-160940255D01*
X108499691Y-161037298D01*
X108507632Y-161167056D01*
X108806885Y-161298039D01*
X108952389Y-161364958D01*
X109047463Y-161418790D01*
X109096899Y-161465416D01*
X109105489Y-161510720D01*
X109078028Y-161560582D01*
X109047747Y-161593632D01*
X108959637Y-161646633D01*
X108863804Y-161650347D01*
X108775788Y-161609041D01*
X108711131Y-161526983D01*
X108699567Y-161498008D01*
X108644175Y-161407509D01*
X108580447Y-161368940D01*
X108493034Y-161335946D01*
X108493034Y-161461034D01*
X108500762Y-161546156D01*
X108531034Y-161617938D01*
X108594482Y-161700356D01*
X108603912Y-161711066D01*
X108674487Y-161784391D01*
X108735153Y-161823742D01*
X108811050Y-161841845D01*
X108873970Y-161847774D01*
X108986513Y-161849251D01*
X109066630Y-161830535D01*
X109116610Y-161802747D01*
X109195162Y-161741641D01*
X109249537Y-161675554D01*
X109283948Y-161592441D01*
X109302612Y-161480254D01*
X109309744Y-161326946D01*
X109310313Y-161249136D01*
X109308378Y-161155853D01*
X109132101Y-161155853D01*
X109130056Y-161205896D01*
X109124961Y-161214092D01*
X109091334Y-161202958D01*
X109018970Y-161173493D01*
X108922253Y-161131601D01*
X108902027Y-161122597D01*
X108779797Y-161060442D01*
X108712453Y-161005815D01*
X108697652Y-160954649D01*
X108733053Y-160902876D01*
X108762289Y-160880000D01*
X108867784Y-160834250D01*
X108966524Y-160841808D01*
X109049188Y-160897651D01*
X109106452Y-160996753D01*
X109124812Y-161075414D01*
X109132101Y-161155853D01*
X109308378Y-161155853D01*
X109306541Y-161067351D01*
X109292641Y-160932853D01*
X109265106Y-160834916D01*
X109220428Y-160762811D01*
X109155099Y-160705813D01*
X109126617Y-160687393D01*
X108997237Y-160639422D01*
X108855588Y-160636403D01*
X108718561Y-160674540D01*
G36*
X114852986Y-151170998D02*
G01*
X114694994Y-151171863D01*
X114580653Y-151174205D01*
X114502593Y-151178762D01*
X114453446Y-151186270D01*
X114425841Y-151197466D01*
X114412408Y-151213088D01*
X114405779Y-151233873D01*
X114405135Y-151236563D01*
X114395065Y-151285113D01*
X114376425Y-151380905D01*
X114351155Y-151513743D01*
X114321193Y-151673431D01*
X114288478Y-151849774D01*
X114287336Y-151855967D01*
X114254567Y-152028782D01*
X114223907Y-152181469D01*
X114197336Y-152304871D01*
X114176833Y-152389831D01*
X114164374Y-152427190D01*
X114163780Y-152427852D01*
X114127081Y-152446095D01*
X114051414Y-152476497D01*
X113953122Y-152512493D01*
X113952575Y-152512685D01*
X113828767Y-152559222D01*
X113682804Y-152618504D01*
X113545219Y-152678109D01*
X113538707Y-152681056D01*
X113314610Y-152782765D01*
X112818381Y-152443897D01*
X112666154Y-152340592D01*
X112528259Y-152248237D01*
X112412685Y-152172084D01*
X112327421Y-152117385D01*
X112280456Y-152089393D01*
X112275996Y-152087317D01*
X112241866Y-152096560D01*
X112178119Y-152141156D01*
X112082269Y-152223209D01*
X111951831Y-152344821D01*
X111818672Y-152474205D01*
X111690306Y-152601702D01*
X111575419Y-152718046D01*
X111480927Y-152816052D01*
X111413747Y-152888536D01*
X111380794Y-152928313D01*
X111379568Y-152930361D01*
X111375926Y-152957656D01*
X111389650Y-153002234D01*
X111424131Y-153070112D01*
X111482761Y-153167311D01*
X111568930Y-153299851D01*
X111683800Y-153470476D01*
X111785746Y-153620655D01*
X111876877Y-153755350D01*
X111951927Y-153866740D01*
X112005631Y-153947005D01*
X112032720Y-153988325D01*
X112034426Y-153991130D01*
X112031118Y-154030721D01*
X112006047Y-154107669D01*
X111964202Y-154207432D01*
X111949288Y-154239291D01*
X111884214Y-154381226D01*
X111814788Y-154542273D01*
X111758391Y-154681621D01*
X111717753Y-154785044D01*
X111685474Y-154863642D01*
X111666822Y-154904720D01*
X111664503Y-154907885D01*
X111630197Y-154913128D01*
X111549331Y-154927494D01*
X111432657Y-154948937D01*
X111290925Y-154975413D01*
X111134890Y-155004877D01*
X110975302Y-155035283D01*
X110822915Y-155064588D01*
X110688479Y-155090745D01*
X110582748Y-155111710D01*
X110516474Y-155125439D01*
X110500218Y-155129320D01*
X110483427Y-155138900D01*
X110470751Y-155160536D01*
X110461622Y-155201531D01*
X110455469Y-155269189D01*
X110451720Y-155370812D01*
X110449808Y-155513703D01*
X110449160Y-155705165D01*
X110449126Y-155783645D01*
X110449126Y-156421906D01*
X110602402Y-156452160D01*
X110687678Y-156468564D01*
X110814930Y-156492509D01*
X110968685Y-156521107D01*
X111133466Y-156551467D01*
X111179011Y-156559806D01*
X111331068Y-156589370D01*
X111463532Y-156618442D01*
X111565286Y-156644329D01*
X111625212Y-156664337D01*
X111635195Y-156670301D01*
X111659707Y-156712534D01*
X111694852Y-156794370D01*
X111733827Y-156899683D01*
X111741558Y-156922368D01*
X111792640Y-157063018D01*
X111856046Y-157221714D01*
X111918096Y-157364225D01*
X111918402Y-157364886D01*
X112021733Y-157588440D01*
X111342039Y-158588232D01*
X111778379Y-159025300D01*
X111910351Y-159155381D01*
X112030721Y-159270048D01*
X112132727Y-159363181D01*
X112209609Y-159428658D01*
X112254607Y-159460357D01*
X112261062Y-159462368D01*
X112298960Y-159446529D01*
X112376292Y-159402496D01*
X112484611Y-159335490D01*
X112615468Y-159250734D01*
X112756948Y-159155816D01*
X112900539Y-159058998D01*
X113028565Y-158974751D01*
X113132895Y-158908258D01*
X113205400Y-158864702D01*
X113237842Y-158849264D01*
X113277424Y-158862328D01*
X113352481Y-158896750D01*
X113447532Y-158945380D01*
X113457608Y-158950785D01*
X113585609Y-159014980D01*
X113673382Y-159046463D01*
X113727972Y-159046798D01*
X113756425Y-159017548D01*
X113756590Y-159017138D01*
X113770812Y-158982498D01*
X113804731Y-158900269D01*
X113855716Y-158776814D01*
X113921138Y-158618498D01*
X113998366Y-158431686D01*
X114084771Y-158222742D01*
X114168449Y-158020446D01*
X114260412Y-157797200D01*
X114344850Y-157590392D01*
X114419231Y-157406362D01*
X114481026Y-157251451D01*
X114527703Y-157131996D01*
X114556732Y-157054339D01*
X114565678Y-157025356D01*
X114543244Y-156992110D01*
X114484561Y-156939123D01*
X114406311Y-156880704D01*
X114183466Y-156695952D01*
X114009282Y-156484182D01*
X113885846Y-156249856D01*
X113815246Y-155997434D01*
X113799569Y-155731377D01*
X113810964Y-155608575D01*
X113873050Y-155353793D01*
X113979977Y-155128801D01*
X114125111Y-154935817D01*
X114301822Y-154777061D01*
X114503478Y-154654750D01*
X114723446Y-154571105D01*
X114955094Y-154528344D01*
X115191791Y-154528687D01*
X115426905Y-154574352D01*
X115653804Y-154667559D01*
X115865856Y-154810527D01*
X115954364Y-154891383D01*
X116124111Y-155099007D01*
X116242301Y-155325895D01*
X116309722Y-155565433D01*
X116327160Y-155811007D01*
X116295402Y-156056003D01*
X116215235Y-156293808D01*
X116087445Y-156517807D01*
X115912820Y-156721387D01*
X115717688Y-156880704D01*
X115636409Y-156941602D01*
X115578991Y-156994015D01*
X115558322Y-157025406D01*
X115569144Y-157059639D01*
X115599923Y-157141419D01*
X115648126Y-157264407D01*
X115711222Y-157422263D01*
X115786678Y-157608649D01*
X115871962Y-157817226D01*
X115955781Y-158020496D01*
X116048255Y-158243933D01*
X116133911Y-158450984D01*
X116210118Y-158635286D01*
X116274247Y-158790475D01*
X116323668Y-158910188D01*
X116355752Y-158988061D01*
X116367641Y-159017138D01*
X116395726Y-159046677D01*
X116450051Y-159046591D01*
X116537605Y-159015326D01*
X116665381Y-158951329D01*
X116666392Y-158950785D01*
X116762598Y-158901121D01*
X116840369Y-158864945D01*
X116884223Y-158849408D01*
X116886158Y-158849264D01*
X116919171Y-158865024D01*
X116992054Y-158908850D01*
X117096678Y-158975557D01*
X117224910Y-159059964D01*
X117367052Y-159155816D01*
X117511767Y-159252867D01*
X117642196Y-159337270D01*
X117749890Y-159403801D01*
X117826402Y-159447238D01*
X117862938Y-159462368D01*
X117896582Y-159442482D01*
X117964224Y-159386903D01*
X118059107Y-159301754D01*
X118174470Y-159193153D01*
X118303555Y-159067221D01*
X118345771Y-159025149D01*
X118782261Y-158587931D01*
X118450023Y-158100340D01*
X118349054Y-157950605D01*
X118260438Y-157816220D01*
X118189146Y-157704969D01*
X118140150Y-157624639D01*
X118118422Y-157583014D01*
X118117785Y-157580053D01*
X118129240Y-157540818D01*
X118160051Y-157461895D01*
X118204884Y-157356509D01*
X118236353Y-157285954D01*
X118295192Y-157150876D01*
X118350604Y-157014409D01*
X118393564Y-156899103D01*
X118405234Y-156863977D01*
X118438389Y-156770174D01*
X118470799Y-156697694D01*
X118488601Y-156670301D01*
X118527886Y-156653536D01*
X118613626Y-156629770D01*
X118734697Y-156601697D01*
X118879973Y-156572009D01*
X118944988Y-156559806D01*
X119110087Y-156529468D01*
X119268448Y-156500093D01*
X119404596Y-156474569D01*
X119503057Y-156455785D01*
X119521598Y-156452160D01*
X119674873Y-156421906D01*
X119674873Y-155783645D01*
X119674529Y-155573770D01*
X119673116Y-155414980D01*
X119670064Y-155299973D01*
X119664803Y-155221446D01*
X119656763Y-155172096D01*
X119645373Y-155144619D01*
X119630063Y-155131713D01*
X119623782Y-155129320D01*
X119585896Y-155120833D01*
X119502195Y-155103900D01*
X119383433Y-155080566D01*
X119240361Y-155052875D01*
X119083732Y-155022873D01*
X118924297Y-154992604D01*
X118772809Y-154964115D01*
X118640019Y-154939449D01*
X118536681Y-154920651D01*
X118473545Y-154909767D01*
X118459497Y-154907885D01*
X118446770Y-154882704D01*
X118418600Y-154815622D01*
X118380252Y-154719333D01*
X118365609Y-154681621D01*
X118306548Y-154535921D01*
X118237000Y-154374951D01*
X118174712Y-154239291D01*
X118128879Y-154135561D01*
X118098387Y-154050326D01*
X118088208Y-153998126D01*
X118089831Y-153991130D01*
X118111343Y-153958102D01*
X118160465Y-153884643D01*
X118231923Y-153778577D01*
X118320445Y-153647726D01*
X118420759Y-153499912D01*
X118440594Y-153470734D01*
X118556988Y-153297863D01*
X118642548Y-153166226D01*
X118700684Y-153069761D01*
X118734808Y-153002408D01*
X118748331Y-152958106D01*
X118744664Y-152930794D01*
X118744570Y-152930620D01*
X118715707Y-152894746D01*
X118651867Y-152825391D01*
X118559969Y-152729745D01*
X118446933Y-152614999D01*
X118319679Y-152488341D01*
X118305328Y-152474205D01*
X118144957Y-152318903D01*
X118021195Y-152204870D01*
X117931555Y-152130002D01*
X117873552Y-152092196D01*
X117848004Y-152087317D01*
X117810718Y-152108603D01*
X117733343Y-152157773D01*
X117623867Y-152229575D01*
X117490280Y-152318755D01*
X117340570Y-152420063D01*
X117305618Y-152443897D01*
X116809390Y-152782765D01*
X116585293Y-152681056D01*
X116449011Y-152621783D01*
X116302724Y-152562170D01*
X116176965Y-152514640D01*
X116171425Y-152512685D01*
X116073057Y-152476677D01*
X115997229Y-152446229D01*
X115960282Y-152427905D01*
X115960220Y-152427852D01*
X115948496Y-152394729D01*
X115928568Y-152313267D01*
X115902413Y-152192625D01*
X115872010Y-152041959D01*
X115839337Y-151870428D01*
X115836664Y-151855967D01*
X115803890Y-151679235D01*
X115773802Y-151518810D01*
X115748339Y-151384888D01*
X115729441Y-151287663D01*
X115719047Y-151237332D01*
X115718865Y-151236563D01*
X115712539Y-151215153D01*
X115700239Y-151198988D01*
X115674594Y-151187331D01*
X115628235Y-151179445D01*
X115553792Y-151174593D01*
X115443895Y-151172039D01*
X115291175Y-151171045D01*
X115088262Y-151170874D01*
X115062000Y-151170874D01*
X114852986Y-151170998D01*
G37*
X114852986Y-151170998D02*
X114694994Y-151171863D01*
X114580653Y-151174205D01*
X114502593Y-151178762D01*
X114453446Y-151186270D01*
X114425841Y-151197466D01*
X114412408Y-151213088D01*
X114405779Y-151233873D01*
X114405135Y-151236563D01*
X114395065Y-151285113D01*
X114376425Y-151380905D01*
X114351155Y-151513743D01*
X114321193Y-151673431D01*
X114288478Y-151849774D01*
X114287336Y-151855967D01*
X114254567Y-152028782D01*
X114223907Y-152181469D01*
X114197336Y-152304871D01*
X114176833Y-152389831D01*
X114164374Y-152427190D01*
X114163780Y-152427852D01*
X114127081Y-152446095D01*
X114051414Y-152476497D01*
X113953122Y-152512493D01*
X113952575Y-152512685D01*
X113828767Y-152559222D01*
X113682804Y-152618504D01*
X113545219Y-152678109D01*
X113538707Y-152681056D01*
X113314610Y-152782765D01*
X112818381Y-152443897D01*
X112666154Y-152340592D01*
X112528259Y-152248237D01*
X112412685Y-152172084D01*
X112327421Y-152117385D01*
X112280456Y-152089393D01*
X112275996Y-152087317D01*
X112241866Y-152096560D01*
X112178119Y-152141156D01*
X112082269Y-152223209D01*
X111951831Y-152344821D01*
X111818672Y-152474205D01*
X111690306Y-152601702D01*
X111575419Y-152718046D01*
X111480927Y-152816052D01*
X111413747Y-152888536D01*
X111380794Y-152928313D01*
X111379568Y-152930361D01*
X111375926Y-152957656D01*
X111389650Y-153002234D01*
X111424131Y-153070112D01*
X111482761Y-153167311D01*
X111568930Y-153299851D01*
X111683800Y-153470476D01*
X111785746Y-153620655D01*
X111876877Y-153755350D01*
X111951927Y-153866740D01*
X112005631Y-153947005D01*
X112032720Y-153988325D01*
X112034426Y-153991130D01*
X112031118Y-154030721D01*
X112006047Y-154107669D01*
X111964202Y-154207432D01*
X111949288Y-154239291D01*
X111884214Y-154381226D01*
X111814788Y-154542273D01*
X111758391Y-154681621D01*
X111717753Y-154785044D01*
X111685474Y-154863642D01*
X111666822Y-154904720D01*
X111664503Y-154907885D01*
X111630197Y-154913128D01*
X111549331Y-154927494D01*
X111432657Y-154948937D01*
X111290925Y-154975413D01*
X111134890Y-155004877D01*
X110975302Y-155035283D01*
X110822915Y-155064588D01*
X110688479Y-155090745D01*
X110582748Y-155111710D01*
X110516474Y-155125439D01*
X110500218Y-155129320D01*
X110483427Y-155138900D01*
X110470751Y-155160536D01*
X110461622Y-155201531D01*
X110455469Y-155269189D01*
X110451720Y-155370812D01*
X110449808Y-155513703D01*
X110449160Y-155705165D01*
X110449126Y-155783645D01*
X110449126Y-156421906D01*
X110602402Y-156452160D01*
X110687678Y-156468564D01*
X110814930Y-156492509D01*
X110968685Y-156521107D01*
X111133466Y-156551467D01*
X111179011Y-156559806D01*
X111331068Y-156589370D01*
X111463532Y-156618442D01*
X111565286Y-156644329D01*
X111625212Y-156664337D01*
X111635195Y-156670301D01*
X111659707Y-156712534D01*
X111694852Y-156794370D01*
X111733827Y-156899683D01*
X111741558Y-156922368D01*
X111792640Y-157063018D01*
X111856046Y-157221714D01*
X111918096Y-157364225D01*
X111918402Y-157364886D01*
X112021733Y-157588440D01*
X111342039Y-158588232D01*
X111778379Y-159025300D01*
X111910351Y-159155381D01*
X112030721Y-159270048D01*
X112132727Y-159363181D01*
X112209609Y-159428658D01*
X112254607Y-159460357D01*
X112261062Y-159462368D01*
X112298960Y-159446529D01*
X112376292Y-159402496D01*
X112484611Y-159335490D01*
X112615468Y-159250734D01*
X112756948Y-159155816D01*
X112900539Y-159058998D01*
X113028565Y-158974751D01*
X113132895Y-158908258D01*
X113205400Y-158864702D01*
X113237842Y-158849264D01*
X113277424Y-158862328D01*
X113352481Y-158896750D01*
X113447532Y-158945380D01*
X113457608Y-158950785D01*
X113585609Y-159014980D01*
X113673382Y-159046463D01*
X113727972Y-159046798D01*
X113756425Y-159017548D01*
X113756590Y-159017138D01*
X113770812Y-158982498D01*
X113804731Y-158900269D01*
X113855716Y-158776814D01*
X113921138Y-158618498D01*
X113998366Y-158431686D01*
X114084771Y-158222742D01*
X114168449Y-158020446D01*
X114260412Y-157797200D01*
X114344850Y-157590392D01*
X114419231Y-157406362D01*
X114481026Y-157251451D01*
X114527703Y-157131996D01*
X114556732Y-157054339D01*
X114565678Y-157025356D01*
X114543244Y-156992110D01*
X114484561Y-156939123D01*
X114406311Y-156880704D01*
X114183466Y-156695952D01*
X114009282Y-156484182D01*
X113885846Y-156249856D01*
X113815246Y-155997434D01*
X113799569Y-155731377D01*
X113810964Y-155608575D01*
X113873050Y-155353793D01*
X113979977Y-155128801D01*
X114125111Y-154935817D01*
X114301822Y-154777061D01*
X114503478Y-154654750D01*
X114723446Y-154571105D01*
X114955094Y-154528344D01*
X115191791Y-154528687D01*
X115426905Y-154574352D01*
X115653804Y-154667559D01*
X115865856Y-154810527D01*
X115954364Y-154891383D01*
X116124111Y-155099007D01*
X116242301Y-155325895D01*
X116309722Y-155565433D01*
X116327160Y-155811007D01*
X116295402Y-156056003D01*
X116215235Y-156293808D01*
X116087445Y-156517807D01*
X115912820Y-156721387D01*
X115717688Y-156880704D01*
X115636409Y-156941602D01*
X115578991Y-156994015D01*
X115558322Y-157025406D01*
X115569144Y-157059639D01*
X115599923Y-157141419D01*
X115648126Y-157264407D01*
X115711222Y-157422263D01*
X115786678Y-157608649D01*
X115871962Y-157817226D01*
X115955781Y-158020496D01*
X116048255Y-158243933D01*
X116133911Y-158450984D01*
X116210118Y-158635286D01*
X116274247Y-158790475D01*
X116323668Y-158910188D01*
X116355752Y-158988061D01*
X116367641Y-159017138D01*
X116395726Y-159046677D01*
X116450051Y-159046591D01*
X116537605Y-159015326D01*
X116665381Y-158951329D01*
X116666392Y-158950785D01*
X116762598Y-158901121D01*
X116840369Y-158864945D01*
X116884223Y-158849408D01*
X116886158Y-158849264D01*
X116919171Y-158865024D01*
X116992054Y-158908850D01*
X117096678Y-158975557D01*
X117224910Y-159059964D01*
X117367052Y-159155816D01*
X117511767Y-159252867D01*
X117642196Y-159337270D01*
X117749890Y-159403801D01*
X117826402Y-159447238D01*
X117862938Y-159462368D01*
X117896582Y-159442482D01*
X117964224Y-159386903D01*
X118059107Y-159301754D01*
X118174470Y-159193153D01*
X118303555Y-159067221D01*
X118345771Y-159025149D01*
X118782261Y-158587931D01*
X118450023Y-158100340D01*
X118349054Y-157950605D01*
X118260438Y-157816220D01*
X118189146Y-157704969D01*
X118140150Y-157624639D01*
X118118422Y-157583014D01*
X118117785Y-157580053D01*
X118129240Y-157540818D01*
X118160051Y-157461895D01*
X118204884Y-157356509D01*
X118236353Y-157285954D01*
X118295192Y-157150876D01*
X118350604Y-157014409D01*
X118393564Y-156899103D01*
X118405234Y-156863977D01*
X118438389Y-156770174D01*
X118470799Y-156697694D01*
X118488601Y-156670301D01*
X118527886Y-156653536D01*
X118613626Y-156629770D01*
X118734697Y-156601697D01*
X118879973Y-156572009D01*
X118944988Y-156559806D01*
X119110087Y-156529468D01*
X119268448Y-156500093D01*
X119404596Y-156474569D01*
X119503057Y-156455785D01*
X119521598Y-156452160D01*
X119674873Y-156421906D01*
X119674873Y-155783645D01*
X119674529Y-155573770D01*
X119673116Y-155414980D01*
X119670064Y-155299973D01*
X119664803Y-155221446D01*
X119656763Y-155172096D01*
X119645373Y-155144619D01*
X119630063Y-155131713D01*
X119623782Y-155129320D01*
X119585896Y-155120833D01*
X119502195Y-155103900D01*
X119383433Y-155080566D01*
X119240361Y-155052875D01*
X119083732Y-155022873D01*
X118924297Y-154992604D01*
X118772809Y-154964115D01*
X118640019Y-154939449D01*
X118536681Y-154920651D01*
X118473545Y-154909767D01*
X118459497Y-154907885D01*
X118446770Y-154882704D01*
X118418600Y-154815622D01*
X118380252Y-154719333D01*
X118365609Y-154681621D01*
X118306548Y-154535921D01*
X118237000Y-154374951D01*
X118174712Y-154239291D01*
X118128879Y-154135561D01*
X118098387Y-154050326D01*
X118088208Y-153998126D01*
X118089831Y-153991130D01*
X118111343Y-153958102D01*
X118160465Y-153884643D01*
X118231923Y-153778577D01*
X118320445Y-153647726D01*
X118420759Y-153499912D01*
X118440594Y-153470734D01*
X118556988Y-153297863D01*
X118642548Y-153166226D01*
X118700684Y-153069761D01*
X118734808Y-153002408D01*
X118748331Y-152958106D01*
X118744664Y-152930794D01*
X118744570Y-152930620D01*
X118715707Y-152894746D01*
X118651867Y-152825391D01*
X118559969Y-152729745D01*
X118446933Y-152614999D01*
X118319679Y-152488341D01*
X118305328Y-152474205D01*
X118144957Y-152318903D01*
X118021195Y-152204870D01*
X117931555Y-152130002D01*
X117873552Y-152092196D01*
X117848004Y-152087317D01*
X117810718Y-152108603D01*
X117733343Y-152157773D01*
X117623867Y-152229575D01*
X117490280Y-152318755D01*
X117340570Y-152420063D01*
X117305618Y-152443897D01*
X116809390Y-152782765D01*
X116585293Y-152681056D01*
X116449011Y-152621783D01*
X116302724Y-152562170D01*
X116176965Y-152514640D01*
X116171425Y-152512685D01*
X116073057Y-152476677D01*
X115997229Y-152446229D01*
X115960282Y-152427905D01*
X115960220Y-152427852D01*
X115948496Y-152394729D01*
X115928568Y-152313267D01*
X115902413Y-152192625D01*
X115872010Y-152041959D01*
X115839337Y-151870428D01*
X115836664Y-151855967D01*
X115803890Y-151679235D01*
X115773802Y-151518810D01*
X115748339Y-151384888D01*
X115729441Y-151287663D01*
X115719047Y-151237332D01*
X115718865Y-151236563D01*
X115712539Y-151215153D01*
X115700239Y-151198988D01*
X115674594Y-151187331D01*
X115628235Y-151179445D01*
X115553792Y-151174593D01*
X115443895Y-151172039D01*
X115291175Y-151171045D01*
X115088262Y-151170874D01*
X115062000Y-151170874D01*
X114852986Y-151170998D01*
M02*
