G04 #@! TF.GenerationSoftware,KiCad,Pcbnew,5.1.7-a382d34a8~87~ubuntu18.04.1*
G04 #@! TF.CreationDate,2021-01-14T14:05:45+00:00*
G04 #@! TF.ProjectId,wf-panel,77662d70-616e-4656-9c2e-6b696361645f,rev?*
G04 #@! TF.SameCoordinates,Original*
G04 #@! TF.FileFunction,Copper,L1,Top*
G04 #@! TF.FilePolarity,Positive*
%FSLAX46Y46*%
G04 Gerber Fmt 4.6, Leading zero omitted, Abs format (unit mm)*
G04 Created by KiCad (PCBNEW 5.1.7-a382d34a8~87~ubuntu18.04.1) date 2021-01-14 14:05:45*
%MOMM*%
%LPD*%
G01*
G04 APERTURE LIST*
G04 #@! TA.AperFunction,NonConductor*
%ADD10C,0.500000*%
G04 #@! TD*
G04 #@! TA.AperFunction,NonConductor*
%ADD11C,0.375000*%
G04 #@! TD*
G04 APERTURE END LIST*
D10*
X112761904Y-134054761D02*
X112761904Y-132054761D01*
X113523809Y-132054761D01*
X113714285Y-132150000D01*
X113809523Y-132245238D01*
X113904761Y-132435714D01*
X113904761Y-132721428D01*
X113809523Y-132911904D01*
X113714285Y-133007142D01*
X113523809Y-133102380D01*
X112761904Y-133102380D01*
X114761904Y-132054761D02*
X114761904Y-133673809D01*
X114857142Y-133864285D01*
X114952380Y-133959523D01*
X115142857Y-134054761D01*
X115523809Y-134054761D01*
X115714285Y-133959523D01*
X115809523Y-133864285D01*
X115904761Y-133673809D01*
X115904761Y-132054761D01*
X117809523Y-134054761D02*
X116857142Y-134054761D01*
X116857142Y-132054761D01*
X118380952Y-133959523D02*
X118666666Y-134054761D01*
X119142857Y-134054761D01*
X119333333Y-133959523D01*
X119428571Y-133864285D01*
X119523809Y-133673809D01*
X119523809Y-133483333D01*
X119428571Y-133292857D01*
X119333333Y-133197619D01*
X119142857Y-133102380D01*
X118761904Y-133007142D01*
X118571428Y-132911904D01*
X118476190Y-132816666D01*
X118380952Y-132626190D01*
X118380952Y-132435714D01*
X118476190Y-132245238D01*
X118571428Y-132150000D01*
X118761904Y-132054761D01*
X119238095Y-132054761D01*
X119523809Y-132150000D01*
X120380952Y-133007142D02*
X121047619Y-133007142D01*
X121333333Y-134054761D02*
X120380952Y-134054761D01*
X120380952Y-132054761D01*
X121333333Y-132054761D01*
D11*
X113814285Y-103309523D02*
X114028571Y-103404761D01*
X114385714Y-103404761D01*
X114528571Y-103309523D01*
X114600000Y-103214285D01*
X114671428Y-103023809D01*
X114671428Y-102833333D01*
X114600000Y-102642857D01*
X114528571Y-102547619D01*
X114385714Y-102452380D01*
X114100000Y-102357142D01*
X113957142Y-102261904D01*
X113885714Y-102166666D01*
X113814285Y-101976190D01*
X113814285Y-101785714D01*
X113885714Y-101595238D01*
X113957142Y-101500000D01*
X114100000Y-101404761D01*
X114457142Y-101404761D01*
X114671428Y-101500000D01*
X115314285Y-103404761D02*
X115314285Y-101404761D01*
X115314285Y-102357142D02*
X116171428Y-102357142D01*
X116171428Y-103404761D02*
X116171428Y-101404761D01*
X116814285Y-102833333D02*
X117528571Y-102833333D01*
X116671428Y-103404761D02*
X117171428Y-101404761D01*
X117671428Y-103404761D01*
X118171428Y-103404761D02*
X118171428Y-101404761D01*
X118742857Y-101404761D01*
X118885714Y-101500000D01*
X118957142Y-101595238D01*
X119028571Y-101785714D01*
X119028571Y-102071428D01*
X118957142Y-102261904D01*
X118885714Y-102357142D01*
X118742857Y-102452380D01*
X118171428Y-102452380D01*
X119671428Y-102357142D02*
X120171428Y-102357142D01*
X120385714Y-103404761D02*
X119671428Y-103404761D01*
X119671428Y-101404761D01*
X120385714Y-101404761D01*
D10*
X115952380Y-89354761D02*
X115000000Y-89354761D01*
X115000000Y-87354761D01*
X116333333Y-87354761D02*
X117000000Y-89354761D01*
X117666666Y-87354761D01*
X119285714Y-89354761D02*
X118333333Y-89354761D01*
X118333333Y-87354761D01*
X115952380Y-75804761D02*
X115952380Y-73804761D01*
X116904761Y-75804761D02*
X116904761Y-73804761D01*
X118047619Y-75804761D01*
X118047619Y-73804761D01*
X114952380Y-145529761D02*
X116095238Y-145529761D01*
X115523809Y-147529761D02*
X115523809Y-145529761D01*
X117904761Y-147529761D02*
X117238095Y-146577380D01*
X116761904Y-147529761D02*
X116761904Y-145529761D01*
X117523809Y-145529761D01*
X117714285Y-145625000D01*
X117809523Y-145720238D01*
X117904761Y-145910714D01*
X117904761Y-146196428D01*
X117809523Y-146386904D01*
X117714285Y-146482142D01*
X117523809Y-146577380D01*
X116761904Y-146577380D01*
X118761904Y-147529761D02*
X118761904Y-145529761D01*
X113646428Y-40484523D02*
X114598809Y-44484523D01*
X115360714Y-41627380D01*
X116122619Y-44484523D01*
X117075000Y-40484523D01*
X119932142Y-42389285D02*
X118598809Y-42389285D01*
X118598809Y-44484523D02*
X118598809Y-40484523D01*
X120503571Y-40484523D01*
M02*
